<?xml version="1.0" encoding="UTF-8"?><svg id="Layer_1" xmlns="http://www.w3.org/2000/svg" width="98.9" height="22.4" viewBox="0 0 98.9 22.4"><defs><style>.cls-1{fill:#b2b2b2;}.cls-2{fill:#eee;}</style></defs><path class="cls-2" d="m0,15.5c0-.8.4-1.5,1.1-1.9C5.6,10.7,24.5,0,52.6,0s41.1,5.9,45.1,8c.8.4,1.2,1.2,1.2,2,0,0-9.8-2.9-47.5-2.9-37.8,0-51.4,8.4-51.4,8.4Z"/><path class="cls-1" d="m0,22.4h0v-6.9S13.7,7.1,51.4,7.1s47.5,2.9,47.5,2.9v11h0c-7.7-1.3-21.2-2.6-44.1-2.6-28.5,0-45.9,2.3-54.8,4Z"/></svg>