<?xml version="1.0" encoding="UTF-8"?><svg id="Layer_1" xmlns="http://www.w3.org/2000/svg" width="282" height="146.7" xmlns:xlink="http://www.w3.org/1999/xlink" viewBox="0 0 282 146.7"><defs><style>.cls-1{fill:#40aad3;}.cls-2{opacity:.5;}.cls-3{fill:#fff5f4;}.cls-4{fill:none;}.cls-5{fill:#b3b3b3;}.cls-6{opacity:.25;}.cls-7{fill:url(#SVGID_1_);}</style><pattern id="SVGID_1_" x="0" y="0" width="71" height="71" patternTransform="translate(-1.24 -2.31) scale(.1 -.1)" patternUnits="userSpaceOnUse" viewBox="0 0 71 71"><g><rect class="cls-4" width="71" height="71"/><g><rect class="cls-4" width="71" height="71"/><g><rect class="cls-4" width="71" height="71"/><g><polygon class="cls-4" points="0 71 71 71 71 0 0 0 0 71"/><path class="cls-5" d="M41.8,35.5c0-3.5-2.8-6.3-6.3-6.3s-6.3,2.8-6.3,6.3,2.8,6.3,6.3,6.3,6.3-2.8,6.3-6.3Z"/></g></g></g></g></pattern></defs><g><path class="cls-1" d="M282,2.5l-3,22.1-14.6,106.5v.8c-.1,1.3-.3,2.6-.7,3.8,0,.1-.1,.3-.1,.4-2.1,6.1-7.9,10.6-14.8,10.6H33.2c-7.1,0-13.2-4.8-15-11.4,0-.1-.1-.3-.1-.4-.1-.2-.1-.4-.2-.7-.2-1-.3-2.1-.3-3.1l-.7-5L3,24.6,0,2.5C0,1.5,.8,.6,1.9,.6L141,0l139.1,.6c1.1,0,1.9,.9,1.9,1.9Z"/><g class="cls-2"><path class="cls-7" d="M279,24.6l-14.6,106.5v.8c-.1,1.3-.3,2.6-.7,3.8,0,.1-.1,.3-.1,.4-2.1,5.2-8.9,10.6-30.4,10.6H33.2c-7.1,0-13.2-4.8-15-11.4,0-.1-.1-.3-.1-.4-.1-.2-.1-.4-.2-.7-.2-1-.3-2.1-.3-3.1l-.7-5L3,24.6H279Z"/></g></g><g class="cls-6"><path d="M35.6,96.6v-32.5h-11.7v-7.5h31.9v7.5h-11.6v32.5h-8.6Z"/><path d="M85.5,96.6l-2.5-6.9h-17.9l-2.5,6.9h-9.4v-3.7l15.5-36.3h10.7l15.4,36.3v3.7h-9.3Zm-11.5-32.6l-6.7,18.4h13.3l-6.6-18.4Z"/><path d="M126.1,96.6l-19.1-26.9v26.9h-8.5V56.6h8.8l18.5,25.9v-25.9h8.5v40h-8.2Z"/><path d="M142.2,96.6V56.6h15.8c12.1,0,20.7,4.9,21.2,16.3v3.7c0,12.1-8.7,20-21.2,20h-15.8Zm8.6-7.5h7.3c7.9,0,12.5-5.7,12.5-12.5s-4.3-12.5-12.5-12.5h-7.3v25Z"/><path d="M185.3,96.6V56.6h28.3v7.3h-19.8v8.7h19.4v7.3h-19.4v9.3h19.8v7.4h-28.3Z"/><path d="M242.9,96.6l-7.9-14.3h-6.2v14.3h-8.5V56.6h18.7c7.8,0,12.8,2.4,13.4,9.2v3.7c0,7.1-4.4,10.9-8.8,11.9l9,11.5v3.7h-9.7Zm-5.2-32.7h-8.9v11h8.9c3.4,0,6-2.2,6-5.5s-2.5-5.5-6-5.5Z"/></g><g><path class="cls-3" d="M35.6,92.9V60.4h-11.7v-7.5h31.9v7.5h-11.6v32.5h-8.6Z"/><path class="cls-3" d="M85.5,92.9l-2.5-6.9h-17.9l-2.5,6.9h-9.4l15.5-40h10.7l15.4,40h-9.3Zm-11.5-32.7l-6.7,18.4h13.3l-6.6-18.4Z"/><path class="cls-3" d="M126.1,92.9l-19.1-26.9v26.9h-8.5V52.9h8.8l18.5,25.9v-25.9h8.5v40h-8.2Z"/><path class="cls-3" d="M142.2,92.9V52.9h15.8c12.5,0,21.2,8,21.2,20s-8.7,20-21.2,20h-15.8Zm8.6-7.5h7.3c7.9,0,12.5-5.7,12.5-12.5s-4.3-12.5-12.5-12.5h-7.3v25Z"/><path class="cls-3" d="M185.3,92.9V52.9h28.3v7.3h-19.8v8.7h19.4v7.3h-19.4v9.3h19.8v7.4h-28.3Z"/><path class="cls-3" d="M242.9,92.9l-7.9-14.4h-6.2v14.3h-8.5V52.8h18.7c8.3,0,13.4,5.5,13.4,12.9s-4.4,10.9-8.8,11.9l9,15.2h-9.7v.1Zm-5.2-32.7h-8.9v11h8.9c3.4,0,6-2.2,6-5.5s-2.5-5.5-6-5.5Z"/></g></svg>