<?xml version="1.0" encoding="utf-8"?>
<svg viewBox="0 0 806.2 599" width="806.2px" height="599px" style="enable-background:new 0 0 806.2 599;" xmlns="http://www.w3.org/2000/svg" xmlns:xlink="http://www.w3.org/1999/xlink">
  <defs>
    <style type="text/css">
	.st0{fill:none;}
	.st1{fill:#FFFFFF;}
	.st2{fill:#B3B3B3;}
	.st3{fill:#FEF2F4;}
	.st4{fill:#F3939D;}
	.st5{fill:#F7BCC0;}
	.st6{fill:#824948;}
	.st7{fill:#CFCFCF;}
	.st8{fill:#FAD7DA;}
	.st9{fill:#121212;}
	.st10{fill:#080808;}
	.st11{opacity:0.12;}
	.st12{fill:url(#SVGID_00000105408132977911497760000001745835555660566962_);}
	.st13{fill:#1F1F1F;}
	.st14{fill:#B66E76;}
	.st15{fill:#2C2C2C;}
	.st16{fill:#FF6666;}
	.st17{fill:#7CB2E8;}
	.st18{fill:#FF69F8;}
	.st19{fill:#40E2A0;}
	.st20{fill:#F2F2F2;}
	.st21{opacity:0.1;fill:#E6E6E6;enable-background:new    ;}
	.st22{opacity:8.000000e-02;fill:url(#SVGID_00000042012468159277203150000000133083835904511392_);enable-background:new    ;}
	.st23{opacity:0.22;enable-background:new    ;}
	.st24{opacity:8.000000e-02;fill:url(#SVGID_00000012437445231005401380000017397271536401879219_);enable-background:new    ;}
	.st25{opacity:0.25;enable-background:new    ;}
	.st26{opacity:0.2;}
	.st27{fill:url(#SVGID_00000075884126098814989100000014575734084736626869_);}
	.st28{opacity:0.5;}
	.st29{opacity:0.25;}
</style>
  </defs>
  <pattern y="599" width="71" height="71" patternUnits="userSpaceOnUse" id="SVGID_1_" viewBox="0 -71 71 71" style="overflow:visible;">
    <g>
      <rect y="-71" class="st0" width="71" height="71"/>
      <g>
        <rect y="-71" class="st0" width="71" height="71"/>
        <g>
          <rect y="-71" class="st0" width="71" height="71"/>
          <g>
            <polygon class="st0" points="0,-71 71,-71 71,0 0,0 &#9;&#9;&#9;&#9;&#9;"/>
            <g>
              <polygon class="st0" points="0,-71 71,-71 71,0 0,0 &#9;&#9;&#9;&#9;&#9;&#9;"/>
              <path class="st2" d="M41.8-35.5c0,3.5-2.8,6.3-6.3,6.3s-6.3-2.8-6.3-6.3s2.8-6.3,6.3-6.3S41.8-39,41.8-35.5z"/>
            </g>
          </g>
        </g>
      </g>
    </g>
  </pattern>
  <pattern y="599" width="71" height="71" patternUnits="userSpaceOnUse" id="SVGID_0000018249070813379013382" viewBox="0 -71 71 71" style="overflow:visible;">
    <g>
      <rect y="-71" class="st0" width="71" height="71"/>
      <g>
        <rect y="-71" class="st0" width="71" height="71"/>
        <g>
          <rect y="-71" class="st0" width="71" height="71"/>
          <g>
            <polygon class="st0" points="0,-71 71,-71 71,0 0,0 &#9;&#9;&#9;&#9;&#9;"/>
            <g>
              <polygon class="st0" points="0,-71 71,-71 71,0 0,0 &#9;&#9;&#9;&#9;&#9;&#9;"/>
              <path class="st1" d="M41.8-35.5c0,3.5-2.8,6.3-6.3,6.3s-6.3-2.8-6.3-6.3s2.8-6.3,6.3-6.3S41.8-39,41.8-35.5z"/>
            </g>
          </g>
        </g>
      </g>
    </g>
  </pattern>
  <g id="Layer_1_00000119104105701998245230000007290185088555981725_">
    <g style="">
      <g style="">
        <path class="st3" d="M806,508.8c0,0-4.5,53.4-36.2,74.9s-56.7,14-56.7,14s-33.1-8.1-57.8-41.9c-3.7-5.1-7.7-11.6-11.6-19.1 c-4.9-9.2-9.8-19.8-14.6-30.6c-16.5-38-30.4-79.5-30.4-79.5s-2-2.7-5.1-4.9c-0.2-0.1-0.4-0.2-0.6-0.4c-3.5-2.3-6.3-2.6-6.3-2.6 H343.2L241,418.6h-21.7c0,0-2.8,0.3-6.3,2.6c-0.2,0.1-0.4,0.2-0.6,0.4c-3.2,2.2-5.1,4.9-5.1,4.9s-12.8,38.2-28.4,74.8 c-4.8,11.2-9.9,22.3-14.9,32.1c-4.5,8.7-9,16.4-13.3,22.2c-24.7,33.7-57.8,41.9-57.8,41.9s-25,7.5-56.7-14 C4.5,562.2,0,508.8,0,508.8s0.3-51.6,3.3-79.9c0.4-3.9,0.9-7.4,1.4-10.2c0.4-2,1-5.4,1.7-9.6c0.9-5.1,2.1-11.6,3.5-19 c0.1-0.2,0.1-0.5,0.1-0.8c0.4-1.9,0.8-3.9,1.1-5.9c0-0.1,0-0.2,0.1-0.3c6.3-33.5,16-81.2,25.5-109.1c9.3-27.7,13-53,17-64.9 c12-35.7,33-65.7,33-65.7s9.5-13,10.1-16.3s4.7-8.6,4.7-8.6s17.5-5.7,62.3-5.7s53.7,5,53.7,5s2.4,3,5.9,4.8 c3.5,1.9,11.7,1.7,11.7,1.7h33.4c0,0,0.5-0.1,0.9,0.3c0.3,0.3,0.6,2,0.6,2h266.1c0,0,0.2-1.6,0.6-2c0.3-0.4,0.9-0.3,0.9-0.3H571 c0,0,8.2,0.1,11.7-1.7c3.5-1.9,5.9-4.8,5.9-4.8s8.8-5,53.7-5s62.3,5.7,62.3,5.7s4.1,5.3,4.7,8.6c0.6,3.2,10.1,16.3,10.1,16.3 s21,30,33,65.7c3.9,11.9,7.6,37.2,17,64.9c8,23.6,16.3,61.5,22.4,92.9c1,5,1.9,9.9,2.8,14.4c0.6,3,1.1,5.9,1.6,8.7 c0,0.1,0,0.1,0,0.2c0.4,2.3,0.8,4.6,1.2,6.7c1.3,6.8,2.3,12.5,3,16.7c0.4,2.1,0.7,3.7,0.9,4.9C805.8,441.8,806,508.8,806,508.8 L806,508.8z" style="fill: rgb(0, 0, 0);"/>
        <path class="st7" d="M36.7,276c9.4-27.7,13.1-53,17-64.9c12-35.7,33-65.7,33-65.7s9.5-13.1,10.1-16.3c0.6-3.3,4.7-8.6,4.7-8.6 s17.4-5.7,62.3-5.7s53.7,5,53.7,5s2.4,2.9,5.9,4.8c3.5,1.8,11.7,1.7,11.7,1.7h33.4c0,0,0.6-0.1,0.9,0.3c0.4,0.4,0.6,2,0.6,2 h266.2c0,0,0.3-1.7,0.6-2c0.4-0.4,0.9-0.3,0.9-0.3h33.4c0,0,8.2,0.2,11.7-1.7c3.5-1.8,5.9-4.8,5.9-4.8s8.8-5,53.7-5 s62.3,5.7,62.3,5.7s4.1,5.3,4.7,8.6c0.6,3.3,10.1,16.3,10.1,16.3s21,30,33,65.7c4,11.9,7.7,37.2,17,64.9 c14.3,42.1,29.1,129.1,32,144.6c3.9,20.9,4.6,77.3,4.7,88.3v-0.1c0,0-0.3-66.9-4.7-90.1c-2.9-15.5-17.7-102.5-32-144.6 c-9.4-27.7-13.1-53-17-64.9c-12-35.7-33-65.7-33-65.7s-9.5-13.1-10.1-16.3c-0.6-3.3-4.7-8.6-4.7-8.6s-17.4-5.7-62.3-5.7 s-53.7,5-53.7,5s-2.4,2.9-5.9,4.8c-3.5,1.8-11.7,1.7-11.7,1.7h-33.4c0,0-0.6-0.1-0.9,0.3c-0.4,0.4-0.6,2-0.6,2H270 c0,0-0.3-1.7-0.6-2c-0.4-0.4-0.9-0.3-0.9-0.3h-33.4c0,0-8.2,0.2-11.7-1.7c-3.5-1.8-5.9-4.8-5.9-4.8s-8.8-5-53.7-5 s-62.3,5.7-62.3,5.7s-4.1,5.3-4.7,8.6c-0.6,3.3-10.1,16.3-10.1,16.3s-21,30-33,65.7c-4,11.9-7.7,37.2-17,64.9 c-14.3,42.1-29.1,129.1-32,144.6C0.4,441.9,0,508.8,0,508.8v0.1c0.1-10.9,0.7-67.4,4.7-88.3C7.7,405.2,22.4,318.1,36.7,276 L36.7,276z"/>
        <path class="st8" d="M351.2,362c0.1,0.7,0.1,1.3,0.1,2c0,42.2-34.3,76.5-76.5,76.5s-76.5-34.3-76.5-76.5c0-0.7,0.1-1.3,0.1-2 c-0.1-0.4-0.1-0.8-0.1-1.2c0-0.2,0-0.5,0-0.8c0-1.6,0.1-3.3,0.2-4.9c0-0.7,0.1-1.5,0.2-2.2c1-10.8,4.2-20.9,9.2-29.9 c13.1-23.5,38.2-39.5,66.9-39.5c42.2,0,76.5,34.3,76.5,76.5C351.3,360.6,351.2,361.3,351.2,362L351.2,362z" style="fill: rgb(0, 0, 0);"/>
        <path class="st3" d="M347.8,356c0,40.3-32.7,73-73,73c-37.1,0-67.8-27.7-72.4-63.6c-0.4-3.1-0.6-6.2-0.6-9.4 c0-11.2,2.5-21.8,7-31.3c11.7-24.7,36.8-41.7,66-41.7C315.1,283,347.8,315.7,347.8,356z" style="fill: rgb(17, 17, 17);"/>
        <circle cx="274.8" cy="356" r="51.5"/>
        <path class="st8" d="M607.8,362c0.1,0.7,0.1,1.3,0.1,2c0,2.2-0.1,4.5-0.3,6.6c-0.6,6.6-2,13-4.1,19c-0.2,0.6-0.4,1.2-0.7,1.8 c-0.1,0.2-0.1,0.4-0.2,0.5c-0.1,0.1-0.1,0.3-0.2,0.5c-2.3,5.8-5.3,11.2-8.9,16.2c-13.9,19.3-36.6,31.9-62.1,31.9 c-42.2,0-76.5-34.3-76.5-76.5c0-0.7,0.1-1.3,0.1-2c-0.1-0.7-0.1-1.3-0.1-2c0-42.2,34.3-76.5,76.5-76.5s76.5,34.3,76.5,76.5 C607.9,360.6,607.9,361.3,607.8,362L607.8,362z" style="fill: rgb(0, 0, 0);"/>
        <circle class="st3" cx="531.4" cy="356" r="73" style="fill: rgb(17, 17, 17);"/>
        <circle cx="531.4" cy="356" r="51.5"/>
        <path class="st9" d="M534.9,128c-0.4-3.2-3.3-5.6-6.5-5.6H277.8c-3.2,0-6.1,2.3-6.5,5.6c-0.1,0.7-0.1,1.4-0.1,2.1v127.4 c0,8.9,7.2,16.1,16.1,16.1h231.6c8.9,0,16.1-7.2,16.1-16.1V130.1C535.1,129.4,535,128.7,534.9,128z"/>
        <g>
          <path class="st10" d="M530.5,124.3c0-1-0.8-1.9-1.9-1.9H277.5c-1,0-1.9,0.8-1.9,1.9v129.2c0,8.6,7,15.6,15.6,15.6H515 c8.6,0,15.6-7,15.6-15.6V130.4C530.6,130.4,530.5,124.3,530.5,124.3z"/>
          <g class="st11">
            <pattern id="SVGID_00000134951400248841879190000003549157728222712999_" patternTransform="matrix(0.1 0 0 0.1 -35972.1797 -3791.6929)" class="st11" xlink:href="#SVGID_1_"/>
            <path style="fill:url(#SVGID_00000134951400248841879190000003549157728222712999_);" d="M275.6,253.5c0,8.6,7,15.6,15.6,15.6 H515c8.6,0,15.6-7,15.6-15.6V147H275.7L275.6,253.5L275.6,253.5L275.6,253.5z"/>
          </g>
        </g>
        <circle class="st10" cx="652.4" cy="244.8" r="94.3" style="fill: rgb(17, 17, 17);"/>
        <path class="st10" d="M248.1,244.8c0,32.2-16.1,60.6-40.7,77.6c-4.4,3.1-9.1,5.8-14,8c-2.5,1.2-5.1,2.2-7.8,3.2 c-8.2,2.9-16.9,4.8-26,5.3c-0.3,0-0.6,0-0.9,0.1c-1.6,0.1-3.2,0.1-4.8,0.1c-6.8,0-13.4-0.7-19.8-2.1c-2.4-0.5-4.7-1.1-6.9-1.8 c-0.8-0.2-1.7-0.5-2.5-0.8c-2.5-0.8-5-1.7-7.4-2.8c-2.6-1.1-5.1-2.3-7.5-3.6c-2.7-1.4-5.3-3-7.9-4.7c-3.1-2-6.1-4.3-8.9-6.7 c-20.4-17.3-33.4-43.1-33.4-72c0-52.1,42.2-94.3,94.3-94.3S248.1,192.7,248.1,244.8L248.1,244.8z" style="fill: rgb(17, 17, 17);"/>
        <g>
          <path class="st13" d="M230.5,254.1l9.5-8.9c0.5-0.5,0.5-1.2,0-1.7l-9.5-8.9c-0.7-0.7-1.9-0.2-1.9,0.8v17.8 C228.5,254.2,229.7,254.7,230.5,254.1L230.5,254.1z"/>
          <path class="st13" d="M145.1,169.8h17.8c1,0,1.5-1.2,0.8-1.9l-8.9-9.5c-0.5-0.5-1.2-0.5-1.7,0l-8.9,9.5 C143.6,168.6,144.1,169.8,145.1,169.8L145.1,169.8z"/>
          <path class="st13" d="M77.6,234.6l-9.5,8.9c-0.5,0.5-0.5,1.2,0,1.7l9.5,8.9c0.7,0.7,1.9,0.2,1.9-0.8v-17.8 C79.5,234.5,78.3,233.9,77.6,234.6L77.6,234.6z"/>
          <path class="st13" d="M162.9,318.8h-17.8c-1,0-1.5,1.2-0.8,1.9l8.9,9.5c0.5,0.5,1.2,0.5,1.7,0l8.9-9.5 C164.4,320,163.9,318.8,162.9,318.8L162.9,318.8z"/>
        </g>
      </g>
      <g style="">
        <g>
          <path class="st6" d="M547.7,134.6c0,2.1-1.5,3.8-4.1,3.8s-4.1-1.7-4.1-3.8s1.5-3.8,4.1-3.8S547.7,132.5,547.7,134.6z M541,134.6 c0,1.4,0.8,2.7,2.6,2.7s2.6-1.4,2.6-2.7c0-1.4-0.8-2.7-2.6-2.7S541,133.2,541,134.6z" style="fill: rgb(255, 255, 255);"/>
          <path class="st6" d="M549,131h3.8c2.4,0,2.9,1.3,2.9,2.2s-0.5,2.2-2.9,2.2h-2.3v2.8H549V131z M550.5,134.4h2.2 c0.7,0,1.5-0.3,1.5-1.2s-0.7-1.2-1.5-1.2h-2.2V134.4z" style="fill: rgb(255, 255, 255);"/>
          <path class="st6" d="M556.2,131h6.9v1.1h-2.7v6.1h-1.5v-6.1h-2.7V131z" style="fill: rgb(255, 255, 255);"/>
          <path class="st6" d="M564.2,131h1.5v7.2h-1.5V131z" style="fill: rgb(255, 255, 255);"/>
          <path class="st6" d="M575.2,134.6c0,2.1-1.5,3.8-4.1,3.8s-4.1-1.7-4.1-3.8s1.5-3.8,4.1-3.8S575.2,132.5,575.2,134.6z M568.5,134.6c0,1.4,0.8,2.7,2.6,2.7s2.6-1.4,2.6-2.7c0-1.4-0.8-2.7-2.6-2.7S568.5,133.2,568.5,134.6z" style="fill: rgb(255, 255, 255);"/>
          <path class="st6" d="M576.6,131h1.5l3.9,5.3l0,0V131h1.4v7.2h-1.6l-3.9-5.3l0,0v5.3h-1.4L576.6,131L576.6,131z" style="fill: rgb(255, 255, 255);"/>
          <path class="st6" d="M586.3,135.8c0,1.1,1,1.5,2.2,1.5c1.3,0,1.8-0.6,1.8-1.1c0-0.6-0.4-0.8-0.7-0.9c-0.6-0.2-1.4-0.3-2.6-0.6 c-1.5-0.3-1.9-1.1-1.9-1.8c0-1.5,1.6-2.1,3.1-2.1c1.8,0,3.3,0.8,3.3,2.3H590c-0.1-0.9-0.8-1.3-1.8-1.3c-0.7,0-1.6,0.2-1.6,0.9 c0,0.5,0.4,0.8,1,0.9c0.1,0,2,0.4,2.5,0.6c1.1,0.3,1.7,1.1,1.7,1.8c0,1.6-1.7,2.3-3.4,2.3c-2,0-3.5-0.8-3.6-2.6h1.5V135.8 L586.3,135.8z" style="fill: rgb(255, 255, 255);"/>
        </g>
        <g>
          <path class="st6" d="M222.3,135.8c0,1.1,1,1.5,2.2,1.5c1.3,0,1.8-0.6,1.8-1.1c0-0.6-0.4-0.8-0.7-0.9c-0.6-0.2-1.4-0.3-2.6-0.6 c-1.5-0.3-1.9-1.1-1.9-1.8c0-1.5,1.6-2.1,3.1-2.1c1.8,0,3.3,0.8,3.3,2.3H226c-0.1-0.9-0.8-1.3-1.8-1.3c-0.7,0-1.6,0.2-1.6,0.9 c0,0.5,0.4,0.8,1,0.9c0.1,0,2,0.4,2.5,0.6c1.1,0.3,1.7,1.1,1.7,1.8c0,1.6-1.7,2.3-3.4,2.3c-2,0-3.5-0.8-3.6-2.6h1.5V135.8 L222.3,135.8z" style="fill: rgb(255, 255, 255);"/>
          <path class="st6" d="M229,131h1.5v2.9h3.9V131h1.5v7.2h-1.5v-3.3h-3.9v3.2H229V131L229,131z" style="fill: rgb(255, 255, 255);"/>
          <path class="st6" d="M240,131h1.6l3.3,7.2h-1.6l-0.8-1.9h-3.4l-0.8,1.9h-1.5L240,131z M239.5,135.3h2.6l-1.3-3.1l0,0 L239.5,135.3z" style="fill: rgb(255, 255, 255);"/>
          <path class="st6" d="M245.7,131h4.1c1.9,0,2.8,0.7,2.8,1.9c0,1.4-1.1,1.7-1.4,1.8l0,0c0.5,0.1,1.3,0.4,1.3,1.5 c0,0.8,0.1,1.6,0.5,1.9h-1.6c-0.2-0.3-0.2-0.7-0.2-1.1c0-1.3-0.3-1.9-1.7-1.9h-2.2v3h-1.5L245.7,131L245.7,131L245.7,131z M247.2,134.2h2.5c1,0,1.5-0.4,1.5-1.1c0-0.9-0.7-1.1-1.5-1.1h-2.4v2.2L247.2,134.2L247.2,134.2z" style="fill: rgb(255, 255, 255);"/>
          <path class="st6" d="M254.2,131h6.2v1.1h-4.7v1.9h4.3v1h-4.3v2.1h4.7v1.1h-6.2V131L254.2,131L254.2,131z" style="fill: rgb(255, 255, 255);"/>
        </g>
      </g>
      <g style="">
        <g>
          <path class="st14" d="M697.3,109.9c0-0.8-0.4-1.5-1.1-1.9c-4.5-2.9-23.4-13.6-51.5-13.6s-41.1,5.9-45.1,8 c-0.8,0.4-1.2,1.2-1.2,2c0,0,9.8-2.9,47.5-2.9S697.3,109.9,697.3,109.9L697.3,109.9z" style="fill: rgb(24, 24, 24);"/>
          <path class="st4" d="M697.2,116.8L697.2,116.8v-6.9c0,0-13.7-8.4-51.4-8.4s-47.5,2.9-47.5,2.9v11l0,0c7.7-1.3,21.2-2.6,44.1-2.6 C670.9,112.9,688.3,115.2,697.2,116.8L697.2,116.8z" style="fill: rgb(40, 40, 40);"/>
        </g>
        <g>
          <path class="st14" d="M108.9,109.9c0-0.8,0.4-1.5,1.1-1.9c4.5-2.9,23.4-13.6,51.5-13.6s41.1,5.9,45.1,8c0.8,0.4,1.2,1.2,1.2,2 c0,0-9.8-2.9-47.5-2.9S108.9,109.9,108.9,109.9z" style="fill: rgb(24, 24, 24);"/>
          <path class="st4" d="M109,116.8L109,116.8v-6.9c0,0,13.7-8.4,51.4-8.4s47.5,2.9,47.5,2.9v11l0,0c-7.7-1.3-21.2-2.6-44.1-2.6 C135.3,112.9,117.9,115.2,109,116.8L109,116.8z" style="fill: rgb(40, 40, 40);"/>
        </g>
      </g>
      <g style="">
        <g>
          <g>
            <path class="st15" d="M710,271c-14.5,0-26.3-11.8-26.3-26.3s11.8-26.3,26.3-26.3s26.3,11.8,26.3,26.3 C736.3,259.2,724.5,271,710,271z"/>
            <path class="st16" d="M710,219.5c13.9,0,25.3,11.3,25.3,25.3c0,14-11.3,25.3-25.3,25.3s-25.3-11.3-25.3-25.3 S696.1,219.5,710,219.5 M710,217.5c-15,0-27.3,12.2-27.3,27.3c0,15.1,12.2,27.3,27.3,27.3s27.3-12.2,27.3-27.3 S725,217.5,710,217.5L710,217.5z" style="fill: rgb(255, 255, 255);"/>
          </g>
          <path class="st16" d="M710,225.9c-10.4,0-18.9,8.5-18.9,18.9s8.5,18.9,18.9,18.9s18.9-8.5,18.9-18.9S720.5,225.9,710,225.9z M710,260.8c-8.9,0-16-7.2-16-16s7.2-16,16-16s16,7.2,16,16C726.1,253.7,718.9,260.8,710,260.8z" style="fill: rgb(255, 255, 255);"/>
        </g>
        <g>
          <g>
            <path class="st15" d="M652.4,328.6c-14.5,0-26.3-11.8-26.3-26.3s11.8-26.3,26.3-26.3s26.3,11.8,26.3,26.3 S666.9,328.6,652.4,328.6z"/>
            <path class="st17" d="M652.4,277.1c13.9,0,25.3,11.3,25.3,25.3s-11.3,25.3-25.3,25.3s-25.3-11.3-25.3-25.3 S638.5,277.1,652.4,277.1 M652.4,275.1c-15,0-27.3,12.2-27.3,27.3s12.2,27.3,27.3,27.3s27.3-12.2,27.3-27.3 S667.5,275.1,652.4,275.1L652.4,275.1z" style="fill: rgb(255, 255, 255);"/>
          </g>
          <polygon class="st17" points="666.8,290 664.8,288 652.4,300.4 640.1,288 638.1,290 650.4,302.4 638.1,314.7 640.1,316.8 &#10;&#9;&#9;&#9;&#9;&#9;652.4,304.4 664.8,316.8 666.8,314.7 654.4,302.4 &#9;&#9;&#9;&#9;" style="fill: rgb(255, 255, 255);"/>
        </g>
        <g>
          <g>
            <path class="st15" d="M594.9,271c-14.5,0-26.3-11.8-26.3-26.3s11.8-26.3,26.3-26.3s26.2,11.9,26.2,26.4S609.3,271,594.9,271z"/>
            <path class="st18" d="M594.8,219.5c13.9,0,25.3,11.3,25.3,25.3c0,14-11.3,25.3-25.3,25.3s-25.3-11.3-25.3-25.3 S580.9,219.5,594.8,219.5 M594.8,217.5c-15,0-27.3,12.2-27.3,27.3c0,15.1,12.2,27.3,27.3,27.3s27.3-12.3,27.3-27.3 S609.9,217.5,594.8,217.5L594.8,217.5z" style="fill: rgb(255, 255, 255);"/>
          </g>
          <path class="st18" d="M606.4,230.4h-25.8V259h28.6v-28.6H606.4z M606.4,256.3h-23v-23h23V256.3z" style="fill: rgb(255, 255, 255);"/>
        </g>
        <g>
          <g>
            <path class="st15" d="M652.4,213.5c-14.5,0-26.3-11.8-26.3-26.3s11.8-26.3,26.3-26.3s26.3,11.8,26.3,26.3 S666.9,213.5,652.4,213.5z"/>
            <path class="st19" d="M652.4,162c13.9,0,25.3,11.3,25.3,25.3s-11.3,25.3-25.3,25.3s-25.3-11.3-25.3-25.3S638.5,162,652.4,162 M652.4,160c-15,0-27.3,12.2-27.3,27.3s12.2,27.3,27.3,27.3s27.3-12.2,27.3-27.3S667.5,160,652.4,160L652.4,160z" style="fill: rgb(255, 255, 255);"/>
          </g>
          <path class="st19" d="M668.4,195.2l-16-27.6l-16,27.6l-1.6,2.8H670L668.4,195.2L668.4,195.2z M652.4,195.2h-12.7l12.7-21.9 l12.7,21.9H652.4z" style="fill: rgb(255, 255, 255);"/>
        </g>
      </g>
      <g style="">
        <g>
          <circle cx="404.5" cy="316.4" r="4.1"/>
          <circle cx="404.5" cy="295.5" r="4.1"/>
          <circle cx="397.6" cy="305.7" r="4.1"/>
          <circle cx="382.9" cy="305.7" r="4.1"/>
          <circle cx="390.2" cy="316.4" r="4.1"/>
          <circle cx="390.2" cy="295.5" r="4.1"/>
          <circle cx="375.9" cy="295.5" r="4.1"/>
        </g>
        <g>
          <circle cx="411.4" cy="305.7" r="4.1"/>
          <circle cx="426.1" cy="305.7" r="4.1"/>
          <circle cx="418.7" cy="316.4" r="4.1"/>
          <circle cx="418.7" cy="295.5" r="4.1"/>
          <circle cx="433.1" cy="295.5" r="4.1"/>
        </g>
      </g>
      <g style="">
        <circle class="st6" cx="403.1" cy="362" r="20.2" style="fill: rgb(17, 17, 17);"/>
        <g>
          <path class="st20" d="M404.2,368.6v-12.8c0-0.5,0.1-0.8,0.3-1c0.1-0.2,0.4-0.3,0.7-0.2c0.6,0.2,0.9,0.7,0.9,1.7v6.9 c0.8,0.4,1.5,0.5,2.1,0.5s1.2-0.2,1.6-0.5c1-0.7,1.5-1.9,1.5-3.7c0-1.9-0.4-3.4-1.2-4.3c-0.8-1-2.1-1.9-4.1-2.6 c-1.3-0.4-2.5-0.8-3.6-1.1c-1.1-0.3-2-0.5-2.9-0.7V363l0,0v2.7l0,0v1.7l0,0v2.5l0,0v1.5l4.7,1.5v-3.6l0,0V368.6z" style="fill: rgb(255, 255, 255);"/>
          <path class="st20" d="M399.1,367.6l-1.7,0.6l-0.9,0.4l-1.6,0.3l-1.5-0.2c-0.3-0.2-0.4-0.4-0.2-0.6c0.1-0.1,0.2-0.1,0.3-0.2 c0.1-0.1,0.3-0.1,0.4-0.2l1.1-0.4l4.1-1.5v-2.7l-1.7,0.5l-5.5,2l-1,0.4c-1.5,0.6-2.2,1.2-2.2,1.8c0.1,0.8,1,1.5,2.7,1.9 c0.7,0.2,1.4,0.3,2.1,0.4s1.4,0.1,2.2,0.1c1,0,2.1-0.1,3.3-0.3L399.1,367.6L399.1,367.6L399.1,367.6z" style="fill: rgb(255, 255, 255);"/>
          <path class="st20" d="M414.9,365.3c-0.9-0.3-1.7-0.5-2.5-0.6s-1.7-0.2-2.5-0.1c-0.9,0-1.9,0.2-2.8,0.3c-0.8,0.2-1.7,0.4-2.6,0.8 v2.8l3.9-1.4l1.6-0.5l1.1-0.3h1.4c0.3,0.1,0.6,0.2,0.7,0.4c0,0.2-0.2,0.4-0.8,0.6l-1.4,0.5l-6.5,2.4v2.7l3.5-1.3l6.4-2.3 l0.7-0.4c1.5-0.5,2.2-1.2,2.2-1.9C417.3,366.4,416.5,365.8,414.9,365.3L414.9,365.3z" style="fill: rgb(255, 255, 255);"/>
        </g>
      </g>
      <path class="st4" d="M105.3,544.5C64.8,541.7,29.5,524.2,18,514S0.5,482.5,0.5,482.5c-0.4,15-0.4,26.3-0.4,26.3 s4.5,53.4,36.2,74.9s56.7,14,56.7,14s33.1-8.2,57.8-41.9c4.5-6.2,9.3-14.5,14.1-23.8C164.8,531.9,145.7,547.2,105.3,544.5z" style="fill: rgb(255, 255, 255);"/>
      <path class="st4" d="M700.9,544.5c40.5-2.8,75.8-20.3,87.3-30.5s17.5-31.5,17.5-31.5c0.4,15,0.4,26.3,0.4,26.3 s-4.5,53.4-36.2,74.9s-56.7,14-56.7,14s-33.1-8.2-57.8-41.9c-4.5-6.2-9.3-14.5-14.1-23.8C641.4,531.9,660.5,547.2,700.9,544.5z" style="fill: rgb(255, 255, 255);"/>
      <g style="">
        <g>
          <path class="st23" d="M90.1,592.5c-12.5,1.8-31.3-2-45.1-7.7c-13.6-5.7-24-16.4-24-16.4c4.2,5.8,9.3,11.1,15.3,15.2 c31.7,21.5,56.7,14,56.7,14s11.7-2.9,26.3-12.3C119.3,585.3,104.7,590.5,90.1,592.5z"/>
        </g>
        <g>
          <path class="st23" d="M716.1,592.5c12.5,1.8,31.3-2,45.1-7.7c13.6-5.7,24-16.4,24-16.4c-4.2,5.8-9.3,11.1-15.3,15.2 c-31.7,21.5-56.7,14-56.7,14s-11.7-2.9-26.3-12.3C686.9,585.3,701.5,590.5,716.1,592.5z"/>
        </g>
        <g>
          <path d="M240.6,143.5c6.9,0,12.5,5.6,12.5,12.5v18.3c0,6.9-5.6,12.5-12.5,12.5s-12.5-5.6-12.5-12.5V156 C228.1,149.1,233.7,143.5,240.6,143.5 M240.6,141.8c-7.8,0-14.2,6.4-14.2,14.2v18.3c0,7.8,6.4,14.2,14.2,14.2 s14.2-6.4,14.2-14.2V156C254.8,148.1,248.4,141.8,240.6,141.8L240.6,141.8z"/>
          <path class="st4" d="M240.6,143.5c-6.9,0-12.5,5.6-12.5,12.5v18.3c0,6.9,5.6,12.5,12.5,12.5s12.5-5.6,12.5-12.5V156 C253.1,149.1,247.5,143.5,240.6,143.5z" style="fill: rgb(255, 255, 255);"/>
        </g>
        <g>
          <path d="M565.6,143.5c6.9,0,12.5,5.6,12.5,12.5v18.3c0,6.9-5.6,12.5-12.5,12.5l0,0c-6.9,0-12.5-5.6-12.5-12.5V156 C553.1,149.1,558.7,143.5,565.6,143.5L565.6,143.5 M565.6,141.8c-7.8,0-14.2,6.4-14.2,14.2v18.3c0,7.8,6.4,14.2,14.2,14.2 s14.2-6.4,14.2-14.2V156C579.8,148.1,573.4,141.8,565.6,141.8L565.6,141.8z"/>
          <path class="st4" d="M565.6,143.5c-6.9,0-12.5,5.6-12.5,12.5v18.3c0,6.9,5.6,12.5,12.5,12.5s12.5-5.6,12.5-12.5V156 C578.1,149.1,572.5,143.5,565.6,143.5z" style="fill: rgb(255, 255, 255);"/>
        </g>
        <g>
          <g>
            <path class="st4" d="M141.3,247.2c1.4-2,1.2-2.9,1.2-2.9s0.2-0.9-1.2-2.9s-15-13.6-15.7-14s-28.5-2.2-31.4,1.3 s-2.6,15.6-2.6,15.6s-0.3,12.1,2.6,15.6s30.7,1.7,31.4,1.3S139.9,249.2,141.3,247.2L141.3,247.2z" style="fill: rgb(255, 255, 255);"/>
            <path class="st25" d="M141.3,247.2c1.4-2,1.2-2.9,1.2-2.9s0.2-0.9-1.2-2.9c-0.9-1.3-6.9-6.6-11.2-10.3 c-2.1,3.9-3.4,8.4-3.4,13.2s1.2,9.3,3.4,13.2C134.4,253.8,140.4,248.5,141.3,247.2z"/>
          </g>
          <g>
            <path class="st4" d="M151.1,231.6c2,1.4,2.9,1.2,2.9,1.2s0.9,0.2,2.9-1.2s13.6-15,14-15.7s2.2-28.5-1.3-31.4 s-15.6-2.6-15.6-2.6s-12.1-0.3-15.6,2.6s-1.7,30.7-1.3,31.4C137.6,216.6,149.1,230.2,151.1,231.6L151.1,231.6z" style="fill: rgb(255, 255, 255);"/>
            <path class="st25" d="M151.1,231.6c2,1.4,2.9,1.2,2.9,1.2s0.9,0.2,2.9-1.2c1.3-0.9,6.6-6.9,10.3-11.2 c-3.9-2.1-8.4-3.4-13.2-3.4s-9.3,1.2-13.2,3.4C144.6,224.7,149.8,230.7,151.1,231.6z"/>
          </g>
          <g>
            <path class="st4" d="M213.8,228.8c-2.9-3.5-30.7-1.7-31.4-1.3s-14.3,12-15.7,14s-1.2,2.9-1.2,2.9s-0.2,0.9,1.2,2.9 s15,13.6,15.7,14s28.5,2.2,31.4-1.3s2.6-15.6,2.6-15.6S216.7,232.3,213.8,228.8L213.8,228.8z" style="fill: rgb(255, 255, 255);"/>
            <path class="st25" d="M178,231.2c-4.3,3.7-10.3,9-11.2,10.3c-1.4,2-1.2,2.9-1.2,2.9s-0.2,0.9,1.2,2.9 c0.9,1.3,6.9,6.6,11.2,10.3c2.1-3.9,3.4-8.4,3.4-13.2S180.1,235.1,178,231.2L178,231.2z"/>
          </g>
          <g>
            <path class="st4" d="M156.9,257.1c-2-1.4-2.9-1.2-2.9-1.2s-0.9-0.2-2.9,1.2s-13.6,15-14,15.7s-2.2,28.5,1.3,31.4 s15.6,2.6,15.6,2.6s12.1,0.3,15.6-2.6s1.7-30.7,1.3-31.4C170.5,272,158.9,258.5,156.9,257.1L156.9,257.1z" style="fill: rgb(255, 255, 255);"/>
            <path class="st25" d="M156.9,257.1c-2-1.4-2.9-1.2-2.9-1.2s-0.9-0.2-2.9,1.2c-1.3,0.9-6.6,6.9-10.3,11.2 c3.9,2.1,8.4,3.4,13.2,3.4s9.3-1.2,13.2-3.4C163.5,264,158.2,258,156.9,257.1z"/>
          </g>
        </g>
      </g>
      <path class="st6" d="M436.7,421h-67.9c-2.8,0-4.6,0.6-4.6-2.2l0,0c0-2.8,2.3-5,5-5h67.9c2.8,0,5,2.3,5,5l0,0 C442.2,421.5,439.5,421,436.7,421z" style="fill: rgb(255, 255, 255);"/>
      <path d="M408.4,418.8h-36.5c-0.5,0-0.9-0.4-0.9-0.9l0,0c0-1.1,0.9-2,2-2h34.2c1.1,0,2,0.9,2,2l0,0 C409.3,418.4,408.9,418.8,408.4,418.8L408.4,418.8z"/>
      <path d="M430.6,419.6h-4.2c-0.9,0-1.7-0.8-1.7-1.7l0,0c0-1.6,1.3-2.8,2.8-2.8h1.9c1.6,0,2.8,1.3,2.8,2.8l0,0 C432.3,418.9,431.6,419.6,430.6,419.6L430.6,419.6z"/>
      <g style="">
        <path class="st14" d="M534.9,128c-0.4-3.2-3.3-5.6-6.5-5.6H277.8c-3.2,0-6.1,2.3-6.5,5.6c-0.1,0.7-0.1,1.4-0.1,2.1v127.4 c0,8.9,7.2,16.1,16.1,16.1h231.6c8.9,0,16.1-7.2,16.1-16.1V130.1C535.1,129.4,535,128.7,534.9,128z" style="fill: rgb(255, 255, 255);"/>
        <g>
          <path class="st4" d="M530.5,124.3c0-1-0.8-1.9-1.9-1.9H277.5c-1,0-1.9,0.8-1.9,1.9v129.2c0,8.6,7,15.6,15.6,15.6H515 c8.6,0,15.6-7,15.6-15.6V130.4C530.6,130.4,530.5,124.3,530.5,124.3z" style="fill: rgb(0, 0, 0);"/>
          <g class="st26">
            <pattern id="SVGID_00000071527769974372437850000012020966359377745539_" patternTransform="matrix(0.1 0 0 0.1 -35972.1797 -3791.6929)" class="st26" xlink:href="#SVGID_0000018249070813379013382"/>
            <path style="fill:url(#SVGID_00000071527769974372437850000012020966359377745539_);" d="M275.6,253.5c0,8.6,7,15.6,15.6,15.6 H515c8.6,0,15.6-7,15.6-15.6V147H275.7L275.6,253.5L275.6,253.5L275.6,253.5z"/>
          </g>
        </g>
      </g>
      <g class="st28" style="">
        <path class="st1" d="M 384.55 173.07 C 379.186 173.634 377.21 174.905 374.104 179.986 C 370.999 185.209 368.458 189.867 364.224 198.337 C 363.518 199.748 363.236 200.736 363.236 202.853 L 363.236 213.299 C 363.236 220.639 363.941 220.921 370.858 221.768 L 370.858 224.874 L 344.038 224.874 L 344.038 221.768 C 350.673 220.921 351.379 220.639 351.379 213.299 L 351.379 203.559 C 351.379 201.724 351.096 200.877 350.39 199.607 C 347.991 194.666 344.744 188.879 339.663 179.986 C 336.557 174.481 335.287 173.352 330.346 172.929 L 330.346 169.823 L 355.19 169.823 L 355.19 172.929 C 349.544 173.634 349.685 174.764 351.096 177.728 C 353.919 183.233 357.589 190.008 360.695 196.219 C 363.236 191.42 367.329 183.374 369.729 178.151 C 371.281 174.764 370.717 173.634 364.506 172.929 L 364.506 169.823 L 384.268 169.823 L 384.268 173.07 L 384.55 173.07 Z" style=""/>
        <path class="st1" d="M 409.534 225.015 L 409.534 221.909 C 414.898 221.204 414.898 220.216 413.628 216.545 C 412.781 214.005 411.369 210.194 410.099 206.806 L 393.584 206.806 C 392.596 209.488 391.466 212.593 390.62 215.275 C 388.785 220.639 390.902 221.345 397.536 221.909 L 397.536 225.015 L 376.645 225.015 L 376.645 221.909 C 382.009 221.204 383.279 220.498 386.244 213.299 L 403.888 169.541 L 407.982 168.835 C 413.345 183.515 419.133 198.619 424.638 212.734 C 427.743 220.639 428.59 221.204 434.095 221.909 L 434.095 225.015 L 409.534 225.015 Z M 402.053 184.503 C 399.653 190.573 397.254 196.219 395.136 202.43 L 408.546 202.43 L 402.053 184.503 Z" style=""/>
        <path class="st1" d="M 470.09 183.939 C 468.396 178.575 465.996 172.364 458.233 172.364 C 453.292 172.364 450.046 175.893 450.046 180.551 C 450.046 185.209 453.151 188.032 460.632 191.702 C 469.666 196.219 475.454 200.595 475.454 208.923 C 475.454 218.945 467.125 226.144 454.986 226.144 C 449.622 226.144 444.682 224.732 440.729 223.462 C 440.165 221.486 438.753 212.734 438.189 208.782 L 441.435 208.076 C 443.129 213.44 447.928 222.615 456.115 222.615 C 461.338 222.615 464.443 219.369 464.443 214.005 C 464.443 209.064 461.338 206.241 454.28 202.43 C 445.529 197.631 439.741 193.396 439.741 184.645 C 439.741 175.752 446.658 168.694 459.362 168.694 C 465.149 168.694 469.666 169.964 471.501 170.247 C 471.784 173.352 472.489 177.728 473.054 183.092 L 470.09 183.939 Z" style="paint-order: fill;"/>
      </g>
    </g>
    <g style="">
      <g>
        <g>
          <path class="st4" d="M697.2,90.8c0,0-32.7-3.2-50.6-3.2S598.3,90,598.3,90s3.1-44.7,4.8-52c1.6-7.3,7.7-21.3,16.9-27.9 S632,0,642.8,0s25.4,6.4,34.6,21.4C686.5,36.4,697.2,90.8,697.2,90.8z" style="fill: rgb(40, 40, 40);"/>
          <path class="st25" d="M598.8,83.2c0,0,26.1-4.4,49-4.4s47.9,4.4,47.9,4.4c1,4.7,1.6,7.6,1.6,7.6s-32.7-3.2-50.6-3.2 S598.4,90,598.4,90S598.4,87.3,598.8,83.2L598.8,83.2z"/>
        </g>
        <g class="st29">
          <path class="st1" d="M648.8,65.7c-2.1,1.7-3.2,2.6-3.2,2.6c-1.2,1.2-1.9,2.7-2,4.5h9.8v-2.6h-6.3c0.3-0.5,1-1.2,2.1-1.9 c1.4-0.9,2.3-1.6,2.7-2.1c0.9-1,1.3-2.1,1.3-3.3c0-1.4-0.5-2.5-1.4-3.3s-2.1-1.2-3.5-1.2c-3.1,0-4.7,1.7-4.7,5h2.7 c0-1.8,0.7-2.7,2.1-2.7c1.3,0,2,0.7,2,2.1C650.5,63.8,649.9,64.8,648.8,65.7L648.8,65.7z"/>
          <path class="st1" d="M631.2,67.2h3c1.5,0,2.3,0.6,2.4,1.9c0.1,1.2,0.2,2.5,0.3,3.8h3.3v-0.4c-0.5-0.2-0.7-0.7-0.7-1.5 c0-0.2,0-0.4,0.1-0.8v-0.7c0-1.7-0.6-2.9-1.8-3.5c1.4-0.5,2.2-1.6,2.2-3.4c0-1.3-0.4-2.3-1.3-3c-0.8-0.7-1.9-1-3.2-1h-7.3v14.3 h3C631.2,72.9,631.2,67.2,631.2,67.2z M631.2,60.9h3.7c1.4,0,2.1,0.6,2.1,1.9c0,1.3-0.8,1.9-2.3,1.9h-3.5V60.9z"/>
        </g>
      </g>
      <g>
        <g>
          <path class="st4" d="M108.9,90.8c0,0,32.7-3.2,50.6-3.2s48.3,2.4,48.3,2.4s-3.1-44.7-4.8-52c-1.6-7.3-7.7-21.3-16.9-27.9 C176.9,3.4,174.1,0,163.3,0s-25.4,6.4-34.6,21.4C119.6,36.4,108.9,90.8,108.9,90.8z" style="fill: rgb(40, 40, 40);"/>
          <path class="st25" d="M207.3,83.2c0,0-26.1-4.4-49-4.4s-47.9,4.4-47.9,4.4c-1,4.7-1.6,7.6-1.6,7.6s32.7-3.2,50.6-3.2 s48.3,2.4,48.3,2.4S207.7,87.3,207.3,83.2z"/>
        </g>
        <g class="st29">
          <path class="st1" d="M173.4,65.7c-2.1,1.7-3.2,2.6-3.2,2.6c-1.2,1.2-1.9,2.7-2,4.5h9.8v-2.6h-6.2c0.3-0.5,1-1.2,2.1-1.9 c1.4-0.9,2.3-1.6,2.7-2.1c0.9-1,1.3-2.1,1.3-3.3c0-1.4-0.5-2.5-1.4-3.3s-2.1-1.2-3.5-1.2c-3.1,0-4.7,1.7-4.7,5h2.7 c0-1.8,0.7-2.7,2.1-2.7c1.3,0,2,0.7,2,2.1C175.1,63.8,174.6,64.8,173.4,65.7L173.4,65.7z"/>
          <polygon class="st1" points="164.9,70.1 157.8,70.1 157.8,58.5 154.8,58.5 154.8,72.8 164.9,72.8 &#9;&#9;&#9;&#9;"/>
        </g>
      </g>
    </g>
  </g>
</svg>