<?xml version="1.0" encoding="utf-8"?>
<!-- Generator: Adobe Illustrator 27.2.0, SVG Export Plug-In . SVG Version: 6.00 Build 0)  -->
<svg version="1.1" id="Layer_1" xmlns="http://www.w3.org/2000/svg" xmlns:xlink="http://www.w3.org/1999/xlink" x="0px" y="0px"
	 width="806.3px" height="598.7px" viewBox="0 0 806.3 598.7" style="enable-background:new 0 0 806.3 598.7;" xml:space="preserve"
	>
<style type="text/css">
	.st0{opacity:0;}
	.st1{fill:#ED1C24;}
	.st2{fill:#F2F2F2;}
</style>
<g class="st0">
	<path class="st1" d="M805.9,508.6L805.9,508.6v-2.4c-0.1-12.4-0.8-67.1-4.6-87.6c-2.9-15.5-17.7-102.5-32-144.6
		c-9.4-27.7-13.1-53-17-64.9c-12-35.7-33-65.7-33-65.7s-9.5-13.1-10.1-16.3s-4.7-8.6-4.7-8.6c-2.4-0.7-4.9-1.3-7.4-1.7l0,0v-6.9
		c0-0.8-0.4-1.5-1.1-1.9c-4.5-2.9-23.4-13.6-51.5-13.6c-26.9,0-41.1,5.9-45.1,8c-0.7,0.4-1.2,1.2-1.2,2v11l0,0
		c-7.4,1.2-9.6,2.4-9.6,2.4c-1.7,1.9-3.7,3.5-5.9,4.8c-3.5,1.8-11.7,1.7-11.7,1.7h-33.4c-0.3-0.1-0.7,0.1-0.9,0.3
		c-0.3,0.6-0.5,1.3-0.6,2h-1.6c-1-2.3-3.2-3.9-5.7-4.1H277.1c-2.5,0.2-4.7,1.8-5.7,4.1h-1.6c-0.1-0.7-0.3-1.4-0.6-2
		c-0.2-0.2-0.6-0.3-0.9-0.3h-33.4c0,0-8.2,0.2-11.7-1.7c-2.2-1.2-4.2-2.8-5.9-4.8c0,0-2.1-1.2-9.6-2.4l0,0v-11c0-0.8-0.5-1.6-1.2-2
		c-4-2-18.2-8-45.1-8c-28.2,0-47,10.7-51.5,13.6c-0.7,0.4-1.1,1.1-1.1,1.9v6.9l0,0c-5.1,1-7.4,1.7-7.4,1.7s-4.1,5.3-4.7,8.6
		c-0.6,3.3-10.1,16.3-10.1,16.3s-21,30-33,65.7c-4,11.9-7.7,37.2-17,64.9c-14.3,42.1-29.1,129.1-32,144.6
		c-3.8,20.5-4.5,75.2-4.6,87.6v2.4l0,0v0.2l0,0c0.2,2.5,3.6,35.7,20.8,59.5l0,0c0.5,0.7,1.1,1.4,1.6,2.1c0,0.1,0,0.1,0.1,0.1
		c0.5,0.7,1.1,1.4,1.6,2l0,0c0.6,0.7,1.1,1.3,1.7,1.9l0.2,0.2c0.6,0.6,1.1,1.2,1.7,1.8l0.1,0.1c0.6,0.6,1.2,1.2,1.8,1.7l0.3,0.3
		c0.6,0.5,1.2,1,1.8,1.6l0.1,0.1c0.6,0.5,1.3,1,1.9,1.5c0.2,0.1,0.3,0.2,0.5,0.3c0.6,0.5,1.3,1,2,1.4c31.7,21.5,56.7,14,56.7,14H93
		c0.1,0,0.1,0,0.2-0.1h0.1c0.1,0,0.3-0.1,0.4-0.1l0,0c0.2,0,0.3-0.1,0.5-0.2h0.1c0.2-0.1,0.5-0.1,0.7-0.2c0.1,0,0.1,0,0.2-0.1
		c0.3-0.1,0.5-0.2,0.8-0.3h0.1l0.9-0.3c0.1,0,0.1,0,0.2-0.1c0.4-0.1,0.7-0.2,1.1-0.4c0.1,0,0.2-0.1,0.3-0.1c0.4-0.1,0.8-0.3,1.2-0.5
		c0.1,0,0.1-0.1,0.2-0.1c0.4-0.2,0.8-0.3,1.2-0.5c0.1,0,0.1,0,0.2-0.1c0.4-0.2,0.9-0.4,1.4-0.6c0.1,0,0.2-0.1,0.3-0.1
		c0.5-0.2,1-0.4,1.5-0.7c0.1,0,0.2-0.1,0.3-0.1c0.5-0.2,1-0.4,1.5-0.7c0.1,0,0.1,0,0.2-0.1c0.5-0.3,1.1-0.5,1.7-0.8
		c0.1-0.1,0.3-0.1,0.4-0.2c0.6-0.3,1.1-0.6,1.7-0.9c0.1-0.1,0.2-0.1,0.3-0.2c0.6-0.3,1.1-0.6,1.7-0.9c0.1,0,0.1-0.1,0.2-0.1
		c0.6-0.3,1.2-0.7,1.9-1.1c0.1-0.1,0.2-0.2,0.4-0.2c0.6-0.4,1.3-0.7,1.9-1.1c0.1-0.1,0.2-0.2,0.4-0.2c0.7-0.4,1.3-0.8,2-1.2
		c0.1,0,0.1,0,0.1-0.1l0,0c12.2-7.9,22.9-17.9,31.5-29.6c0.5-0.7,1-1.4,1.5-2.2c0.1-0.2,0.3-0.4,0.4-0.6c0.5-0.7,1-1.4,1.4-2.2
		c0-0.1,0.1-0.1,0.1-0.2c0.5-0.8,1.1-1.7,1.6-2.5c0.1-0.2,0.2-0.3,0.3-0.5c0.5-0.8,1-1.7,1.5-2.5l0.1-0.1c0.6-1,1.1-1.9,1.7-2.9
		c0.1-0.1,0.1-0.2,0.2-0.3c0.5-1,1.1-2,1.7-3l0,0l1.8-3.3V535c21.9-41.6,44.3-108.8,44.3-108.8c1.6-2.1,3.5-3.8,5.7-5.3
		c1.9-1.3,4-2.2,6.3-2.6h1.9c29.7,29,77.1,29.1,106.9,0.1h36c0,2.8,1.8,2.2,4.6,2.2h67.9c2.8,0,5.5,0.6,5.5-2.2h35.9
		c29.8,29,77.2,28.9,106.9-0.1h1.9c2.3,0.4,4.4,1.3,6.3,2.6c2.2,1.5,4.1,3.2,5.7,5.3c0,0,22.5,67.2,44.3,108.8v0.1l1.8,3.3l0,0
		c0.6,1,1.1,2,1.7,3c0.1,0.1,0.1,0.2,0.2,0.3c0.6,1,1.1,2,1.7,2.9l0.1,0.1c0.5,0.9,1,1.7,1.5,2.5c0.1,0.2,0.2,0.3,0.3,0.5
		c0.5,0.9,1.1,1.7,1.6,2.5c0,0.1,0.1,0.1,0.1,0.2c0.5,0.7,1,1.5,1.4,2.2c0.1,0.2,0.3,0.4,0.4,0.6c0.5,0.7,1,1.5,1.5,2.2
		c8.6,11.7,19.3,21.8,31.5,29.6l0,0c0.1,0,0.1,0,0.1,0.1c0.7,0.4,1.3,0.8,2,1.2c0.1,0.1,0.2,0.2,0.4,0.2c0.6,0.4,1.2,0.8,1.9,1.1
		c0.1,0.1,0.2,0.2,0.4,0.2c0.6,0.4,1.3,0.7,1.9,1.1c0.1,0,0.1,0.1,0.2,0.1c0.6,0.3,1.2,0.6,1.7,0.9c0.1,0.1,0.2,0.1,0.3,0.2
		c0.6,0.3,1.2,0.6,1.7,0.9c0.1,0.1,0.3,0.1,0.4,0.2c0.6,0.3,1.1,0.5,1.7,0.8c0.1,0,0.1,0,0.2,0.1c0.5,0.2,1,0.5,1.5,0.7
		c0.1,0,0.2,0.1,0.3,0.1c0.5,0.2,1,0.4,1.5,0.7c0.1,0,0.2,0.1,0.3,0.1c0.5,0.2,0.9,0.4,1.4,0.6c0.1,0,0.1,0,0.2,0.1
		c0.4,0.2,0.8,0.3,1.2,0.5c0.1,0,0.1,0.1,0.2,0.1c0.4,0.2,0.8,0.3,1.2,0.5c0.1,0,0.2,0.1,0.3,0.1c0.4,0.1,0.7,0.3,1.1,0.4
		c0.1,0,0.1,0,0.2,0.1l0.9,0.3h0.1c0.3,0.1,0.5,0.2,0.8,0.3c0.1,0,0.1,0,0.2,0.1s0.5,0.1,0.7,0.2h0.1c0.2,0.1,0.4,0.1,0.5,0.2l0,0
		c0.2,0,0.3,0.1,0.4,0.1h0.1c0.1,0,0.1,0,0.2,0.1h0.1c0,0,25,7.5,56.7-14c0.7-0.5,1.3-0.9,2-1.4c0.2-0.1,0.3-0.2,0.5-0.3
		c0.6-0.5,1.3-1,1.9-1.5l0.1-0.1c0.6-0.5,1.2-1,1.8-1.6l0.3-0.3c0.6-0.6,1.2-1.1,1.8-1.7l0.1-0.1c0.6-0.6,1.1-1.2,1.7-1.8l0.2-0.2
		c0.6-0.6,1.1-1.3,1.7-1.9l0,0c0.6-0.7,1.1-1.3,1.6-2c0-0.1,0-0.1,0.1-0.1c0.5-0.7,1.1-1.4,1.6-2.1l0,0c17.2-23.8,20.6-57,20.8-59.5
		l0,0v-0.1C806.3,508.7,805.9,508.7,805.9,508.6z"/>
	<path class="st1" d="M608.7,89.3c0.5,0,1.1-0.1,1.6-0.1c4.4-0.3,9.6-0.6,15-0.9c1.3-0.1,2.7-0.1,4-0.2l8-0.3c1.3,0,2.6-0.1,3.8-0.1
		s2.4,0,3.6-0.1h1.7c17.9,0,50.6,3.2,50.6,3.2l0,0c0-0.1,0-0.2-0.1-0.3v-0.3l0,0c0-0.1,0-0.2-0.1-0.3v-0.3c0-0.3-0.1-0.5-0.2-0.8
		v-0.1c0-0.1-0.1-0.3-0.1-0.4v-0.1c-2.3-11-11.4-53.8-19.4-66.8C668,6.4,653.4,0,642.5,0s-13.6,3.4-22.7,10.1S604.5,30.7,602.9,38
		c-1.2,5.5-3.3,32.4-4.3,45.2l0,0V86l0,0c0,0.6-0.1,1.1-0.1,1.6v0.5l0,0c-0.1,0.6-0.1,1.2-0.1,1.8V90c0,0,1.9-0.1,5-0.4
		C604.7,89.5,606.6,89.4,608.7,89.3z"/>
	<path class="st1" d="M207.7,90L207.7,90c0-0.3-0.1-0.9-0.1-1.9l0,0v-0.5c0-0.5-0.1-1-0.1-1.6l0,0v-2.7c-1-12.8-3.1-39.7-4.3-45.2
		c-1.6-7.3-7.7-21.3-16.9-27.9S174.1,0,163.3,0s-25.4,6.4-34.6,21.4c-8,13-17.1,55.8-19.4,66.8v0.1c0,0.2-0.1,0.3-0.1,0.4v0.1
		c-0.1,0.3-0.1,0.6-0.2,0.8v0.3c0,0.1,0,0.2-0.1,0.3l0,0v0.3c0,0.1,0,0.2-0.1,0.3l0,0c0,0,32.7-3.2,50.6-3.2S207.7,90,207.7,90z"/>
</g>
<g class="st0">
	<path class="st2" d="M171.4,251.7c5.2-0.8,10.4-1.1,15.7-1.1c10.1,0,17,2.1,22,6.2c5.2,4.2,8.4,10.6,8.4,19.8
		c0,9.6-3.3,16.8-8.4,21.4c-5.4,4.9-13.9,7.4-24.4,7.4c-4.4,0-8.9-0.2-13.3-0.7V251.7L171.4,251.7z M181.3,297.4
		c1.8,0.2,3.6,0.2,5.4,0.2c12.8,0.1,20.4-7,20.4-20.6c0.1-11.9-6.8-18.7-19.1-18.7c-2.2-0.1-4.5,0.1-6.7,0.6L181.3,297.4
		L181.3,297.4z"/>
	<path class="st2" d="M236.4,255.1c0,2.9-2.3,5.3-5.1,5.3c-0.2,0-0.3,0-0.5,0c-2.8,0.2-5.2-2-5.4-4.8c0-0.2,0-0.3,0-0.5
		c-0.1-2.9,2.2-5.3,5.2-5.4c0.1,0,0.2,0,0.3,0c2.9-0.1,5.4,2.2,5.5,5.2C236.4,255,236.4,255,236.4,255.1z M225.9,304.9v-39h9.9v39
		H225.9z"/>
	<path class="st2" d="M245.9,295.9c3.1,1.7,6.5,2.7,10,2.8c4.3,0,6.2-1.8,6.2-4.3s-1.6-4-6.4-5.7c-7.6-2.6-10.8-6.8-10.7-11.4
		c0-6.9,5.7-12.2,14.7-12.2c3.6-0.1,7.1,0.7,10.3,2.3l-1.9,7c-2.5-1.4-5.3-2.2-8.2-2.2c-3.5,0-5.4,1.7-5.4,4.1s1.8,3.7,6.8,5.4
		c7,2.6,10.3,6.2,10.4,11.9c0,7-5.5,12.2-15.8,12.2c-4.1,0.1-8.2-0.8-11.8-2.7L245.9,295.9z"/>
	<path class="st2" d="M308.4,303.7c-3.5,1.4-7.2,2.1-11,2c-12.2,0-20.1-7.8-20.1-19.8c0-11.7,8-20.8,21.7-20.8
		c3.3,0,6.5,0.6,9.5,1.8l-1.8,7.4c-2.3-1-4.9-1.5-7.4-1.5c-7.5,0-12,5.5-11.9,12.6c0,8,5.2,12.6,11.9,12.6c2.7,0,5.3-0.5,7.8-1.5
		L308.4,303.7z"/>
	<path class="st2" d="M352,285.1c0,14.3-10.1,20.7-20,20.7c-11,0-19.5-7.6-19.5-20.1c0-12.8,8.4-20.6,20.2-20.6
		C344.2,265.1,352,273.3,352,285.1z M322.6,285.5c0,7.5,3.7,13.2,9.7,13.2c5.6,0,9.5-5.5,9.5-13.4c0-6.1-2.7-13-9.4-13
		C325.4,272.3,322.6,279,322.6,285.5z"/>
	<path class="st2" d="M360.1,277.6c0-4.5-0.1-8.2-0.3-11.6h8.6l0.5,5.8h0.2c2.6-4.3,7.4-6.8,12.4-6.7c6.8,0,13.8,4.4,13.8,16.7v23.1
		h-9.8v-22c0-5.6-2.1-9.8-7.4-9.8c-3.5,0.1-6.6,2.4-7.7,5.8c-0.3,1-0.4,2.1-0.4,3.2V305h-9.9L360.1,277.6L360.1,277.6z"/>
	<path class="st2" d="M405.8,277.6c0-4.5-0.1-8.2-0.3-11.6h8.6l0.5,5.8h0.2c2.6-4.3,7.4-6.8,12.4-6.7c6.8,0,13.8,4.4,13.8,16.7v23.1
		h-9.8v-22c0-5.6-2.1-9.8-7.4-9.8c-3.5,0.1-6.6,2.4-7.7,5.8c-0.3,1-0.4,2.1-0.4,3.2V305h-9.9L405.8,277.6L405.8,277.6z"/>
	<path class="st2" d="M458.5,288.2c0.2,7,5.8,10.1,12,10.1c3.7,0.1,7.4-0.5,10.8-1.8l1.4,6.8c-4.3,1.7-9,2.5-13.6,2.4
		c-12.6,0-20.1-7.8-20.1-19.7c0-10.8,6.6-21,19-21c12.6,0,16.8,10.4,16.8,19c0,1.4-0.1,2.8-0.3,4.2H458.5z M475.7,281.3
		c0.1-3.6-1.5-9.5-8.1-9.5c-6.1,0-8.6,5.5-9,9.5H475.7z"/>
	<path class="st2" d="M521.5,303.7c-3.5,1.4-7.2,2.1-11,2c-12.2,0-20.1-7.8-20.1-19.8c0-11.7,8-20.8,21.7-20.8
		c3.3,0,6.5,0.6,9.5,1.8l-1.8,7.4c-2.3-1-4.9-1.5-7.4-1.5c-7.5,0-12,5.5-11.9,12.6c0,8,5.2,12.6,11.9,12.6c2.7,0,5.3-0.5,7.8-1.5
		L521.5,303.7z"/>
	<path class="st2" d="M541.3,254.9V266h9.4v7.4h-9.4v17.2c0,4.7,1.3,7.2,5,7.2c1.3,0,2.6-0.1,3.8-0.5l0.2,7.5
		c-2.3,0.8-4.7,1.1-7.1,1c-3.2,0.1-6.2-1-8.5-3.2c-2.1-2.2-3-5.8-3-10.9v-18.3h-5.6V266h5.6v-8.8L541.3,254.9z"/>
	<path class="st2" d="M564.5,288.2c0.2,7,5.8,10.1,12,10.1c3.7,0.1,7.4-0.5,10.8-1.8l1.4,6.8c-4.3,1.7-9,2.5-13.6,2.4
		c-12.6,0-20.1-7.8-20.1-19.7c0-10.8,6.6-21,19-21c12.6,0,16.8,10.4,16.8,19c0,1.4-0.1,2.8-0.3,4.2H564.5z M581.7,281.3
		c0.1-3.6-1.5-9.5-8.1-9.5c-6.1,0-8.6,5.5-9,9.5H581.7z"/>
	<path class="st2" d="M634.8,248.1V294c0,4,0.2,8.3,0.3,11h-8.8l-0.4-6.2h-0.2c-2.3,4.3-7,7-12.7,7c-9.3,0-16.6-7.9-16.6-19.9
		c-0.1-13,8.1-20.8,17.4-20.8c5.4,0,9.2,2.2,11,5.1h0.2v-22.1H634.8z M624.9,282.2c0-0.9-0.1-1.7-0.2-2.6c-0.8-4.1-4.4-7-8.5-7
		c-6.3,0-9.8,5.6-9.8,12.9c0,7.1,3.5,12.3,9.8,12.3c4.1,0,7.7-2.9,8.5-7c0.2-1,0.3-1.9,0.3-2.9L624.9,282.2L624.9,282.2z"/>
</g>
</svg>
