<?xml version="1.0" encoding="UTF-8"?><svg id="Layer_1" xmlns="http://www.w3.org/2000/svg" xmlns:xlink="http://www.w3.org/1999/xlink" viewBox="0 0 806 598.9"><defs><style>.cls-1{fill:#0f0f0f;}.cls-2{fill:#fff;}.cls-3{fill:#cbcbcb;}.cls-4{opacity:.5;}.cls-5{fill:#7cb2e8;}.cls-6{fill:#40e2a0;}.cls-7{fill:#0a0a0a;}.cls-8{fill:#0b0b0f;}.cls-9{fill:#ff69f8;}.cls-10{fill:#f66;}.cls-11{opacity:.1;}.cls-11,.cls-12{fill:#1f1f1f;}.cls-11,.cls-13{isolation:isolate;}.cls-14{fill:maroon;}.cls-15{fill:#d4d4d4;}.cls-16{opacity:.12;}.cls-17{opacity:.08;}.cls-18{fill:#a40000;}.cls-19{fill:#e5e5e5;}.cls-20{fill:#121212;}.cls-21{fill:none;}.cls-22{fill:#dcdcdc;}.cls-23{fill:#ccc;}.cls-24{opacity:.06;}.cls-25{fill:#b3b3b3;}.cls-26{fill:#1a1a1a;}.cls-13{opacity:.25;}.cls-27{fill:url(#SVGID_1_);}</style><pattern id="SVGID_1_" x="0" y="0" width="71" height="71" patternTransform="translate(-27877.93 -3253.8) scale(.1 -.1)" patternUnits="userSpaceOnUse" viewBox="0 0 71 71"><g><rect class="cls-21" width="71" height="71"/><g><rect class="cls-21" width="71" height="71"/><g><polygon class="cls-21" points="0 71 71 71 71 0 0 0 0 71"/><path class="cls-25" d="M41.8,35.5c0-3.5-2.8-6.3-6.3-6.3s-6.3,2.8-6.3,6.3,2.8,6.3,6.3,6.3,6.3-2.8,6.3-6.3Z"/></g></g></g></pattern></defs><g><g><path class="cls-3" d="M806,508.8s-4.5,53.4-36.2,74.9-56.7,14-56.7,14c0,0-33.1-8.1-57.8-41.9s-56.6-129.2-56.6-129.2c0,0-2.2-3-5.7-5.3s-6.3-2.6-6.3-2.6H219.1s-2.8,.3-6.3,2.6-5.7,5.3-5.7,5.3c0,0-31.9,95.5-56.6,129.2-5.2,7-10.7,13-16.2,17.9-20.9,18.8-41.6,24-41.6,24,0,0-5.3,1.6-14.2,1.2-10.3-.5-25.4-3.6-42.5-15.2C4.8,562.4,.1,509.9,0,508.8v-20.5c.1-6.4,.3-13.8,.6-21.4,0-1.2,.1-2.5,.1-3.7,0-.5,0-1,.1-1.6,0-.5,0-1,.1-1.5,0-.8,.1-1.7,.1-2.5v-.7c.1-1.4,.1-2.8,.2-4.1,.1-2.2,.2-4.4,.4-6.6,0-.6,.1-1.2,.1-1.8,.3-5,.7-9.7,1.1-14,.1-1.3,.3-2.6,.4-3.8v-.3c.3-2.9,.7-5.5,1.1-7.7,2.9-15.5,17.7-102.5,32-144.6,9.3-27.7,13-53,17-64.9,12-35.7,33-65.7,33-65.7,0,0,9.5-13,10.1-16.3s4.7-8.6,4.7-8.6c0,0,17.5-5.7,62.3-5.7s53.7,5,53.7,5c0,0,2.4,3,5.9,4.8,3.5,1.9,11.7,1.7,11.7,1.7h33.4s.5-.1,.9,.3c.3,.3,.6,2,.6,2h266.4s.2-1.6,.6-2c.3-.4,.9-.3,.9-.3h33.4s8.2,.1,11.7-1.7c3.5-1.9,5.9-4.8,5.9-4.8,0,0,8.8-5,53.7-5s62.3,5.7,62.3,5.7l.1,.1h0c.5,.7,4.1,5.5,4.6,8.5,.6,3.2,10.1,16.3,10.1,16.3,0,0,21,30,33,65.7,3.9,11.9,7.6,37.2,17,64.9,14.3,42.1,29.1,129.1,32,144.6,1.9,9.8,3,27.4,3.7,44.4,0,1.3,.1,2.5,.1,3.8,.8,22,.9,42,.9,42Z"/><path class="cls-3" d="M220.9,418.6h0l-2.5,.1c.3-.1,.5-.1,.5-.1h2Z"/><path class="cls-3" d="M726.8,598.8h0c-8.9,.4-14.2-1.2-14.2-1.2,0,0-20.7-5.1-41.6-24-5.5-5-11-10.9-16.2-17.9-24.7-33.7-56.6-129.2-56.6-129.2,0,0-2.2-3-5.7-5.3-2.8-1.8-5.1-2.4-6-2.5H221l-.1-.1h-2s-.2,0-.5,.1c-1,.2-3.2,.8-5.8,2.5-3.5,2.3-5.7,5.3-5.7,5.3,0,0-31.9,95.5-56.6,129.2-5.2,7-10.7,13-16.2,17.9-20.9,18.8-41.6,24-41.6,24,0,0-5.3,1.6-14.2,1.2h0c57.5-175.6,71.9-239.5,108.4-265.9,12.4-9,20.7-12.5,20.7-12.5h390.3s8.3,3.6,20.7,12.5c36.5,26.4,51,90.4,108.4,265.9Z"/><path class="cls-3" d="M36.6,276c9.4-27.7,13.1-53,17-64.9,12-35.7,33-65.7,33-65.7,0,0,9.5-13.1,10.1-16.3,.6-3.3,4.7-8.6,4.7-8.6,0,0,17.4-5.7,62.3-5.7s53.7,5,53.7,5c0,0,2.4,2.9,5.9,4.8,3.5,1.8,11.7,1.7,11.7,1.7h33.4s.6-.1,.9,.3c.4,.4,.6,2,.6,2h266.2s.3-1.7,.6-2c.4-.4,.9-.3,.9-.3h33.4s8.2,.2,11.7-1.7c3.5-1.8,5.9-4.8,5.9-4.8,0,0,8.8-5,53.7-5s62.3,5.7,62.3,5.7c0,0,4.1,5.3,4.7,8.6,.6,3.3,10.1,16.3,10.1,16.3,0,0,21,30,33,65.7,4,11.9,7.7,37.2,17,64.9,14.3,42.1,29.1,129.1,32,144.6,3.9,20.9,4.6,77.3,4.7,88.3v-.1s-.3-66.9-4.7-90.1c-2.9-15.5-17.7-102.5-32-144.6-9.4-27.7-13.1-53-17-64.9-12-35.7-33-65.7-33-65.7,0,0-9.5-13.1-10.1-16.3-.6-3.3-4.7-8.6-4.7-8.6,0,0-17.4-5.7-62.3-5.7s-53.7,5-53.7,5c0,0-2.4,2.9-5.9,4.8-3.5,1.8-11.7,1.7-11.7,1.7h-33.4s-.6-.1-.9,.3c-.4,.4-.6,2-.6,2H269.9s-.3-1.7-.6-2c-.4-.4-.9-.3-.9-.3h-33.4s-8.2,.2-11.7-1.7c-3.5-1.8-5.9-4.8-5.9-4.8,0,0-8.8-5-53.7-5s-62.3,5.7-62.3,5.7c0,0-4.1,5.3-4.7,8.6-.6,3.3-10.1,16.3-10.1,16.3,0,0-21,30-33,65.7-4,11.9-7.7,37.2-17,64.9-14.3,42.1-29.1,129.1-32,144.6C.3,441.8,0,508.8,0,508.8v.1c.1-10.9,.7-67.4,4.7-88.3,2.9-15.4,17.6-102.5,31.9-144.6Z"/><path class="cls-3" d="M351.1,362c.1,.7,.1,1.3,.1,2,0,21.5-8.9,40.9-23.1,54.8-13.8,13.4-32.6,21.7-53.4,21.7-17.4,0-33.4-5.8-46.2-15.6-2.5-1.9-5-4-7.2-6.2h0c-14.2-13.9-23-33.3-23-54.7,0-.7,.1-1.3,.1-2-.1-.7-.1-1.3-.1-2,0-13.7,3.6-26.6,10-37.7,.2-.3,.3-.6,.5-.8,6-10.3,14.3-19,24.3-25.5,1.6-1.1,3.3-2.1,5-3,10.9-6,23.4-9.4,36.7-9.4s25.8,3.4,36.7,9.4c23.7,13,39.8,38.2,39.8,67.1-.1,.5-.2,1.2-.2,1.9Z"/><circle class="cls-3" cx="274.7" cy="356" r="73"/><circle class="cls-3" cx="274.7" cy="356" r="51.5"/><path class="cls-3" d="M607.8,360c0-42.2-34.3-76.5-76.5-76.5s-76.5,34.3-76.5,76.5c0,.7,0,1.3,.1,2,0,.7-.1,1.3-.1,2,0,42.2,34.3,76.5,76.5,76.5s76.5-34.3,76.5-76.5c0-.7,0-1.3-.1-2,.1-.7,.1-1.4,.1-2Z"/><circle class="cls-3" cx="531.3" cy="356" r="73"/><circle class="cls-3" cx="531.3" cy="356" r="51.5"/><path class="cls-3" d="M553,131.3l-18.1,129.7c-1.4,7.9-4.9,13.1-12.9,15.4-1.7,.5-3.5,.7-5.3,.7h-227.3c-1.9,0-3.8-.3-5.5-.9-6.9-2.4-11.6-7.8-12.7-15.2l-18.2-129.7c-.1-.7,0-1.4,.1-2.1,.4-3.2,3.3-5.6,6.5-5.6h286.7c3.2,0,6.1,2.4,6.5,5.6,.2,.7,.3,1.4,.2,2.1Z"/><path class="cls-3" d="M746.6,244.8c0,52.1-42.2,94.3-94.3,94.3-21.8,0-42-7.4-57.9-19.9-5.3-9.1-12.5-16.9-21.1-22.9-9.7-14.8-15.3-32.5-15.3-51.5,0-52.1,42.2-94.3,94.3-94.3s94.3,42.2,94.3,94.3Z"/><g><path class="cls-3" d="M248,244.8c0,18.9-5.6,36.5-15.2,51.3-8.7,6.1-16,14-21.3,23.2-16,12.4-36,19.8-57.8,19.8-52.1,0-94.3-42.2-94.3-94.3s42.2-94.3,94.3-94.3,94.3,42.2,94.3,94.3Z"/><path class="cls-3" d="M230.4,254.1l9.5-8.9c.5-.5,.5-1.2,0-1.7l-9.5-8.9c-.7-.7-1.9-.2-1.9,.8v17.8c-.1,1,1.1,1.5,1.9,.9Z"/><path class="cls-3" d="M145,169.8h17.8c1,0,1.5-1.2,.8-1.9l-8.9-9.5c-.5-.5-1.2-.5-1.7,0l-8.9,9.5c-.6,.7-.1,1.9,.9,1.9Z"/><path class="cls-3" d="M77.5,234.6l-9.5,8.9c-.5,.5-.5,1.2,0,1.7l9.5,8.9c.7,.7,1.9,.2,1.9-.8v-17.8c0-1.1-1.2-1.6-1.9-.9Z"/><path class="cls-3" d="M162.8,318.8h-17.8c-1,0-1.5,1.2-.8,1.9l8.9,9.5c.5,.5,1.2,.5,1.7,0l8.9-9.5c.6-.7,.1-1.9-.9-1.9Z"/></g></g><g><path class="cls-19" d="M806,508.8s-4.5,53.4-36.2,74.9-56.7,14-56.7,14c0,0-33.1-8.1-57.8-41.9s-56.6-129.2-56.6-129.2c0,0-2.2-3-5.7-5.3s-6.3-2.6-6.3-2.6H219.1s-2.8,.3-6.3,2.6-5.7,5.3-5.7,5.3c0,0-31.9,95.5-56.6,129.2-5.2,7-10.7,13-16.2,17.9-20.9,18.8-41.6,24-41.6,24,0,0-5.3,1.6-14.2,1.2-10.3-.5-25.4-3.6-42.5-15.2C4.8,562.4,.1,509.9,0,508.8v-20.5c.1-6.4,.3-13.8,.6-21.4,0-1.2,.1-2.5,.1-3.7,0-.5,0-1,.1-1.6,0-.5,0-1,.1-1.5,0-.8,.1-1.7,.1-2.5v-.7c.1-1.4,.1-2.8,.2-4.1,.1-2.2,.2-4.4,.4-6.6,0-.6,.1-1.2,.1-1.8,.3-5,.7-9.7,1.1-14,.1-1.3,.3-2.6,.4-3.8v-.3c.3-2.9,.7-5.5,1.1-7.7,2.9-15.5,17.7-102.5,32-144.6,9.3-27.7,13-53,17-64.9,12-35.7,33-65.7,33-65.7,0,0,9.5-13,10.1-16.3s4.7-8.6,4.7-8.6c0,0,17.5-5.7,62.3-5.7s53.7,5,53.7,5c0,0,2.4,3,5.9,4.8,3.5,1.9,11.7,1.7,11.7,1.7h33.4s.5-.1,.9,.3c.3,.3,.6,2,.6,2h266.4s.2-1.6,.6-2c.3-.4,.9-.3,.9-.3h33.4s8.2,.1,11.7-1.7c3.5-1.9,5.9-4.8,5.9-4.8,0,0,8.8-5,53.7-5s62.3,5.7,62.3,5.7l.1,.1h0c.5,.7,4.1,5.5,4.6,8.5,.6,3.2,10.1,16.3,10.1,16.3,0,0,21,30,33,65.7,3.9,11.9,7.6,37.2,17,64.9,14.3,42.1,29.1,129.1,32,144.6,1.9,9.8,3,27.4,3.7,44.4,0,1.3,.1,2.5,.1,3.8,.8,22,.9,42,.9,42Z"/><path class="cls-12" d="M220.9,418.6h0l-2.5,.1c.3-.1,.5-.1,.5-.1h2Z"/><path class="cls-11" d="M726.8,598.8h0c-8.9,.4-14.2-1.2-14.2-1.2,0,0-20.7-5.1-41.6-24-5.5-5-11-10.9-16.2-17.9-24.7-33.7-56.6-129.2-56.6-129.2,0,0-2.2-3-5.7-5.3-2.8-1.8-5.1-2.4-6-2.5H221l-.1-.1h-2s-.2,0-.5,.1c-1,.2-3.2,.8-5.8,2.5-3.5,2.3-5.7,5.3-5.7,5.3,0,0-31.9,95.5-56.6,129.2-5.2,7-10.7,13-16.2,17.9-20.9,18.8-41.6,24-41.6,24,0,0-5.3,1.6-14.2,1.2h0c57.5-175.6,71.9-239.5,108.4-265.9,12.4-9,20.7-12.5,20.7-12.5h390.3s8.3,3.6,20.7,12.5c36.5,26.4,51,90.4,108.4,265.9Z"/><g class="cls-24"><path class="cls-2" d="M36.6,276c9.4-27.7,13.1-53,17-64.9,12-35.7,33-65.7,33-65.7,0,0,9.5-13.1,10.1-16.3,.6-3.3,4.7-8.6,4.7-8.6,0,0,17.4-5.7,62.3-5.7s53.7,5,53.7,5c0,0,2.4,2.9,5.9,4.8,3.5,1.8,11.7,1.7,11.7,1.7h33.4s.6-.1,.9,.3c.4,.4,.6,2,.6,2h266.2s.3-1.7,.6-2c.4-.4,.9-.3,.9-.3h33.4s8.2,.2,11.7-1.7c3.5-1.8,5.9-4.8,5.9-4.8,0,0,8.8-5,53.7-5s62.3,5.7,62.3,5.7c0,0,4.1,5.3,4.7,8.6,.6,3.3,10.1,16.3,10.1,16.3,0,0,21,30,33,65.7,4,11.9,7.7,37.2,17,64.9,14.3,42.1,29.1,129.1,32,144.6,3.9,20.9,4.6,77.3,4.7,88.3v-.1s-.3-66.9-4.7-90.1c-2.9-15.5-17.7-102.5-32-144.6-9.4-27.7-13.1-53-17-64.9-12-35.7-33-65.7-33-65.7,0,0-9.5-13.1-10.1-16.3-.6-3.3-4.7-8.6-4.7-8.6,0,0-17.4-5.7-62.3-5.7s-53.7,5-53.7,5c0,0-2.4,2.9-5.9,4.8-3.5,1.8-11.7,1.7-11.7,1.7h-33.4s-.6-.1-.9,.3c-.4,.4-.6,2-.6,2H269.9s-.3-1.7-.6-2c-.4-.4-.9-.3-.9-.3h-33.4s-8.2,.2-11.7-1.7c-3.5-1.8-5.9-4.8-5.9-4.8,0,0-8.8-5-53.7-5s-62.3,5.7-62.3,5.7c0,0-4.1,5.3-4.7,8.6-.6,3.3-10.1,16.3-10.1,16.3,0,0-21,30-33,65.7-4,11.9-7.7,37.2-17,64.9-14.3,42.1-29.1,129.1-32,144.6C.3,441.8,0,508.8,0,508.8v.1c.1-10.9,.7-67.4,4.7-88.3,2.9-15.4,17.6-102.5,31.9-144.6Z"/></g><path class="cls-3" d="M351.1,362c.1,.7,.1,1.3,.1,2,0,21.5-8.9,40.9-23.1,54.8-13.8,13.4-32.6,21.7-53.4,21.7-17.4,0-33.4-5.8-46.2-15.6-2.5-1.9-5-4-7.2-6.2h0c-14.2-13.9-23-33.3-23-54.7,0-.7,.1-1.3,.1-2-.1-.7-.1-1.3-.1-2,0-13.7,3.6-26.6,10-37.7,.2-.3,.3-.6,.5-.8,6-10.3,14.3-19,24.3-25.5,1.6-1.1,3.3-2.1,5-3,10.9-6,23.4-9.4,36.7-9.4s25.8,3.4,36.7,9.4c23.7,13,39.8,38.2,39.8,67.1-.1,.5-.2,1.2-.2,1.9Z"/><circle class="cls-15" cx="274.7" cy="356" r="73"/><circle cx="274.7" cy="356" r="51.5"/><path class="cls-3" d="M607.8,360c0-42.2-34.3-76.5-76.5-76.5s-76.5,34.3-76.5,76.5c0,.7,0,1.3,.1,2,0,.7-.1,1.3-.1,2,0,42.2,34.3,76.5,76.5,76.5s76.5-34.3,76.5-76.5c0-.7,0-1.3-.1-2,.1-.7,.1-1.4,.1-2Z"/><circle class="cls-15" cx="531.3" cy="356" r="73"/><circle cx="531.3" cy="356" r="51.5"/><path class="cls-18" d="M553,131.3l-18.1,129.7c-1.4,7.9-4.9,13.1-12.9,15.4-1.7,.5-3.5,.7-5.3,.7h-227.3c-1.9,0-3.8-.3-5.5-.9-6.9-2.4-11.6-7.8-12.7-15.2l-18.2-129.7c-.1-.7,0-1.4,.1-2.1,.4-3.2,3.3-5.6,6.5-5.6h286.7c3.2,0,6.1,2.4,6.5,5.6,.2,.7,.3,1.4,.2,2.1Z"/><path class="cls-22" d="M746.6,244.8c0,52.1-42.2,94.3-94.3,94.3-21.8,0-42-7.4-57.9-19.9-5.3-9.1-12.5-16.9-21.1-22.9-9.7-14.8-15.3-32.5-15.3-51.5,0-52.1,42.2-94.3,94.3-94.3s94.3,42.2,94.3,94.3Z"/><g><path class="cls-22" d="M248,244.8c0,18.9-5.6,36.5-15.2,51.3-8.7,6.1-16,14-21.3,23.2-16,12.4-36,19.8-57.8,19.8-52.1,0-94.3-42.2-94.3-94.3s42.2-94.3,94.3-94.3,94.3,42.2,94.3,94.3Z"/><path class="cls-3" d="M230.4,254.1l9.5-8.9c.5-.5,.5-1.2,0-1.7l-9.5-8.9c-.7-.7-1.9-.2-1.9,.8v17.8c-.1,1,1.1,1.5,1.9,.9Z"/><path class="cls-3" d="M145,169.8h17.8c1,0,1.5-1.2,.8-1.9l-8.9-9.5c-.5-.5-1.2-.5-1.7,0l-8.9,9.5c-.6,.7-.1,1.9,.9,1.9Z"/><path class="cls-3" d="M77.5,234.6l-9.5,8.9c-.5,.5-.5,1.2,0,1.7l9.5,8.9c.7,.7,1.9,.2,1.9-.8v-17.8c0-1.1-1.2-1.6-1.9-.9Z"/><path class="cls-3" d="M162.8,318.8h-17.8c-1,0-1.5,1.2-.8,1.9l8.9,9.5c.5,.5,1.2,.5,1.7,0l8.9-9.5c.6-.7,.1-1.9-.9-1.9Z"/></g></g></g><g><g><path d="M240.5,146.6c3.6,0,6.6,3,6.6,6.6v9.7c0,3.6-3,6.6-6.6,6.6s-6.6-3-6.6-6.6v-9.7c0-3.7,3-6.6,6.6-6.6m0-.9c-4.1,0-7.5,3.4-7.5,7.5v9.7c0,4.1,3.4,7.5,7.5,7.5s7.5-3.4,7.5-7.5v-9.7c0-4.2-3.4-7.5-7.5-7.5h0Z"/><path class="cls-19" d="M240.5,146.6c-3.6,0-6.6,3-6.6,6.6v9.7c0,3.6,3,6.6,6.6,6.6s6.6-3,6.6-6.6v-9.7c0-3.7-3-6.6-6.6-6.6Z"/></g><g><path d="M565.5,146.6c3.6,0,6.6,3,6.6,6.6v9.7c0,3.6-3,6.6-6.6,6.6s-6.6-3-6.6-6.6v-9.7c0-3.7,3-6.6,6.6-6.6m0-.9c-4.1,0-7.5,3.4-7.5,7.5v9.7c0,4.1,3.4,7.5,7.5,7.5s7.5-3.4,7.5-7.5v-9.7c0-4.2-3.4-7.5-7.5-7.5h0Z"/><path class="cls-19" d="M565.5,146.6c-3.6,0-6.6,3-6.6,6.6v9.7c0,3.6,3,6.6,6.6,6.6s6.6-3,6.6-6.6v-9.7c0-3.7-3-6.6-6.6-6.6Z"/></g><g><g><path class="cls-18" d="M141.2,247.2c1.4-2,1.2-2.9,1.2-2.9,0,0,.2-.9-1.2-2.9s-15-13.6-15.7-14-28.5-2.2-31.4,1.3-2.6,15.6-2.6,15.6c0,0-.3,12.1,2.6,15.6s30.7,1.7,31.4,1.3,14.3-12,15.7-14Z"/><path class="cls-13" d="M141.2,247.2c1.4-2,1.2-2.9,1.2-2.9,0,0,.2-.9-1.2-2.9-.9-1.3-6.9-6.6-11.2-10.3-2.1,3.9-3.4,8.4-3.4,13.2s1.2,9.3,3.4,13.2c4.3-3.7,10.3-9,11.2-10.3Z"/></g><g><path class="cls-18" d="M151,231.6c2,1.4,2.9,1.2,2.9,1.2,0,0,.9,.2,2.9-1.2s13.6-15,14-15.7,2.2-28.5-1.3-31.4-15.6-2.6-15.6-2.6c0,0-12.1-.3-15.6,2.6s-1.7,30.7-1.3,31.4c.5,.7,12,14.3,14,15.7Z"/><path class="cls-13" d="M151,231.6c2,1.4,2.9,1.2,2.9,1.2,0,0,.9,.2,2.9-1.2,1.3-.9,6.6-6.9,10.3-11.2-3.9-2.1-8.4-3.4-13.2-3.4s-9.3,1.2-13.2,3.4c3.8,4.3,9,10.3,10.3,11.2Z"/></g><g><path class="cls-18" d="M213.7,228.8c-2.9-3.5-30.7-1.7-31.4-1.3s-14.3,12-15.7,14-1.2,2.9-1.2,2.9c0,0-.2,.9,1.2,2.9s15,13.6,15.7,14,28.5,2.2,31.4-1.3,2.6-15.6,2.6-15.6c0,0,.3-12.1-2.6-15.6Z"/><path class="cls-13" d="M177.9,231.2c-4.3,3.7-10.3,9-11.2,10.3-1.4,2-1.2,2.9-1.2,2.9,0,0-.2,.9,1.2,2.9,.9,1.3,6.9,6.6,11.2,10.3,2.1-3.9,3.4-8.4,3.4-13.2,0-4.8-1.3-9.3-3.4-13.2Z"/></g><g><path class="cls-18" d="M156.8,257.1c-2-1.4-2.9-1.2-2.9-1.2,0,0-.9-.2-2.9,1.2s-13.6,15-14,15.7-2.2,28.5,1.3,31.4,15.6,2.6,15.6,2.6c0,0,12.1,.3,15.6-2.6s1.7-30.7,1.3-31.4c-.4-.8-12-14.3-14-15.7Z"/><path class="cls-13" d="M156.8,257.1c-2-1.4-2.9-1.2-2.9-1.2,0,0-.9-.2-2.9,1.2-1.3,.9-6.6,6.9-10.3,11.2,3.9,2.1,8.4,3.4,13.2,3.4s9.3-1.2,13.2-3.4c-3.7-4.3-9-10.3-10.3-11.2Z"/></g></g></g><g><g><circle cx="403" cy="294.1" r="4.1"/><circle cx="396.1" cy="304.3" r="4.1"/><circle cx="381.4" cy="304.3" r="4.1"/><circle cx="388.7" cy="294.1" r="4.1"/><circle cx="374.4" cy="294.1" r="4.1"/></g><g><circle cx="409.9" cy="304.3" r="4.1"/><circle cx="424.6" cy="304.3" r="4.1"/><circle cx="417.21" cy="294.1" r="4.1"/><circle cx="431.6" cy="294.1" r="4.1"/></g></g><g class="cls-16"><path class="cls-2" d="M403,319.5c-2.1,0-3.8-1.6-4.1-3.6,0,.2-.1,.3-.1,.5,0,2.3,1.8,4.1,4.1,4.1s4.1-1.8,4.1-4.1c0-.2,0-.3-.1-.5-.1,2-1.8,3.6-3.9,3.6Z"/><path class="cls-2" d="M403,299.6c2.3,0,4.1-1.8,4.1-4.1,0-.2,0-.3-.1-.5-.2,2-2,3.6-4.1,3.6s-3.8-1.6-4.1-3.6c0,.2-.1,.3-.1,.5,.2,2.2,2,4.1,4.3,4.1Z"/><path class="cls-2" d="M400.2,305.7c0-.2,0-.3-.1-.5-.2,2-2,3.6-4.1,3.6s-3.8-1.6-4.1-3.6c0,.2-.1,.3-.1,.5,0,2.3,1.8,4.1,4.1,4.1,2.4,0,4.3-1.8,4.3-4.1Z"/><path class="cls-2" d="M385.4,305.2c-.2,2-2,3.6-4.1,3.6s-3.8-1.6-4.1-3.6c0,.2-.1,.3-.1,.5,0,2.3,1.8,4.1,4.1,4.1s4.1-1.8,4.1-4.1c.2-.2,.2-.3,.1-.5Z"/><path class="cls-2" d="M388.8,319.5c-2.1,0-3.8-1.6-4.1-3.6,0,.2-.1,.3-.1,.5,0,2.3,1.8,4.1,4.1,4.1s4.1-1.8,4.1-4.1c0-.2,0-.3-.1-.5-.1,2-1.8,3.6-3.9,3.6Z"/><path class="cls-2" d="M388.8,299.6c2.3,0,4.1-1.8,4.1-4.1,0-.2,0-.3-.1-.5-.2,2-2,3.6-4.1,3.6s-3.8-1.6-4.1-3.6c0,.2-.1,.3-.1,.5,.1,2.2,2,4.1,4.3,4.1Z"/><path class="cls-2" d="M378.6,295.5c0-.2,0-.3-.1-.5-.2,2-2,3.6-4.1,3.6s-3.8-1.6-4.1-3.6c0,.2-.1,.3-.1,.5,0,2.3,1.8,4.1,4.1,4.1s4.3-1.9,4.3-4.1Z"/><path class="cls-2" d="M414,305.2c-.2,2-2,3.6-4.1,3.6s-3.8-1.6-4.1-3.6c0,.2-.1,.3-.1,.5,0,2.3,1.8,4.1,4.1,4.1s4.1-1.8,4.1-4.1c.2-.2,.1-.3,.1-.5Z"/><path class="cls-2" d="M424.6,308.8c-2.1,0-3.8-1.6-4.1-3.6,0,.2-.1,.3-.1,.5,0,2.3,1.8,4.1,4.1,4.1s4.1-1.8,4.1-4.1c0-.2,0-.3-.1-.5,0,2.1-1.8,3.6-3.9,3.6Z"/><path class="cls-2" d="M417.3,319.5c-2.1,0-3.8-1.6-4.1-3.6,0,.2-.1,.3-.1,.5,0,2.3,1.8,4.1,4.1,4.1s4.1-1.8,4.1-4.1c0-.2,0-.3-.1-.5-.1,2-1.8,3.6-3.9,3.6Z"/><path class="cls-2" d="M417.3,299.6c2.3,0,4.1-1.8,4.1-4.1,0-.2,0-.3-.1-.5-.2,2-2,3.6-4.1,3.6s-3.8-1.6-4.1-3.6c0,.2-.1,.3-.1,.5,.1,2.2,2,4.1,4.3,4.1Z"/><path class="cls-2" d="M431.6,298.6c-2.1,0-3.8-1.6-4.1-3.6,0,.2-.1,.3-.1,.5,0,2.3,1.8,4.1,4.1,4.1s4.1-1.8,4.1-4.1c0-.2,0-.3-.1-.5-.1,2-1.8,3.6-3.9,3.6Z"/></g><path class="cls-8" d="M423.2,400.8c0,1-.9,2.2-2.4,2.2h-35.6c-1.5,0-2.4-1.2-2.4-2.2,0-1.4,.3-2.6,1-3.5s2-1.5,3.9-1.5h30.6c1.9,0,3.1,.5,3.9,1.5,.7,.9,1,2.1,1,3.5Z"/><g><path class="cls-19" d="M543.9,124.9l-3,22.1-14.6,106.5v.8c-.1,1.3-.3,2.6-.7,3.8,0,.1-.1,.3-.1,.4-2.1,6.1-7.9,10.6-14.8,10.6h-215.6c-7.1,0-13.2-4.8-15-11.4,0-.1-.1-.3-.1-.4-.1-.2-.1-.4-.2-.7-.2-1-.3-2.1-.3-3.1l-.7-5-13.9-101.5-3-22.1c0-1,.8-1.9,1.9-1.9l139.1-.6,139.1,.6c1.1,0,1.9,.9,1.9,1.9Z"/><g class="cls-4"><path class="cls-27" d="M540.9,147l-14.6,106.5v.8c-.1,1.3-.3,2.6-.7,3.8,0,.1-.1,.3-.1,.4-2.1,5.2-8.9,10.6-30.4,10.6h-200c-7.1,0-13.2-4.8-15-11.4,0-.1-.1-.3-.1-.4-.1-.2-.1-.4-.2-.7-.2-1-.3-2.1-.3-3.1l-.7-5-13.9-101.5h276Z"/></g></g><g><g><g><path class="cls-26" d="M709.9,271c-14.5,0-26.3-11.8-26.3-26.3s11.8-26.3,26.3-26.3,26.3,11.8,26.3,26.3-11.8,26.3-26.3,26.3Z"/><path class="cls-1" d="M709.9,219.5c13.9,0,25.3,11.3,25.3,25.3s-11.3,25.2-25.3,25.2-25.3-11.3-25.3-25.3c0-14,11.4-25.2,25.3-25.2m0-2c-15,0-27.3,12.2-27.3,27.3s12.2,27.3,27.3,27.3,27.3-12.2,27.3-27.3-12.3-27.3-27.3-27.3h0Z"/></g><path class="cls-10" d="M709.9,225.9c-10.4,0-18.9,8.5-18.9,18.9s8.5,18.9,18.9,18.9,18.9-8.5,18.9-18.9c0-10.4-8.4-18.9-18.9-18.9Zm0,34.9c-8.9,0-16-7.2-16-16s7.2-16,16-16,16,7.2,16,16c.1,8.9-7.1,16-16,16Z"/></g><g><g><path class="cls-26" d="M652.3,328.6c-14.5,0-26.3-11.8-26.3-26.3s11.8-26.3,26.3-26.3,26.3,11.8,26.3,26.3-11.8,26.3-26.3,26.3Z"/><path class="cls-1" d="M652.3,277.1c13.9,0,25.3,11.3,25.3,25.3s-11.3,25.3-25.3,25.3-25.3-11.3-25.3-25.3,11.4-25.3,25.3-25.3m0-2c-15,0-27.3,12.2-27.3,27.3s12.2,27.3,27.3,27.3,27.3-12.2,27.3-27.3-12.2-27.3-27.3-27.3h0Z"/></g><polygon class="cls-5" points="666.7 290 664.7 288 652.3 300.4 640 288 638 290 650.3 302.4 638 314.7 640 316.7 652.3 304.4 664.7 316.7 666.7 314.7 654.3 302.4 666.7 290"/></g><g><g><path class="cls-26" d="M594.8,271c-14.5,0-26.3-11.8-26.3-26.3s11.8-26.3,26.3-26.3,26.3,11.8,26.3,26.3-11.9,26.3-26.3,26.3Z"/><path class="cls-1" d="M594.7,219.5c13.9,0,25.3,11.3,25.3,25.3s-11.3,25.2-25.3,25.2-25.3-11.3-25.3-25.3,11.4-25.2,25.3-25.2m0-2c-15,0-27.3,12.2-27.3,27.3s12.2,27.3,27.3,27.3,27.3-12.2,27.3-27.3-12.2-27.3-27.3-27.3h0Z"/></g><path class="cls-9" d="M606.3,230.4h-25.8v28.6h28.6v-28.6h-2.8Zm0,25.9h-23v-23h23v23Z"/></g><g><g><path class="cls-26" d="M652.3,213.5c-14.5,0-26.3-11.8-26.3-26.3s11.8-26.3,26.3-26.3,26.3,11.8,26.3,26.3-11.8,26.3-26.3,26.3Z"/><path class="cls-1" d="M652.3,162c13.9,0,25.3,11.3,25.3,25.3s-11.3,25.3-25.3,25.3-25.3-11.3-25.3-25.3,11.4-25.3,25.3-25.3m0-2c-15,0-27.3,12.2-27.3,27.3s12.2,27.3,27.3,27.3,27.3-12.2,27.3-27.3-12.2-27.3-27.3-27.3h0Z"/></g><path class="cls-6" d="M668.3,195.2l-16-27.6-16,27.6-1.6,2.8h35.2l-1.6-2.8Zm-16,0h-12.7l12.7-21.9,12.7,21.9h-12.7Z"/></g></g><g><path class="cls-3" d="M422.6,365.8c-1.6-.5-3-.9-4.4-1-.8-.1-1.7-.2-2.6-.2,1.5-1.5,2.3-3.7,2.3-6.6,0-3.5-.8-6.3-2.3-8-1.6-2-4.1-3.6-7.4-4.8l-1.9-.6c-1.4-.4-2.7-.8-3.9-1.2-1.8-.5-3.3-.8-4.8-1.2l-2-.4v20.5l-2.3,.7-8.9,3.2-1.6,.6c-2,.8-4.6,2.1-4.6,4.4v.2c.1,1.2,1.1,3.4,5.5,4.4,1.2,.4,2.5,.5,3.6,.7,1.2,.2,2.5,.2,3.8,.2,1.4,0,2.9-.1,4.5-.4v1.9l8.1,2.6,1.4,.5,1.3-.5,5.1-1.9,10.5-3.8,1.1-.6c3.9-1.4,4.5-3.4,4.5-4.6,0-2.5-3.8-3.7-5-4.1Zm-26.1,2.4l-1,.4-5.7,2.1-1.8,.6c-.2,.2-.5,.2-.6,.3-.2,.2-.3,.2-.5,.3-.3,.3-.2,.7,.3,1l2.4,.3,2.6-.5,1.5-.6,1.8-.6,.8-.3v3.7c-.3,.1-.5,.1-.8,.1-1.6,.3-3.1,.4-4.5,.4-1.3,0-2.4,0-3.6-.2-1.1-.2-2.3-.3-3.4-.6-2.8-.6-4.2-1.8-4.4-3.1,0-1,1.1-1.9,3.6-2.9l1.6-.6,8.9-3.2,1.8-.5,1-.3v4.2h0Zm8.3-16.2v27.7l-7.6-2.4v-33.3c1.5,.3,2.9,.7,4.7,1.1,1.8,.5,3.7,1.1,5.8,1.8,3.2,1.1,5.3,2.6,6.6,4.2,1.3,1.5,1.9,3.9,1.9,7,0,2.9-.8,4.9-2.4,6-.6,.5-1.6,.8-2.6,.8s-2.1-.2-3.4-.8v-11.2c0-1.6-.5-2.4-1.5-2.8-.5-.2-1,0-1.1,.3-.3,.3-.4,.8-.4,1.6Zm2.7,13.5c-.4,.1-.7,.2-1.1,.3v-.8l.7,.3c.1,.1,.2,.2,.4,.2Zm14.9,7.7l-1.1,.7-10.4,3.7-4.5,1.7-1.1,.4v-4.4l1.1-.4,9.4-3.5,2.3-.8c1-.3,1.3-.7,1.3-1-.2-.3-.6-.5-1.1-.6h-2.3l-1.8,.5-2.6,.8-5.2,1.9-1.1,.4v-4.6c.4-.2,.8-.3,1.1-.5,1.1-.4,2.1-.6,3.1-.8,1.5-.2,3.1-.5,4.5-.5,1.3-.2,2.8,0,4,.2,1.3,.2,2.6,.5,4,1,2.6,.8,3.9,1.8,3.9,2.8,.1,1-1.1,2.2-3.5,3Z"/><g><path class="cls-19" d="M404.8,372.7v-20.7c0-.8,.2-1.3,.5-1.6,.2-.3,.6-.5,1.1-.3,1,.3,1.5,1.1,1.5,2.8v11.2c1.3,.6,2.4,.8,3.4,.8s1.9-.3,2.6-.8c1.6-1.1,2.4-3.1,2.4-6,0-3.1-.6-5.5-1.9-7-1.3-1.6-3.4-3.1-6.6-4.2-2.1-.6-4-1.3-5.8-1.8s-3.2-.8-4.7-1.1v19.7h0v4.4h0v2.8h0v4h0v2.4l7.6,2.4v-5.8h0v-1.2h-.1Z"/><path class="cls-19" d="M387,371.9c-.3,.3-.2,.6,.3,1l2.4,.3,2.6-.5,1.5-.6,2.6-.9v3.7c-1.9,.3-3.7,.5-5.3,.5-1.3,0-2.4,0-3.6-.2-1.1-.2-2.3-.3-3.4-.6-2.8-.6-4.2-1.8-4.4-3.1,0-1,1.1-1.9,3.6-2.9l1.6-.6,8.9-3.2,2.8-.8v4.4l-6.6,2.4-1.8,.6c-.2,.2-.5,.2-.6,.3-.3,0-.5,0-.6,.2Z"/><path class="cls-19" d="M422.1,367.3c-1.5-.5-2.8-.8-4-1-1.3-.2-2.8-.3-4-.2-1.5,0-3.1,.3-4.5,.5-1.3,.3-2.8,.6-4.2,1.3v4.5l6.3-2.3,2.6-.8,1.8-.5h2.3c.5,.2,1,.3,1.1,.6,0,.3-.3,.6-1.3,1l-2.3,.8-10.5,3.9v4.4l5.7-2.1,10.4-3.7,1.1-.6c2.4-.8,3.6-1.9,3.6-3.1-.2-.9-1.5-1.8-4.1-2.7Z"/></g></g><g><g><path class="cls-7" d="M697.2,109.9c0-.8-.4-1.5-1.1-1.9-4.5-2.9-23.4-13.6-51.5-13.6s-41.1,5.9-45.1,8c-.8,.4-1.2,1.2-1.2,2,0,0,9.8-2.9,47.5-2.9s51.4,8.4,51.4,8.4Z"/><path class="cls-20" d="M697.1,116.8h0v-6.9s-13.7-8.4-51.4-8.4-47.5,2.9-47.5,2.9v11h0c7.7-1.3,21.2-2.6,44.1-2.6,28.5,.1,45.9,2.4,54.8,4Z"/></g><g><path class="cls-7" d="M108.8,109.9c0-.8,.4-1.5,1.1-1.9,4.5-2.9,23.4-13.6,51.5-13.6s41.1,5.9,45.1,8c.8,.4,1.2,1.2,1.2,2,0,0-9.8-2.9-47.5-2.9s-51.4,8.4-51.4,8.4Z"/><path class="cls-20" d="M108.9,116.8h0v-6.9s13.7-8.4,51.4-8.4,47.5,2.9,47.5,2.9v11h0c-7.7-1.3-21.2-2.6-44.1-2.6-28.5,.1-45.9,2.4-54.8,4Z"/></g></g><g><g><g><path class="cls-20" d="M697.2,90.8s-32.7-3.2-50.6-3.2-48.4,2.4-48.4,2.4c0,0,3.1-44.7,4.8-52,1.6-7.3,7.7-21.3,16.9-27.9s11.9-10.1,22.7-10.1,25.4,6.4,34.6,21.4c9.3,15,20,69.4,20,69.4Z"/><path class="cls-7" d="M598.7,83.2s26.1-4.4,49-4.4,47.9,4.4,47.9,4.4c1,4.7,1.6,7.6,1.6,7.6,0,0-32.7-3.2-50.6-3.2s-48.4,2.4-48.4,2.4c0,0,.2-2.7,.5-6.8Z"/></g><g class="cls-17"><path class="cls-2" d="M648.7,65.7c-2.1,1.7-3.2,2.6-3.2,2.6-1.2,1.2-1.9,2.7-2,4.5h9.8v-2.6h-6.3c.3-.5,1-1.2,2.1-1.9,1.4-.9,2.3-1.6,2.7-2.1,.9-1,1.3-2.1,1.3-3.3,0-1.4-.5-2.5-1.4-3.3s-2.1-1.2-3.5-1.2c-3.1,0-4.7,1.7-4.7,5h2.7c0-1.8,.7-2.7,2.1-2.7,1.3,0,2,.7,2,2.1,.2,1.1-.4,2-1.6,2.9Z"/><path class="cls-2" d="M631.1,67.2h3c1.5,0,2.3,.6,2.4,1.9,.1,1.2,.2,2.5,.3,3.8h3.3v-.4c-.5-.2-.7-.7-.7-1.5,0-.2,0-.4,.1-.8v-.7c0-1.7-.6-2.9-1.8-3.5,1.4-.5,2.2-1.6,2.2-3.4,0-1.3-.4-2.3-1.3-3-.8-.7-1.9-1-3.2-1h-7.3v14.3h3v-5.7Zm0-6.2h3.7c1.4,0,2.1,.6,2.1,1.9s-.8,1.9-2.3,1.9h-3.5v-3.8Z"/></g></g><g><g><path class="cls-20" d="M108.8,90.8s32.7-3.2,50.6-3.2,48.3,2.4,48.3,2.4c0,0-3.1-44.7-4.8-52-1.6-7.3-7.7-21.3-16.9-27.9-9.1-6.7-11.8-10.1-22.6-10.1s-25.4,6.4-34.6,21.4c-9.2,15-20,69.4-20,69.4Z"/><path class="cls-7" d="M207.3,83.2s-26.1-4.4-49-4.4-47.9,4.4-47.9,4.4c-1,4.7-1.6,7.6-1.6,7.6,0,0,32.7-3.2,50.6-3.2s48.3,2.4,48.3,2.4c0,0-.1-2.7-.4-6.8Z"/></g><g class="cls-17"><path class="cls-2" d="M173.3,65.7c-2.1,1.7-3.2,2.6-3.2,2.6-1.2,1.2-1.9,2.7-2,4.5h9.8v-2.6h-6.2c.3-.5,1-1.2,2.1-1.9,1.4-.9,2.3-1.6,2.7-2.1,.9-1,1.3-2.1,1.3-3.3,0-1.4-.5-2.5-1.4-3.3s-2.1-1.2-3.5-1.2c-3.1,0-4.7,1.7-4.7,5h2.7c0-1.8,.7-2.7,2.1-2.7,1.3,0,2,.7,2,2.1,.1,1.1-.5,2-1.7,2.9Z"/><polygon class="cls-2" points="164.8 70.2 157.8 70.2 157.8 58.5 154.7 58.5 154.7 72.8 164.8 72.8 164.8 70.2"/></g></g></g><path class="cls-23" d="M240.7,142.5h0c-.4,0-.8-.4-.8-.8v-5.6c0-.4,.4-.8,.8-.8h0c.4,0,.8,.4,.8,.8v5.6c0,.5-.4,.8-.8,.8Z"/><path class="cls-23" d="M238.3,143h0c-.4,.2-.9,0-1.1-.4l-2.4-5.1c-.2-.4,0-.9,.4-1.1h0c.4-.2,.9,0,1.1,.4l2.4,5.1c.1,.4,0,.9-.4,1.1Z"/><path class="cls-23" d="M243.1,143h0c.4,.2,.9,0,1.1-.4l2.4-5.1c.2-.4,0-.9-.4-1.1h0c-.4-.2-.9,0-1.1,.4l-2.4,5.1c-.2,.4,0,.9,.4,1.1Z"/><path class="cls-23" d="M558.5,141.8h0c0-.4,.4-.8,.8-.8h12.5c.4,0,.8,.4,.8,.8h0c0,.4-.4,.8-.8,.8h-12.5c-.5,0-.8-.4-.8-.8Z"/><path class="cls-23" d="M558.4,138.2h0c0-.4,.4-.8,.8-.8h12.5c.4,0,.8,.4,.8,.8h0c0,.4-.4,.8-.8,.8h-12.5c-.5,0-.8-.4-.8-.8Z"/><path class="cls-23" d="M558.5,134.6h0c0-.4,.4-.8,.8-.8h12.5c.4,0,.8,.4,.8,.8h0c0,.4-.4,.8-.8,.8h-12.5c-.5,0-.8-.4-.8-.8Z"/><g class="cls-13"><path d="M342.6,219l-2.5-6.8h-17.7l-2.5,6.8h-9.2v-4.1l15.3-35.5h10.5l15.2,35.5v4.1h-9.1Zm-11.3-32.2l-6.6,18.1h13.1l-6.5-18.1Z"/><path d="M355.4,219v-39.5h8.4v32.1h16.7v7.4h-25.1Z"/><path d="M386.4,219v-39.5h28v7.2h-19.6v8.6h19.2v7.2h-19.1v9.2h19.6v7.3h-28.1Z"/><path d="M446.8,219l-9.9-14.5-10,14.5h-10v-4.1l14.3-16.2-13.5-19.3v-4.1l10,4.1,9.1,13.5,8.9-13.5,10.1-4.1v4.1l-13.5,19.2,14.3,16.3v4.1h-9.8Z"/><path d="M471.6,219v-16.2l-15.2-23.3v-4.1l9.6,4.1,9.8,15.9,9.7-15.9,9.6-4.1v4.1l-15.1,23.4v16.1h-8.4Z"/></g><g><path class="cls-18" d="M342.6,215l-2.5-6.8h-17.7l-2.5,6.8h-9.2l15.3-39.5h10.5l15.2,39.5h-9.1Zm-11.3-32.3l-6.6,18.1h13.1l-6.5-18.1Z"/><path class="cls-18" d="M355.4,215v-39.5h8.4v32.1h16.7v7.4h-25.1Z"/><path class="cls-18" d="M386.4,215v-39.5h28v7.2h-19.6v8.6h19.2v7.2h-19.1v9.2h19.6v7.3h-28.1Z"/><path class="cls-18" d="M446.8,215l-9.9-14.5-10,14.5h-10l14.3-20.3-13.5-19.3h10l9.1,13.5,8.9-13.5h10.1l-13.5,19.2,14.3,20.3h-9.8v.1Z"/><path class="cls-18" d="M471.6,215v-16.2l-15.2-23.3h9.6l9.8,15.9,9.7-15.9h9.6l-15.1,23.3v16.2h-8.4Z"/></g><g><g><path class="cls-14" d="M274.8,401.38c-25.1,0-45.5-20.4-45.5-45.5s20.4-45.5,45.5-45.5,45.5,20.4,45.5,45.5-20.4,45.5-45.5,45.5Z"/><path class="cls-18" d="M274.8,311.88c24.3,0,44,19.7,44,44s-19.7,44-44,44-44-19.7-44-44,19.7-44,44-44m0-3c-26,0-47,21-47,47s21,47,47,47,47-21,47-47-21-47-47-47h0Z"/></g><circle class="cls-18" cx="274.8" cy="355.88" r="27.3"/></g><g><g><path class="cls-14" d="M531.3,401.38c-25.1,0-45.5-20.4-45.5-45.5s20.4-45.5,45.5-45.5,45.5,20.4,45.5,45.5-20.4,45.5-45.5,45.5Z"/><path class="cls-18" d="M531.3,311.88c24.3,0,44,19.7,44,44s-19.7,44-44,44-44-19.7-44-44,19.7-44,44-44m0-3c-26,0-47,21-47,47s21,47,47,47,47-21,47-47-21-47-47-47h0Z"/></g><circle class="cls-18" cx="531.3" cy="355.88" r="27.3"/></g></svg>