<?xml version="1.0" encoding="UTF-8"?><svg id="Layer_1" xmlns="http://www.w3.org/2000/svg" viewBox="0 0 286 94"><defs><style>.cls-1{fill:#ddd;}.cls-2{fill:#f0f0f0;}.cls-3{fill:#dbdbdb;}.cls-4{fill:#a400bc;}.cls-5{fill:#80009b;}</style></defs><g><g><path class="cls-5" d="M47,92.5C21.9,92.5,1.5,72.1,1.5,47S21.9,1.5,47,1.5s45.5,20.4,45.5,45.5-20.4,45.5-45.5,45.5Z"/><path class="cls-4" d="M47,3c24.3,0,44,19.7,44,44s-19.7,44-44,44S3,71.3,3,47,22.7,3,47,3m0-3C21,0,0,21,0,47s21,47,47,47,47-21,47-47S73,0,47,0h0Z"/></g><circle class="cls-4" cx="47" cy="47" r="27.3"/></g><g><g><path class="cls-2" d="M239,92.5c-25.1,0-45.5-20.4-45.5-45.5S213.9,1.5,239,1.5s45.5,20.4,45.5,45.5-20.4,45.5-45.5,45.5Z"/><path class="cls-3" d="M239,3c24.3,0,44,19.7,44,44s-19.7,44-44,44-44-19.7-44-44S214.7,3,239,3m0-3c-26,0-47,21-47,47s21,47,47,47,47-21,47-47S265,0,239,0h0Z"/></g><circle class="cls-1" cx="239" cy="47" r="27.3" transform="translate(151.25 274.22) rotate(-80.01)"/></g><g><g><path class="cls-2" d="M143,92.5c-25.1,0-45.5-20.4-45.5-45.5S117.9,1.5,143,1.5s45.5,20.4,45.5,45.5-20.4,45.5-45.5,45.5Z"/><path class="cls-3" d="M143,3c24.3,0,44,19.7,44,44s-19.7,44-44,44-44-19.7-44-44S118.7,3,143,3m0-3c-26,0-47,21-47,47s21,47,47,47,47-21,47-47S169,0,143,0h0Z"/></g><circle class="cls-1" cx="143" cy="47" r="27.3"/></g></svg>