<?xml version="1.0" encoding="UTF-8"?><svg id="Layer_1" xmlns="http://www.w3.org/2000/svg" width="806.1" height="598.97" xmlns:xlink="http://www.w3.org/1999/xlink" viewBox="0 0 806.1 598.97"><defs><style>.cls-1{fill:#fff;}.cls-2{fill:#10111a;}.cls-3{opacity:.22;}.cls-3,.cls-4,.cls-5,.cls-6,.cls-7{isolation:isolate;}.cls-8{fill:#0a0a0a;}.cls-9{fill:#0b0b0f;}.cls-4{fill:#e6e6e6;opacity:.1;}.cls-10{filter:url(#outer-glow-1);}.cls-11{fill:url(#SVGID_6_);}.cls-12,.cls-13{fill:#080808;}.cls-14{fill:#6af0ff;}.cls-15{opacity:.12;}.cls-16,.cls-5,.cls-6{opacity:.08;}.cls-17{fill:#13161f;}.cls-18{fill:#121212;}.cls-19{fill:none;}.cls-20{fill:#0d0e13;}.cls-21{fill:#a200aa;}.cls-22{opacity:.06;}.cls-23{fill:#b3b3b3;}.cls-24{fill:#0f1015;}.cls-5{fill:url(#SVGID_4_);}.cls-25{fill:#1f1f1f;}.cls-26{fill:#1a1a1a;}.cls-27{fill:#4f007f;}.cls-28{fill:#050505;stroke:#000;stroke-width:2px;}.cls-28,.cls-13{stroke-miterlimit:10;}.cls-29{fill:#f2f2f2;}.cls-13{stroke:#4f007f;stroke-width:3px;}.cls-6{fill:url(#SVGID_5_);}.cls-7{opacity:.25;}</style><pattern id="SVGID_4_" x="0" y="0" width="40" height="103" patternTransform="translate(-20567.82 12793.7) rotate(16) scale(.34)" patternUnits="userSpaceOnUse" viewBox="0 0 40 103"><g><rect class="cls-19" width="40" height="103"/><g><rect class="cls-19" width="40" height="103"/><rect class="cls-19" width="40" height="103"/><g><polygon class="cls-19" points="0 0 40 0 40 103 0 103 0 0"/><g><polygon class="cls-19" points="0 0 40 0 40 103 0 103 0 0"/><polygon points="34.5 231.8 37.5 231.8 37.5 77.3 34.5 77.3 34.5 231.8"/><polygon points="26.5 231.8 29.5 231.8 29.5 77.3 26.5 77.3 26.5 231.8"/><polygon points="18.5 231.8 21.5 231.8 21.5 77.3 18.5 77.3 18.5 231.8"/><polygon points="10.5 231.8 13.5 231.8 13.5 77.3 10.5 77.3 10.5 231.8"/><polygon points="2.5 231.8 5.5 231.8 5.5 77.3 2.5 77.3 2.5 231.8"/><polygon points="34.5 128.8 37.5 128.8 37.5 -25.7 34.5 -25.7 34.5 128.8"/><polygon points="26.5 128.8 29.5 128.8 29.5 -25.7 26.5 -25.7 26.5 128.8"/><polygon points="18.5 128.8 21.5 128.8 21.5 -25.7 18.5 -25.7 18.5 128.8"/><polygon points="10.5 128.8 13.5 128.8 13.5 -25.7 10.5 -25.7 10.5 128.8"/><polygon points="2.5 128.8 5.5 128.8 5.5 -25.7 2.5 -25.7 2.5 128.8"/><polygon points="34.5 25.8 37.5 25.8 37.5 -128.7 34.5 -128.7 34.5 25.8"/><polygon points="26.5 25.8 29.5 25.8 29.5 -128.7 26.5 -128.7 26.5 25.8"/><polygon points="18.5 25.8 21.5 25.8 21.5 -128.7 18.5 -128.7 18.5 25.8"/><polygon points="10.5 25.8 13.5 25.8 13.5 -128.7 10.5 -128.7 10.5 25.8"/><polygon points="2.5 25.8 5.5 25.8 5.5 -128.7 2.5 -128.7 2.5 25.8"/></g></g></g></g></pattern><pattern id="SVGID_5_" x="0" y="0" width="40" height="103" patternTransform="translate(-11.79 1473.74) rotate(164.74) scale(.34 -.34)" patternUnits="userSpaceOnUse" viewBox="0 0 40 103"><g><rect class="cls-19" width="40" height="103"/><g><rect class="cls-19" width="40" height="103"/><rect class="cls-19" width="40" height="103"/><g><polygon class="cls-19" points="0 0 40 0 40 103 0 103 0 0"/><g><polygon class="cls-19" points="0 0 40 0 40 103 0 103 0 0"/><polygon points="34.5 231.8 37.5 231.8 37.5 77.3 34.5 77.3 34.5 231.8"/><polygon points="26.5 231.8 29.5 231.8 29.5 77.3 26.5 77.3 26.5 231.8"/><polygon points="18.5 231.8 21.5 231.8 21.5 77.3 18.5 77.3 18.5 231.8"/><polygon points="10.5 231.8 13.5 231.8 13.5 77.3 10.5 77.3 10.5 231.8"/><polygon points="2.5 231.8 5.5 231.8 5.5 77.3 2.5 77.3 2.5 231.8"/><polygon points="34.5 128.8 37.5 128.8 37.5 -25.7 34.5 -25.7 34.5 128.8"/><polygon points="26.5 128.8 29.5 128.8 29.5 -25.7 26.5 -25.7 26.5 128.8"/><polygon points="18.5 128.8 21.5 128.8 21.5 -25.7 18.5 -25.7 18.5 128.8"/><polygon points="10.5 128.8 13.5 128.8 13.5 -25.7 10.5 -25.7 10.5 128.8"/><polygon points="2.5 128.8 5.5 128.8 5.5 -25.7 2.5 -25.7 2.5 128.8"/><polygon points="34.5 25.8 37.5 25.8 37.5 -128.7 34.5 -128.7 34.5 25.8"/><polygon points="26.5 25.8 29.5 25.8 29.5 -128.7 26.5 -128.7 26.5 25.8"/><polygon points="18.5 25.8 21.5 25.8 21.5 -128.7 18.5 -128.7 18.5 25.8"/><polygon points="10.5 25.8 13.5 25.8 13.5 -128.7 10.5 -128.7 10.5 25.8"/><polygon points="2.5 25.8 5.5 25.8 5.5 -128.7 2.5 -128.7 2.5 25.8"/></g></g></g></g></pattern><pattern id="SVGID_6_" x="0" y="0" width="71" height="71" patternTransform="translate(-27895.41 3990.3) scale(.1)" patternUnits="userSpaceOnUse" viewBox="0 0 71 71"><g><rect class="cls-19" width="71" height="71"/><g><rect class="cls-19" width="71" height="71"/><rect class="cls-19" width="71" height="71"/><g><polygon class="cls-19" points="0 0 71 0 71 71 0 71 0 0"/><g><polygon class="cls-19" points="0 0 71 0 71 71 0 71 0 0"/><path class="cls-23" d="M41.8,35.5c0,3.48-2.82,6.3-6.3,6.3s-6.3-2.82-6.3-6.3,2.82-6.3,6.3-6.3h0c3.46-.02,6.28,2.78,6.3,6.24v.06Z"/></g></g></g></g></pattern><filter id="outer-glow-1" filterUnits="userSpaceOnUse"><feOffset dx="0" dy="0"/><feGaussianBlur result="blur" stdDeviation="8"/><feFlood flood-color="#0071b7" flood-opacity="1"/><feComposite in2="blur" operator="in"/><feComposite in="SourceGraphic"/></filter></defs><g><path class="cls-20" d="M806,508.8s-4.5,53.4-36.2,74.9-56.7,14-56.7,14c0,0-33.1-8.1-57.8-41.9-11.08-15.17-23.62-42.74-34.07-68.54-.54-1.33-1.07-2.66-1.6-3.98-.84-2.08-1.66-4.15-2.46-6.2-10.76-27.44-18.47-50.48-18.47-50.48-1.61-2.06-3.53-3.85-5.7-5.3-1.89-1.31-4.04-2.2-6.3-2.6l-67.53,.04-116.17,.06-108.84-.06h-9.61l-65.25-.04c-2.26,.4-4.41,1.29-6.3,2.6-2.17,1.45-4.09,3.24-5.7,5.3,0,0-7.69,23.01-18.42,50.41-.43,1.09-.87,2.19-1.31,3.29-.25,.64-.51,1.28-.77,1.93-.63,1.59-1.27,3.19-1.92,4.81-10.47,25.88-23.06,53.58-34.18,68.76-24.7,33.7-57.8,41.9-57.8,41.9,0,0-25,7.5-56.7-14S0,508.8,0,508.8c0,0,.3-67,4.6-90.2,2.9-15.5,17.7-102.5,32-144.6,9.3-27.7,13-53,17-64.9,12-35.7,33-65.7,33-65.7,0,0,9.5-13,10.1-16.3s4.7-8.6,4.7-8.6c0,0,17.4-5.7,62.3-5.7s53.7,5,53.7,5c1.65,1.95,3.65,3.58,5.9,4.8,3.5,1.9,11.7,1.7,11.7,1.7h33.4c.33-.05,.66,.06,.9,.3,.3,.63,.5,1.31,.6,2h266.1c.07-.7,.27-1.38,.6-2,.23-.24,.57-.36,.9-.3h33.4s8.2,.1,11.7-1.7c2.22-1.25,4.22-2.88,5.9-4.8,0,0,8.8-5,53.7-5s62.3,5.7,62.3,5.7c0,0,4.1,5.4,4.7,8.6,.6,3.2,10.1,16.3,10.1,16.3,0,0,21,30,33,65.7,3.9,11.9,7.6,37.2,17,64.9,14.3,42.1,29.1,129.1,32,144.6,4.4,23.2,4.7,90.2,4.7,90.2h0Z"/><g><path class="cls-27" d="M511.88,418.74h9.61l65.25-.04c2.26,.4,4.41,1.29,6.3,2.6,2.17,1.45,4.09,3.24,5.7,5.3,0,0,7.69,23.01,18.42,50.41,.43,1.09,.87,2.19,1.31,3.29,.25,.64,.51,1.28,.77,1.93,8.01,1.62,15.6,4.42,22.99,8.24-6.23-12.78-16.31-20.9-28.99-26.47,6.36-.37,17.24,3.2,27.92,9.05-.06-5.47-5.95-12.74-17.53-22.23,6.43,2.46,12.85,4.95,19.3,7.37,6.49,2.44,13.13,4.29,20.89,4.51-1.85-3.38-5.1-4.51-7.23-6.73-2.26-2.36-4.8-4.46-7.21-6.68-2.36-2.17-4.7-4.35-6.86-6.88,13.28,3.62,26.56,6.31,40.26,5.9,3.78-.11,7.55-.99,11.3-1.63,.81-.14,1.55-.77,2.38-1.21-.42-.47-.61-.9-.89-.97-13.57-3.43-25.61-10.22-37.7-16.97-5.37-3.01-11.04-5.48-17.57-8.68,2.32,.27,3.75,.38,5.16,.62,7.89,1.34,15.75,2.85,23.66,4.03,10.8,1.62,21.43-.03,31.73-3.11,4.59-1.37,8.99-3.98,12.92-6.8,5.14-3.68,9.74-8.11,14.52-12.27,.6-.52,.91-1.37,1.12-2.54-16.74,7.75-33.89,9.98-52.5,5.54,4.2-1.29,7.83-2.09,11.2-3.5,23.1-9.63,41.89-24.53,55.18-45.93,4.9-7.88,9.64-15.87,12.17-24.93,.34-1.2,1.14-2.26,1.72-3.39l-.78-2.04c-7.81,8.65-15.78,17.13-25.08,24.23-8.81,6.73-18.02,12.83-28.31,17.13-7.21,3.02-14.24,6.51-21.59,9.11-8.71,3.08-17.69,5.4-26.54,8.12-2.24,.69-4.41,1.66-6.73,2.24,7.59-7.61,17.42-12,26.04-18.08-.13-.38-.25-.75-.37-1.12-2.6,.1-5.2,.2-7.8,.32-10.78,.51-21.32,2.27-31.25,6.65-4.46,1.97-8.66,4.52-13.02,6.73-2.38,1.21-4.84,2.26-8.36,3.9,2.83-4.97,6.56-7.7,9.21-11.79-11.2,1.12-44.28,22.66-65.67,42.5,1.22-3.86,3.72-6.08,5.69-8.61,2.02-2.57,4.14-5.08,6.34-7.5,2.33-2.55,4.74-5.03,7.23-7.42,2.29-2.19,4.73-4.23,6.8-6.77-22.86,2.09-40.92,13.15-56.38,30.25,.47-6.79,.88-12.95-2.74-19.6-1.04,3.54-1.68,6.11-2.53,8.6-2.01,5.83-5.64,10.64-9.46,15.32h0Z"/><g><path class="cls-27" d="M187.57,480.3c-.88,2.22-1.78,4.47-2.69,6.74-1.3,.09-2.62,.22-3.95,.4,1.77-3.2,4.13-5.19,6.64-7.14h0Z"/><path class="cls-27" d="M294.16,418.74h-9.61l-65.25-.04c-2.26,.4-4.41,1.29-6.3,2.6-2.17,1.45-4.09,3.24-5.7,5.3,0,0-7.69,23.01-18.42,50.41-.43,1.09-.87,2.19-1.31,3.29-.25,.64-.51,1.28-.77,1.93-8.01,1.62-15.6,4.42-22.99,8.24,6.23-12.78,16.31-20.9,28.99-26.47-6.36-.37-17.24,3.2-27.92,9.05,.06-5.47,5.95-12.74,17.53-22.23-6.43,2.46-12.85,4.95-19.3,7.37-6.49,2.44-13.13,4.29-20.89,4.51,1.85-3.38,5.1-4.51,7.23-6.73,2.26-2.36,4.8-4.46,7.21-6.68,2.36-2.17,4.7-4.35,6.86-6.88-13.28,3.62-26.56,6.31-40.26,5.9-3.78-.11-7.55-.99-11.3-1.63-.81-.14-1.55-.77-2.38-1.21,.42-.47,.61-.9,.89-.97,13.57-3.43,25.61-10.22,37.7-16.97,5.37-3.01,11.04-5.48,17.57-8.68-2.32,.27-3.75,.38-5.16,.62-7.89,1.34-15.75,2.85-23.66,4.03-10.8,1.62-21.43-.03-31.73-3.11-4.59-1.37-8.99-3.98-12.92-6.8-5.14-3.68-9.74-8.11-14.52-12.27-.6-.52-.91-1.37-1.12-2.54,16.74,7.75,33.89,9.98,52.5,5.54-4.2-1.29-7.83-2.09-11.2-3.5-23.1-9.63-41.89-24.53-55.18-45.93-4.9-7.88-9.64-15.87-12.17-24.93-.34-1.2-1.14-2.26-1.72-3.39l.78-2.04c7.81,8.65,15.78,17.13,25.08,24.23,8.81,6.73,18.02,12.83,28.31,17.13,7.21,3.02,14.24,6.51,21.59,9.11,8.71,3.08,17.69,5.4,26.54,8.12,2.24,.69,4.41,1.66,6.73,2.24-7.59-7.61-17.42-12-26.04-18.08,.13-.38,.25-.75,.37-1.12,2.6,.1,5.2,.2,7.8,.32,10.78,.51,21.32,2.27,31.25,6.65,4.46,1.97,8.66,4.52,13.02,6.73,2.38,1.21,4.84,2.26,8.36,3.9-2.83-4.97-6.56-7.7-9.21-11.79,11.2,1.12,44.28,22.66,65.67,42.5-1.22-3.86-3.72-6.08-5.69-8.61-2.02-2.57-4.14-5.08-6.34-7.5-2.33-2.55-4.74-5.03-7.23-7.42-2.29-2.19-4.73-4.23-6.8-6.77,22.86,2.09,40.92,13.15,56.38,30.25-.47-6.79-.88-12.95,2.74-19.6,1.04,3.54,1.68,6.11,2.53,8.6,2.01,5.83,5.64,10.64,9.46,15.32h0Z"/></g><path class="cls-27" d="M619.63,483.28c1.1,1.09,2.21,2.42,3.17,4.16-.53-.07-1.05-.13-1.57-.18-.54-1.33-1.07-2.66-1.6-3.98Z"/></g><g class="cls-22"><path class="cls-1" d="M36.6,276c9.4-27.7,13.1-53,17-64.9,12-35.7,33-65.7,33-65.7,0,0,9.5-13.1,10.1-16.3s4.7-8.6,4.7-8.6c0,0,17.4-5.7,62.3-5.7s53.7,5,53.7,5c1.68,1.92,3.68,3.55,5.9,4.8,3.5,1.8,11.7,1.7,11.7,1.7h33.4c.33-.06,.67,.06,.9,.3,.33,.62,.53,1.3,.6,2h266.2c.1-.69,.3-1.37,.6-2,.24-.24,.57-.35,.9-.3h33.4s8.2,.2,11.7-1.7c2.25-1.22,4.25-2.85,5.9-4.8,0,0,8.8-5,53.7-5s62.3,5.7,62.3,5.7c0,0,4.1,5.3,4.7,8.6s10.1,16.3,10.1,16.3c0,0,21,30,33,65.7,4,11.9,7.7,37.2,17,64.9,14.3,42.1,29.1,129.1,32,144.6,3.9,20.9,4.6,77.3,4.7,88.3v-.1s-.3-66.9-4.7-90.1c-2.9-15.5-17.7-102.5-32-144.6-9.4-27.7-13.1-53-17-64.9-12-35.7-33-65.7-33-65.7,0,0-9.5-13.1-10.1-16.3s-4.7-8.6-4.7-8.6c0,0-17.4-5.7-62.3-5.7s-53.7,5-53.7,5c-1.68,1.92-3.68,3.55-5.9,4.8-3.5,1.8-11.7,1.7-11.7,1.7h-33.4c-.33-.06-.67,.06-.9,.3-.33,.62-.53,1.3-.6,2H269.9c-.1-.69-.3-1.37-.6-2-.24-.24-.57-.35-.9-.3h-33.4s-8.2,.2-11.7-1.7c-2.25-1.22-4.25-2.85-5.9-4.8,0,0-8.8-5-53.7-5s-62.3,5.7-62.3,5.7c0,0-4.1,5.3-4.7,8.6-.6,3.3-10.1,16.3-10.1,16.3,0,0-21,30-33,65.7-4,11.9-7.7,37.2-17,64.9-14.3,42.1-29.1,129.1-32,144.6C.3,441.8,0,508.8,0,508.8v.1c.1-10.9,.7-67.4,4.7-88.3,2.9-15.4,17.6-102.5,31.9-144.6h0Z"/></g><path class="cls-17" d="M351.2,360c0-42.25-34.25-76.5-76.5-76.5s-76.5,34.25-76.5,76.5c-.02,.67,.02,1.34,.1,2,0,.7-.1,1.3-.1,2,0,42.25,34.25,76.5,76.5,76.5s76.5-34.25,76.5-76.5c.02-.67-.02-1.34-.1-2,0-.7,.1-1.4,.1-2Z"/><circle class="cls-24" cx="274.7" cy="356" r="73"/><circle cx="274.7" cy="356" r="51.5"/><path class="cls-17" d="M607.8,360c0-42.25-34.25-76.5-76.5-76.5s-76.5,34.25-76.5,76.5c-.02,.67,.02,1.34,.1,2,0,.7-.1,1.3-.1,2,0,42.25,34.25,76.5,76.5,76.5s76.5-34.25,76.5-76.5c.02-.67-.02-1.34-.1-2,.08-.66,.11-1.33,.1-2Z"/><circle class="cls-24" cx="531.3" cy="356" r="73"/><circle cx="531.3" cy="356" r="51.5"/><path class="cls-27" d="M534.8,128c-.48-3.22-3.25-5.6-6.5-5.6h-250.6c-3.27-.04-6.06,2.36-6.5,5.6-.08,.7-.12,1.4-.1,2.1v127.4c0,8.89,7.19,16.09,16.08,16.1h231.62c8.89,0,16.09-7.19,16.1-16.08v-127.42c.07-.7,.03-1.41-.1-2.1h0Z"/><circle class="cls-13" cx="652.3" cy="244.8" r="94.3"/><g><circle class="cls-13" cx="153.7" cy="244.8" r="94.3"/><path class="cls-25" d="M230.4,254.1l9.5-8.9c.47-.43,.5-1.16,.08-1.62-.02-.03-.05-.05-.08-.08l-9.5-8.9c-.44-.43-1.15-.42-1.58,.02-.2,.21-.32,.49-.32,.78v17.8c-.02,.63,.49,1.16,1.12,1.18,.29,0,.56-.09,.78-.28h0Z"/><path class="cls-25" d="M145,169.8h17.8c.62,0,1.12-.51,1.12-1.12,0-.29-.11-.57-.32-.78l-8.9-9.5c-.43-.47-1.16-.5-1.62-.08-.03,.02-.05,.05-.08,.08l-8.9,9.5c-.4,.5-.32,1.24,.18,1.64,.2,.16,.46,.25,.72,.26Z"/><path class="cls-25" d="M77.5,234.6l-9.5,8.9c-.47,.43-.5,1.16-.08,1.62,.02,.03,.05,.05,.08,.08l9.5,8.9c.44,.43,1.15,.42,1.58-.02,.2-.21,.32-.49,.32-.78v-17.8c.04-.62-.43-1.16-1.05-1.2-.31-.02-.62,.09-.85,.3h0Z"/><path class="cls-25" d="M162.8,318.8h-17.8c-.62,0-1.12,.51-1.12,1.12,0,.29,.11,.57,.32,.78l8.9,9.5c.43,.47,1.16,.5,1.62,.08,.03-.02,.05-.05,.08-.08l8.9-9.5c.4-.5,.32-1.24-.18-1.64-.2-.16-.46-.25-.72-.26h0Z"/></g></g><g><g><path class="cls-4" d="M105.2,544.5c-40.5-2.8-75.8-20.3-87.3-30.5S.4,482.4,.4,482.4c-.4,15-.4,26.3-.4,26.3,0,0,4.5,53.4,36.2,74.9s56.7,14,56.7,14c0,0,33.1-8.2,57.8-41.9,5.27-7.58,9.98-15.54,14.1-23.8-.1,0-19.2,15.3-59.6,12.6h0Z"/><path class="cls-5" d="M105.2,544.5c-40.5-2.8-75.8-20.3-87.3-30.5S.4,482.4,.4,482.4c-.4,15-.4,26.3-.4,26.3,0,0,4.5,53.4,36.2,74.9s56.7,14,56.7,14c0,0,33.1-8.2,57.8-41.9,5.27-7.58,9.98-15.54,14.1-23.8-.1,0-19.2,15.3-59.6,12.6h0Z"/><path class="cls-3" d="M90,592.5c-12.5,1.8-31.3-2-45.1-7.7-13.6-5.7-24-16.4-24-16.4,4.19,5.91,9.37,11.05,15.3,15.2,31.7,21.5,56.7,14,56.7,14,0,0,11.7-2.9,26.3-12.3-9.5,3.27-19.27,5.67-29.2,7.2Z"/></g><g><path class="cls-4" d="M700.8,544.5c40.5-2.8,75.8-20.3,87.3-30.5s17.5-31.5,17.5-31.5c.4,15,.4,26.3,.4,26.3,0,0-4.5,53.4-36.2,74.9s-56.7,14-56.7,14c0,0-33.1-8.2-57.8-41.9-5.27-7.58-9.98-15.54-14.1-23.8,.1-.1,19.2,15.2,59.6,12.5Z"/><path class="cls-6" d="M700.8,544.5c40.5-2.8,75.8-20.3,87.3-30.5s17.5-31.5,17.5-31.5c.4,15,.4,26.3,.4,26.3,0,0-4.5,53.4-36.2,74.9s-56.7,14-56.7,14c0,0-33.1-8.2-57.8-41.9-5.27-7.58-9.98-15.54-14.1-23.8,.1-.1,19.2,15.2,59.6,12.5Z"/><path class="cls-3" d="M716,592.5c12.5,1.8,31.3-2,45.1-7.7,13.6-5.7,24-16.4,24-16.4-4.19,5.91-9.37,11.05-15.3,15.2-31.7,21.5-56.7,14-56.7,14,0,0-11.7-2.9-26.3-12.3,9.5,3.27,19.27,5.67,29.2,7.2Z"/></g><g><path d="M240.5,143.5c6.9,0,12.5,5.6,12.5,12.5v18.3c0,6.9-5.6,12.5-12.5,12.5s-12.5-5.6-12.5-12.5v-18.3c0-6.9,5.6-12.5,12.5-12.5m0-1.7c-7.83,.03-14.17,6.37-14.2,14.2v18.3c0,7.84,6.37,14.2,14.21,14.19,7.84,0,14.19-6.36,14.19-14.19v-18.3c0-7.84-6.34-14.19-14.18-14.2h-.02Z"/><path class="cls-2" d="M240.5,143.5c-6.9,0-12.5,5.6-12.5,12.5v18.3c0,6.9,5.6,12.5,12.5,12.5s12.5-5.6,12.5-12.5v-18.3c0-6.9-5.6-12.5-12.5-12.5Z"/></g><g><path d="M565.5,143.5c6.9,0,12.5,5.6,12.5,12.5v18.3c0,6.9-5.6,12.5-12.5,12.5h0c-6.9,0-12.5-5.6-12.5-12.5h0v-18.3c0-6.9,5.6-12.5,12.5-12.5h0m0-1.7c-7.83,.03-14.17,6.37-14.2,14.2v18.3c0,7.84,6.36,14.2,14.2,14.2s14.2-6.36,14.2-14.2h0v-18.3c0-7.84-6.34-14.19-14.18-14.2h-.02Z"/><path class="cls-2" d="M565.5,143.5c-6.9,0-12.5,5.6-12.5,12.5v18.3c0,6.9,5.6,12.5,12.5,12.5s12.5-5.6,12.5-12.5v-18.3c0-6.9-5.6-12.5-12.5-12.5Z"/></g><g><g><path class="cls-27" d="M141.2,247.2c1.4-2,1.2-2.9,1.2-2.9,0,0,.2-.9-1.2-2.9s-15-13.6-15.7-14-28.5-2.2-31.4,1.3-2.6,15.6-2.6,15.6c0,0-.3,12.1,2.6,15.6s30.7,1.7,31.4,1.3,14.3-12,15.7-14h0Z"/><path class="cls-7" d="M141.2,247.2c1.4-2,1.2-2.9,1.2-2.9,0,0,.2-.9-1.2-2.9-.9-1.3-6.9-6.6-11.2-10.3-2.21,4.05-3.38,8.59-3.4,13.2-.03,4.62,1.14,9.17,3.4,13.2,4.3-3.7,10.3-9,11.2-10.3Z"/></g><g><path class="cls-27" d="M151,231.6c2,1.4,2.9,1.2,2.9,1.2,0,0,.9,.2,2.9-1.2s13.6-15,14-15.7,2.2-28.5-1.3-31.4-15.6-2.6-15.6-2.6c0,0-12.1-.3-15.6,2.6s-1.7,30.7-1.3,31.4,12,14.3,14,15.7h0Z"/><path class="cls-7" d="M151,231.6c2,1.4,2.9,1.2,2.9,1.2,0,0,.9,.2,2.9-1.2,1.3-.9,6.6-6.9,10.3-11.2-4.05-2.21-8.59-3.38-13.2-3.4-4.62-.03-9.17,1.14-13.2,3.4,3.8,4.3,9,10.3,10.3,11.2Z"/></g><g><path class="cls-27" d="M213.7,228.8c-2.9-3.5-30.7-1.7-31.4-1.3s-14.3,12-15.7,14-1.2,2.9-1.2,2.9c0,0-.2,.9,1.2,2.9s15,13.6,15.7,14,28.5,2.2,31.4-1.3,2.6-15.6,2.6-15.6c0,0,.3-12.1-2.6-15.6h0Z"/><path class="cls-7" d="M177.9,231.2c-4.3,3.7-10.3,9-11.2,10.3-1.4,2-1.2,2.9-1.2,2.9,0,0-.2,.9,1.2,2.9,.9,1.3,6.9,6.6,11.2,10.3,4.53-8.22,4.53-18.18,0-26.4h0Z"/></g><g><path class="cls-27" d="M156.8,257.1c-2-1.4-2.9-1.2-2.9-1.2,0,0-.9-.2-2.9,1.2s-13.6,15-14,15.7-2.2,28.5,1.3,31.4,15.6,2.6,15.6,2.6c0,0,12.1,.3,15.6-2.6s1.7-30.7,1.3-31.4-12-14.3-14-15.7h0Z"/><path class="cls-7" d="M156.8,257.1c-2-1.4-2.9-1.2-2.9-1.2,0,0-.9-.2-2.9,1.2-1.3,.9-6.6,6.9-10.3,11.2,4.05,2.21,8.59,3.38,13.2,3.4,4.62,.03,9.17-1.14,13.2-3.4-3.7-4.3-9-10.3-10.3-11.2Z"/></g></g></g><g><g><circle cx="403" cy="316.4" r="4.1"/><circle cx="403" cy="295.5" r="4.1"/><circle cx="396.1" cy="305.7" r="4.1"/><circle cx="381.4" cy="305.7" r="4.1"/><circle cx="388.7" cy="316.4" r="4.1"/><circle cx="388.7" cy="295.5" r="4.1"/><circle cx="374.4" cy="295.5" r="4.1"/></g><g><circle cx="409.9" cy="305.7" r="4.1"/><circle cx="424.6" cy="305.7" r="4.1"/><circle cx="417.22" cy="316.42" r="4.1"/><circle cx="417.22" cy="295.52" r="4.1"/><circle cx="431.6" cy="295.5" r="4.1"/></g></g><g class="cls-15"><path class="cls-1" d="M403,319.5c-2.07-.02-3.81-1.55-4.1-3.6,0,.2-.1,.3-.1,.5,0,2.26,1.84,4.1,4.1,4.1s4.1-1.84,4.1-4.1c.02-.17-.02-.35-.1-.5-.13,2.05-1.85,3.63-3.9,3.6Z"/><path class="cls-1" d="M403,299.6c2.24,.02,4.08-1.78,4.1-4.02v-.08c.02-.17-.02-.35-.1-.5-.26,2.06-2.02,3.61-4.1,3.6-2.07-.02-3.81-1.55-4.1-3.6,0,.2-.1,.3-.1,.5,.17,2.27,2.03,4.03,4.3,4.1h0Z"/><path class="cls-1" d="M400.2,305.7c.02-.17-.02-.35-.1-.5-.26,2.06-2.02,3.61-4.1,3.6-2.07-.02-3.81-1.55-4.1-3.6,0,.2-.1,.3-.1,.5-.02,2.24,1.78,4.08,4.02,4.1h.08c2.3,.07,4.23-1.74,4.3-4.04v-.06h0Z"/><path class="cls-1" d="M385.4,305.2c-.26,2.06-2.02,3.61-4.1,3.6-2.07-.02-3.81-1.55-4.1-3.6,0,.2-.1,.3-.1,.5,0,2.26,1.84,4.1,4.1,4.1s4.1-1.84,4.1-4.1c.2-.2,.2-.3,.1-.5Z"/><path class="cls-1" d="M388.8,319.5c-2.07-.02-3.81-1.55-4.1-3.6,0,.2-.1,.3-.1,.5,0,2.26,1.84,4.1,4.1,4.1s4.1-1.84,4.1-4.1c.02-.17-.02-.35-.1-.5-.13,2.05-1.85,3.63-3.9,3.6Z"/><path class="cls-1" d="M388.8,299.6c2.24,.02,4.08-1.78,4.1-4.02v-.08c.02-.17-.02-.35-.1-.5-.26,2.06-2.02,3.61-4.1,3.6-2.07-.02-3.81-1.55-4.1-3.6,0,.2-.1,.3-.1,.5,.14,2.28,2.02,4.07,4.3,4.1h0Z"/><path class="cls-1" d="M378.6,295.5c.02-.17-.02-.35-.1-.5-.26,2.06-2.02,3.61-4.1,3.6-2.07-.02-3.81-1.55-4.1-3.6,0,.2-.1,.3-.1,.5-.02,2.24,1.78,4.08,4.02,4.1h.08c2.31,.04,4.23-1.79,4.3-4.1h0Z"/><path class="cls-1" d="M414,305.2c-.26,2.06-2.02,3.61-4.1,3.6-2.07-.02-3.81-1.55-4.1-3.6,0,.2-.1,.3-.1,.5,0,2.26,1.84,4.1,4.1,4.1s4.1-1.84,4.1-4.1c.2-.2,.1-.3,.1-.5Z"/><path class="cls-1" d="M424.6,308.8c-2.07-.02-3.81-1.55-4.1-3.6,0,.2-.1,.3-.1,.5,0,2.26,1.84,4.1,4.1,4.1s4.1-1.84,4.1-4.1c.02-.17-.02-.35-.1-.5-.06,2.05-1.78,3.67-3.83,3.6h-.07Z"/><path class="cls-1" d="M417.3,319.5c-2.07-.02-3.81-1.55-4.1-3.6,0,.2-.1,.3-.1,.5,0,2.26,1.84,4.1,4.1,4.1s4.1-1.84,4.1-4.1c.02-.17-.02-.35-.1-.5-.13,2.05-1.85,3.63-3.9,3.6Z"/><path class="cls-1" d="M417.3,299.6c2.24,.02,4.08-1.78,4.1-4.02v-.08c.02-.17-.02-.35-.1-.5-.26,2.06-2.02,3.61-4.1,3.6-2.07-.02-3.81-1.55-4.1-3.6,0,.2-.1,.3-.1,.5,.14,2.28,2.02,4.07,4.3,4.1h0Z"/><path class="cls-1" d="M431.6,298.6c-2.07-.02-3.81-1.55-4.1-3.6,0,.2-.1,.3-.1,.5,0,2.26,1.84,4.1,4.1,4.1s4.1-1.84,4.1-4.1c.02-.17-.02-.35-.1-.5-.13,2.05-1.85,3.63-3.9,3.6Z"/></g><path class="cls-9" d="M436.6,421h-67.9c-2.8,0-4.6,.6-4.6-2.2h0c0-2.76,2.24-5,5-5h67.9c2.76,0,5,2.24,5,5h0c.1,2.7-2.6,2.2-5.4,2.2Z"/><path d="M408.3,418.8h-36.5c-.5,0-.9-.4-.9-.9h0c0-1.1,.9-2,2-2h34.2c1.1,0,2,.9,2,2h0c.07,.42-.21,.82-.63,.89-.06,0-.11,.01-.17,.01h0Z"/><path d="M430.5,419.6h-4.2c-.93-.03-1.67-.77-1.7-1.7h0c0-1.55,1.25-2.8,2.8-2.8h1.9c1.55,0,2.8,1.25,2.8,2.8h0c.11,.82-.46,1.58-1.28,1.69-.11,.01-.21,.02-.32,0h0Z"/><g><path class="cls-12" d="M530.4,124.3c0-1.05-.85-1.9-1.9-1.9h-251.1c-1.05,0-1.9,.85-1.9,1.9V253.5c.01,8.61,6.99,15.59,15.6,15.6h223.8c8.61-.01,15.59-6.99,15.6-15.6v-123.1s-.1-6.1-.1-6.1Z"/><g class="cls-15"><path class="cls-11" d="M275.5,253.5c.01,8.61,6.99,15.59,15.6,15.6h223.8c8.61-.01,15.59-6.99,15.6-15.6v-106.5h-255v106.5Z"/></g></g><g><g><g><path class="cls-26" d="M709.9,271c-14.53,0-26.3-11.77-26.3-26.3s11.77-26.3,26.3-26.3,26.3,11.77,26.3,26.3h0c-.02,14.52-11.78,26.28-26.3,26.3Z"/><path class="cls-27" d="M709.9,219.5c13.95,.03,25.23,11.35,25.2,25.3-.03,13.95-11.35,25.23-25.3,25.2s-25.23-11.35-25.2-25.3c.07-13.93,11.37-25.18,25.3-25.2m0-2c-15.08,0-27.3,12.22-27.3,27.3s12.22,27.3,27.3,27.3,27.3-12.22,27.3-27.3h0c-.02-15.07-12.23-27.28-27.3-27.3Z"/></g><path class="cls-21" d="M709.9,225.9c-10.44,0-18.9,8.46-18.9,18.9s8.46,18.9,18.9,18.9,18.9-8.46,18.9-18.9c-.03-10.43-8.47-18.87-18.9-18.9Zm0,34.9c-8.84,0-16-7.16-16-16s7.16-16,16-16,16,7.16,16,16-7.16,16-16,16Z"/></g><g><g><path class="cls-26" d="M652.3,328.6c-14.53,0-26.3-11.77-26.3-26.3s11.77-26.3,26.3-26.3,26.3,11.77,26.3,26.3h0c-.02,14.52-11.78,26.28-26.3,26.3Z"/><path class="cls-27" d="M652.3,277.1c13.97,0,25.3,11.33,25.3,25.3s-11.33,25.3-25.3,25.3-25.3-11.33-25.3-25.3h0c.02-13.97,11.33-25.28,25.3-25.3m0-2c-15.08,0-27.3,12.22-27.3,27.3s12.22,27.3,27.3,27.3,27.3-12.22,27.3-27.3h0c-.02-15.07-12.23-27.28-27.3-27.3Z"/></g><polygon class="cls-21" points="666.7 290 664.7 288 652.3 300.4 640 288 638 290 650.3 302.4 638 314.7 640 316.7 652.3 304.4 664.7 316.7 666.7 314.7 654.3 302.4 666.7 290"/></g><g><g><path class="cls-26" d="M594.8,271c-14.53,0-26.3-11.77-26.3-26.3s11.77-26.3,26.3-26.3,26.3,11.77,26.3,26.3h0c-.02,14.52-11.78,26.28-26.3,26.3Z"/><path class="cls-27" d="M594.7,219.5c13.95,.03,25.23,11.35,25.2,25.3-.03,13.95-11.35,25.23-25.3,25.2s-25.23-11.35-25.2-25.3c.07-13.93,11.37-25.18,25.3-25.2m0-2c-15.08,0-27.3,12.22-27.3,27.3s12.22,27.3,27.3,27.3,27.3-12.22,27.3-27.3h0c-.02-15.07-12.23-27.28-27.3-27.3Z"/></g><path class="cls-21" d="M606.3,230.4h-25.8v28.6h28.6v-28.6h-2.8Zm0,25.9h-23v-23h23v23Z"/></g><g><g><path class="cls-26" d="M652.3,213.5c-14.53,0-26.3-11.77-26.3-26.3s11.77-26.3,26.3-26.3,26.3,11.77,26.3,26.3h0c-.02,14.52-11.78,26.28-26.3,26.3Z"/><path class="cls-27" d="M652.3,162c13.97,0,25.3,11.33,25.3,25.3s-11.33,25.3-25.3,25.3-25.3-11.33-25.3-25.3h0c.02-13.97,11.33-25.28,25.3-25.3m0-2c-15.08,0-27.3,12.22-27.3,27.3s12.22,27.3,27.3,27.3,27.3-12.22,27.3-27.3h0c-.02-15.07-12.23-27.28-27.3-27.3Z"/></g><path class="cls-21" d="M668.3,195.2l-16-27.6-16,27.6-1.6,2.8h35.2l-1.6-2.8h0Zm-16,0h-12.7l12.7-21.9,12.7,21.9h-12.7Z"/></g></g><g><circle class="cls-28" cx="403" cy="362" r="20.2"/><g><path class="cls-29" d="M404.1,368.6v-12.8c-.04-.36,.07-.72,.3-1,.15-.23,.45-.31,.7-.2,.6,.2,.9,.7,.9,1.7v6.9c.65,.33,1.37,.5,2.1,.5,.57,0,1.13-.17,1.6-.5,1-.7,1.5-1.9,1.5-3.7,.12-1.53-.3-3.05-1.2-4.3-1.1-1.23-2.52-2.14-4.1-2.6-1.3-.4-2.5-.8-3.6-1.1s-2-.5-2.9-.7v12.2h0v2.7h0v1.7h0v2.5h0v1.5l4.7,1.5v-3.6h0v-.7Z"/><path class="cls-29" d="M399,367.6l-1.7,.6-.9,.4-1.6,.3-1.5-.2c-.3-.2-.4-.4-.2-.6s.2-.1,.3-.2,.3-.1,.4-.2l1.1-.4,4.1-1.5v-2.7l-1.7,.5-5.5,2-1,.4c-1.5,.6-2.2,1.2-2.2,1.8,.1,.8,1,1.5,2.7,1.9,1.4,.37,2.85,.54,4.3,.5,1.11,0,2.21-.11,3.3-.3v-2.3h.1Z"/><path class="cls-29" d="M414.8,365.3c-.81-.28-1.65-.48-2.5-.6-.83-.13-1.67-.17-2.5-.1-.94,.05-1.87,.15-2.8,.3-.89,.19-1.76,.46-2.6,.8v2.8l3.9-1.4,1.6-.5,1.1-.3h1.4c.3,.1,.6,.2,.7,.4s-.2,.4-.8,.6l-1.4,.5-6.5,2.4v2.7l3.5-1.3,6.4-2.3,.7-.4c1.5-.5,2.2-1.2,2.2-1.9s-.8-1.2-2.4-1.7h0Z"/></g></g><g><g><path class="cls-8" d="M697.2,109.9c.01-.79-.41-1.52-1.1-1.9-4.5-2.9-23.4-13.6-51.5-13.6s-41.1,5.9-45.1,8c-.75,.38-1.22,1.16-1.2,2,0,0,9.8-2.9,47.5-2.9s51.4,8.4,51.4,8.4h0Z"/><path class="cls-18" d="M697.1,116.8h0v-6.9s-13.7-8.4-51.4-8.4-47.5,2.9-47.5,2.9v11h0c7.7-1.3,21.2-2.6,44.1-2.6,28.5,.1,45.9,2.4,54.8,4h0Z"/></g><g><path class="cls-8" d="M108.8,109.9c-.01-.79,.41-1.52,1.1-1.9,4.5-2.9,23.4-13.6,51.5-13.6s41.1,5.9,45.1,8c.75,.38,1.22,1.16,1.2,2,0,0-9.8-2.9-47.5-2.9s-51.4,8.4-51.4,8.4Z"/><path class="cls-18" d="M108.9,116.8h0v-6.9s13.7-8.4,51.4-8.4,47.5,2.9,47.5,2.9v11h0c-7.7-1.3-21.2-2.6-44.1-2.6-28.5,.1-45.9,2.4-54.8,4Z"/></g></g><g><g><g><path class="cls-18" d="M697.2,90.8s-32.7-3.2-50.6-3.2-48.4,2.4-48.4,2.4c0,0,3.1-44.7,4.8-52s7.7-21.3,16.9-27.9S631.8,0,642.6,0s25.4,6.4,34.6,21.4c9.2,15,20,69.4,20,69.4Z"/><path class="cls-8" d="M598.7,83.2s26.1-4.4,49-4.4,47.9,4.4,47.9,4.4c1,4.7,1.6,7.6,1.6,7.6,0,0-32.7-3.2-50.6-3.2s-48.4,2.4-48.4,2.4c0,0,.2-2.7,.5-6.8Z"/></g><g class="cls-16"><path class="cls-1" d="M648.7,65.7l-3.2,2.6c-1.21,1.19-1.93,2.8-2,4.5h9.8v-2.6h-6.3c.56-.78,1.27-1.42,2.1-1.9,.99-.57,1.9-1.28,2.7-2.1,.84-.89,1.31-2.07,1.3-3.3,.05-1.25-.47-2.46-1.4-3.3-.98-.82-2.22-1.25-3.5-1.2-3.1,0-4.7,1.7-4.7,5h2.7c0-1.8,.7-2.7,2.1-2.7,1.01-.11,1.91,.62,2.01,1.63,.02,.16,.01,.32-.01,.47,.2,1.1-.4,2-1.6,2.9h0Z"/><path class="cls-1" d="M631.1,67.2h3c1.5,0,2.3,.6,2.4,1.9s.2,2.5,.3,3.8h3.3v-.4c-.5-.2-.7-.7-.7-1.5,0-.27,.03-.54,.1-.8v-.7c.16-1.42-.55-2.8-1.8-3.5,1.44-.48,2.35-1.89,2.2-3.4,.08-1.15-.4-2.27-1.3-3-.91-.71-2.05-1.07-3.2-1h-7.3v14.3h3v-5.7Zm0-6.2h3.7c1.4,0,2.1,.6,2.1,1.9s-.8,1.9-2.3,1.9h-3.5v-3.8Z"/></g></g><g><g><path class="cls-18" d="M108.8,90.8s32.7-3.2,50.6-3.2,48.3,2.4,48.3,2.4c0,0-3.1-44.7-4.8-52s-7.7-21.3-16.9-27.9S174.2,0,163.4,0s-25.4,6.4-34.6,21.4c-9.2,15-20,69.4-20,69.4h0Z"/><path class="cls-8" d="M207.3,83.2s-26.1-4.4-49-4.4-47.9,4.4-47.9,4.4c-1,4.7-1.6,7.6-1.6,7.6,0,0,32.7-3.2,50.6-3.2s48.3,2.4,48.3,2.4c0,0-.1-2.7-.4-6.8Z"/></g><g class="cls-16"><path class="cls-1" d="M173.3,65.7l-3.2,2.6c-1.21,1.19-1.93,2.8-2,4.5h9.8v-2.6h-6.2c.56-.78,1.27-1.42,2.1-1.9,.99-.57,1.9-1.28,2.7-2.1,.84-.89,1.31-2.07,1.3-3.3,.05-1.25-.47-2.46-1.4-3.3-.98-.82-2.22-1.25-3.5-1.2-3.1,0-4.7,1.7-4.7,5h2.7c0-1.8,.7-2.7,2.1-2.7,1.01-.11,1.91,.62,2.01,1.63,.02,.16,0,.32,0,.47,.1,1.1-.5,2-1.7,2.9h0Z"/><polygon class="cls-1" points="164.8 70.2 157.8 70.2 157.8 58.5 154.7 58.5 154.7 72.8 164.8 72.8 164.8 70.2"/></g></g></g><g><g><path class="cls-27" d="M547.6,134.6c-.16,2.26-2.12,3.97-4.39,3.81-2.04-.14-3.67-1.77-3.81-3.81,0-2.11,1.72-3.82,3.83-3.81,.09,0,.18,0,.27,0,2.07-.19,3.9,1.34,4.09,3.4,.01,.13,.02,.26,.02,.4h-.01Zm-6.7,0c-.12,1.37,.9,2.58,2.27,2.69,.11,0,.22,0,.33,0,1.4,.04,2.57-1.07,2.6-2.47v-.23c0-1.44-1.16-2.6-2.6-2.6s-2.6,1.16-2.6,2.6h0Z"/><path class="cls-27" d="M548.9,131h3.8c2.4,0,2.9,1.3,2.9,2.2s-.5,2.2-2.9,2.2h-2.3v2.8h-1.5v-7.2Zm1.5,3.4h2.2c.7,0,1.5-.3,1.5-1.2s-.7-1.2-1.5-1.2h-2.2v2.4Z"/><path class="cls-27" d="M556.1,131h6.9v1.1h-2.7v6.1h-1.5v-6.2h-2.7v-1h0Z"/><path class="cls-27" d="M564.1,131h1.5v7.2h-1.5v-7.2Z"/><path class="cls-27" d="M575.1,134.6c-.16,2.26-2.12,3.97-4.39,3.81-2.04-.14-3.67-1.77-3.81-3.81,0-2.11,1.72-3.82,3.83-3.81,.09,0,.18,0,.27,0,2.07-.19,3.9,1.34,4.09,3.4,.01,.13,.02,.26,.02,.4h-.01Zm-6.7,0c-.12,1.37,.9,2.58,2.27,2.69,.11,0,.22,0,.33,0,1.4,.04,2.57-1.07,2.6-2.47v-.23c0-1.44-1.16-2.6-2.6-2.6s-2.6,1.16-2.6,2.6h0Z"/><path class="cls-27" d="M576.5,131h1.6l3.9,5.3h0v-5.3h1.4v7.2h-1.6l-3.9-5.3h0v5.3h-1.4v-7.2Z"/><path class="cls-27" d="M586.2,135.8c0,1.1,1,1.5,2.2,1.5s1.8-.6,1.8-1.1c.01-.43-.28-.81-.7-.9-.6-.2-1.4-.3-2.6-.6-1.5-.3-1.9-1.1-1.9-1.8,0-1.5,1.6-2.1,3.1-2.1,1.8,0,3.3,.8,3.3,2.3h-1.5c-.1-.9-.8-1.3-1.8-1.3-.7,0-1.6,.2-1.6,.9,0,.5,.4,.8,1,.9,.84,.15,1.68,.35,2.5,.6,.9,.16,1.59,.89,1.7,1.8,0,1.6-1.7,2.3-3.4,2.3-2,0-3.5-.8-3.6-2.6h1.5v.1h0Z"/></g><g><path class="cls-27" d="M222.2,135.8c0,1.1,1,1.5,2.2,1.5s1.8-.6,1.8-1.1c0-.43-.28-.81-.7-.9-.6-.2-1.4-.3-2.6-.6-1.5-.3-1.9-1.1-1.9-1.8,0-1.5,1.6-2.1,3.1-2.1,1.8,0,3.3,.8,3.3,2.3h-1.5c-.1-.9-.8-1.3-1.8-1.3-.7,0-1.6,.2-1.6,.9,0,.5,.4,.8,1,.9,.84,.15,1.68,.35,2.5,.6,.9,.16,1.59,.89,1.7,1.8,0,1.6-1.7,2.3-3.4,2.3-2,0-3.5-.8-3.6-2.6h1.5v.1h0Z"/><path class="cls-27" d="M228.9,131h1.5v2.9h3.9v-2.9h1.5v7.2h-1.5v-3.2h-3.9v3.2h-1.5v-7.2Z"/><path class="cls-27" d="M239.9,131h1.6l3.3,7.2h-1.6l-.8-1.9h-3.4l-.8,1.9h-1.5l3.2-7.2Zm-.5,4.3h2.6l-1.3-3.1h0l-1.3,3.1Z"/><path class="cls-27" d="M245.6,131h4.1c1.9,0,2.8,.7,2.8,1.9,.03,.86-.56,1.62-1.4,1.8h0c.76,.07,1.34,.73,1.3,1.5,0,.8,.1,1.6,.5,1.9h-1.6c-.17-.34-.24-.72-.2-1.1,0-1.3-.3-1.9-1.7-1.9h-2.2v3h-1.5v-7.1h-.1Zm1.5,3.2h2.5c1,0,1.5-.4,1.5-1.1,0-.9-.7-1.1-1.5-1.1h-2.4v2.2h-.1Z"/><path class="cls-27" d="M254.1,131h6.2v1.1h-4.7v1.9h4.3v1h-4.3v2.1h4.7v1.1h-6.2v-7.2h0Z"/></g></g><g class="cls-10"><path class="cls-14" d="M392.46,214.35c-1.35,2.7-6.26,11.37-17.63,11.85-6.74,.19-12.81-2.41-18.5-5.2-1.73,1.25-3.47,2.31-5.3,2.99-3.66,1.45-7.61,2.12-11.27,2.12s-6.74-.67-8.96-1.93c-2.22-1.25-3.28-3.37-3.28-5.49s.96-4.14,2.99-5.49c2.31-1.45,5.97-2.12,9.92-2.12,2.89,0,5.97,.39,8.67,.96,1.54,.39,3.37,.96,5.3,1.64,.48-.96,.87-1.93,1.25-3.08,1.25-3.85,2.02-7.8,2.6-11.85-1.16,.1-2.31,.19-3.47,.19s-2.31-.1-3.37-.19c-12.52-.77-19.75-7.71-19.46-15.32,.48-9.83,10.89-15.8,13.87-17.15,1.35-.48,2.5-.48,3.08,0,.77,.48,.67,1.64-1.06,2.79-3.37,2.31-8.09,7.61-8.09,14.26,0,.96,.1,1.93,.29,2.89,1.16,5.78,8.29,10.89,18.59,9.83,1.06-7.8,1.93-15.99,5.11-24.28,5.2-13.68,14.35-22.74,22.06-20.71,4.24,1.16,7.23,6.17,7.23,12.91,0,5.01-1.64,10.98-5.68,17.05-5.11,7.61-11.37,12.24-17.92,14.93-.29,3.95-.77,6.84-1.54,8.96-1.25,3.37-3.66,7.61-6.65,11.18,4.24,1.73,8.19,3.28,10.4,4.05,1.73,.58,3.85,.96,5.97,.96,2.5,0,5.01-.48,6.74-1.73,3.08-2.22,4.62-4.72,5.78-6.55,.77-1.25,2.02-1.35,2.5-.39,.19,.39,.19,1.06-.19,1.93Zm-51.93,.29c-5.39-.67-10.31,.96-10.31,4.05,.1,2.99,3.56,4.62,8.57,4.62,3.47,0,8.48-.48,12.52-4.91-2.89-1.35-6.55-3.28-10.79-3.76Zm32.37-48.75c-1.54,5.59-2.7,15.13-2.99,22.93-.1,1.44-.19,2.7-.19,3.95,.67-.29,1.35-.67,2.12-1.06,11.18-5.97,17.05-20.13,17.05-29.29,0-4.53-1.45-7.9-4.33-8.48-6.07-1.16-10.5,7.61-11.66,11.95Z"/><path class="cls-14" d="M415.48,223.4c-3.37,1.64-7.13,2.5-10.6,2.5-3.76,0-7.32-.96-10.12-2.79-5.4-3.47-6.17-8.48-5.68-11.95,1.06-7.61,6.17-12.04,10.98-14.74,2.51-1.35,6.26-2.41,9.63-2.41,3.08,0,5.88,.87,7.32,3.18,.58,.96,.96,2.02,.96,3.18,0,4.34-4.34,9.34-11.46,12.81-3.85,1.93-7.13,2.89-8.96,3.28,.58,3.37,2.41,5.11,4.34,5.88,1.54,.67,2.89,.96,4.43,.96,2.41,0,5.01-.87,8.48-2.6,4.43-2.22,7.51-6.55,8.09-8,.39-.67,1.16-.67,1.54-.19,.39,.48,.48,1.25,0,2.12-1.06,2.02-3.08,5.88-8.96,8.77Zm-17.44-15.32c-.58,2.22-.77,4.05-.77,5.68,2.22-.29,5.88-1.16,8.77-3.56,2.89-2.5,4.91-6.74,4.91-9.83,0-1.45-.48-2.7-1.64-3.18-3.56-1.64-9.25,1.93-11.27,10.89Z"/><path class="cls-14" d="M455.56,222.06c-3.37,2.89-6.94,3.95-11.37,3.47-4.91-.58-6.94-5.2-8-10.98-.96,1.64-2.12,3.47-2.99,4.91-1.83,2.99-4.43,5.59-6.45,6.07-2.02,.58-4.24-.19-4.91-2.22-.67-2.02,.87-4.24,2.99-4.91s3.56,.87,4.91,.48c1.35-.48,2.99-2.7,4.14-4.72,.48-.87,1.16-2.12,1.73-3.28-1.25-8.96-2.6-13.78-6.07-13.58-2.79,.1-4.05,2.31-3.76,3.47,.39,1.25,1.25,1.06,1.64,2.5,.48,1.35,.1,3.47-1.93,4.14-1.93,.58-3.37-.87-3.76-2.79-.58-2.41,.39-5.39,2.5-7.71,1.73-1.83,4.34-2.79,6.94-2.79,1.73,0,3.37,.39,4.82,1.35,2.5,1.64,3.85,4.82,4.91,8.19,1.93-3.28,4.14-6.65,5.97-8.09,1.25-.96,2.7-1.35,3.95-1.35,1.64,0,2.99,.58,3.66,1.73,1.06,2.02,.39,4.53-1.73,5.11-2.22,.58-3.56-1.83-5.39-.96-1.45,.58-4.05,3.76-5.59,6.26,.19,.77,.39,1.44,.58,2.12,1.35,4.91,3.08,12.91,5.78,13.58,2.31,.48,4.72-.87,6.55-2.7,1.83-1.83,3.28-4.14,3.76-5.49,.29-.58,1.06-.77,1.54-.48,.58,.29,.87,.96,.29,2.12-1.35,2.6-3.37,5.4-4.72,6.55Z"/><path class="cls-14" d="M473.1,222.06c-1.64,1.45-4.91,3.76-8.86,3.28-3.56-.58-6.36-4.82-6.36-11.08,0-1.64,.19-3.28,.58-5.11,1.45-6.65,2.99-12.24,4.24-13.58,1.25-1.45,2.22-1.54,3.28-1.45,1.16,.1,2.41,.58,2.79,1.54,.77,1.64-1.54,8.38-2.41,13.29-.58,3.18-1.45,7.32-1.45,10.12,0,1.54,.29,2.79,.96,3.08,1.93,.96,5.11-1.16,7.03-3.37,1.83-2.02,3.08-4.24,3.76-5.68,.29-.77,.96-.96,1.44-.67,.39,.19,.67,.96,.29,1.93-.87,2.31-3.18,5.78-5.3,7.71Zm-5.78-38.25c-2.31-.58-3.66-3.08-2.99-5.68,.58-2.6,2.99-4.24,5.2-3.66,2.31,.48,3.66,3.08,3.08,5.68-.67,2.6-2.99,4.24-5.3,3.66Z"/></g></svg>