<?xml version="1.0" encoding="UTF-8"?><svg id="Layer_1" xmlns="http://www.w3.org/2000/svg" width="178.53" height="103.93" viewBox="0 0 178.53 103.93"><defs><style>.cls-1{fill:#e6e6e6;}.cls-2{fill:#fff;}.cls-2,.cls-3{isolation:isolate;opacity:.25;}.cls-4{fill:#4f007f;}</style></defs><g><g><path class="cls-4" d="M124.52,20.62c1.4-2,1.2-2.9,1.2-2.9,0,0,.2-.9-1.2-2.9S109.52,1.22,108.82,.82s-28.5-2.2-31.4,1.3c-2.9,3.5-2.6,15.6-2.6,15.6,0,0-.3,12.1,2.6,15.6,2.9,3.5,30.7,1.7,31.4,1.3s14.3-12,15.7-14Z"/><path class="cls-3" d="M124.52,20.62c1.4-2,1.2-2.9,1.2-2.9,0,0,.2-.9-1.2-2.9-.9-1.3-6.9-6.6-11.2-10.3-2.21,4.05-3.38,8.59-3.4,13.2-.03,4.62,1.14,9.17,3.4,13.2,4.3-3.7,10.3-9,11.2-10.3Z"/></g><g><path class="cls-4" d="M52.22,49.72c2,1.4,2.9,1.2,2.9,1.2,0,0,.9,.2,2.9-1.2s13.6-15,14-15.7,2.2-28.5-1.3-31.4S55.12,.02,55.12,.02c0,0-12.1-.2-15.6,2.6-3.5,2.8-1.7,30.7-1.3,31.4s12,14.3,14,15.7Z"/><path class="cls-3" d="M52.22,49.72c2,1.4,2.9,1.2,2.9,1.2,0,0,.9,.2,2.9-1.2,1.3-.9,6.6-6.9,10.3-11.2-4.05-2.21-8.59-3.38-13.2-3.4-4.62-.03-9.17,1.14-13.2,3.4,3.7,4.3,9,10.3,10.3,11.2Z"/></g><g><path class="cls-4" d="M175.92,2.22c-2.9-3.5-30.7-1.7-31.4-1.3s-14.3,12-15.7,14-1.2,2.9-1.2,2.9c0,0-.2,.9,1.2,2.9s15,13.6,15.7,14,28.5,2.2,31.4-1.3,2.6-15.6,2.6-15.6c0,0,.3-12.1-2.6-15.6Z"/><path class="cls-3" d="M140.12,4.62c-4.3,3.7-10.3,9-11.2,10.3-1.4,2-1.2,2.9-1.2,2.9,0,0-.2,.9,1.2,2.9,.9,1.3,6.9,6.6,11.2,10.3,2.21-4.05,3.38-8.59,3.4-13.2-.02-4.61-1.19-9.15-3.4-13.2Z"/></g><g><path class="cls-4" d="M20.62,1.22C18.62-.18,17.72,.02,17.72,.02c0,0-.9-.2-2.9,1.2C12.82,2.62,1.22,16.22,.82,16.92s-2.2,28.5,1.3,31.4c3.5,2.9,15.6,2.6,15.6,2.6,0,0,12.1,.3,15.6-2.6,3.5-2.9,1.7-30.7,1.3-31.4S22.62,2.62,20.62,1.22Z"/><path class="cls-3" d="M20.62,1.22C18.62-.18,17.72,.02,17.72,.02c0,0-.9-.2-2.9,1.2-1.3,.9-6.6,6.9-10.3,11.2,4.05,2.21,8.59,3.38,13.2,3.4,4.62,.03,9.17-1.14,13.2-3.4-3.7-4.3-9-10.3-10.3-11.2Z"/></g></g><g><g><path class="cls-1" d="M124.52,73.62c1.4-2,1.2-2.9,1.2-2.9,0,0,.2-.9-1.2-2.9s-15-13.6-15.7-14-28.5-2.2-31.4,1.3-2.6,15.6-2.6,15.6c0,0-.3,12.1,2.6,15.6s30.7,1.7,31.4,1.3,14.3-12,15.7-14Z"/><path class="cls-2" d="M124.52,73.62c1.4-2,1.2-2.9,1.2-2.9,0,0,.2-.9-1.2-2.9-.9-1.3-6.9-6.6-11.2-10.3-2.21,4.05-3.38,8.59-3.4,13.2-.03,4.62,1.14,9.17,3.4,13.2,4.3-3.7,10.3-9,11.2-10.3Z"/></g><g><path class="cls-1" d="M52.22,102.72c2,1.4,2.9,1.2,2.9,1.2,0,0,.9,.2,2.9-1.2s13.6-15,14-15.7,2.2-28.5-1.3-31.4-15.6-2.6-15.6-2.6c0,0-12.1-.2-15.6,2.6s-1.7,30.7-1.3,31.4,12,14.3,14,15.7Z"/><path class="cls-2" d="M52.22,102.72c2,1.4,2.9,1.2,2.9,1.2,0,0,.9,.2,2.9-1.2,1.3-.9,6.6-6.9,10.3-11.2-4.05-2.21-8.59-3.38-13.2-3.4-4.62-.03-9.17,1.14-13.2,3.4,3.7,4.3,9,10.3,10.3,11.2Z"/></g><g><path class="cls-1" d="M175.92,55.12c-2.9-3.5-30.7-1.7-31.4-1.3s-14.3,12-15.7,14-1.2,2.9-1.2,2.9c0,0-.2,.9,1.2,2.9s15,13.6,15.7,14,28.5,2.2,31.4-1.3,2.6-15.6,2.6-15.6c0,0,.3-12.1-2.6-15.6Z"/><path class="cls-2" d="M140.12,57.62c-4.3,3.7-10.3,9-11.2,10.3-1.4,2-1.2,2.9-1.2,2.9,0,0-.2,.9,1.2,2.9,.9,1.3,6.9,6.6,11.2,10.3,4.53-8.22,4.53-18.18,0-26.4Z"/></g><g><path class="cls-1" d="M20.62,54.22c-2-1.4-2.9-1.2-2.9-1.2,0,0-.9-.2-2.9,1.2S1.22,69.22,.82,69.92s-2.2,28.5,1.3,31.4,15.6,2.6,15.6,2.6c0,0,12.1,.3,15.6-2.6,3.5-2.9,1.7-30.7,1.3-31.4s-12-14.3-14-15.7Z"/><path class="cls-2" d="M20.62,54.22c-2-1.4-2.9-1.2-2.9-1.2,0,0-.9-.2-2.9,1.2-1.3,.9-6.6,6.9-10.3,11.2,4.05,2.21,8.59,3.38,13.2,3.4,4.62,.03,9.17-1.14,13.2-3.4-3.7-4.3-9-10.3-10.3-11.2Z"/></g></g></svg>