<?xml version="1.0" encoding="UTF-8"?><svg id="Layer_1" xmlns="http://www.w3.org/2000/svg" width="224" height="112.4" viewBox="0 0 224 112.4"><defs><style>.cls-1{fill:#e6e6e6;}.cls-2{fill:#a200aa;}.cls-3{fill:#1a1a1a;}.cls-4{fill:#4f007f;}</style></defs><g><g><g><path class="cls-1" d="M83.8,111.3c-14.5,.03-26.27-11.7-26.3-26.2-.03-14.5,11.7-26.27,26.2-26.3,14.5-.03,26.27,11.7,26.3,26.2,0,.03,0,.07,0,.1-.07,14.44-11.76,26.13-26.2,26.2Z"/><path class="cls-4" d="M83.8,59.8c13.95,.03,25.23,11.35,25.2,25.3-.03,13.95-11.35,25.23-25.3,25.2-13.91-.03-25.17-11.29-25.2-25.2,0-13.97,11.33-25.29,25.3-25.3m0-2c-15.05-.03-27.27,12.15-27.3,27.2-.03,15.05,12.15,27.27,27.2,27.3,15.05,.03,27.27-12.15,27.3-27.2,0-15.04-12.16-27.24-27.2-27.3Z"/></g><path class="cls-4" d="M83.8,66.2c-10.44,0-18.9,8.46-18.9,18.9s8.46,18.9,18.9,18.9,18.9-8.46,18.9-18.9c-.03-10.43-8.47-18.87-18.9-18.9Zm0,34.9c-8.84,0-16-7.16-16-16s7.16-16,16-16,16,7.16,16,16-7.16,16-16,16Z"/></g><g><g><path class="cls-1" d="M27.2,111.3c-14.47-.11-26.11-11.93-26-26.4,.11-14.47,11.93-26.11,26.4-26,14.39,.11,26,11.81,26,26.2-.02,14.49-11.77,26.22-26.26,26.2-.05,0-.09,0-.14,0Z"/><path class="cls-4" d="M27.3,59.8c13.95,.03,25.23,11.35,25.2,25.3s-11.35,25.23-25.3,25.2c-13.91-.03-25.17-11.29-25.2-25.2,0-13.97,11.33-25.29,25.3-25.3m0-2c-15.08,0-27.3,12.22-27.3,27.3s12.22,27.3,27.3,27.3,27.3-12.22,27.3-27.3h0c-.02-15.07-12.23-27.28-27.3-27.3Z"/></g><polygon class="cls-4" points="41.6 72.7 39.6 70.7 27.3 83.1 14.9 70.7 12.9 72.7 25.2 85.1 12.9 97.4 14.9 99.5 27.3 87.1 39.6 99.5 41.6 97.4 29.3 85.1 41.6 72.7"/></g><g><g><path class="cls-1" d="M140.3,111.3c-14.5-.03-26.23-11.8-26.2-26.3,.03-14.5,11.8-26.23,26.3-26.2,14.46,.03,26.17,11.74,26.2,26.2,.03,14.5-11.7,26.27-26.2,26.3-.03,0-.07,0-.1,0Z"/><path class="cls-4" d="M140.3,59.8c13.95,.03,25.23,11.35,25.2,25.3-.03,13.95-11.35,25.23-25.3,25.2-13.91-.03-25.17-11.29-25.2-25.2,0-13.97,11.33-25.29,25.3-25.3m0-2c-15.05,.03-27.23,12.25-27.2,27.3,.03,15.05,12.25,27.23,27.3,27.2,15.05-.03,27.23-12.25,27.2-27.3-.06-15.04-12.26-27.19-27.3-27.2Z"/></g><path class="cls-4" d="M151.8,70.7h-25.8v28.6h28.6v-28.6h-2.8Zm0,25.9h-23v-23h23v23Z"/></g><g><g><path class="cls-1" d="M196.7,111.3c-14.5-.03-26.23-11.8-26.2-26.3,.03-14.5,11.8-26.23,26.3-26.2,14.5,.03,26.23,11.8,26.2,26.3-.07,14.48-11.82,26.18-26.3,26.2Z"/><path class="cls-4" d="M196.8,59.8c13.95,.03,25.23,11.35,25.2,25.3-.03,13.95-11.35,25.23-25.3,25.2-13.91-.03-25.17-11.29-25.2-25.2,0-13.97,11.33-25.29,25.3-25.3m0-2c-15.05-.03-27.27,12.15-27.3,27.2-.03,15.05,12.15,27.27,27.2,27.3,15.05,.03,27.27-12.15,27.3-27.2,0-15.04-12.16-27.24-27.2-27.3Z"/></g><path class="cls-4" d="M212.7,93.1l-16-27.6-16,27.6-1.6,2.8h35.2l-1.6-2.8Zm-15.9,0h-12.7l12.7-21.9,12.7,21.9h-12.7Z"/></g></g><g><g><g><path class="cls-3" d="M83.8,53.5c-14.5,.03-26.27-11.7-26.3-26.2-.03-14.5,11.7-26.27,26.2-26.3,14.5-.03,26.27,11.7,26.3,26.2-.02,14.48-11.72,26.23-26.2,26.3Z"/><path class="cls-4" d="M83.8,2c13.95,.03,25.23,11.35,25.2,25.3-.03,13.95-11.35,25.23-25.3,25.2-13.91-.03-25.17-11.29-25.2-25.2-.03-13.94,11.24-25.27,25.18-25.3,.04,0,.08,0,.12,0M83.8,0c-15.08-.06-27.34,12.12-27.4,27.2-.06,15.08,12.12,27.34,27.2,27.4s27.34-12.12,27.4-27.2c0-.03,0-.07,0-.1C110.98,12.27,98.83,.08,83.8,0Z"/></g><path class="cls-2" d="M83.8,8.4c-10.44,0-18.9,8.46-18.9,18.9s8.46,18.9,18.9,18.9,18.9-8.46,18.9-18.9c-.03-10.43-8.47-18.87-18.9-18.9Zm0,34.9c-8.84,0-16-7.16-16-16s7.16-16,16-16,16,7.16,16,16-7.16,16-16,16Z"/></g><g><g><path class="cls-3" d="M27.2,53.5c-14.5-.03-26.23-11.8-26.2-26.3S12.8,.97,27.3,1c14.5,.03,26.23,11.8,26.2,26.3-.05,14.49-11.81,26.21-26.3,26.2Z"/><path class="cls-4" d="M27.3,2c13.95,.03,25.23,11.35,25.2,25.3-.03,13.95-11.35,25.23-25.3,25.2-13.91-.03-25.17-11.29-25.2-25.2,.02-13.97,11.33-25.28,25.3-25.3M27.3,0C12.22,0,0,12.22,0,27.3s12.22,27.3,27.3,27.3,27.3-12.22,27.3-27.3h0C54.62,12.24,42.42,.02,27.36,0c-.02,0-.04,0-.06,0Z"/></g><polygon class="cls-2" points="41.6 14.9 39.6 12.9 27.3 25.2 14.9 12.9 12.9 14.9 25.2 27.2 12.9 39.6 14.9 41.6 27.3 29.3 39.6 41.6 41.6 39.6 29.3 27.2 41.6 14.9"/></g><g><g><path class="cls-3" d="M140.3,54.2c-14.5-.03-26.23-11.8-26.2-26.3,.03-14.5,11.8-26.23,26.3-26.2,14.5,.03,26.23,11.8,26.2,26.3-.02,14.49-11.77,26.22-26.26,26.2-.01,0-.03,0-.04,0Z"/><path class="cls-4" d="M140.3,2.7c13.95,.03,25.23,11.35,25.2,25.3-.03,13.95-11.35,25.23-25.3,25.2-13.95-.03-25.23-11.35-25.2-25.3,.07-13.93,11.37-25.18,25.3-25.2m0-2c-15.05,.03-27.23,12.25-27.2,27.3,.03,15.05,12.25,27.23,27.3,27.2,15.01-.03,27.17-12.19,27.2-27.2-.02-15.07-12.23-27.28-27.3-27.3Z"/></g><path class="cls-2" d="M151.8,13.5h-25.8v28.6h28.6V13.5h-2.8Zm0,25.9h-23V16.4h23v23Z"/></g><g><g><path class="cls-3" d="M196.7,54.8c-14.53,0-26.3-11.78-26.3-26.3,0-14.53,11.78-26.3,26.3-26.3,14.53,0,26.3,11.78,26.3,26.3,0,.03,0,.07,0,.1-.07,14.48-11.82,26.18-26.3,26.2Z"/><path class="cls-4" d="M196.8,3.3c13.97,0,25.3,11.33,25.3,25.3s-11.33,25.3-25.3,25.3-25.3-11.33-25.3-25.3c.02-13.97,11.33-25.28,25.3-25.3m0-2c-15.08-.06-27.34,12.12-27.4,27.2-.06,15.08,12.12,27.34,27.2,27.4,15.08,.06,27.34-12.12,27.4-27.2,0-.03,0-.07,0-.1-.02-15.03-12.17-27.22-27.2-27.3Z"/></g><path class="cls-2" d="M212.7,36.6l-16-27.6-16,27.6-1.6,2.8h35.2l-1.6-2.8Zm-15.9,0h-12.7l12.7-21.9,12.7,21.9h-12.7Z"/></g></g></svg>