<?xml version="1.0" encoding="UTF-8"?><svg id="Layer_1" xmlns="http://www.w3.org/2000/svg" width="28.4" height="46.7" viewBox="0 0 28.4 46.7"><defs><style>.cls-1{fill:#a200aa;}.cls-2{fill:#efeee5;}</style></defs><path class="cls-1" d="M14.2,1.7c6.9,0,12.5,5.6,12.5,12.5,0,0,0,0,0,0v18.3c0,6.9-5.6,12.5-12.5,12.5S1.7,39.4,1.7,32.5V14.2C1.7,7.3,7.3,1.7,14.2,1.7m0-1.7C6.37,.03,.03,6.37,0,14.2v18.3c0,7.84,6.36,14.2,14.2,14.2,7.84,0,14.2-6.36,14.2-14.2h0V14.2C28.37,6.37,22.03,.03,14.2,0Z"/><path class="cls-2" d="M14.2,1.7C7.3,1.7,1.7,7.3,1.7,14.2v18.3c0,6.9,5.6,12.5,12.5,12.5s12.5-5.6,12.5-12.5V14.2c0-6.9-5.6-12.5-12.5-12.5h0Z"/></svg>