<?xml version="1.0" encoding="UTF-8"?><svg id="Layer_1" xmlns="http://www.w3.org/2000/svg" width="286" height="94" viewBox="0 0 286 94"><defs><style>.cls-1{fill:#f0f0f0;}.cls-2{fill:#0f0f0f;}.cls-3{fill:#ebebeb;}.cls-4{fill:#141414;}.cls-5{fill:#4f007f;}</style></defs><g><g><path class="cls-2" d="M47,92.5C21.87,92.5,1.5,72.13,1.5,47S21.87,1.5,47,1.5s45.5,20.37,45.5,45.5c-.02,25.12-20.38,45.48-45.5,45.5Z"/><path class="cls-5" d="M47,3c24.3,0,44,19.7,44,44s-19.7,44-44,44S3,71.3,3,47,22.7,3,47,3M47,0C21.04,0,0,21.04,0,47s21.04,47,47,47,47-21.04,47-47C94.03,21.07,73.03,.03,47.1,0c-.03,0-.07,0-.1,0Z"/></g><circle class="cls-4" cx="47" cy="47" r="27.3"/></g><g><g><path class="cls-1" d="M239,92.5c-25.13,0-45.5-20.37-45.5-45.5S213.87,1.5,239,1.5s45.5,20.37,45.5,45.5c-.02,25.12-20.38,45.48-45.5,45.5Z"/><path class="cls-5" d="M239,3c24.3,0,44,19.7,44,44s-19.7,44-44,44-44-19.7-44-44S214.7,3,239,3M239,0C213.04,0,192,21.04,192,47s21.04,47,47,47,47-21.04,47-47C286.03,21.07,265.03,.03,239.1,0c-.03,0-.07,0-.1,0Z"/></g><circle class="cls-3" cx="239" cy="47" r="27.3" transform="translate(151.25 274.22) rotate(-80.01)"/></g><g><g><path class="cls-1" d="M143,92.5c-25.13,0-45.5-20.37-45.5-45.5S117.87,1.5,143,1.5s45.5,20.37,45.5,45.5c-.02,25.12-20.38,45.48-45.5,45.5Z"/><path class="cls-5" d="M143,3c24.3,0,44,19.7,44,44s-19.7,44-44,44-44-19.7-44-44S118.7,3,143,3M143,0C117.04,0,96,21.04,96,47s21.04,47,47,47,47-21.04,47-47C190.03,21.07,169.03,.03,143.1,0c-.03,0-.07,0-.1,0Z"/></g><circle class="cls-3" cx="143" cy="47" r="27.3"/></g></svg>