<?xml version="1.0" encoding="UTF-8"?><svg id="Layer_1" xmlns="http://www.w3.org/2000/svg" width="224" height="112.4" viewBox="0 0 224 112.4"><defs><style>.cls-1{fill:#d1d1d1;}.cls-2{fill:#40aad3;}.cls-3{fill:#e6e6e6;}.cls-4{fill:#1a1a1a;}</style></defs><g><g><g><path class="cls-3" d="M83.8,111.3c-14.5,0-26.3-11.8-26.3-26.3s11.8-26.2,26.3-26.2,26.2,11.8,26.2,26.3-11.8,26.2-26.2,26.2Z"/><path class="cls-2" d="M83.8,59.8c13.9,0,25.3,11.3,25.3,25.2s-11.3,25.3-25.3,25.3-25.3-11.3-25.3-25.2,11.3-25.3,25.3-25.3m0-2c-15,0-27.3,12.2-27.3,27.2s12.2,27.3,27.3,27.3,27.2-12.2,27.2-27.2-12.2-27.3-27.2-27.3h0Z"/></g><path class="cls-2" d="M83.8,66.2c-10.4,0-18.9,8.5-18.9,18.9s8.5,18.9,18.9,18.9,18.9-8.5,18.9-18.9c-.1-10.5-8.5-18.9-18.9-18.9Zm0,34.9c-8.9,0-16-7.2-16-16s7.2-16,16-16,16,7.2,16,16-7.2,16-16,16Z"/></g><g><g><path class="cls-3" d="M27.2,111.3c-14.4,0-26.2-11.7-26.2-26.2s11.8-26.2,26.3-26.2,26.3,11.8,26.3,26.2-11.9,26.2-26.4,26.2Z"/><path class="cls-2" d="M27.3,59.8c13.9,0,25.3,11.3,25.3,25.2s-11.3,25.3-25.3,25.3S2,99,2,85.1s11.3-25.3,25.3-25.3m0-2c-15.1,0-27.3,12.3-27.3,27.3s12.2,27.3,27.3,27.3,27.3-12.2,27.3-27.3c-.1-15-12.3-27.3-27.3-27.3h0Z"/></g><polygon class="cls-2" points="41.6 72.7 39.6 70.7 27.3 83.1 14.9 70.7 12.9 72.7 25.2 85.1 12.9 97.4 14.9 99.5 27.3 87.1 39.6 99.5 41.6 97.4 29.3 85.1 41.6 72.7"/></g><g><g><path class="cls-3" d="M140.3,111.3c-14.5,0-26.2-11.8-26.2-26.3s11.8-26.2,26.2-26.2,26.3,11.8,26.3,26.2-11.9,26.3-26.3,26.3Z"/><path class="cls-2" d="M140.3,59.8c13.9,0,25.3,11.3,25.3,25.2s-11.3,25.3-25.3,25.3-25.3-11.3-25.3-25.2,11.3-25.3,25.3-25.3m0-2c-15,0-27.3,12.2-27.3,27.2s12.2,27.3,27.3,27.3,27.3-12.2,27.3-27.3-12.3-27.2-27.3-27.2h0Z"/></g><path class="cls-2" d="M151.8,70.7h-25.8v28.6h28.6v-28.6h-2.8Zm0,25.9h-23v-23h23v23Z"/></g><g><g><path class="cls-3" d="M196.7,111.3c-14.5,0-26.3-11.8-26.3-26.3s11.8-26.2,26.3-26.2,26.3,11.8,26.3,26.3-11.8,26.2-26.3,26.2Z"/><path class="cls-2" d="M196.8,59.8c13.9,0,25.3,11.3,25.3,25.2s-11.3,25.3-25.3,25.3-25.3-11.3-25.3-25.2,11.3-25.3,25.3-25.3m0-2c-15,0-27.3,12.2-27.3,27.2s12.2,27.3,27.3,27.3,27.2-12.2,27.2-27.2-12.2-27.3-27.2-27.3h0Z"/></g><path class="cls-2" d="M212.7,93.1l-16-27.6-16,27.6-1.6,2.8h35.2l-1.6-2.8Zm-15.9,0h-12.7l12.7-21.9,12.7,21.9h-12.7Z"/></g></g><g><g><g><path class="cls-4" d="M83.8,53.5c-14.5,0-26.3-11.8-26.3-26.3S69.3,1,83.8,1s26.2,11.8,26.2,26.2-11.8,26.3-26.2,26.3Z"/><path class="cls-1" d="M83.8,2c13.9,0,25.2,11.3,25.2,25.3s-11.3,25.2-25.2,25.2-25.3-11.3-25.3-25.2S69.8,2,83.8,2m0-2c-15,0-27.3,12.2-27.3,27.3s12.2,27.3,27.3,27.3,27.2-12.3,27.2-27.3S98.8,0,83.8,0h0Z"/></g><path class="cls-1" d="M83.8,8.4c-10.4,0-18.9,8.5-18.9,18.9s8.5,18.9,18.9,18.9,18.9-8.5,18.9-18.9c-.1-10.5-8.5-18.9-18.9-18.9Zm0,34.9c-8.9,0-16-7.2-16-16s7.2-16,16-16,16,7.2,16,16-7.2,16-16,16Z"/></g><g><g><path class="cls-4" d="M27.2,53.5C12.8,53.5,1,41.7,1,27.3S12.8,1,27.2,1s26.3,11.8,26.3,26.3-11.8,26.2-26.3,26.2Z"/><path class="cls-1" d="M27.3,2c13.9,0,25.3,11.3,25.3,25.3s-11.4,25.2-25.3,25.2S2,41.2,2,27.3,13.3,2,27.3,2m0-2C12.2,0,0,12.2,0,27.3s12.2,27.3,27.3,27.3,27.3-12.2,27.3-27.3c-.1-15.1-12.3-27.3-27.3-27.3h0Z"/></g><polygon class="cls-1" points="41.6 14.9 39.6 12.9 27.3 25.2 14.9 12.9 12.9 14.9 25.2 27.2 12.9 39.6 14.9 41.6 27.3 29.3 39.6 41.6 41.6 39.6 29.3 27.2 41.6 14.9"/></g><g><g><path class="cls-4" d="M140.3,54.2c-14.5,0-26.2-11.8-26.2-26.2S125.9,1.7,140.3,1.7s26.3,11.8,26.3,26.3-11.9,26.2-26.3,26.2Z"/><path class="cls-1" d="M140.3,2.7c13.9,0,25.3,11.3,25.3,25.3s-11.3,25.2-25.3,25.2-25.3-11.3-25.3-25.3S126.3,2.7,140.3,2.7m0-2c-15,0-27.3,12.2-27.3,27.3s12.2,27.2,27.3,27.2,27.3-12.2,27.3-27.2S155.3,.7,140.3,.7h0Z"/></g><path class="cls-1" d="M151.8,13.5h-25.8v28.6h28.6V13.5s-2.8,0-2.8,0Zm0,25.9h-23V16.4h23s0,23,0,23Z"/></g><g><g><path class="cls-4" d="M196.7,54.8c-14.5,0-26.3-11.8-26.3-26.3s11.8-26.3,26.3-26.3,26.3,11.9,26.3,26.4-11.8,26.2-26.3,26.2Z"/><path class="cls-1" d="M196.8,3.3c13.9,0,25.3,11.3,25.3,25.3s-11.3,25.3-25.3,25.3-25.3-11.3-25.3-25.3,11.3-25.3,25.3-25.3m0-2c-15,0-27.3,12.2-27.3,27.3s12.2,27.3,27.3,27.3,27.2-12.3,27.2-27.3S211.8,1.3,196.8,1.3h0Z"/></g><path class="cls-1" d="M212.7,36.6l-16-27.6-16,27.6-1.6,2.8h35.2l-1.6-2.8Zm-15.9,0h-12.7l12.7-21.9,12.7,21.9h-12.7Z"/></g></g></svg>