<?xml version="1.0" encoding="utf-8"?>
<!-- Generator: Adobe Illustrator 26.3.1, SVG Export Plug-In . SVG Version: 6.00 Build 0)  -->
<svg version="1.1" id="Layer_1" xmlns="http://www.w3.org/2000/svg" xmlns:xlink="http://www.w3.org/1999/xlink" x="0px" y="0px"
	 width="15px" height="24.7px" viewBox="0 0 15 24.7" style="enable-background:new 0 0 15 24.7;" xml:space="preserve">
<style type="text/css">
	.st0{fill:#3ED8D2;}
</style>
<path d="M7.5,0.9c3.6,0,6.6,3,6.6,6.6v9.7c0,3.6-3,6.6-6.6,6.6s-6.6-3-6.6-6.6V7.5C0.9,3.8,3.9,0.9,7.5,0.9 M7.5,0
	C3.4,0,0,3.4,0,7.5v9.7c0,4.1,3.4,7.5,7.5,7.5s7.5-3.4,7.5-7.5V7.5C15,3.3,11.6,0,7.5,0L7.5,0z"/>
<path class="st0" d="M7.5,0.9c-3.6,0-6.6,3-6.6,6.6v9.7c0,3.6,3,6.6,6.6,6.6s6.6-3,6.6-6.6V7.5C14.1,3.8,11.1,0.9,7.5,0.9z"/>
</svg>
