<?xml version="1.0" encoding="UTF-8"?><svg xmlns="http://www.w3.org/2000/svg" width="806.2" height="598.97" xmlns:xlink="http://www.w3.org/1999/xlink" viewBox="0 0 806.2 598.97"><defs><style>.cls-1{fill:url(#SVGID_0000013421039820977349980);}.cls-1,.cls-2,.cls-3,.cls-4,.cls-5{isolation:isolate;}.cls-1,.cls-4{opacity:.08;}.cls-6{fill:#fff;}.cls-7{fill:#fef2f4;}.cls-8{fill:#7cb2e8;}.cls-9{fill:url(#SVGID_0000018249070813379013382);}.cls-10{fill:#40e2a0;}.cls-11{fill:#f3939d;}.cls-12{fill:#f7bcc0;}.cls-2{opacity:.22;}.cls-13{fill:#ff69f8;}.cls-3{fill:#e6e6e6;opacity:.1;}.cls-14{fill:#824948;}.cls-15{fill:#f66;}.cls-16{fill:#cfcfcf;}.cls-17{fill:#fad7da;}.cls-18{fill:#080808;}.cls-19{opacity:.75;}.cls-20{opacity:.12;}.cls-21{fill:#fbdade;}.cls-22{fill:#2c2c2c;}.cls-23{fill:#121212;}.cls-24{fill:none;}.cls-25{fill:#b66e76;}.cls-26{fill:#b3b3b3;}.cls-27{fill:#1f1f1f;}.cls-28{opacity:.2;}.cls-29,.cls-5{opacity:.25;}.cls-30{fill:#f2f2f2;}.cls-4{fill:url(#SVGID_0000006143194442163034538);}.cls-31{fill:url(#SVGID_1_);}</style><pattern id="SVGID_1_" x="0" y="0" width="71" height="71" patternTransform="translate(-28965.68 -2472.98) scale(.1 -.1)" patternUnits="userSpaceOnUse" viewBox="0 0 71 71"><g><rect class="cls-24" width="71" height="71"/><g><rect class="cls-24" width="71" height="71"/><g><polygon class="cls-24" points="0 71 71 71 71 0 0 0 0 71"/><g><polygon class="cls-24" points="0 71 71 71 71 0 0 0 0 71"/><path class="cls-26" d="m41.8,35.5c0-3.5-2.8-6.3-6.3-6.3s-6.3,2.8-6.3,6.3,2.8,6.3,6.3,6.3,6.3-2.8,6.3-6.3Z"/></g></g></g></g></pattern><pattern id="SVGID_0000006143194442163034538" x="0" y="0" width="40" height="103" patternTransform="translate(-21623.94 -11575.71) rotate(16) scale(.34 -.34)" patternUnits="userSpaceOnUse" viewBox="0 0 40 103"><g><rect class="cls-24" width="40" height="103"/><g><rect class="cls-24" width="40" height="103"/><g><polygon class="cls-24" points="0 103 40 103 40 0 0 0 0 103"/><g><polygon class="cls-24" points="0 103 40 103 40 0 0 0 0 103"/><polygon points="34.5 -128.8 37.5 -128.8 37.5 25.7 34.5 25.7 34.5 -128.8"/><polygon points="26.5 -128.8 29.5 -128.8 29.5 25.7 26.5 25.7 26.5 -128.8"/><polygon points="18.5 -128.8 21.5 -128.8 21.5 25.7 18.5 25.7 18.5 -128.8"/><polygon points="10.5 -128.8 13.5 -128.8 13.5 25.7 10.5 25.7 10.5 -128.8"/><polygon points="2.5 -128.8 5.5 -128.8 5.5 25.7 2.5 25.7 2.5 -128.8"/><polygon points="34.5 -25.8 37.5 -25.8 37.5 128.7 34.5 128.7 34.5 -25.8"/><polygon points="26.5 -25.8 29.5 -25.8 29.5 128.7 26.5 128.7 26.5 -25.8"/><polygon points="18.5 -25.8 21.5 -25.8 21.5 128.7 18.5 128.7 18.5 -25.8"/><polygon points="10.5 -25.8 13.5 -25.8 13.5 128.7 10.5 128.7 10.5 -25.8"/><polygon points="2.5 -25.8 5.5 -25.8 5.5 128.7 2.5 128.7 2.5 -25.8"/><polygon points="34.5 77.2 37.5 77.2 37.5 231.7 34.5 231.7 34.5 77.2"/><polygon points="26.5 77.2 29.5 77.2 29.5 231.7 26.5 231.7 26.5 77.2"/><polygon points="18.5 77.2 21.5 77.2 21.5 231.7 18.5 231.7 18.5 77.2"/><polygon points="10.5 77.2 13.5 77.2 13.5 231.7 10.5 231.7 10.5 77.2"/><polygon points="2.5 77.2 5.5 77.2 5.5 231.7 2.5 231.7 2.5 77.2"/></g></g></g></g></pattern><pattern id="SVGID_0000013421039820977349980" x="0" y="0" width="40" height="103" patternTransform="translate(-12.55 -23879.98) rotate(164) scale(.34)" patternUnits="userSpaceOnUse" viewBox="0 0 40 103"><g><rect class="cls-24" width="40" height="103"/><g><rect class="cls-24" width="40" height="103"/><g><polygon class="cls-24" points="0 103 40 103 40 0 0 0 0 103"/><g><polygon class="cls-24" points="0 103 40 103 40 0 0 0 0 103"/><polygon points="34.5 -128.8 37.5 -128.8 37.5 25.7 34.5 25.7 34.5 -128.8"/><polygon points="26.5 -128.8 29.5 -128.8 29.5 25.7 26.5 25.7 26.5 -128.8"/><polygon points="18.5 -128.8 21.5 -128.8 21.5 25.7 18.5 25.7 18.5 -128.8"/><polygon points="10.5 -128.8 13.5 -128.8 13.5 25.7 10.5 25.7 10.5 -128.8"/><polygon points="2.5 -128.8 5.5 -128.8 5.5 25.7 2.5 25.7 2.5 -128.8"/><polygon points="34.5 -25.8 37.5 -25.8 37.5 128.7 34.5 128.7 34.5 -25.8"/><polygon points="26.5 -25.8 29.5 -25.8 29.5 128.7 26.5 128.7 26.5 -25.8"/><polygon points="18.5 -25.8 21.5 -25.8 21.5 128.7 18.5 128.7 18.5 -25.8"/><polygon points="10.5 -25.8 13.5 -25.8 13.5 128.7 10.5 128.7 10.5 -25.8"/><polygon points="2.5 -25.8 5.5 -25.8 5.5 128.7 2.5 128.7 2.5 -25.8"/><polygon points="34.5 77.2 37.5 77.2 37.5 231.7 34.5 231.7 34.5 77.2"/><polygon points="26.5 77.2 29.5 77.2 29.5 231.7 26.5 231.7 26.5 77.2"/><polygon points="18.5 77.2 21.5 77.2 21.5 231.7 18.5 231.7 18.5 77.2"/><polygon points="10.5 77.2 13.5 77.2 13.5 231.7 10.5 231.7 10.5 77.2"/><polygon points="2.5 77.2 5.5 77.2 5.5 231.7 2.5 231.7 2.5 77.2"/></g></g></g></g></pattern><pattern id="SVGID_0000018249070813379013382" x="0" y="0" width="71" height="71" patternTransform="translate(-28965.68 -2472.98) scale(.1 -.1)" patternUnits="userSpaceOnUse" viewBox="0 0 71 71"><g><rect class="cls-24" width="71" height="71"/><g><rect class="cls-24" width="71" height="71"/><g><polygon class="cls-24" points="0 71 71 71 71 0 0 0 0 71"/><g><polygon class="cls-24" points="0 71 71 71 71 0 0 0 0 71"/><path class="cls-6" d="m41.8,35.5c0-3.5-2.8-6.3-6.3-6.3s-6.3,2.8-6.3,6.3,2.8,6.3,6.3,6.3,6.3-2.8,6.3-6.3Z"/></g></g></g></g></pattern></defs><g id="Layer_1"><g><g><path class="cls-7" d="m806,508.8s-4.5,53.4-36.2,74.9-56.7,14-56.7,14c0,0-33.1-8.1-57.8-41.9-3.7-5.1-7.7-11.6-11.6-19.1-4.9-9.2-9.8-19.8-14.6-30.6-16.5-38-30.4-79.5-30.4-79.5,0,0-2-2.7-5.1-4.9-.2-.1-.4-.2-.6-.4-3.5-2.3-6.3-2.6-6.3-2.6h-243.5l-102.2-.1h-21.7s-2.8.3-6.3,2.6c-.2.1-.4.2-.6.4-3.2,2.2-5.1,4.9-5.1,4.9,0,0-12.8,38.2-28.4,74.8-4.8,11.2-9.9,22.3-14.9,32.1-4.5,8.7-9,16.4-13.3,22.2-24.7,33.7-57.8,41.9-57.8,41.9,0,0-25,7.5-56.7-14C4.5,562.2,0,508.8,0,508.8,0,508.8.31,457.21,3.29,428.93c.42-3.93.89-7.4,1.41-10.23.36-2.05.96-5.35,1.74-9.63.92-5.09,2.1-11.57,3.46-18.97.05-.25.09-.5.14-.75.36-1.89.77-3.85,1.11-5.89.02-.08.04-.17.05-.26,6.3-33.5,16-81.2,25.5-109.1,9.3-27.7,13-53,17-64.9,12-35.7,33-65.7,33-65.7,0,0,9.5-13,10.1-16.3.6-3.3,4.7-8.6,4.7-8.6,0,0,17.5-5.7,62.3-5.7s53.7,5,53.7,5c0,0,2.4,3,5.9,4.8,3.5,1.9,11.7,1.7,11.7,1.7h33.4s.5-.1.9.3c.3.3.6,2,.6,2h266.1s.2-1.6.6-2c.3-.4.9-.3.9-.3h33.4s8.2.1,11.7-1.7c3.5-1.9,5.9-4.8,5.9-4.8,0,0,8.8-5,53.7-5s62.3,5.7,62.3,5.7c0,0,4.1,5.3,4.7,8.6.6,3.2,10.1,16.3,10.1,16.3,0,0,21,30,33,65.7,3.9,11.9,7.6,37.2,17,64.9,8.02,23.62,16.26,61.52,22.42,92.86.98,5.01,1.91,9.85,2.78,14.44.59,2.99,1.12,5.9,1.62,8.68.02.07.03.14.04.21.43,2.34.83,4.59,1.24,6.71,1.27,6.8,2.27,12.54,3,16.67.37,2.07.67,3.73.9,4.93,4.4,23.2,4.6,90.2,4.6,90.2Z"/><g><path class="cls-11" d="m412.3,332.53c1.24-7.83,7.76-11.74,14.87-11.85,1.75-.03,3.01.85,3.95,2.2,1.74,2.49,2.95,5.2,3.13,8.29.04.62.11,1.24.2,2.19.59-.4,1.04-.62,1.37-.96,1.22-1.23,2.31-2.59,3.6-3.74,4.59-4.13,10.46-2.06,12.95,2.14.84,1.43,1.74,2.82,1.84,4.55-.02,1.24-.04,2.47-.06,3.71-.84,1.51-1.62,3.06-2.53,4.53-.49.79-1.19,1.45-1.78,2.18-.28.35-.52.74-.9,1.3.69.23,1.17.45,1.67.55,1.54.32,3.09.61,4.65.87,2.93.5,4.68,2.38,5.29,5.1.42,1.89.49,3.93.28,5.86-.39,3.66-2.85,5.86-6.45,6.51-5.94,1.08-11.27-.46-16.3-3.49-.93-.56-1.8-1.27-3.09-1.53-.23.48-.56.92-.66,1.41-.47,2.24-.83,4.5-1.32,6.73-.5,2.28-1.54,4.28-3.13,6.03-.99,1.09-2.12,1.97-3.52,2.3-2.77.66-5.6,1.11-8.45.56-4.22-.81-6.39-4.09-5.56-8.35.51-2.6,1.61-4.94,3.25-7.03.87-1.11,1.74-2.22,2.61-3.33l.11-.17c-.03.06-.05.13-.08.19-1.8.8-3.6,1.59-5.4,2.39-1.59.31-3.18.62-4.77.93-.89-.23-1.78-.46-2.67-.69-1.36-.36-2.81-.53-4.06-1.12-3.8-1.79-5.39-5.08-4.93-9.27.58-5.28,3.83-8.04,8.54-9.61,2.16-.72,4.33-.67,6.52-.31,1.56.25,3.1.58,4.65.85.52.09,1.06.12,1.68.18-1.78-2.35-3.46-4.57-5.14-6.79-.11-1.1-.23-2.21-.34-3.31Zm21.64,19.83c1.64-.43,2.36,1.1,3.6.55-.2-1.38-1.9-1.13-2.28-2.3.78-.29,1.53-.56,2.75-1.01-1.4-.33-2.28-.54-3.47-.82.64-1.21,1.18-2.21,1.71-3.22l-.32-.19c-.83.61-1.66,1.23-2.65,1.96-.12-.82-.17-1.36-.28-1.9-.11-.54.16-1.25-.68-1.62-.32.87-.6,1.64-.96,2.64-.61-.4-1.14-.6-1.44-.99-.35-.45-.49-1.05-.73-1.59l-.28.09.24,2.51c-.59-.36-.99-.58-1.35-.83-.33-.23-.62-.51-.93-.77-.08.07-.15.14-.23.2.52.94,1.04,1.88,1.53,2.79-.44.55-.79,1-1.2,1.5.75.24,1.31.42,1.98.63-.29.67-.52,1.2-.9,2.09.93-.26,1.51-.44,2.09-.56.2-.04.42.08.69.14-.07.58-.13,1.1-.22,1.83.62-.45,1.07-.79,1.69-1.24.15,1.08.27,1.92.43,3.08.51-1.26.9-2.23,1.2-2.98Z"/><path class="cls-12" d="m493.54,337.94c-.5-.49-.96-1.05-1.52-1.47-2.65-1.98-3.87-4.71-4.13-7.91-.13-1.56-.45-3.09.1-4.68,1.28-3.69,4.17-5.6,7.47-7.1.71-.32,1.49-.5,2.23-.75.45.11.9.23,1.35.34,2.42.64,3.98,2.32,5.18,4.39.5.87.88,1.8,1.32,2.71,1.13,3.84,1.44,7.78,1.44,11.82,1.26-2.33,2.52-4.67,3.79-7,.43-.55.85-1.11,1.28-1.66.45-.12.95-.16,1.34-.39,2.98-1.75,6.3-1.91,9.6-2.04,2.26-.09,4.3.81,6.43,2.33.43,1.02,1.06,2.28,1.48,3.61.2.63.08,1.4-.04,2.08-.19,1.07-.51,2.13-.77,3.19-1.86,1.58-3.8,3.05-6.14,3.87-1.48.52-2.98.99-4.47,1.47-1.66.53-3.32,1.03-4.99,1.54,2.04.14,3.99-.1,5.94-.21,1.32-.07,2.64.03,3.96.06-3.28.31-6.56.62-9.84.92,0,.09-.02.19-.03.28.34.12.68.28,1.03.35,2.99.52,5.52,1.95,7.58,4.11,2.75,2.89,5.06,6.01,5.28,10.28.21,4.02-1.75,6.77-5.7,7.67-2.71.62-5.24.32-7.73-1-2.06-1.09-3.62-2.42-4.77-4.58-1.18-2.22-3.05-4.07-4.65-6.13-.18.29-.36.45-.33.53,1.1,2.77.52,5.6.16,8.38-.18,1.37-.69,2.74-1.25,4.02-1.42,3.26-4.11,4.89-7.5,5.45-1.48.25-2.99.44-4.48.4-1.23-.03-2.45-.42-3.65-.64-3.23-3.57-3.92-7.65-3.15-12.15.78-4.59,3.76-7.48,7.38-10.1-1.07.27-2.14.51-3.2.82-2.04.59-4.05,1.26-6.1,1.81-1.87.5-3.76.37-5.62-.07-1.19-.28-2.06-1.07-2.8-2.06-1.49-2.01-1.83-4.32-1.94-6.71l1.6-4.72c2.85-3.17,6.36-3.27,10.15-2.24,1.79.48,3.6.9,5.4,1.34-.11.1-.23.2-.47.42,1.99.68,3.73,1.8,5.97,2.18-.16-1.62-1.42-2.01-2.2-2.77Zm6.16,3.13l.22,2.38c-.54.36-1.02.68-1.58,1.06.66.29,1.13.49,1.59.7-.27.61-.5,1.13-.84,1.91.88-.22,1.45-.36,2.03-.51.31.57.55,1.01.79,1.46.36-.21.62-.36.94-.55.28.32.5.64.78.9.26.25.57.45,1.29,1.01-.4-1.28-.64-2.05-.9-2.88,1.01-.22,1.89-.41,3.11-.67-1.01-.48-1.65-.78-2.38-1.13.72-.68,1.78-.68,2.14-1.87-.9,0-1.63,0-2.36,0-.27-1.07,1.47-1.56.64-2.91-.37.27-.74.49-1.06.77-.32.28-.59.61-.89.93-.39-.55-.68-.97-1.09-1.57-.13.95-.22,1.6-.33,2.41-.7-.48-1.19-.82-2.1-1.44Z"/><path class="cls-11" d="m537.41,341.97c.08-.7.15-1.39.23-2.09.6-2.91,2.47-4.39,5.35-4.81,2.78-.4,5.5.06,8.22.43,1.06.14,2.1.28,3.54-.05-2.19-1.63-3.99-3.12-5.15-5.21-.89-2.29-1.55-4.63-1.64-7.12-.07-2.15.49-4.02,1.9-5.7,1.37-1.63,3.07-2.16,5.09-1.81,3.18.56,5.59,2.19,6.75,5.31.57,1.55.94,3.17,1.41,4.75.32,1.37.64,2.75.99,4.24.77-1.81,1.49-3.53,2.22-5.25.16-.27.35-.52.48-.8,1.72-3.74,4.29-5.21,8.37-4.82.85.08,1.72,0,2.58,0,.59.34,1.16.72,1.79,1,2.1.93,3.36,2.45,3.52,4.8.03.47.07.93.1,1.4-.61,1.62-1.07,3.32-1.87,4.83-1.34,2.54-3.36,4.36-6.29,4.98-.92.19-1.81.54-3,.91,2.58.36,4.89.62,7.17,1.03,1.7.31,3.4.7,4.75,1.96,1.38,1.28,2.04,2.77,1.68,4.66-.4,2.08-1.3,3.86-2.95,5.26-2.45,2.09-5.67,2.04-8.12-.03-2.07-1.74-4.03-3.55-5.77-5.62-.43-.51-1.06-.85-1.59-1.26-.74.83-.11,1.32.14,1.83.95,1.91,2.13,3.78,1.99,6-.1,1.63-.36,3.29-.78,4.87-.42,1.59-1.55,2.77-3.04,3.47-1.21.56-2.47,1.16-3.77,1.36-3.31.51-6.53-.6-7.28-5.26-.56-3.47.32-6.74,1.75-9.89.24-.54.48-1.08.45-1.8-.65.53-1.27,1.09-1.94,1.59-.7.51-1.44.97-2.18,1.44-1.8,1.15-3.71,1.74-5.86,1.16-1.97-.54-3.94-1.05-5.92-1.58-.05-.12-.09-.24-.12-.36-1.35-1.04-2.5-2.24-3.18-3.83Zm24.01-1.98c.1.08.19.16.29.24.08.29.16.58.3,1.13.35-.62.6-1.07.88-1.56.57.51.91.8,1.3,1.15.27-.55.5-1.03.71-1.46.41-.12.76-.23,1.12-.34-.25-.41-.47-.77-.7-1.14.4-.25.7-.44.85-.53-1.07-1.16-2.06-2.23-3.04-3.29-.12.51-.23,1.02-.37,1.63-.78-.11-1.45-.2-2.22-.3.24.47.41.8.59,1.15-.49.32-.97.62-1.63,1.05.74.32,1.22.53,1.71.74-.48.57-.96,1.13-1.81,2.14,1.06-.32,1.54-.47,2.03-.61Z"/><path class="cls-12" d="m454.75,322.44c-.89-1.48-2.03-2.74-3.28-3.92l-1.73.16c-.15.19-.3.37-.43.55-1.35,1.85-2.66,3.72-4.76,4.85-3.06,1.65-6.09,1.32-9.07-.12-.98-.48-1.94-1.11-2.73-1.86-1.69-1.6-2.86-3.44-1.63-5.91.99-1.76,2.63-2.83,4.57-3.67-.62-.94-1.39-.58-1.97-.49-1.64.27-3.12-.09-4.61-.71-1.86-.77-3.11-2.11-3.91-3.91-1.56-3.51.9-7.83,4.69-8.45,2.53-.41,4.67.16,6.58,1.86,1.16,1.04,2.42,1.96,3.74,3.01.6-1.06-.17-1.52-.49-2.03-1.32-2.12-2.23-4.34-2.15-6.9.59-1.19,1.22-2.29,2.25-3.26,3.06-2.88,7.54-1.69,9.82,1.16.92,1.15,1.82,2.4,1.95,4,.02.27.29.52.59,1.03.39-.6.72-.98.91-1.42.96-2.21,2.24-4.14,4.18-5.64,2.46-1.9,5.18-1.61,7.28-.21,2.55,1.7,4.14,4.28,4.61,7.2.57,3.52-1.33,7.34-5.82,8.1-.84.14-1.69.21-2.78.34.58,1.13,1.49,1.24,2.23,1.49,1.83.61,3.4,1.58,4.89,2.81,2.91,2.42,2.87,7.33,1.35,9.79-.54.87-1.18,1.72-1.95,2.37-1.4,1.19-2.95,2.07-4.96,1.69-.99-.18-2.02-.12-3.05-.17-.07.28-.13.5-.18.72-.37-.4-.69-.87-1.12-1.18-.9-.65-1.74-1.47-3-1.31Zm-6.64-10.84l1.65-.15c0-.5,0-.85,0-1.17.32-.27.63-.54.95-.81-.25-.23-.36-.33-.47-.43-.64-.08-1.28-.16-1.91-.24-.09-.4-.16-.77-.26-1.22-.74.97-1.35,1.93-2.51,2.25-.38-.23-.76-.45-1.49-.89.31,1,.49,1.54.66,2.09-.32.26-.65.52-1.29,1.03l2.28-.21c.15.39.26.65.45,1.14.35-1.11,1.58-.49,1.92-1.39Z"/><path class="cls-12" d="m285.02,338.91c.31-2.87,1.92-4.73,4.49-5.89,1.94-.88,3.89-1.74,6.06-1.89.29-.02.58-.17,1.11-.33-.37-.47-.56-.93-.9-1.11-2.92-1.5-4.78-3.8-5.52-7.07.02-2.34.45-4.62,2.71-6.98,1.33-.95,3.55-1.44,5.87-1.44,2.21,0,3.63,1.48,4.77,3.11,1.02,1.46,1.76,3.12,2.68,4.8.05-1.53.14-3.03.15-4.54.02-3.63,2.32-5.5,5.87-4.85,2.91.54,5.29,1.99,7.39,3.99,1.28,1.22,1.34,2.79,1.33,4.41-.65,1.52-1.42,2.96-2.86,3.96-.42.29-.62.88-.92,1.34-1.51.62-3.01,1.24-4.52,1.86.03.09.07.18.1.28,1.23-.05,2.46-.09,3.69-.14.62.04,1.25.18,1.86.11,1.77-.21,3.25.37,4.52,1.36,1.21,1.6,1.28,3.23.82,5.02-.65,2.53-1.35,5-2.58,7.34-1.18,2.25-4.61,2.84-6.35,1.35-.89-.76-1.68-1.65-2.51-2.49-.42-.42-.82-.85-1.38-1.17,0,1.58.69,2.75,1.83,3.75.88.78,1.79,1.58,2.44,2.54,1.47,2.16.73,5-1.52,6.33-.47.28-.98.56-1.5.68-2.69.59-5.33,1.11-8.12.11-2.67-.96-4.17-3.74-3.76-6.62.1-.7.37-1.38.45-2.08.05-.43-.1-.88-.19-1.49-.58.2-1.03.28-1.42.49-.76.41-1.51.86-2.23,1.34-3.92,2.6-10.9,1.2-11.87-5.14,0-.31.01-.63.02-.94Zm23.55-8.64l-2.3.22c.04-.77.08-1.42.14-2.63-.71.92-1.07,1.39-1.45,1.87-.34-.17-.68-.34-1.05-.53-.06.54-.11,1.04-.17,1.56-.55-.16-.99-.28-1.54-.44l.16,1.7c-.22.34-.46.71-.74,1.14.54.12.97.22,1.4.31-.14.53-.27.99-.48,1.78.72-.46,1.1-.7,1.5-.95.35.32.68.64.99.92.28-.13.48-.23.68-.33.54.25,1.06.49,1.84.85-.33-.85-.55-1.41-.76-1.94.66-.41,1.19-.75,1.88-1.18-.73-.16-1.21-.27-1.87-.41.62-.68,1.07-1.17,1.79-1.96Z"/><path class="cls-11" d="m338.01,320.02c-.44.14-.92.2-1.31.43-2.88,1.69-5.72,1.24-8.47-.24-1.36-.73-2.26-1.91-2.37-3.55-.08-1.17-.18-2.34-.27-3.51l.08-2.69c.33-.22.74-.37.96-.66,1-1.27,2.27-1.92,3.88-1.98.19,0,.38-.19.76-.39-1.81-1.79-3.5-3.57-3.82-6.55.01-.07.08-.53.16-1,.71-4.16,3.61-5.73,7.73-5.73,2.83,0,4.62,1.33,5.22,4.17.18.84.52,1.64.9,2.81.3-.61.55-.95.62-1.32.27-1.47.95-2.66,2.14-3.57,5.69-1.57,10.66.7,12.59,5.69.09,3.21-2.46,4.79-4.35,7.01,1.64.07,3.02.04,4.38.21,3.34.41,5.27,2.39,5.63,5.69.07.63.08,1.26.12,1.89-.08.2-.17.4-.25.6-.2,3.48-2.73,5.68-6.13,5.06-1.66-.3-3.23-1.07-5.04-1.7-.23.57.14,1.3.14,2.02.11,1.17.22,2.34.33,3.51-.36.76-.74,1.51-1.06,2.29-.63,1.49-1.57,2.64-3.17,3.15-.67.04-1.34.09-2,.13-2.98-1.06-4.96-3.16-6.24-6.18-5.03.47-10.01.94-14.99,1.41,1.38-.24,2.75-.54,4.14-.71,3.36-.41,6.72-.76,10.08-1.15.21-.02.4-.18.67-.3,0-.52.01-1.02.02-1.52-.48-.02-.8-.03-1.11-.04.38-.26.76-.52,1.28-.88,0-.42-.02-.95-.02-1.48,1.06-.48.81-1.52,1.19-2.39-.48-.23-.81-.38-1.32-.62-.4.75-.76,1.42-1.11,2.09Zm6.7-7.63c.32-.12.65-.23,1.07-.38-1.23-1.12-.6-2.43-.87-3.63-.39.25-.75.49-1.13.74-.42-.21-.81-.4-1.21-.6-.11.35-.21.64-.3.91-.4.01-.75.02-1.12.04.07.44.12.74.17,1.06-.45.17-.91.34-1.47.56.55.36.91.6,1.24.82-.14.39-.24.64-.35.95.52-.12.94-.22,1.32-.31.2.42.33.69.47.99.31-.2.57-.37.86-.56.33.11.69.22,1.04.33.1-.31.19-.6.28-.9Z"/><path class="cls-12" d="m390.89,337.42c-.3.5-.61,1.01-.93,1.53-.91.15-1.72.28-2.54.41-1-.07-2-.11-3-.22-.84-.09-1.68-.25-2.52-.38-.34-.32-.63-.77-1.03-.94-2.41-1.02-3.48-2.84-3.39-5.4.15-.71.29-1.41.49-2.4-4.22,1.82-7.8,1.32-10.9-1.76-.13-.45-.17-.95-.4-1.34-1.44-2.54-1.48-5.08-.1-7.79,1.89-1.49,4.16-1.5,6.43-1.06,2.41.47,4.69,1.38,6.68,2.9.17.13.43.15.93.31-.19-.51-.24-.86-.43-1.1-.74-.91-1.57-1.75-2.29-2.68-1.64-2.11-2.05-4.5-1.62-7.12.86-5.19,6.21-6.33,9.61-3.76,2.84,2.15,4.36,5.09,4.03,8.8-.12,1.39-.1,2.79-.14,4.26,1.12-.88,2.08-1.83,3.21-2.46,1.08-.6,2.34-.86,3.31-1.19,2.63.03,4.73.75,6.55,3.02.8,1.31,1.14,3.07.66,5.05-.41,1.69-1.29,2.83-2.9,3.45-1.05.41-2.08.86-3.21,1.33,1.77,1.01,3.31,1.89,4.85,2.77.43.99.86,1.98,1.29,2.97.02.62.04,1.24.07,2.22-.48.51-1.12,1.18-1.73,1.83-2.52.86-4.65.12-6.65-1.28-.57-.4-1.14-.8-1.72-1.2-1.31-1.83-2.9-3.39-5.1-5.01,1.23,2.26,2.67,3.94,2.46,6.23Zm-2.2-8.27c-.24-.78-.42-1.36-.58-1.87.34-.46.61-.83.97-1.31-.66-.04-1.16-.07-1.62-.1-.17-.59-.31-1.05-.47-1.59-.57.82-.99,1.44-1.3,1.88.18.87.34,1.64.47,2.27.71.2,1.47.42,2.52.72Z"/><path class="cls-12" d="m536.56,319.56c-2.32.96-4.62,1.99-6.98,2.84-1.74.63-3.59.64-5.35.02-.78-.28-1.47-.81-2.5-1.39.64-.53.98-1.02,1.41-1.13,1.6-.4,3.24-.63,4.85-1.01.9-.21,1.76-.56,2.68-.86-.2-1.16-.91-1.17-1.63-1.11-1.89.16-3.79.27-5.67.53-4.72.64-7.43-1.95-9.14-5.59-.48-1.02-.53-2.32-.52-3.48,0-3.24,1.31-6.01,3.59-8.24,2.02-1.97,4.29-2.02,6.72-.47.51.33.98.72,1.81,1.33-.13-1.66-.3-2.96-.32-4.25-.03-2.61.84-4.72,3.26-6.13,1.5-.88,2.98-.56,4.36-.19,3.74,1,6.77,2.99,8.1,6.79-.24,4-2.26,7.41-3.23,11.24,1.37-.81,2.77-3.24,3.6-6.17.86-.69,1.2-2.23,3.04-2,1.91,2.29,2.51,5.08,2.25,8.06-.18,2-1.12,3.78-2.22,5.43-.83,1.24-1.94,2.09-3.57,1.92-1.04-.61-2.1-1.23-3.28-1.93l.41,4.41c-.94-.02-1.2.81-1.67,1.37Zm-5.41-4.28c.43-.08.75-.21,1.03-.16.37.07.7.28.78.31.78-.35,1.37-.61,1.7-.76.6-1.28,1.13-2.4,1.66-3.52-.44-.04-.89-.08-1.28-.11-.19-.37-.34-.64-.53-1.02-.37.52-.58.84-.8,1.15-.41-.23-.8-.44-1.26-.69-.18.54-.33.97-.46,1.35l-1.76.17c.26.51.45.88.62,1.24-.17.31-.31.57-.46.84.33.1.61.18.92.27-.05.26-.08.48-.16.95Z"/><path class="cls-12" d="m406.02,376.64c3.82-.55,7.34.36,10.81,2.24.47.87,1.81,1.42,1.44,3.09-.44.06-.97.28-1.44.17-1.15-.26-2.26-.68-3.4-1.01-1.42-.42-2.84-1-4.51-.21.64.98,1.61,1.27,2.5,1.65,1.88.81,3.75,1.68,5.66,2.41,4.37,1.68,5.15,8.61,3.17,11.66-1.92,2.94-3.64,4.63-7.58,6-4.3-.5-4.78-.86-6.5-5.02-.33.56-.62.96-.81,1.39-.43,1.01-.81,2.04-1.23,3.05-1.28,3.09-5.47,4.28-8.19,2.99-.72-.7-1.39-1.37-2.07-2.02-2.03-1.95-3.08-4.32-3.27-7.12-.09-1.27.21-2.37,1.05-3.28,1.61-1.73,3.27-3.41,4.9-5.12.29-.31.52-.68.99-1.31-1.46.12-2.17.89-2.98,1.43-.92.6-1.82,1.25-2.74,1.86-.75.49-1.54.79-2.56.36-.8-2.42-.2-4.73.83-6.99.49-1.06,1.02-2.1,1.53-3.15,1.55-.88,3.1-1.76,4.65-2.64,1.06-.23,1.92.13,2.66.88.42.43.84.85,1.26,1.28.31.5.62,1.01,1.08,1.76.29-1.21.51-2.1.69-2.85q1.89-1.31,4.06-1.49Zm-2.38,8.51c.28.53.45.88.69,1.33.4-.42.75-.8,1.09-1.16.57.25,1.08.47,1.76.76-.11-.62-.17-.98-.23-1.35.29-.16.55-.31.86-.47-.23-.29-.45-.57-.67-.84.21-.23.39-.43.55-.61-.63-.43-1.18-.8-1.25-.85-1.13-.18-1.75-.28-2.07-.33-1.23.93-2.32,1.75-3.43,2.59.51.12,1,.24,1.47.36-.03.56-.05.98-.08,1.52.49-.35.81-.57,1.32-.94Z"/><path class="cls-11" d="m499.05,316.36c-.45-.11-.9-.23-1.35-.34-1.71-.57-3.44-1.08-5.12-1.71-3.91-1.47-6.22-4.15-6.43-8.48-.09-1.9-.39-3.79.59-5.56.17-.31.45-.55.87-1.06.43,1.13.79,1.97,1.08,2.85.55,1.71,1.68,3.01,2.9,4.26.2.2.57.23.87.34.22.22.45.44.67.66.1-.08.2-.16.3-.24-.13-.2-.25-.41-.38-.61-1.11-2.09-2.19-4.16-2.22-6.65-.02-2.1.67-3.85,1.92-5.44,1.08-1.37,2.55-1.76,4.46-1.53,2.04,1.55,3.23,3.81,3.67,6.44.33,1.94.4,3.93.59,5.89l.15,1.56c.11.02.23.03.34.05.16-.55.32-1.1.47-1.65.9-3.55.88-7-1.07-10.27-.29-.49-.34-1.11-.5-1.68,1.44-.81,2.52-.31,3.52.32,2.44,1.54,4.17,3.59,4.39,6.62.03.21.06.43.09.64.4,3.34-.6,6.4-1.86,9.42-.3.71-.46,1.48-.68,2.23-.36.27-.91.46-1.06.81-.86,2.07-2.44,2.91-4.58,2.97-.54.01-1.08.11-1.62.17Z"/><path class="cls-11" d="m353.29,354.43c-.91.11-1.83.21-2.74.32-.33.13-.67.27-1,.4-1.96.28-3.49,1.36-4.93,2.62-.58.51-1.19.97-1.74,1.42-1.36-.55-1.27-1.56-1.12-2.47.39-2.44,1.66-4.41,3.6-5.91,1.45-1.13,3.07-1.85,4.97-1.97,2.52-.15,5.04-.5,7.52.18.88.24,1.9-.38,2.67.45,2.79.73,4.16,2.58,4.42,5.41.06.69.37,1.35.56,2.03-.07.77-.14,1.54-.21,2.31-.11,1.33-.14,2.67-.34,3.98-.66,4.34-4.63,6.89-8.15,7.53-1.34.24-2.78.65-4.2-.1.16-1.07,1.06-1.36,1.72-1.85,1.84-1.34,3.11-3.05,3.74-5.54-1.02.14-1.41.84-1.99,1.27-1.19.88-2.38,1.82-3.7,2.47-2.21,1.08-4.47.73-6.62-.31-1.52-.74-2.46-1.93-2.53-3.68.69-2.1,2.26-3.42,3.96-4.59,2.44-1.68,5.23-2.54,8.06-3.29.18-.05.34-.13.67-.27-.35-.09-.5-.13-.66-.17-.58-.67-1.29-.33-1.96-.25Z"/><path class="cls-11" d="m313.18,307.5c-2.78.43-5.5-.08-8.12-.88-3.32-1.01-5.44-3.59-7.35-6.33-.15-.22-.07-.6-.11-.98,1.99-.86,4.08-.56,5.8-.9,1.35-.87,2.51-1.62,3.53-2.28,1.44.28,2.59.5,3.73.71.08.07.16.14.24.21,0,0,.02-.02.02-.03-.08-.07-.16-.15-.24-.22-.25-.65-.52-1.29-.74-1.95-.25-.78-.45-1.58-.7-2.46,6.94.58,10.92,4.74,11.17,11.41-.1.5-.2,1-.34,1.7-.44-.51-.71-.81-.81-.93-1.1.53-2.04.98-2.99,1.43-1.04.5-2.07.99-3.11,1.49Z"/><path class="cls-14" d="m583.13,326.24c-.03-.47-.07-.93-.1-1.4-.16-2.34-1.42-3.87-3.52-4.8-.62-.27-1.19-.66-1.79-1,5.22-3.56,10.44-7.11,15.66-10.67.17-.13.34-.27.51-.4.15-.03.28-.1.39-.2.16-.12.33-.25.49-.37,2.07-1.34,4.11-2.71,6.21-4.01.83-.51,1.75-.86,3.1-1.51-.68,1.45-1.57,2-2.32,2.67-.82.73-1.7,1.38-2.55,2.08-.84.7-1.68,1.41-2.51,2.11-.52.79.17.67.57.76-.14.49-.18,1.03-.43,1.47-.45.8-1.01,1.53-1.77,2.66,2.05-.65,3.69-1.17,5.33-1.69.21.17.41.35.62.52-1.1.89-2.23,1.75-3.3,2.67-3.05,2.61-6.01,5.35-9.15,7.84-1.65,1.3-3.62,2.19-5.44,3.26Z"/><path class="cls-14" d="m536.56,319.56c.47-.56.73-1.38,1.67-1.37,2.31,4.03,5.37,7.48,8.52,10.85.72.77,1.54,1.65,2.84,1.2,1.16,2.09,2.96,3.58,5.15,5.21-1.44.33-2.48.19-3.54.05-2.73-.36-5.45-.83-8.22-.43-2.88.41-4.75,1.9-5.35,4.81-1.46.29-2.95.51-4.38.9-2.9.79-5.86,1.17-8.85,1.35-1.32-.03-2.65-.13-3.96-.06-1.96.11-3.91.35-5.94.21,1.66-.51,3.33-1.02,4.99-1.54,1.5-.47,2.99-.95,4.47-1.47,2.33-.83,4.27-2.29,6.14-3.87,1.55-.33,3.1-.65,4.65-.98.62-.18,1.23-.37,1.85-.55,2.03-.53,4.06-1.07,6.09-1.6.44-.18.88-.37,1.32-.55-.28-2.01-1.38-3.65-2.48-5.25-1.6-2.33-3.3-4.6-4.95-6.9Z"/><path class="cls-14" d="m454.75,322.44c1.26-.16,2.1.67,3,1.31.43.31.75.78,1.12,1.18.04.16.08.31.13.47.15.14.3.29.44.43h.02c.19.28.39.56.58.83,1.61,2.67,3.53,5.06,6.03,6.97.93.71,1.77,1.56,2.63,2.36,1.71,1.59,3.64,2.73,6,3.01l-1.6,4.72c-3.32-.95-6.64-1.91-9.97-2.86-2.95-.84-5.9-1.7-8.99-1.82.02-1.24.04-2.47.06-3.71,1.9,0,3.79,0,5.69,0,.64.07,1.28.13,1.91.2l1.03-.1c-.09-.45-.09-.78-.23-1.01-.32-.54-.67-1.07-1.08-1.53-2.82-3.13-4.74-6.83-6.77-10.47Z"/><path class="cls-14" d="m367.08,328.27c3.1,3.08,6.68,3.58,10.9,1.76-.2.98-.35,1.69-.49,2.4-.15.04-.3.08-.46.12-.76-.06-1.53-.11-2.29-.17-2.96-.07-5.92-.14-8.88-.21-1.98-.35-3.93-.28-5.8.55-2.01.96-4.02,1.92-6.03,2.89-.03-.67-.07-1.35-.1-2.09-.91-.07-1.68-.09-2.44-.19-.76-.1-1.59-.1-2.02-.94,1.22-.28,2.43-.57,3.65-.84,1.58-.35,3.17-.67,5.12-1.08-2.11-2.06-4.19-3.38-6.57-4.23-.11-1.17-.22-2.34-.33-3.51,2.25.95,4.56,1.79,6.74,2.87,2.86,1.42,5.76,2.6,9,2.68Z"/><path class="cls-12" d="m349.47,332.38c.42.84,1.26.84,2.02.94.76.1,1.54.13,2.44.19.04.74.07,1.41.1,2.09-3,4.02-7.62,5.26-11.97,6.97-1.24.49-2.49.94-3.79.63-.74-.95-.34-1.82.14-2.48,1.41-1.97,2.53-4.12,4.47-5.72,1.96-1.62,4.03-2.65,6.59-2.61Z"/><path class="cls-14" d="m396.27,377.07c-1.55.88-3.1,1.76-4.65,2.64-1.46.71-2.92,1.41-4.68,2.26.37-1.3,1.12-1.75,1.78-2.24,2.02-1.5,4.06-2.97,6.11-4.42,3.81-2.69,7.2-5.84,10.23-9.38.97-1.13,2-2.22,3-3.33,1.59-.31,3.18-.62,4.77-.93-.34.32-.64.7-1.03.95-3.31,2.11-5.56,5.12-7.29,8.56-.05.02-.13.05-.13.06.02.08.06.16.09.24-.08,1.19.34,2.24.9,3.27.32.58.44,1.26.65,1.9q-2.18.18-4.06,1.49c-.18.75-.39,1.63-.69,2.85-.46-.75-.77-1.25-1.08-1.76,1.51-1.71,1.19-3.6.58-5.85-1.61,1.32-3.05,2.5-4.5,3.69Z"/><path class="cls-14" d="m365.49,356.92c-.19-.68-.5-1.34-.56-2.03-.25-2.82-1.63-4.68-4.42-5.41,1.25-.12,2.5-.23,3.75-.35,2.42-.23,4.65-1.1,6.37-2.76,3.32-3.22,7.19-5.55,11.26-7.61.84.13,1.68.3,2.52.38,1,.11,2,.15,3,.22-.56.39-1.08.86-1.69,1.17-3.59,1.81-7.2,3.56-10.78,5.38-2.34,1.19-4.35,2.82-6.25,4.64-1.5,1.44-2.47,3.06-2.42,5.19.01.56.02,1.15-.79,1.19Z"/><path class="cls-14" d="m499.05,316.36c.54-.06,1.08-.16,1.62-.17,2.14-.06,3.73-.9,4.58-2.97.15-.36.7-.55,1.06-.81.07,1.4-.37,2.69-.97,3.93-.07.14-.14.27-.21.41,0,.32.01.65.02.97.09.19.19.38.28.58,1.26,3.53,3.72,6.1,6.61,8.33-.43.55-.85,1.11-1.28,1.66-1.74-1.61-3.48-3.21-5.22-4.82-.44-.9-.82-1.84-1.32-2.71-1.2-2.07-2.76-3.75-5.18-4.39Z"/><path class="cls-14" d="m338,323.32c.31.01.63.02,1.11.04,0,.5-.01,1-.02,1.52-.27.12-.46.28-.67.3-3.36.39-6.72.74-10.08,1.15-1.39.17-2.76.47-4.14.71-1.37.16-2.73.32-4.1.48-.84.21-1.67.42-2.51.64-.36.09-.72.18-1.08.27-1.23.05-2.46.09-3.69.14-.03-.09-.07-.18-.1-.28,1.51-.62,3.01-1.24,4.52-1.86.79-.15,1.58-.3,2.37-.45.78-.19,1.57-.38,2.35-.57.79-.12,1.57-.23,2.36-.35,3.74-.34,7.48-.67,11.21-1.04.52-.05,1.02-.33,1.53-.51l.93-.19Z"/><path class="cls-14" d="m313.18,307.5c1.04-.5,2.07-.99,3.11-1.49.94-.45,1.89-.91,2.99-1.43.1.12.37.42.81.93.14-.7.24-1.2.34-1.7.35.49.78.94,1.04,1.48,1.02,2.04,2.35,3.82,4.2,5.18-.03.9-.05,1.8-.08,2.69-2.04-.73-3.42-2.35-5-3.7-.87-.74-1.88-1.31-2.82-1.95-.52-.06-1.04-.19-1.55-.18-1.01.02-2.01.11-3.02.18,0,0,0,0,0,0Z"/><path class="cls-14" d="m403.55,334.63c-.43-.99-.86-1.98-1.29-2.97.32-.02.64-.04.96-.06.64.06,1.29.11,1.93.17,2.38.25,4.76.5,7.15.76.11,1.1.23,2.21.34,3.31-3.03-.4-6.06-.81-9.09-1.21Z"/><path class="cls-14" d="m537.41,341.97c.68,1.6,1.83,2.8,3.18,3.83-.46.19-.92.38-1.37.58-1.45.19-2.7.81-3.86,1.67-1.54,1.13-3.25,1.92-5.16,2.22-.27.04-.56-.02-.85-.03.01-.22-.01-.32.02-.34,3.05-2.27,5.58-5.05,8.03-7.92Z"/><path class="cls-14" d="m390.89,337.42c.21-2.29-1.23-3.97-2.46-6.23,2.2,1.63,3.79,3.18,5.1,5.01-.88.41-1.76.81-2.64,1.22Z"/><path class="cls-14" d="m493.54,337.94c.79.77,2.04,1.15,2.2,2.77-2.23-.38-3.98-1.49-5.97-2.18.25-.22.36-.32.47-.42,1.1-.06,2.19-.12,3.29-.18Z"/><path class="cls-14" d="m566.3,324.67c-.73,1.72-1.45,3.43-2.22,5.25-.35-1.49-.67-2.87-.99-4.24,1.07-.34,2.14-.67,3.21-1.01Z"/><path class="cls-11" d="m337.06,323.5c-.51.18-1.01.46-1.53.51-3.73.37-7.47.7-11.21,1.04.43-.16.85-.41,1.29-.45,3.81-.39,7.63-.73,11.45-1.09Z"/><path class="cls-14" d="m338.01,320.02c.36-.67.71-1.34,1.11-2.09.51.24.84.4,1.32.62-.38.88-.13,1.91-1.19,2.39-.41-.31-.83-.62-1.24-.93Z"/><path class="cls-14" d="m285.02,338.91c0,.31-.01.63-.02.94-1.05.46-2.06,1.04-3.29,1.02.98-.88,2.01-1.63,3.31-1.96Z"/><path class="cls-11" d="m360.06,332.71c1.87-.83,3.82-.9,5.8-.55-1.93.18-3.87.37-5.8.55Z"/><path class="cls-11" d="m313.19,307.51c1.01-.06,2.01-.16,3.02-.18.52,0,1.03.12,1.55.18-1.02.14-2.04.33-3.06.38-.5.02-1.01-.24-1.51-.38Z"/><path class="cls-12" d="m502.43,305.12c-.16.55-.32,1.1-.47,1.65-.11-.02-.23-.03-.34-.05l-.15-1.56c.32-.01.64-.03.96-.04Z"/><path class="cls-11" d="m317.6,328.15c.84-.21,1.67-.42,2.51-.64-.84.21-1.67.42-2.51.64Z"/><path class="cls-12" d="m374.74,332.37c.76.06,1.53.11,2.29.17-.76-.06-1.53-.11-2.29-.17Z"/><path class="cls-11" d="m321.96,325.4c-.78.19-1.57.38-2.35.57.78-.19,1.57-.38,2.35-.57Z"/><path class="cls-12" d="m345.43,331.8l2-.13c-.63.61-1.3.68-2,.13Z"/><path class="cls-12" d="m493.05,306.46c.13.2.25.41.38.61-.1.08-.2.16-.3.24-.22-.22-.45-.44-.67-.66.2-.06.39-.13.59-.19Z"/><path class="cls-11" d="m405.15,331.78c-.64-.06-1.29-.11-1.93-.17.64.06,1.29.11,1.93.17Z"/><path class="cls-11" d="m461.81,335.55c-.64-.07-1.28-.13-1.91-.2.64.07,1.28.13,1.91.2Z"/><path class="cls-12" d="m353.29,354.43c.67-.07,1.38-.41,1.96.25-.65-.08-1.31-.17-1.96-.25Z"/><path class="cls-11" d="m536.59,333.86c-.62.18-1.23.37-1.85.55.62-.18,1.23-.37,1.85-.55Z"/><path class="cls-11" d="m597.28,309.52c-.41-.09-1.09.03-.57-.76.19.25.38.51.57.76Z"/><path class="cls-12" d="m601.03,312.47c-.21-.17-.41-.35-.62-.52.26-.07.52-.13.78-.2-.05.24-.11.48-.16.72Z"/><path class="cls-12" d="m539.21,346.38c.46-.19.92-.38,1.37-.58.03.12.07.24.12.36l-1.49.22Z"/><path class="cls-11" d="m544,331.71c-.44.18-.88.37-1.32.55.44-.18.88-.37,1.32-.55Z"/><path class="cls-12" d="m460.05,326.67c-.19-.27-.39-.55-.58-.82.19.27.39.55.58.82Z"/><path class="cls-12" d="m349.55,355.15c.33-.13.67-.27,1-.4-.33.13-.67.27-1,.4Z"/><path class="cls-12" d="m459.45,325.84c-.15-.14-.29-.29-.44-.43.15.14.29.29.44.43Z"/><path class="cls-11" d="m404.47,371.48c-.03-.08-.07-.16-.09-.24,0,0,.08-.04.13-.06.07.11.06.21-.04.29Z"/><path class="cls-12" d="m508.85,300.75c-.03-.21-.06-.43-.09-.64.03.21.06.43.09.64Z"/><path class="cls-12" d="m362.36,317.35c.08-.2.17-.4.25-.6-.08.2-.17.4-.25.6Z"/><path class="cls-12" d="m594.78,307.41c-.16.12-.33.25-.49.37.16-.12.33-.25.49-.37Z"/><path class="cls-12" d="m505.14,316.74c.07-.14.14-.27.21-.41-.07.14-.14.27-.21.41Z"/><path class="cls-12" d="m593.9,307.98c-.17.13-.34.27-.51.4.17-.13.34-.27.51-.4Z"/><path class="cls-12" d="m505.44,318.29c-.09-.19-.19-.38-.28-.58.09.19.19.38.28.58Z"/><path class="cls-14" d="m433.94,352.36c-.3.75-.69,1.72-1.2,2.98-.16-1.16-.28-1.99-.43-3.08-.62.45-1.08.79-1.69,1.24.09-.74.15-1.26.22-1.83-.27-.06-.5-.18-.69-.14-.58.12-1.16.3-2.09.56.38-.89.61-1.41.9-2.09-.67-.21-1.23-.39-1.98-.63.4-.5.76-.95,1.2-1.5-.5-.9-1.02-1.84-1.53-2.79.08-.07.15-.14.23-.2.31.26.6.54.93.77.36.26.76.47,1.35.83l-.24-2.51.28-.09c.23.54.38,1.14.73,1.59.3.38.83.59,1.44.99.36-1,.65-1.77.96-2.64.83.37.57,1.08.68,1.62.11.53.16,1.08.28,1.9.99-.74,1.82-1.35,2.65-1.96l.32.19c-.54,1-1.07,2.01-1.71,3.22,1.19.28,2.07.49,3.47.82-1.21.45-1.96.72-2.75,1.01.37,1.16,2.08.92,2.28,2.3-1.24.55-1.96-.98-3.6-.55Z"/><path class="cls-7" d="m418.23,359.28c.03-.06.05-.13.08-.19l-.11.17.03.02Z"/><path class="cls-14" d="m499.7,341.06c.91.63,1.4.96,2.1,1.44.11-.82.2-1.46.33-2.41.42.6.71,1.01,1.09,1.57.3-.32.57-.65.89-.93.32-.28.69-.5,1.06-.77.83,1.34-.91,1.83-.64,2.91.73,0,1.46,0,2.36,0-.36,1.19-1.42,1.19-2.14,1.87.72.34,1.37.65,2.38,1.13-1.22.26-2.1.45-3.11.67.26.83.5,1.6.9,2.88-.71-.55-1.03-.75-1.29-1.01-.28-.27-.51-.58-.78-.9-.32.19-.59.34-.94.55-.24-.45-.48-.89-.79-1.46-.58.14-1.14.29-2.03.51.34-.78.57-1.3.84-1.91-.46-.2-.93-.41-1.59-.7.57-.38,1.04-.69,1.58-1.06l-.22-2.38Z"/><path class="cls-7" d="m505.55,323.46c1.74,1.61,3.48,3.21,5.22,4.82-1.26,2.33-2.52,4.67-3.79,7,0-4.04-.31-7.98-1.44-11.82Z"/><path class="cls-14" d="m561.41,339.99c-.49.15-.97.29-2.03.61.86-1.01,1.33-1.57,1.81-2.14-.49-.21-.97-.42-1.71-.74.67-.43,1.14-.73,1.63-1.05-.18-.35-.35-.68-.59-1.15.77.1,1.44.19,2.22.3.14-.61.26-1.12.37-1.63.98,1.06,1.96,2.13,3.04,3.29-.15.09-.44.28-.85.53.22.36.45.73.7,1.14-.36.11-.7.21-1.12.34-.21.44-.44.91-.71,1.46-.39-.35-.73-.64-1.3-1.15-.28.49-.53.94-.88,1.56-.15-.55-.22-.84-.3-1.13,0-.16,0-.33,0-.49-.1.08-.2.17-.3.25Z"/><path class="cls-14" d="m445.58,309.83c1.16-.32,1.77-1.28,2.51-2.25.1.45.17.82.26,1.22.63.08,1.27.16,1.91.24-.72.85-2.14,1.12-2.15,2.57-.35.9-1.57.28-1.92,1.39-.2-.49-.3-.75-.45-1.14l-2.28.21c.64-.51.97-.77,1.29-1.03l.83-1.21Z"/><path class="cls-11" d="m448.11,311.6c0-1.45,1.43-1.72,2.15-2.57.11.1.22.2.47.43-.32.27-.63.54-.95.81,0,.32,0,.67,0,1.17l-1.65.15Z"/><path class="cls-11" d="m445.58,309.83l-.83,1.21c-.17-.55-.35-1.1-.66-2.09.73.43,1.11.66,1.49.89Z"/><path class="cls-14" d="m308.56,330.28c-.72.79-1.17,1.28-1.79,1.96.66.15,1.14.25,1.87.41-.69.43-1.23.77-1.88,1.18.21.53.43,1.09.76,1.94-.78-.36-1.3-.6-1.84-.85-.2.1-.41.2-.68.33-.3-.28-.64-.6-.99-.92-.4.25-.78.49-1.5.95.21-.79.34-1.25.48-1.78-.43-.1-.86-.19-1.4-.31.28-.43.52-.8.74-1.14l-.16-1.7c.55.16.99.28,1.54.44.06-.52.11-1.03.17-1.56.37.19.71.36,1.05.53.38-.49.74-.96,1.45-1.87-.06,1.21-.1,1.85-.14,2.63l2.3-.22Z"/><path class="cls-14" d="m344.71,312.4c-.09.29-.18.58-.28.89-.35-.11-.71-.22-1.04-.33-.29.19-.55.36-.86.56-.14-.3-.27-.57-.47-.99-.38.09-.8.19-1.32.31.11-.31.21-.57.35-.95-.33-.22-.69-.46-1.24-.82.56-.21,1.02-.38,1.47-.56-.05-.32-.1-.61-.17-1.06.37-.01.72-.02,1.12-.04.09-.27.18-.56.3-.91.4.2.79.39,1.21.6.38-.25.74-.49,1.13-.74.26,1.2-.36,2.51.87,3.63-.42.15-.75.27-1.07.39Z"/><path class="cls-14" d="m388.69,329.14c-1.05-.3-1.82-.52-2.52-.72-.13-.63-.29-1.4-.47-2.27.31-.44.73-1.06,1.3-1.88.16.54.29,1,.47,1.59.46.03.95.06,1.62.1-.36.49-.63.85-.97,1.31.16.52.34,1.1.58,1.87Z"/><path class="cls-14" d="m531.16,315.28c.08-.47.12-.69.16-.95-.31-.09-.59-.17-.92-.27.15-.27.29-.53.46-.84-.18-.35-.37-.73-.62-1.24l1.76-.17c.13-.38.27-.81.46-1.35.46.25.85.46,1.26.69.22-.31.44-.62.8-1.15.2.38.34.65.53,1.02.39.03.84.08,1.28.11-.53,1.12-1.06,2.24-1.66,3.52-.33.15-.92.41-1.7.76-.07-.03-.41-.25-.78-.31-.28-.05-.6.09-1.03.16Z"/><path class="cls-14" d="m403.63,385.15c-.51.36-.83.59-1.32.94.03-.55.05-.97.08-1.52-.47-.11-.96-.23-1.47-.36,1.11-.84,2.2-1.66,3.43-2.59.32.05.94.15,2.07.33.07.05.62.42,1.25.85-.16.18-.35.38-.55.61.22.28.44.56.67.84-.3.17-.57.32-.86.47.06.38.13.73.23,1.35-.68-.29-1.19-.51-1.76-.76-.34.36-.69.74-1.09,1.16-.24-.46-.42-.8-.69-1.33Z"/><path class="cls-7" d="m310.7,296.82c.08.07.16.15.24.22,0,0-.02.02-.02.03-.08-.07-.16-.14-.24-.21l.03-.04Z"/><path class="cls-11" d="m561.41,339.99c.1-.08.2-.17.3-.25,0,.16,0,.33,0,.49-.1-.08-.2-.16-.29-.24Z"/></g><path class="cls-16" d="m36.7,276c9.4-27.7,13.1-53,17-64.9,12-35.7,33-65.7,33-65.7,0,0,9.5-13.1,10.1-16.3.6-3.3,4.7-8.6,4.7-8.6,0,0,17.4-5.7,62.3-5.7s53.7,5,53.7,5c0,0,2.4,2.9,5.9,4.8,3.5,1.8,11.7,1.7,11.7,1.7h33.4s.6-.1.9.3c.4.4.6,2,.6,2h266.2s.3-1.7.6-2c.4-.4.9-.3.9-.3h33.4s8.2.2,11.7-1.7c3.5-1.8,5.9-4.8,5.9-4.8,0,0,8.8-5,53.7-5s62.3,5.7,62.3,5.7c0,0,4.1,5.3,4.7,8.6.6,3.3,10.1,16.3,10.1,16.3,0,0,21,30,33,65.7,4,11.9,7.7,37.2,17,64.9,14.3,42.1,29.1,129.1,32,144.6,3.9,20.9,4.6,77.3,4.7,88.3v-.1s-.3-66.9-4.7-90.1c-2.9-15.5-17.7-102.5-32-144.6-9.4-27.7-13.1-53-17-64.9-12-35.7-33-65.7-33-65.7,0,0-9.5-13.1-10.1-16.3-.6-3.3-4.7-8.6-4.7-8.6,0,0-17.4-5.7-62.3-5.7s-53.7,5-53.7,5c0,0-2.4,2.9-5.9,4.8-3.5,1.8-11.7,1.7-11.7,1.7h-33.4s-.6-.1-.9.3c-.4.4-.6,2-.6,2h-266.2s-.3-1.7-.6-2c-.4-.4-.9-.3-.9-.3h-33.4s-8.2.2-11.7-1.7c-3.5-1.8-5.9-4.8-5.9-4.8,0,0-8.8-5-53.7-5s-62.3,5.7-62.3,5.7c0,0-4.1,5.3-4.7,8.6-.6,3.3-10.1,16.3-10.1,16.3,0,0-21,30-33,65.7-4,11.9-7.7,37.2-17,64.9-14.3,42.1-29.1,129.1-32,144.6C.4,441.9,0,508.8,0,508.8v.1c.1-10.9.7-67.4,4.7-88.3,3-15.4,17.7-102.5,32-144.6Z"/><path class="cls-17" d="m351.2,362c.1.7.1,1.3.1,2,0,42.2-34.3,76.5-76.5,76.5s-76.5-34.3-76.5-76.5c0-.7.1-1.3.1-2-.06-.43-.08-.82-.09-1.22-.01-.25-.01-.51-.01-.78,0-1.64.05-3.27.16-4.89.04-.73.1-1.46.17-2.18.99-10.78,4.22-20.91,9.23-29.93,13.05-23.54,38.16-39.5,66.94-39.5,42.2,0,76.5,34.3,76.5,76.5,0,.6-.1,1.3-.1,2Z"/><path class="cls-7" d="m347.8,356c0,40.32-32.68,73-73,73-37.12,0-67.77-27.7-72.39-63.56-.4-3.09-.61-6.24-.61-9.44,0-11.2,2.52-21.82,7.04-31.3,11.71-24.66,36.84-41.7,65.96-41.7,40.32,0,73,32.68,73,73Z"/><circle cx="274.8" cy="356" r="51.5"/><path class="cls-17" d="m607.8,362c.1.7.1,1.3.1,2,0,2.24-.1,4.46-.29,6.65-.57,6.6-1.98,12.96-4.13,18.97-.2.6-.42,1.19-.65,1.78-.07.18-.13.35-.2.52-.06.15-.12.31-.18.46-2.32,5.78-5.32,11.22-8.92,16.21-13.89,19.32-36.56,31.91-62.13,31.91-42.2,0-76.5-34.3-76.5-76.5,0-.7.1-1.3.1-2-.1-.7-.1-1.3-.1-2,0-42.2,34.3-76.5,76.5-76.5s76.5,34.3,76.5,76.5c0,.6,0,1.3-.1,2Z"/><circle class="cls-7" cx="531.4" cy="356" r="73"/><circle cx="531.4" cy="356" r="51.5"/><path class="cls-23" d="m534.9,128c-.4-3.2-3.3-5.6-6.5-5.6h-250.6c-3.2,0-6.1,2.3-6.5,5.6-.1.7-.1,1.4-.1,2.1v127.4c0,8.9,7.2,16.1,16.1,16.1h231.6c8.9,0,16.1-7.2,16.1-16.1v-127.4c.1-.7,0-1.4-.1-2.1Z"/><g><path class="cls-18" d="m530.5,124.3c0-1-.8-1.9-1.9-1.9h-251.1c-1,0-1.9.8-1.9,1.9v129.2c0,8.6,7,15.6,15.6,15.6h223.8c8.6,0,15.6-7,15.6-15.6v-123.1l-.1-6.1Z"/><g class="cls-20"><path class="cls-31" d="m275.6,253.5c0,8.6,7,15.6,15.6,15.6h223.8c8.6,0,15.6-7,15.6-15.6v-106.5h-254.9v106.5h-.1Z"/></g></g><circle class="cls-18" cx="652.4" cy="244.8" r="94.3"/><path class="cls-18" d="m248.1,244.8c0,32.18-16.12,60.6-40.73,77.6-4.42,3.07-9.11,5.76-14.04,8.03-2.54,1.18-5.14,2.25-7.81,3.19-8.19,2.94-16.9,4.76-25.96,5.3-.3.03-.61.04-.92.06-1.6.08-3.22.12-4.84.12-6.78,0-13.39-.72-19.76-2.08-2.35-.5-4.67-1.08-6.95-1.77-.83-.23-1.65-.49-2.46-.76-2.53-.81-5.01-1.74-7.44-2.76-2.57-1.08-5.08-2.28-7.52-3.58-2.71-1.43-5.35-3-7.89-4.69-3.09-2.04-6.05-4.27-8.87-6.67-20.44-17.28-33.41-43.12-33.41-71.99,0-52.08,42.22-94.3,94.3-94.3s94.3,42.22,94.3,94.3Z"/><g><path class="cls-27" d="m230.5,254.1l9.5-8.9c.5-.5.5-1.2,0-1.7l-9.5-8.9c-.7-.7-1.9-.2-1.9.8v17.8c-.1,1,1.1,1.5,1.9.9Z"/><path class="cls-27" d="m145.1,169.8h17.8c1,0,1.5-1.2.8-1.9l-8.9-9.5c-.5-.5-1.2-.5-1.7,0l-8.9,9.5c-.6.7-.1,1.9.9,1.9Z"/><path class="cls-27" d="m77.6,234.6l-9.5,8.9c-.5.5-.5,1.2,0,1.7l9.5,8.9c.7.7,1.9.2,1.9-.8v-17.8c0-1-1.2-1.6-1.9-.9Z"/><path class="cls-27" d="m162.9,318.8h-17.8c-1,0-1.5,1.2-.8,1.9l8.9,9.5c.5.5,1.2.5,1.7,0l8.9-9.5c.6-.7.1-1.9-.9-1.9Z"/></g></g><g><g><path class="cls-14" d="m547.7,134.6c0,2.1-1.5,3.8-4.1,3.8s-4.1-1.7-4.1-3.8,1.5-3.8,4.1-3.8,4.1,1.7,4.1,3.8Zm-6.7,0c0,1.4.8,2.7,2.6,2.7s2.6-1.4,2.6-2.7c0-1.4-.8-2.7-2.6-2.7s-2.6,1.3-2.6,2.7Z"/><path class="cls-14" d="m549,131h3.8c2.4,0,2.9,1.3,2.9,2.2s-.5,2.2-2.9,2.2h-2.3v2.8h-1.5v-7.2Zm1.5,3.4h2.2c.7,0,1.5-.3,1.5-1.2s-.7-1.2-1.5-1.2h-2.2v2.4Z"/><path class="cls-14" d="m556.2,131h6.9v1.1h-2.7v6.1h-1.5v-6.1h-2.7v-1.1Z"/><path class="cls-14" d="m564.2,131h1.5v7.2h-1.5v-7.2Z"/><path class="cls-14" d="m575.2,134.6c0,2.1-1.5,3.8-4.1,3.8s-4.1-1.7-4.1-3.8,1.5-3.8,4.1-3.8,4.1,1.7,4.1,3.8Zm-6.7,0c0,1.4.8,2.7,2.6,2.7s2.6-1.4,2.6-2.7c0-1.4-.8-2.7-2.6-2.7s-2.6,1.3-2.6,2.7Z"/><path class="cls-14" d="m576.6,131h1.5l3.9,5.3h0v-5.3h1.4v7.2h-1.6l-3.9-5.3h0v5.3h-1.4l.1-7.2h0Z"/><path class="cls-14" d="m586.3,135.8c0,1.1,1,1.5,2.2,1.5,1.3,0,1.8-.6,1.8-1.1,0-.6-.4-.8-.7-.9-.6-.2-1.4-.3-2.6-.6-1.5-.3-1.9-1.1-1.9-1.8,0-1.5,1.6-2.1,3.1-2.1,1.8,0,3.3.8,3.3,2.3h-1.5c-.1-.9-.8-1.3-1.8-1.3-.7,0-1.6.2-1.6.9,0,.5.4.8,1,.9.1,0,2,.4,2.5.6,1.1.3,1.7,1.1,1.7,1.8,0,1.6-1.7,2.3-3.4,2.3-2,0-3.5-.8-3.6-2.6h1.5v.1Z"/></g><g><path class="cls-14" d="m222.3,135.8c0,1.1,1,1.5,2.2,1.5,1.3,0,1.8-.6,1.8-1.1,0-.6-.4-.8-.7-.9-.6-.2-1.4-.3-2.6-.6-1.5-.3-1.9-1.1-1.9-1.8,0-1.5,1.6-2.1,3.1-2.1,1.8,0,3.3.8,3.3,2.3h-1.5c-.1-.9-.8-1.3-1.8-1.3-.7,0-1.6.2-1.6.9,0,.5.4.8,1,.9.1,0,2,.4,2.5.6,1.1.3,1.7,1.1,1.7,1.8,0,1.6-1.7,2.3-3.4,2.3-2,0-3.5-.8-3.6-2.6h1.5v.1Z"/><path class="cls-14" d="m229,131h1.5v2.9h3.9v-2.9h1.5v7.2h-1.5v-3.3h-3.9v3.2h-1.5v-7.1Z"/><path class="cls-14" d="m240,131h1.6l3.3,7.2h-1.6l-.8-1.9h-3.4l-.8,1.9h-1.5l3.2-7.2Zm-.5,4.3h2.6l-1.3-3.1h0l-1.3,3.1Z"/><path class="cls-14" d="m245.7,131h4.1c1.9,0,2.8.7,2.8,1.9,0,1.4-1.1,1.7-1.4,1.8h0c.5.1,1.3.4,1.3,1.5,0,.8.1,1.6.5,1.9h-1.6c-.2-.3-.2-.7-.2-1.1,0-1.3-.3-1.9-1.7-1.9h-2.2v3h-1.5l-.1-7.1h0Zm1.5,3.2h2.5c1,0,1.5-.4,1.5-1.1,0-.9-.7-1.1-1.5-1.1h-2.4v2.2h-.1Z"/><path class="cls-14" d="m254.2,131h6.2v1.1h-4.7v1.9h4.3v1h-4.3v2.1h4.7v1.1h-6.2v-7.2h0Z"/></g></g><g><g><path class="cls-25" d="m697.3,109.9c0-.8-.4-1.5-1.1-1.9-4.5-2.9-23.4-13.6-51.5-13.6s-41.1,5.9-45.1,8c-.8.4-1.2,1.2-1.2,2,0,0,9.8-2.9,47.5-2.9s51.4,8.4,51.4,8.4Z"/><path class="cls-11" d="m697.2,116.8h0v-6.9s-13.7-8.4-51.4-8.4-47.5,2.9-47.5,2.9v11h0c7.7-1.3,21.2-2.6,44.1-2.6,28.5.1,45.9,2.4,54.8,4Z"/></g><g><path class="cls-25" d="m108.9,109.9c0-.8.4-1.5,1.1-1.9,4.5-2.9,23.4-13.6,51.5-13.6s41.1,5.9,45.1,8c.8.4,1.2,1.2,1.2,2,0,0-9.8-2.9-47.5-2.9s-51.4,8.4-51.4,8.4Z"/><path class="cls-11" d="m109,116.8h0v-6.9s13.7-8.4,51.4-8.4,47.5,2.9,47.5,2.9v11h0c-7.7-1.3-21.2-2.6-44.1-2.6-28.5.1-45.9,2.4-54.8,4Z"/></g></g><g><g><g><path class="cls-22" d="m710,271c-14.5,0-26.3-11.8-26.3-26.3s11.8-26.3,26.3-26.3,26.3,11.8,26.3,26.3-11.8,26.3-26.3,26.3Z"/><path class="cls-15" d="m710,219.5c13.9,0,25.3,11.3,25.3,25.3s-11.3,25.3-25.3,25.3-25.3-11.3-25.3-25.3,11.4-25.3,25.3-25.3m0-2c-15,0-27.3,12.2-27.3,27.3s12.2,27.3,27.3,27.3,27.3-12.2,27.3-27.3-12.3-27.3-27.3-27.3h0Z"/></g><path class="cls-15" d="m710,225.9c-10.4,0-18.9,8.5-18.9,18.9s8.5,18.9,18.9,18.9,18.9-8.5,18.9-18.9-8.4-18.9-18.9-18.9Zm0,34.9c-8.9,0-16-7.2-16-16s7.2-16,16-16,16,7.2,16,16c.1,8.9-7.1,16-16,16Z"/></g><g><g><path class="cls-22" d="m652.4,328.6c-14.5,0-26.3-11.8-26.3-26.3s11.8-26.3,26.3-26.3,26.3,11.8,26.3,26.3-11.8,26.3-26.3,26.3Z"/><path class="cls-8" d="m652.4,277.1c13.9,0,25.3,11.3,25.3,25.3s-11.3,25.3-25.3,25.3-25.3-11.3-25.3-25.3,11.4-25.3,25.3-25.3m0-2c-15,0-27.3,12.2-27.3,27.3s12.2,27.3,27.3,27.3,27.3-12.2,27.3-27.3-12.2-27.3-27.3-27.3h0Z"/></g><polygon class="cls-8" points="666.8 290 664.8 288 652.4 300.4 640.1 288 638.1 290 650.4 302.4 638.1 314.7 640.1 316.8 652.4 304.4 664.8 316.8 666.8 314.7 654.4 302.4 666.8 290"/></g><g><g><path class="cls-22" d="m594.9,271c-14.5,0-26.3-11.8-26.3-26.3s11.8-26.3,26.3-26.3,26.2,11.9,26.2,26.4-11.8,26.2-26.2,26.2Z"/><path class="cls-13" d="m594.8,219.5c13.9,0,25.3,11.3,25.3,25.3s-11.3,25.3-25.3,25.3-25.3-11.3-25.3-25.3,11.4-25.3,25.3-25.3m0-2c-15,0-27.3,12.2-27.3,27.3s12.2,27.3,27.3,27.3,27.3-12.3,27.3-27.3-12.2-27.3-27.3-27.3h0Z"/></g><path class="cls-13" d="m606.4,230.4h-25.8v28.6h28.6v-28.6h-2.8Zm0,25.9h-23v-23h23v23Z"/></g><g><g><path class="cls-22" d="m652.4,213.5c-14.5,0-26.3-11.8-26.3-26.3s11.8-26.3,26.3-26.3,26.3,11.8,26.3,26.3-11.8,26.3-26.3,26.3Z"/><path class="cls-10" d="m652.4,162c13.9,0,25.3,11.3,25.3,25.3s-11.3,25.3-25.3,25.3-25.3-11.3-25.3-25.3,11.4-25.3,25.3-25.3m0-2c-15,0-27.3,12.2-27.3,27.3s12.2,27.3,27.3,27.3,27.3-12.2,27.3-27.3-12.2-27.3-27.3-27.3h0Z"/></g><path class="cls-10" d="m668.4,195.2l-16-27.6-16,27.6-1.6,2.8h35.2l-1.6-2.8Zm-16,0h-12.7l12.7-21.9,12.7,21.9h-12.7Z"/></g></g><g><g><circle cx="404.5" cy="316.4" r="4.1"/><circle cx="404.5" cy="295.5" r="4.1"/><circle cx="397.6" cy="305.7" r="4.1"/><circle cx="382.9" cy="305.7" r="4.1"/><circle cx="390.2" cy="316.4" r="4.1"/><circle cx="390.2" cy="295.5" r="4.1"/><circle cx="375.9" cy="295.5" r="4.1"/></g><g><circle cx="411.4" cy="305.7" r="4.1"/><circle cx="426.12" cy="305.71" r="4.1"/><circle cx="418.7" cy="316.4" r="4.1"/><circle cx="418.7" cy="295.5" r="4.1"/><circle cx="433.1" cy="295.5" r="4.1"/></g></g><g><circle class="cls-14" cx="403.1" cy="362" r="20.2"/><g><path class="cls-30" d="m404.2,368.6v-12.8c0-.5.1-.8.3-1,.1-.2.4-.3.7-.2.6.2.9.7.9,1.7v6.9c.8.4,1.5.5,2.1.5s1.2-.2,1.6-.5c1-.7,1.5-1.9,1.5-3.7,0-1.9-.4-3.4-1.2-4.3-.8-1-2.1-1.9-4.1-2.6-1.3-.4-2.5-.8-3.6-1.1-1.1-.3-2-.5-2.9-.7v12.2h0v2.7h0v1.7h0v2.5h0v1.5l4.7,1.5v-3.6h0v-.7Z"/><path class="cls-30" d="m399.1,367.6l-1.7.6-.9.4-1.6.3-1.5-.2c-.3-.2-.4-.4-.2-.6.1-.1.2-.1.3-.2.1-.1.3-.1.4-.2l1.1-.4,4.1-1.5v-2.7l-1.7.5-5.5,2-1,.4c-1.5.6-2.2,1.2-2.2,1.8.1.8,1,1.5,2.7,1.9.7.2,1.4.3,2.1.4s1.4.1,2.2.1c1,0,2.1-.1,3.3-.3l.1-2.3h0Z"/><path class="cls-30" d="m414.9,365.3c-.9-.3-1.7-.5-2.5-.6s-1.7-.2-2.5-.1c-.9,0-1.9.2-2.8.3-.8.2-1.7.4-2.6.8v2.8l3.9-1.4,1.6-.5,1.1-.3h1.4c.3.1.6.2.7.4,0,.2-.2.4-.8.6l-1.4.5-6.5,2.4v2.7l3.5-1.3,6.4-2.3.7-.4c1.5-.5,2.2-1.2,2.2-1.9,0-.6-.8-1.2-2.4-1.7Z"/></g></g><path class="cls-11" d="m105.3,544.5c-40.5-2.8-75.8-20.3-87.3-30.5S.5,482.5.5,482.5c-.4,15-.4,26.3-.4,26.3,0,0,4.5,53.4,36.2,74.9s56.7,14,56.7,14c0,0,33.1-8.2,57.8-41.9,4.5-6.2,9.3-14.5,14.1-23.8-.1-.1-19.2,15.2-59.6,12.5Z"/><path class="cls-11" d="m700.9,544.5c40.5-2.8,75.8-20.3,87.3-30.5s17.5-31.5,17.5-31.5c.4,15,.4,26.3.4,26.3,0,0-4.5,53.4-36.2,74.9s-56.7,14-56.7,14c0,0-33.1-8.2-57.8-41.9-4.5-6.2-9.3-14.5-14.1-23.8.1-.1,19.2,15.2,59.6,12.5Z"/><g><g><path class="cls-3" d="m105.3,544.5c-40.5-2.8-75.8-20.3-87.3-30.5S.5,482.5.5,482.5c-.4,15-.4,26.3-.4,26.3,0,0,4.5,53.4,36.2,74.9s56.7,14,56.7,14c0,0,33.1-8.2,57.8-41.9,4.5-6.2,9.3-14.5,14.1-23.8-.1-.1-19.2,15.2-59.6,12.5Z"/><path class="cls-4" d="m164.9,532c-4.8,9.3-9.6,17.6-14.1,23.8-24.7,33.7-57.8,41.9-57.8,41.9,0,0-25,7.5-56.7-14S.1,508.8.1,508.8c0,0,0-11.3.4-26.3,0,0,6,21.3,17.5,31.5,2.16,1.92,5.17,4.09,8.89,6.38.36.22.72.44,1.1.66,16.29,9.75,45.16,21.24,77.31,23.46h.05c4.86.33,9.41.39,13.63.25,1.72-.06,3.39-.14,5-.27,6.11-.44,11.51-1.3,16.22-2.38,16.52-3.76,24.55-10.1,24.7-10.1Z"/><path class="cls-2" d="m90.1,592.5c-12.5,1.8-31.3-2-45.1-7.7-13.6-5.7-24-16.4-24-16.4,4.2,5.8,9.3,11.1,15.3,15.2,31.7,21.5,56.7,14,56.7,14,0,0,11.7-2.9,26.3-12.3,0,0-14.6,5.2-29.2,7.2Z"/></g><g><path class="cls-3" d="m700.9,544.5c40.5-2.8,75.8-20.3,87.3-30.5s17.5-31.5,17.5-31.5c.4,15,.4,26.3.4,26.3,0,0-4.5,53.4-36.2,74.9s-56.7,14-56.7,14c0,0-33.1-8.2-57.8-41.9-4.5-6.2-9.3-14.5-14.1-23.8.1-.1,19.2,15.2,59.6,12.5Z"/><path class="cls-1" d="m806.1,508.8s-4.5,53.4-36.2,74.9-56.7,14-56.7,14c0,0-33.1-8.2-57.8-41.9-4.5-6.2-9.3-14.5-14.1-23.8.11,0,4.5,3.45,13.43,6.77,2.31.86,4.93,1.71,7.86,2.49.03.01.06.02.09.03,2.97.79,6.26,1.5,9.87,2.08,7.85,1.26,17.3,1.87,28.35,1.13,40.5-2.8,75.8-20.3,87.3-30.5s17.5-31.5,17.5-31.5c.4,15,.4,26.3.4,26.3Z"/><path class="cls-2" d="m716.1,592.5c12.5,1.8,31.3-2,45.1-7.7,13.6-5.7,24-16.4,24-16.4-4.2,5.8-9.3,11.1-15.3,15.2-31.7,21.5-56.7,14-56.7,14,0,0-11.7-2.9-26.3-12.3,0,0,14.6,5.2,29.2,7.2Z"/></g><g><path d="m240.6,143.5c6.9,0,12.5,5.6,12.5,12.5v18.3c0,6.9-5.6,12.5-12.5,12.5s-12.5-5.6-12.5-12.5v-18.3c0-6.9,5.6-12.5,12.5-12.5m0-1.7c-7.8,0-14.2,6.4-14.2,14.2v18.3c0,7.8,6.4,14.2,14.2,14.2s14.2-6.4,14.2-14.2v-18.3c0-7.9-6.4-14.2-14.2-14.2h0Z"/><path class="cls-11" d="m240.6,143.5c-6.9,0-12.5,5.6-12.5,12.5v18.3c0,6.9,5.6,12.5,12.5,12.5s12.5-5.6,12.5-12.5v-18.3c0-6.9-5.6-12.5-12.5-12.5Z"/></g><g><path d="m565.6,143.5c6.9,0,12.5,5.6,12.5,12.5v18.3c0,6.9-5.6,12.5-12.5,12.5h0c-6.9,0-12.5-5.6-12.5-12.5v-18.3c0-6.9,5.6-12.5,12.5-12.5h0m0-1.7c-7.8,0-14.2,6.4-14.2,14.2v18.3c0,7.8,6.4,14.2,14.2,14.2s14.2-6.4,14.2-14.2v-18.3c0-7.9-6.4-14.2-14.2-14.2h0Z"/><path class="cls-11" d="m565.6,143.5c-6.9,0-12.5,5.6-12.5,12.5v18.3c0,6.9,5.6,12.5,12.5,12.5s12.5-5.6,12.5-12.5v-18.3c0-6.9-5.6-12.5-12.5-12.5Z"/></g><g><g><path class="cls-11" d="m141.3,247.2c1.4-2,1.2-2.9,1.2-2.9,0,0,.2-.9-1.2-2.9s-15-13.6-15.7-14-28.5-2.2-31.4,1.3-2.6,15.6-2.6,15.6c0,0-.3,12.1,2.6,15.6s30.7,1.7,31.4,1.3,14.3-12,15.7-14Z"/><path class="cls-5" d="m141.3,247.2c1.4-2,1.2-2.9,1.2-2.9,0,0,.2-.9-1.2-2.9-.9-1.3-6.9-6.6-11.2-10.3-2.1,3.9-3.4,8.4-3.4,13.2s1.2,9.3,3.4,13.2c4.3-3.7,10.3-9,11.2-10.3Z"/></g><g><path class="cls-11" d="m151.1,231.6c2,1.4,2.9,1.2,2.9,1.2,0,0,.9.2,2.9-1.2s13.6-15,14-15.7,2.2-28.5-1.3-31.4-15.6-2.6-15.6-2.6c0,0-12.1-.3-15.6,2.6s-1.7,30.7-1.3,31.4c.5.7,12,14.3,14,15.7Z"/><path class="cls-5" d="m151.1,231.6c2,1.4,2.9,1.2,2.9,1.2,0,0,.9.2,2.9-1.2,1.3-.9,6.6-6.9,10.3-11.2-3.9-2.1-8.4-3.4-13.2-3.4s-9.3,1.2-13.2,3.4c3.8,4.3,9,10.3,10.3,11.2Z"/></g><g><path class="cls-11" d="m213.8,228.8c-2.9-3.5-30.7-1.7-31.4-1.3s-14.3,12-15.7,14-1.2,2.9-1.2,2.9c0,0-.2.9,1.2,2.9s15,13.6,15.7,14,28.5,2.2,31.4-1.3,2.6-15.6,2.6-15.6c0,0,.3-12.1-2.6-15.6Z"/><path class="cls-5" d="m178,231.2c-4.3,3.7-10.3,9-11.2,10.3-1.4,2-1.2,2.9-1.2,2.9,0,0-.2.9,1.2,2.9.9,1.3,6.9,6.6,11.2,10.3,2.1-3.9,3.4-8.4,3.4-13.2s-1.3-9.3-3.4-13.2Z"/></g><g><path class="cls-11" d="m156.9,257.1c-2-1.4-2.9-1.2-2.9-1.2,0,0-.9-.2-2.9,1.2s-13.6,15-14,15.7-2.2,28.5,1.3,31.4,15.6,2.6,15.6,2.6c0,0,12.1.3,15.6-2.6s1.7-30.7,1.3-31.4c-.4-.8-12-14.3-14-15.7Z"/><path class="cls-5" d="m156.9,257.1c-2-1.4-2.9-1.2-2.9-1.2,0,0-.9-.2-2.9,1.2-1.3.9-6.6,6.9-10.3,11.2,3.9,2.1,8.4,3.4,13.2,3.4s9.3-1.2,13.2-3.4c-3.7-4.3-9-10.3-10.3-11.2Z"/></g></g></g><path class="cls-14" d="m436.7,421h-67.9c-2.8,0-4.6.6-4.6-2.2h0c0-2.8,2.3-5,5-5h67.9c2.8,0,5,2.3,5,5h0c.1,2.7-2.6,2.2-5.4,2.2Z"/><path d="m408.4,418.8h-36.5c-.5,0-.9-.4-.9-.9h0c0-1.1.9-2,2-2h34.2c1.1,0,2,.9,2,2h0c.1.5-.3.9-.8.9Z"/><path d="m430.6,419.6h-4.2c-.9,0-1.7-.8-1.7-1.7h0c0-1.6,1.3-2.8,2.8-2.8h1.9c1.6,0,2.8,1.3,2.8,2.8h0c.1,1-.6,1.7-1.6,1.7Z"/><g><path class="cls-25" d="m534.9,128c-.4-3.2-3.3-5.6-6.5-5.6h-250.6c-3.2,0-6.1,2.3-6.5,5.6-.1.7-.1,1.4-.1,2.1v127.4c0,8.9,7.2,16.1,16.1,16.1h231.6c8.9,0,16.1-7.2,16.1-16.1v-127.4c.1-.7,0-1.4-.1-2.1Z"/><g><path class="cls-11" d="m530.5,124.3c0-1-.8-1.9-1.9-1.9h-251.1c-1,0-1.9.8-1.9,1.9v129.2c0,8.6,7,15.6,15.6,15.6h223.8c8.6,0,15.6-7,15.6-15.6v-123.1l-.1-6.1Z"/><g class="cls-28"><path class="cls-9" d="m275.6,253.5c0,8.6,7,15.6,15.6,15.6h223.8c8.6,0,15.6-7,15.6-15.6v-106.5h-254.9v106.5h-.1Z"/></g></g></g><g class="cls-19"><path class="cls-21" d="m347.12,217.88v-1.32c2.64,0,3.96-.78,3.96-2.28,0-1.68-1.56-5.76-3.12-9.23h-15.71c-1.68,3.54-3.36,7.61-3.36,9.23,0,1.5,1.32,2.28,3.96,2.28v1.32h-11.99v-1.32c2.4-.18,4.14-1.5,5.28-4.08l14.87-35.13h1.56l13.79,33.22c2.28,5.46,3,5.88,5.88,6v1.32h-15.11Zm-13.67-15.59h13.67l-6.95-15.71-6.71,15.71Z"/><path class="cls-21" d="m400.24,185.38v17.63c0,10.07-5.76,15.65-15.83,15.65s-14.99-5.22-14.99-14.93v-18.35c0-4.86-.3-5.88-5.28-5.88v-1.32h16.79v1.32c-4.98,0-5.28,1.02-5.28,5.88v20.5c0,6.42,3.78,10.19,10.19,10.19,7.73,0,11.63-4.44,11.63-13.31v-17.39c0-5.46-.96-5.88-5.28-5.88v-1.32h13.31v1.32c-4.86,0-5.28,1.08-5.28,5.88Z"/><path class="cls-21" d="m431.84,179.44c5.1,2.1,7.13,4.92,7.13,9.17,0,5.76-4.38,9.59-10.31,10.55l10.79,14.03c1.98,2.52,3,3.18,6.11,3.36v1.32h-9.59c-2.88-4.02-7.13-9.95-12.83-17.87-1.38,0-2.82-.06-4.44-.24v10.91c0,4.86.3,5.88,5.28,5.88v1.32h-16.79v-1.32c4.98,0,5.4-1.02,5.4-5.88v-25.3c0-4.86-.42-5.88-5.4-5.88v-1.32h19.31c1.5,0,3.3.42,5.34,1.26Zm-8.57,1.26c-3.72,0-4.56.9-4.56,3.6v13.07c1.26.06,2.16.12,2.64.12,7.31,0,11.39-3.12,11.39-8.63s-3.18-8.15-9.47-8.15Z"/><path class="cls-21" d="m473.03,217.88v-1.32c2.64,0,3.96-.78,3.96-2.28,0-1.68-1.56-5.76-3.12-9.23h-15.71c-1.68,3.54-3.36,7.61-3.36,9.23,0,1.5,1.32,2.28,3.96,2.28v1.32h-11.99v-1.32c2.4-.18,4.14-1.5,5.28-4.08l14.87-35.13h1.56l13.79,33.22c2.28,5.46,3,5.88,5.87,6v1.32h-15.11Zm-13.67-15.59h13.67l-6.95-15.71-6.72,15.71Z"/></g></g><g><g><g><path class="cls-11" d="m697.2,90.8s-32.7-3.2-50.6-3.2-48.3,2.4-48.3,2.4c0,0,3.1-44.7,4.8-52,1.6-7.3,7.7-21.3,16.9-27.9,9.2-6.6,12-10.1,22.8-10.1s25.4,6.4,34.6,21.4c9.1,15,19.8,69.4,19.8,69.4Z"/><path class="cls-5" d="m598.8,83.2s26.1-4.4,49-4.4,47.9,4.4,47.9,4.4c1,4.7,1.6,7.6,1.6,7.6,0,0-32.7-3.2-50.6-3.2s-48.3,2.4-48.3,2.4c0,0,0-2.7.4-6.8Z"/></g><g class="cls-29"><path class="cls-6" d="m648.8,65.7c-2.1,1.7-3.2,2.6-3.2,2.6-1.2,1.2-1.9,2.7-2,4.5h9.8v-2.6h-6.3c.3-.5,1-1.2,2.1-1.9,1.4-.9,2.3-1.6,2.7-2.1.9-1,1.3-2.1,1.3-3.3,0-1.4-.5-2.5-1.4-3.3s-2.1-1.2-3.5-1.2c-3.1,0-4.7,1.7-4.7,5h2.7c0-1.8.7-2.7,2.1-2.7,1.3,0,2,.7,2,2.1.1,1-.5,2-1.6,2.9Z"/><path class="cls-6" d="m631.2,67.2h3c1.5,0,2.3.6,2.4,1.9.1,1.2.2,2.5.3,3.8h3.3v-.4c-.5-.2-.7-.7-.7-1.5,0-.2,0-.4.1-.8v-.7c0-1.7-.6-2.9-1.8-3.5,1.4-.5,2.2-1.6,2.2-3.4,0-1.3-.4-2.3-1.3-3-.8-.7-1.9-1-3.2-1h-7.3v14.3h3v-5.7Zm0-6.3h3.7c1.4,0,2.1.6,2.1,1.9s-.8,1.9-2.3,1.9h-3.5v-3.8Z"/></g></g><g><g><path class="cls-11" d="m108.9,90.8s32.7-3.2,50.6-3.2,48.3,2.4,48.3,2.4c0,0-3.1-44.7-4.8-52-1.6-7.3-7.7-21.3-16.9-27.9-9.2-6.7-12-10.1-22.8-10.1s-25.4,6.4-34.6,21.4c-9.1,15-19.8,69.4-19.8,69.4Z"/><path class="cls-5" d="m207.3,83.2s-26.1-4.4-49-4.4-47.9,4.4-47.9,4.4c-1,4.7-1.6,7.6-1.6,7.6,0,0,32.7-3.2,50.6-3.2s48.3,2.4,48.3,2.4c0,0,0-2.7-.4-6.8Z"/></g><g class="cls-29"><path class="cls-6" d="m173.4,65.7c-2.1,1.7-3.2,2.6-3.2,2.6-1.2,1.2-1.9,2.7-2,4.5h9.8v-2.6h-6.2c.3-.5,1-1.2,2.1-1.9,1.4-.9,2.3-1.6,2.7-2.1.9-1,1.3-2.1,1.3-3.3,0-1.4-.5-2.5-1.4-3.3s-2.1-1.2-3.5-1.2c-3.1,0-4.7,1.7-4.7,5h2.7c0-1.8.7-2.7,2.1-2.7,1.3,0,2,.7,2,2.1,0,1-.5,2-1.7,2.9Z"/><polygon class="cls-6" points="164.9 70.1 157.8 70.1 157.8 58.5 154.8 58.5 154.8 72.8 164.9 72.8 164.9 70.1"/></g></g></g></g><g id="Layer_2"><g><path class="cls-11" d="m639.2,377.52s.01.01.01.02c.01,0,.02.01.03.01l-.04-.03Zm10.88-21.92c-.35-.9-.82-1.76-2.06-1.92-1.6,1.64-.99,4.31-2.82,5.97-.18-.73-.44-1.37-.48-2.03-.17-3-1.44-5.61-2.91-8.13-.71-1.22-1.56-2.34-3.03-2.5-1.27.55-1.55,1.49-1.66,2.62-.32,3.26-.06,6.5.3,9.74.15,1.39.18,1.39-.43,3.2-.56-1.81-1-3.31-1.49-4.79-.67-2.02-1.42-4-3.52-4.98-1.67-.08-2.7.71-3.45,2.06-.92,1.63-1.08,3.32-.62,5.1.22.85.44,1.7.66,2.54.02.17.05.34.08.51-.11-.1-.21-.2-.32-.3-.38-.2-.81-.35-1.14-.62-5.72-4.63-15.37-.99-16.62,6.24-.23,1.33-.6,2.64-.95,4.19-.49-.47-.8-.76-1.1-1.05-.3-.3-.6-.57-.91-.8-.57,6.6-1.98,12.96-4.13,18.97.18.03.36.06.54.08.91.12,1.82.2,3.17.35-1.27,1.13-2.3,1.39-3.46,1.36-.3,0-.6,0-.9,0-.07.18-.13.35-.2.52.18.07.37.13.59.21-.26.09-.52.17-.77.25-2.32,5.78-5.32,11.22-8.92,16.21.62,1.04,1.61,1.68,3.01,1.9,2.36.36,4.73.39,7.01-.57,2.53-1.06,4.89-2.35,6.75-4.45.59-.66,1.15-1.49,2.29-1.61.01.67-.02,1.2.04,1.71.93,8.22,8.4,10.64,13.84,7.07,1.94-1.27,3.7-2.67,5.05-4.57,1.58-2.21,1.75-4.56.67-6.99-.43-.95-1.09-1.8-1.64-2.7-1.22-.75-2.42-1.52-2.99-2.93-.19-.12-.38-.23-1.03-.63,2.22.13,3.93.29,5.64.32,1.22.02,2.45-.07,3.66-.24,3.63-.52,5.4-2.06,6.38-6.91.19-.94.15-1.93.22-2.89,0-.16.03-.31.08-.47h0c-.08-.19-.16-.37-.24-.54-.08-.18-.16-.35-.24-.53h0c-.08-.14-.16-.27-.24-.4-.08-.13-.16-.26-.24-.4-.54-1.36-1.09-2.72-1.63-4.08-.24-.38-.47-.76-.71-1.14-.31-.11-.71-.15-.92-.37-2.62-2.66-5.6-2.47-8.75-1.16-.68.29-1.24,1.05-2.42.54,1.7-2.44,3.94-4.5,4.6-7.66-.08-.5-.19-1.17-.31-1.87.22-.04.43-.13.49-.08.87.86,1.73,1.72,2.57,2.61.04.04-.15.29-.23.44,1.44.59,2.85,1.34,4.34,1.73,2.56.67,5.01.08,7.33-1.11,1.43-1.66,2.98-3.23,3.89-5.28,1.43-3.21,1.55-6.46.28-9.73Zm-32.22,33.83c-.06.22-.2.7-.39,1.33-.47-.27-.88-.51-1.33-.77-.35.2-.71.4-1.23.69-.15-.41-.3-.78-.49-1.27-.49-.15-1.04-.33-1.86-.6.54-.52.95-.91,1.47-1.41-.56-.25-1.06-.47-1.78-.78.57-.32.97-.54,1.4-.78-.24-.61-.49-1.23-.97-2.38,1.12.53,1.75.84,2.52,1.21.41-.42.87-.88,1.44-1.47.31.73.56,1.32.87,2.07.53-.41.9-.71,1.46-1.14.05.73.1,1.37.16,2.24.78.13,1.41.23,2.18.36-1.19.93-2.21,1.73-3.45,2.7Z"/><path class="cls-11" d="m716.47,426.13c-1.18-.32-2.4-.54-3.62-.62-2.05-.15-4.12-.15-6.17-.21.55-.65,1.22-.96,1.91-1.18,3.06-1,5.84-2.42,8.03-4.85,2.38-2.65,2.84-5.78.83-8.42-3.59-4.73-8.34-7.1-14.5-6.53-.83.65-1.65,1.3-2.47,1.94-1.2,3.55-.56,7.12-1.36,10.51-.36-.62-.53-1.26-.71-1.9-1.43-5.03-3.57-9.41-9.52-10.39-.48.1-.99.23-1.51.3-3.4.39-6.22,1.77-8.12,4.74-.18.28-.49.48-.74.71-.1,2.16-.21,4.32-.32,6.48.57,1.97,1.41,3.84,2.84,5.3,1.38,1.4,2.98,2.57,4.8,4.11-1.71.27-2.99.48-4.26.68-2.88.46-5.65,1.29-8.16,2.81-2.68,1.62-4.34,4.02-4.24,7.15.14,4.32,2.59,7.93,7.2,8.87.21.13.41.26.61.39.87.07,1.74.14,2.6.21.56-.11,1.11-.22,1.67-.34,1.71-.63,3.43-1.23,5.13-1.89.86-.34,1.59-1.13,2.9-.61-.09.81-.15,1.66-.29,2.5-.18,1.21-.48,2.4-.63,3.6-.34,2.82.92,4.85,3.14,6.49,3.06,2.26,6.55,2.25,10.06,1.92,1.36-.13,2.77-.58,4-1.19,2.88-1.43,3.93-4.79,2.61-7.79-.17-.17-.34-.35-.5-.52-.84-.98-1.68-1.96-2.5-2.96-1.22-1.49-1.92-3.19-1.87-5.14.93,1,1.87,2.03,2.81,3.02.72.75,1.38,1.59,2.2,2.21,2.44,1.82,5.62,1.47,7.54-.83.83-1,1.42-2.18,2.16-3.26.33-.49.73-.94,1.1-1.4.05-.57,0-1.17.15-1.71.45-1.67.98-3.32,1.47-4.97.04-.44.09-.88.1-1.32.12-3.32-1.09-4.99-4.37-5.91Zm-17.13,8.08c-1.16-.68-1.93-1.14-2.69-1.59-.24.18-.45.33-.74.55-.29-.41-.57-.82-.97-1.39-.61.26-1.26.54-2.19.94.16-.87.26-1.42.36-1.98-.48-.25-.94-.47-1.97-.99.96-.22,1.58-.35,1.94-.43-.15-1.27-.23-1.93-.33-2.8.59.07,1.07.13,1.55.19.16-.13.33-.26.49-.38.03-.51.06-1.02.11-1.85.63.61,1.03,1,1.56,1.52.51-.65,1-1.29,1.71-2.2.26.63.57,1,.5,1.28-.17.65-.51,1.26-.87,2.06,1.05-.04,1.91-.08,2.77-.12.13.22.25.45.38.67-.8.35-1.59.7-2.39,1.05.11.19.21.38.31.57.67.19,1.34.38,2.49.71-1.27.57-2.09.94-3.07,1.38.32.84.6,1.61,1.05,2.81Z"/><path class="cls-12" d="m708.76,475.34c-.12-.37.04-.82.07-1.24-.54-.4-1.22-.7-1.6-1.22-3.03-4.07-7.62-3.95-10.41.32-.48.73-.99,1.45-1.49,2.17-.74,2.03-2.3,3.14-4.28,3.81.67-1.52,1.44-2.95,2.74-4.02.3-.82.6-1.64.9-2.46,1.08-3.01.23-5.3-2.55-6.93-1.71-1-3.62-1.31-5.53-1.57-3.52-.49-7.01-.28-10.46.56-.42.54-.84,1.07-1.26,1.6-1,1.96-1.3,3.99-.68,6.13.39,1.35.72,2.72,1.04,4.08.24.99.83,1.92.59,3.31-.59-.6-1.15-.94-1.4-1.44-1.22-2.48-3.42-3.98-5.56-5.52-3-2.16-5.93-2.12-8.99-.05-.43.3-.89.55-1.27.78-.73,2.53-1.97,4.74-2.55,7.27-.73,3.16-.2,5.87,1.15,8.71.98.55,1.97,1.1,3.07,1.72,3.48-.69,6.97-1.38,10.74-2.13-.37.45-.5.7-.7.82-1.28.76-2.64,1.4-3.86,2.25-3.76,2.65-6.97,7.65-3.76,13.3,1.57,2.77,3.91,4.73,6.99,5.14,2.48.34,5.06-.27,7.24-1.84,2.06-1.49,3.41-3.52,4.5-5.77.19-.41.66-.69,1.01-1.02.04-.77.09-1.54.16-2.67,1.11.98,1.29,2.11,1.79,3.04.5.92.96,1.86,1.46,2.78.53.99,1.09,1.97,1.64,2.96.16.38.31.76.46,1.15h-.14c.78.36,1.6.64,2.32,1.09.89.54,1.7,1.22,2.52,1.83.86.06,1.65.1,2.44.15,3.99.24,7.24-1.78,8.55-5.59,1.06-3.06,1.3-6.2-.66-9.08-.88-1.3-1.87-2.54-2.86-3.76-.64-.79-1.39-1.51-2.24-2.43.56-.28.9-.58,1.26-.62,1.39-.15,2.79-.17,4.17-.32,3.79-.39,6.62-3.3,6.91-7.06.09-1.14.13-2.28.2-3.42-.57-1.6-1.16-3.2-1.67-4.81Zm-23.71,15.64c-.04.65-.08,1.28-.13,2.1-.68-.46-1.17-.8-1.76-1.19-.61.32-1.2.63-1.94,1.02-.04-.72-.07-1.3-.11-2.1-.69.12-1.32.22-2.17.37.29-.64.54-1.2.79-1.76-.92-.35-1.7-.64-2.53-.96.82-1.39,1.94-.4,2.99-.88-.12-.33-.24-.68-.37-1.02-.13-.39-.27-.76-.59-1.63,1.15.55,1.87.9,2.78,1.33.1-.83.18-1.48.29-2.41.71.89,1.29,1.62,1.99,2.5.7-.56,1.38-1.11,2.52-2.02-.45,1.31-.73,2.09-1.02,2.94.28.15.57.31,1.01.55-.4.45-.77.87-1.29,1.46.48.49.97,1,1.78,1.83-.98-.06-1.52-.09-2.24-.13Z"/><path class="cls-12" d="m797.5,397c-.41-2.12-.81-4.37-1.24-6.71-.93.49-1.56.82-2.32,1.21.4.72.75,1.34,1.22,2.18-.71-.2-1.18-.32-1.91-.52.22.97.4,1.81.59,2.66-.09.04-.18.09-.27.14-.6-.79-1.21-1.57-1.93-2.49-.72.44-1.37.84-2.16,1.33.15-.61.28-1.14.42-1.72-.34-.13-.66-.24-1.01-.37.19-.35.37-.7.62-1.17-.53-.38-1.06-.76-1.68-1.2.52-.31.93-.55,1.41-.82-.28-.45-.51-.82-.83-1.34.45-.19.87-.37,1.44-.61.13-.65.28-1.38.52-2.54.38.86.57,1.29.87,1.95.42-.38.77-.69,1.27-1.14-.03.88-.54,1.8.46,2.55.53-.36,1.07-.73,1.61-1.1.06.13.21.3.17.39-.32.7-.68,1.38-1.12,2.25.84.04,1.51.09,2.59.15-.5-2.78-1.03-5.69-1.62-8.68-.87-4.59-1.8-9.43-2.78-14.44-.25.1-.51.21-.77.33-.31.15-.69.16-1,.31-1.86.93-3.61,2.14-4.04,4.23-.37,1.77-.17,3.67-.18,5.5-.01.58.09,1.16.18,2.21-.7-.66-1.08-.99-1.42-1.36-1.01-1.1-1.97-2.26-3.01-3.33-3.53-3.61-8.22-4.44-12.51-2.25-3.94,2.01-5.38,6.71-3.23,10.54,1.88,3.35,4.87,5.2,8.43,6.28,1.05.32,2.12.58,3.18.87-2.47.56-4.84,1.09-6.96,2.45-.33.21-.86.1-1.29.14-.16.38-.26.81-.49,1.14-.49.72-1.13,1.34-1.57,2.09-1.37,2.34-1.18,4.17.63,6.22,1.64,1.87,3.58,3.32,6.01,4.02,1.24.09,2.49.17,3.73.26,2.21-.24,3.94-1.45,5.57-2.81,1.14-.95,2.18-2.02,3.25-3.01.88.29,1.54.5,2.16.7,1.34,2.5,2.66,4.94,4.06,7.53-3.27-.19-6.39-.38-9.52-.57-.14.05-.28.09-.41.14.84.17,1.67.43,2.52.49,2.95.22,5.91.38,8.83.55.71.95,1.28,1.72,1.84,2.48,1.45.01,2.48.94,3.62,1.64.36-.03.72-.06,1.07-.08-.73-4.13-1.73-9.87-3-16.67Z"/><path class="cls-12" d="m750.65,459.4c-2.07-1.43-4.46-2.05-6.79-2.81-.7-.23-1.57-.06-2.34.07-1.34.23-2.66.58-4.14.91.12-1.16.74-1.77,1.31-2.41,1.82-2.03,3.69-4,4.92-6.49.76-1.54.92-2.99.23-4.56-.34-.8-.59-1.65-.88-2.47-.49-.16-.96-.38-1.46-.45-1.11-.16-2.3-.56-3.32-.3-1.73.44-3.47.82-5.23,1.14.41.09.82.19,1.44.34-.73.68-1.24,1.29-1.87,1.72-1.87,1.28-2.66,3.18-3.15,5.24-.2.84-.18,1.74-.26,2.61.23,1.06.46,2.12.68,3.18-1.02-.72-1.63-1.59-1.73-2.73-.43-.38-.94-.7-1.29-1.14-2.11-2.71-4.6-4.77-8.01-5.22-4.67.5-5.17,4.21-6.15,7.54.4,3.45,1.82,6.17,5.13,7.68.51.23.85.83,1.26,1.25.31-.16.61-.33.92-.49,1.1.05,2.27-.26,3.25.55.4.11.8.22,1.29.35-1.22,1.06-1.56,1.15-6.3,1.61-1.61.61-3.27,1.11-4.82,1.85-1.74.84-2.81,2.24-2.85,4.29-.01.78-.11,1.55-.17,2.33,1.01.12,1.05,1.06,1.41,1.71.96,1.75,2.25,3.08,4.32,3.45,1.3.22,2.47-.13,3.43-.98,1.64-1.45,3.57-2.56,4.91-4.35.47-.63.98-1.23,1.47-1.85-.72,2.83-1.37,5.51-.47,8.33.93,2.91,2.83,5.01,5.39,6.56,1.78.28,3.55.54,5.08-.71.89-.72,1.82-1.43,2.56-2.29,1.03-1.21,1.71-2.58,1.89-4.26.33-3.2-.75-5.86-2.62-8.33-.38-.51-1.14-.89-.74-1.89,1.16.03,2.13.62,3.14,1.09,2.26,1.05,4.65,1.58,7.15,1.54,2.75-.03,5.5-2.14,6.36-4.8.72-2.22-.61-5.2-2.95-6.81Zm-17.4,5.7c-1.29.17-2.59.33-4.01.51-.18-.23-.5-.65-1.09-1.42,0,0,.1-.36.21-.75-.2-.34-.41-.71-.71-1.22.44-.13.82-.24,1.15-.34.07-.49.13-.95.2-1.42.34-.02.69-.04,1.04-.06.07-.34.14-.69.2-1.03.23-.43.41-.38.54.07.02.33.05.67.08,1,.56-.08,1.13-.16,2-.29-.21.62-.35,1.03-.49,1.44-.05.18-.1.37-.15.56.41.03.82.05,1.61.1-.52.49-.78.74-1.05,1-.65.82.34,1.23.47,1.85Z"/><path class="cls-12" d="m673.64,378.04h0s.03-.02.05-.04c-.02.02-.04.03-.05.04Zm13.49-1.27c-.26-.51-.83-.89-1.33-1.23-2.71-1.9-5.51-1.49-8.22-.09-1.39.71-2.63,1.72-3.94,2.6h0c.06-.88.11-1.76.16-2.64.2-3.3-1-5.54-4.09-6.55-5.05-1.66-9.68-.66-13.63,3-3.37,3.13-4.07,7.77-1.75,11.75,1.15,1.96,2.43,3.85,3.64,5.78.56.9,1.34,1.73,1.36,3.01-1.36-.15-2.1-.89-2.76-1.71-1.15-1.44-2.24-2.91-3.39-4.35-.62-.79-1.32-1.46-2.71-.86-.11,1.21-.23,2.54-.36,3.88.16.28.33.55.5.82,1.89,3.11,4.27,5.76,7.34,7.73,1.02.65,2.16,1.11,3.24,1.66,1.04.05,2.08.1,3.11.15.64-.59,1.29-1.17,2.06-1.87.64.85.19,1.73.27,2.52.09.87.21,1.73.32,2.65,2.46,2.19,5.31,2.06,8.23,1.65,5.07-1.33,9.07-4.76,9.38-8.23-.56-.26-1.17-.75-1.8-.8-2.01-.13-4.03-.15-6.04-.11-1.22.03-2.44.27-3.82-.39.54-.23.84-.44,1.16-.49,2.17-.3,4.35-.5,6.5-.85,2.63-.43,5.25-.98,6.76-3.52,2.85-4.79,2.12-9.01-.19-13.51Zm-21.94,18.01s-.31.24-.71.53c-.22-.5-.4-.93-.6-1.38-.42.01-.85.02-1.39.04.02-.24.09-.47.03-.67-.1-.38-.27-.75-.41-1.12-.16-.04-.34-.05-.47-.14-.12-.08-.19-.24-.52-.68.2-.06.44-.13.67-.2.23-.08.45-.16.67-.23v-1.07c.58.13,1.05.22,1.53.32.05-.41.11-.83.17-1.25,1.3.05.94,1.2,1.5,1.81.5-.16,1.04-.34,1.71-.56.04.61.08,1.1.12,1.74.37.09.78.19,1.27.3-.27.44-.53.85-.83,1.32.42.36.8.7,1.43,1.25-1.48,0-2.71,0-4.17,0Z"/><path class="cls-11" d="m771.27,360.22c-3.96.03-6.56,3.11-10.12,3.76.21-.5.49-.89.85-1.18,2.22-1.72,4.5-3.37,6.69-5.14,1.51-1.22,2.46-2.91,2.34-4.83-.25-3.98-1.63-7.48-4.84-10.15-2.73-2.27-5.35-1.99-7.55-.74-2.16,1.23-3.45,3.21-4.53,5.35-.31.6-.58,1.23-1.1,2.33-.43-4.28-2.32-6.73-6.2-7.36-3.44.28-6.37,1.67-8.91,4.06-3.05,2.87-3.92,6.38-3.31,10.34.57,3.66,3.2,5.7,6.2,7.36,1.76.98,3.56,1.89,5.3,2.9.37.21.57.72.92,1.19-1.15.74-2.04.38-2.92-.02-1.6-.73-3.17-1.54-4.8-2.17-.91-.35-1.77-1.32-2.92-.58-.02.56-.04,1.12-.06,1.68.85,2.2,2.63,3.48,4.63,4.45,3.28,1.59,6.8,2.27,10.45,2.29q1.95-.25,3.51-1.44c.32-.92.64-1.86,1.1-3.17.94,1.65,1.65,2.91,1.81,4.41,1.23.49,2.44.97,3.83.65,6.14-1.41,10.02-6.76,10.08-12.31,0-.55-.29-1.11-.45-1.68Zm-17.9,7.15c-.11.21-.25.52-.47.96-.38-.29-.7-.53-1.04-.79-.39.16-.78.33-1.28.54-.23-.43-.4-.92-.73-1.26-.24-.26-.69-.32-1.22-.55.67-.37,1.04-.57,1.45-.8-.35-.27-.68-.52-.98-.75.39-.65.77-1.29,1.23-2.07.53.36,1.08.73,1.67,1.13.4-.42.75-.78,1.26-1.31.32.41.61.78.95,1.21.32.01.72.01,1.2.02-.1.53-.2,1.02-.32,1.62.63.14,1.21.26,2.08.45-1.32.55-2.42,1.02-3.8,1.6Z"/><path class="cls-14" d="m751.39,373.76q1.95-.25,3.51-1.44c.32-.92.65-1.86,1.1-3.16.94,1.64,1.65,2.9,1.81,4.4-.37.22-.75.44-1.24.73-.31,4.12.57,7.84,3.65,10.83.76.73,1.63,1.34,2.43,2.04,2.19,1.9,4.36,3.81,6.54,5.72-.16.38-.26.81-.49,1.15-.49.72-1.13,1.34-1.57,2.09-1.38,2.35-1.18,4.18.62,6.23,1.64,1.87,3.58,3.32,6.01,4.01,1.19.79,2.44.89,3.73.26,2.21-.24,3.94-1.45,5.57-2.81,1.14-.95,2.19-2.02,3.25-3.01.88.29,1.54.5,2.16.7,1.34,2.49,2.66,4.94,4.06,7.53l-9.52-.57c-3.39-.35-6.79-.7-10.19-1.05-1.12-.25-2.26-.43-3.34-.77-4.95-1.56-9.91-3.11-14.82-4.78-1.99-.67-3.79-.59-5.58.45-1.35.78-2.26,1.92-2.92,3.32-1.47,3.1-2.03,6.39-1.92,9.77.17,5.63.49,11.26.74,16.89.15,3.3-.04,6.53-2.04,9.37-.49-.15-.97-.38-1.47-.45-1.1-.16-2.3-.56-3.31-.3-1.73.44-3.47.82-5.23,1.14-2.36-.16-4.73-.32-7.09-.48-.59-.13-1.18-.27-1.77-.4-1.66-.37-3.32-.74-4.97-1.11.04-.57,0-1.17.15-1.71.45-1.67.98-3.31,1.48-4.97l3.2.19c.59-.34,1.19-.69,1.81-1.05.26.02.52.05.78.04,1.83-.03,3.72.21,5.48-.15,2.48-.51,4.38-2.05,4.57-4.79.2-2.88.16-5.78.1-8.66-.03-1.93-.33-3.85-.4-5.78-.13-3.98.21-7.9,1.65-11.66.31-.82.53-1.67.79-2.5.08-.19.17-.38.25-.58.05-.9.1-1.79.14-2.69l.05-.23-.19-.15c-.11-.93-.37-1.89.48-2.73,1.82-.38,3.18,1.09,4.85,1.36,1.51.93,3.07.9,4.67.27,1.66-.18,3.31-.38,4.97-.55,3.31-.34,6.45.26,9.5,1.59.92.4,1.78,1.16,3.05.86-.66-1.98-2.15-3.22-3.56-4.5-2.54-2.29-5.15-4.51-7.68-6.81-.87-.79-1.91-1.57-1.83-3.09l1.63.1c.06-.29.2-.55.15-.77-.58-2.4-1.27-4.76-3.28-6.45-.25-.21-.36-.58-.54-.88Z"/><path class="cls-11" d="m665.26,464.19c-5.15,4.33-12.94,5.21-17.96-.46-1.45-1.63-2.91-3.24-3.18-5.91,2.07.85,3.87,1.68,5.73,2.33,1.89.65,3.81.31,6.14-.31-.85-.36-1.34-.65-1.87-.78-2.98-.73-5.59-2.03-7.53-4.52-1.36-1.75-1.93-3.78-2.03-5.89-.15-3.12,2.6-5.08,5.65-4.41,3.49.77,6.27,2.65,8.82,5.01.89.83,1.83,1.6,3.22,2.82-.18-1.01-.15-1.43-.33-1.73-2.17-3.63-4.8-6.75-9.17-7.83-.9-.22-1.65-.59-1.91-1.75,1.1-1.87,3.09-2.16,4.96-2.24,4.45-.19,7.98,1.6,10.54,5.34,2.22,3.24,3.71,6.78,4.78,10.52.4,1.38.56,2.75.24,4.16-1.18-.59-1.71-2.21-3.53-2.19-.1,1.63-.19,3.21-.27,4.49-.63,1.48-2.34,1.78-2.3,3.35Z"/><path class="cls-11" d="m774.38,422.39c-.79,2.25-2.26,3.88-4.28,5.14-3.33,2.08-6.8,3.68-11,3.77-3.92-1.1-4.37-1.44-5.55-4.37.48-1.9,1.83-2.84,3.75-3.05,2.26-.24,4.54-.42,6.8-.66.46-.05.9-.26,1.3-.75-2.56-.39-5.13-.76-7.69-1.18-1.64-.27-3.31-.49-4.91-.94-1.17-.32-2.31-.87-2.97-2.03-.14-1.35.79-1.87,1.78-2.31,2.36-1.04,4.84-1.59,7.42-1.56,1.57.02,3.14.18,4.95.28-1.46-2.29-4.11-2.78-5.86-4.54,1.06-1.28,2.37-1.37,3.67-1.42,5.39-.23,9.29,2.14,11.85,6.82.21.38.47.74.71,1.11.34,1.89.45,3.79,0,5.68Z"/><path class="cls-12" d="m790.57,434.96c.58,1.75,1.21,3.48,1.72,5.25.75,2.6.63,5.22-.2,7.78-.53,1.64-.68,3.44-1.92,4.88-1.71-.09-2.28-1.57-3.18-2.55-.94-1.03-1.69-2.23-2.53-3.38-.9-.15-1.76-.29-2.58-.42q-2.08-1.89-2.51-6.22c-1.66,1.44-1.94,3.95-4.13,4.68-3.56-6.21-1.59-14.67,5.8-18.49.16.15.34.31.51.48l-.06.94c.88.32,1.8.39,2.31.89,2.2,2.11,5.1,3.45,6.76,6.15Z"/><path class="cls-11" d="m674.11,537.09c-.15,2.3-.68,4.4-1.56,6.28-3.61-.58-6.9-1.29-9.87-2.08,0-.02.01-.05.02-.07-.04.02-.07.03-.11.04-2.93-.78-5.55-1.63-7.86-2.49,1.61-2.61,3.64-4.94,6.31-6.75,1.6-1.09,3.46-1.71,5.44-1.81.2.37.39.74.61,1.14,1.54.1,3.01.19,4.15.25.99.9,1.75,1.59,2.47,2.24.14,1.2.27,2.22.4,3.25Z"/><path class="cls-14" d="m650.61,390.18c1.89,3.1,4.27,5.76,7.35,7.73,1.02.65,2.15,1.11,3.24,1.66,1,.75,2.04.91,3.11.15.64-.58,1.28-1.16,2.06-1.87.63.85.18,1.73.27,2.52.09.87.21,1.73.32,2.65,2.47,2.18,5.32,2.06,8.23,1.65.25,2.37.85,4.54,3.35,5.57-.11,2.16-.21,4.32-.32,6.47-2.96-1.58-5.48-3.72-7.67-6.23-.67-.77-1.07-1.79-1.54-2.71-1.69-3.3-4.32-5.37-7.96-6.15-.58-.16-1.15-.4-1.73-.46-1.83-.17-3.66-.27-5.49-.39l-.78-.24c-1.27-.73-2.57-.72-3.89-.18l-.25.08c-1.03.09-2.05.17-3.08.26-4.79.19-9.33-1.24-13.96-2.08-.43-.08-.86-.15-1.29-.23-1.21-.75-2.41-1.53-2.99-2.93.16-.01.32-.01.48,0,1.05.19,2.11.39,3.16.58,1.05.12,2.09.24,3.14.36,2.6,1.02,5.35.71,8.04.9.49.03,1-.21,1.5-.33,3.22-.18,6.34-.9,9.7-1.72-.49-.39-.72-.68-1.03-.81-4.34-1.93-7.49-5.08-9.68-9.25-.12-.19-.24-.37-.35-.56,0,0,0,.01,0,.01-.16-.36-.33-.73-.49-1.09,0,0,0,.02,0,.02l-.48-.8c-.54-1.36-1.09-2.73-1.63-4.09-.24-.38-.48-.77-.72-1.15l.03.03c0-2-.97-3.44-2.56-4.55-1.12-.78-2.22-1.57-3.58-2.53.58-.24.86-.36,1.14-.48,1.44.59,2.84,1.33,4.34,1.73,2.56.67,5.01.08,7.33-1.11.18.36.37.73.57,1.13-1.9.51-3.64.97-5.1,1.36-.8,1.14-.52,2.02-.28,2.84.62,2.1,1.22,4.21,2,6.25,1.3,3.39,3.64,5.84,7,7.29v-.13c.17.27.34.55.5.82Z"/><path class="cls-14" d="m603.22,392.13c-.26.09-.52.17-.77.25.06-.15.12-.31.18-.46.18.07.37.13.59.21Z"/><path class="cls-14" d="m790.57,434.96c-1.65-2.7-4.56-4.04-6.76-6.15-.52-.49-1.43-.57-2.31-.89l.06-.94c.34-.06.67-.11,1.01-.17.25-.04.51-.09.76-.13,2.63,1.21,4.69.36,6.55-1.65,2.01-2.17,3.76-5.31,4.39-8.5-4.21,2.15-8.54,3.27-13.06,3.62-.59.09-1.17.17-1.76.26-2.06-.28-3.57.83-5.06,1.99.44-1.89.33-3.79,0-5.68.61.5,1.21,1,1.88,1.55,5.04.39,9.8-.7,14.38-2.65,1.93-.82,3.88-1.71,5.18-3.5,1.45.01,2.48.94,3.61,1.64-1,1.85-2.1,3.66-2.96,5.57-1.2,2.68-2.63,5.15-4.91,7.08-.65.55-1.1,1.33-1.68,2.05.81,2.17,1.23,4.3.69,6.51Z"/><path class="cls-14" d="m674.11,537.09c-.13-1.02-.25-2.05-.4-3.24-.71-.65-1.48-1.34-2.47-2.24l-4.15-.25c-.22-.4-.41-.77-.61-1.14,1.1-.67,2.16-.35,3.22.12.87.38,1.74.77,2.44,1.07,1.26-.33,1.39-1.31,1.73-2.08.71-1.6,1.33-3.24,2.03-4.85,1.41-3.25,3.29-6.19,5.71-8.79.6-.64,1.17-1.31,1.71-2,1.11-1.44,1.39-3.02.62-4.7-1.01-2.19-1.44-4.5-1.47-6.89l.16-2.67c1.12.98,1.29,2.11,1.79,3.04.5.92.96,1.86,1.46,2.78.54.99,1.1,1.97,1.65,2.96.15.38.3.77.46,1.15h-.14c.04.97.09,1.93.13,2.9.07,1.51-.55,2.67-1.69,3.68-1.02.9-1.91,1.97-3.08,3.2-.12,0-.63.04-1.23.08-3.16,3.09-4.7,7.07-5.89,11.24l-.16.15.09.19c-.09,1.27-.17,2.55-.26,3.82-.1.3-.21.61-.31.91-.24.69-.45,1.41-1.33,1.56Z"/><path class="cls-14" d="m665.26,464.19c-.03-1.57,1.68-1.87,2.3-3.35.08-1.27.17-2.85.27-4.49,1.81-.02,2.34,1.6,3.53,2.19,1.59,2.07,3.19,4.15,4.78,6.22-.42.53-.83,1.07-1.25,1.6-.97-1.46-2.09-2.77-3.64-3.71-2.02.52-4.01,1.03-5.99,1.54Z"/><path class="cls-14" d="m710.32,472.99c1.01.12,1.05,1.06,1.41,1.71.97,1.76,2.25,3.09,4.32,3.45-.28.8-.56,1.6-.8,2.29l-4.81-.29c-.56-1.6-1.16-3.19-1.67-4.81-.12-.37.04-.82.08-1.23.49-.37.99-.74,1.48-1.12Z"/><path class="cls-14" d="m723.17,462.56c.4.11.8.22,1.3.35-1.22,1.06-1.56,1.14-6.3,1.6.28-.67.56-1.34.84-2.01.3-.17.61-.33.91-.5,1.08.19,2.17.37,3.25.56Z"/><path class="cls-14" d="m695.33,475.37c-.74,2.02-2.3,3.14-4.29,3.81.68-1.52,1.45-2.95,2.74-4.02.51.07,1.03.14,1.54.21Z"/><path class="cls-11" d="m772.84,407.4c3.39.35,6.79.7,10.19,1.05-.14.05-.27.1-.41.14-2.25-.19-4.51-.34-6.75-.58-1.02-.11-2.01-.4-3.02-.61Z"/><path class="cls-14" d="m729.11,451.94c.23,1.06.45,2.13.68,3.19-1.02-.73-1.63-1.59-1.73-2.74.35-.15.7-.3,1.05-.45Z"/><path class="cls-12" d="m653.8,400.76c1.83.13,3.67.22,5.49.39.59.05,1.16.3,1.73.46-1.96-.1-3.91-.17-5.86-.32-.47-.04-.91-.35-1.36-.53Z"/><path class="cls-11" d="m748.99,394.26c-1.6.63-3.16.66-4.67-.27l4.67.27Z"/><path class="cls-11" d="m649.13,400.35c1.32-.55,2.62-.56,3.89.18-1.3-.06-2.59-.12-3.89-.18Z"/><path class="cls-12" d="m645.8,400.69c1.03-.09,2.05-.17,3.08-.26-.97.74-2.04.35-3.08.26Z"/><path class="cls-11" d="m724.09,441.15c.59.13,1.18.27,1.77.4-.59-.13-1.18-.27-1.77-.4Z"/><path class="cls-11" d="m779.45,420.4c.59-.09,1.17-.17,1.76-.26-.59.09-1.17.17-1.76.26Z"/><path class="cls-12" d="m679.59,446.23c.55-.11,1.11-.22,1.66-.34-.55.11-1.11.22-1.66.34Z"/><path class="cls-12" d="m736.37,365.34c-.02.56-.04,1.12-.07,1.68-.59-.59-.6-1.15.07-1.68Z"/><path class="cls-11" d="m675.43,535.53c.1-.3.21-.61.31-.91-.1.3-.21.61-.31.91Z"/><path class="cls-11" d="m738.99,395.36l.19.15-.05.23c-.18-.07-.23-.2-.15-.38Z"/><path class="cls-12" d="m783.32,426.67c-.25.04-.51.09-.76.13.25-.04.51-.09.76-.13Z"/><path class="cls-12" d="m708.18,448.92c-.17-.17-.33-.35-.5-.52.17.17.33.35.5.52Z"/><path class="cls-12" d="m676.38,445.63c.2.13.41.26.61.39-.2-.13-.41-.26-.61-.39Z"/><path class="cls-11" d="m676,530.8l-.09-.19.16-.15c.08.13.05.25-.07.34Z"/><path class="cls-12" d="m738.99,398.42c-.08.19-.17.38-.25.58.08-.19.17-.38.25-.58Z"/><path class="cls-14" d="m619.13,386.37c.78.13,1.41.23,2.18.36-1.19.94-2.21,1.74-3.45,2.71-.06.21-.21.7-.39,1.33-.47-.27-.88-.51-1.33-.77-.35.2-.72.4-1.23.69-.16-.41-.3-.78-.49-1.27-.49-.16-1.04-.34-1.86-.6.54-.53.95-.92,1.47-1.42-.55-.24-1.05-.46-1.77-.78.56-.31.97-.54,1.4-.78-.25-.61-.5-1.22-.97-2.38,1.11.54,1.75.84,2.52,1.21.41-.42.86-.88,1.44-1.47.31.73.56,1.32.88,2.07.52-.41.9-.71,1.45-1.14.06.74.1,1.37.17,2.24Z"/><path class="cls-7" d="m639.2,377.52c.24.38.48.77.72,1.15-.24-.38-.48-.77-.72-1.15Z"/><path class="cls-12" d="m642.02,383.54c.16.36.33.73.49,1.09-.16-.36-.33-.73-.49-1.09Z"/><path class="cls-12" d="m642.87,385.18h-.23s-.21-.08-.21-.08c0-.16.03-.32.08-.48.12.19.24.37.35.56Z"/><path class="cls-12" d="m641.55,382.76l.48.8-.48-.8Z"/><path class="cls-7" d="m628.57,362.48c.03.17.05.34.08.51-.11-.1-.21-.2-.32-.3.08-.07.16-.14.24-.21Z"/><path class="cls-14" d="m694.79,426.33l.11-1.84c.62.61,1.02,1,1.55,1.52.51-.66,1.01-1.29,1.71-2.21.26.63.57,1.01.5,1.29-.16.65-.51,1.25-.86,2.06,1.05-.05,1.91-.09,2.77-.13l.37.67c-.79.35-1.59.7-2.38,1.05.1.19.2.38.3.57.67.19,1.35.39,2.5.71-1.27.57-2.1.94-3.07,1.38.31.84.6,1.6,1.05,2.81-1.16-.69-1.93-1.14-2.69-1.59-.24.18-.45.33-.74.54-.29-.41-.57-.82-.97-1.38-.61.26-1.25.53-2.19.93.16-.87.26-1.42.36-1.98-.48-.24-.94-.47-1.97-.99.96-.21,1.58-.35,1.94-.42-.15-1.27-.23-1.93-.33-2.8.58.07,1.07.13,1.55.19.16.22.31.44.47.66.11-.06.21-.12.32-.18l-.3-.86Z"/><path class="cls-7" d="m703.31,440.26c-.08-.07-.17-.14-.11-.09-.05-.06.02.03.09.11l.02-.02Z"/><path class="cls-14" d="m679.73,489.42c-.92-.35-1.7-.64-2.52-.96.81-1.39,1.94-.4,2.98-.88-.12-.33-.24-.68-.36-1.02-.14-.38-.28-.76-.59-1.63,1.15.55,1.87.9,2.78,1.34.1-.83.18-1.49.29-2.42.71.89,1.29,1.62,1.99,2.5.7-.56,1.38-1.11,2.53-2.02-.46,1.31-.73,2.09-1.03,2.94.28.15.58.31,1.02.55-.4.45-.78.87-1.3,1.46.48.49.98,1,1.78,1.83l-2.24-.14-.13,2.1c-.69-.47-1.18-.8-1.76-1.2-.61.32-1.2.63-1.94,1.02-.04-.72-.07-1.3-.11-2.1-.69.12-1.32.23-2.16.37.28-.64.53-1.2.78-1.76Z"/><path class="cls-7" d="m687.96,509.36c-.15-.38-.3-.77-.46-1.15.15.38.3.77.46,1.15Z"/><path class="cls-14" d="m796.26,390.29c-.93.49-1.56.82-2.32,1.21.4.72.75,1.34,1.22,2.18-.71-.2-1.18-.32-1.91-.52.22.97.4,1.81.59,2.66-.09.04-.18.09-.27.14-.6-.79-1.21-1.57-1.93-2.49-.72.44-1.37.84-2.16,1.33.15-.61.28-1.14.42-1.72-.34-.13-.66-.24-1.01-.37.19-.35.37-.7.62-1.17-.53-.38-1.06-.76-1.68-1.2.52-.31.93-.55,1.41-.82-.28-.45-.51-.82-.83-1.34.45-.19.87-.37,1.44-.61.13-.65.28-1.38.52-2.54.38.86.57,1.29.87,1.95.42-.38.77-.69,1.27-1.14-.03.88-.54,1.8.46,2.55.53-.36,1.07-.73,1.61-1.1.06.13.21.3.17.39-.32.7-.68,1.38-1.12,2.25.84.04,1.51.09,2.59.15.13.01.26.02.4.03-.13.06-.24.13-.36.18Z"/><path class="cls-11" d="m777.51,406.61c-1.29.63-2.54.53-3.73-.26,1.24.09,2.49.18,3.73.26Z"/><path class="cls-14" d="m730.04,460.4c.07-.34.13-.68.2-1.02.18.02.36.04.53.06.03.33.05.67.08,1-.37,1.53.93.86,1.51,1.14-.05.19-.1.38-.15.57l.57,1.1c-.65.82.34,1.23.46,1.86-1.29.16-2.58.33-4.01.51-.18-.23-.5-.66-1.09-1.42,0,.03.09-.34.21-.75-.2-.34-.41-.71-.71-1.22.44-.13.82-.24,1.14-.34.07-.49.13-.95.2-1.42.38.5.75.87,1.04-.07Z"/><path class="cls-11" d="m732.37,461.59c-.58-.28-1.88.39-1.51-1.14.57-.08,1.13-.16,2.01-.29-.21.62-.35,1.03-.49,1.43Z"/><path class="cls-11" d="m723.17,462.56c-1.08-.19-2.17-.37-3.25-.56,1.11.05,2.27-.26,3.25.56Z"/><path class="cls-11" d="m732.78,463.25l-.57-1.1,1.62.1c-.52.49-.78.75-1.05,1Z"/><path class="cls-11" d="m730.04,460.4c-.29.94-.66.57-1.04.07.35-.02.7-.04,1.04-.07Z"/><path class="cls-11" d="m730.78,459.44c-.18-.02-.36-.04-.53-.06.23-.44.41-.38.53.06Z"/><path class="cls-14" d="m663.99,390.18c.06-.41.11-.83.17-1.25,1.3.05.95,1.19,1.5,1.8.5-.16,1.04-.34,1.71-.56.04.61.08,1.1.12,1.74.37.09.77.19,1.26.3-.27.43-.53.84-.82,1.31.41.36.79.7,1.43,1.25-1.48,0-2.71,0-4.17,0-.04.03-.31.23-.71.53-.22-.5-.41-.93-.6-1.39-.42.01-.85.03-1.38.04.01-.24.08-.47.03-.67-.1-.38-.27-.74-.41-1.11q1.35-.65,1.87-2Z"/><path class="cls-11" d="m663.99,390.18q-.52,1.35-1.87,2c-.16-.04-.34-.06-.47-.14-.12-.08-.2-.24-.52-.68.2-.06.43-.13.66-.21.23-.08.46-.16.67-.23,0-.35,0-.66,0-1.06.58.12,1.05.22,1.53.32Z"/><path class="cls-11" d="m664.3,399.72c-1.08.76-2.11.6-3.11-.15,1.04.05,2.08.1,3.11.15Z"/><path class="cls-7" d="m650.61,390.18c-.17-.27-.33-.55-.5-.82.17.27.33.55.5.82Z"/><path class="cls-7" d="m673.64,378.05c-.08.08-.16.15.05-.04-.22.18-.13.11-.05.04h0Z"/><path class="cls-14" d="m753.37,367.37c-.1.21-.25.52-.46.96-.39-.29-.7-.54-1.04-.8-.38.16-.78.33-1.27.55-.24-.43-.41-.92-.73-1.26-.25-.26-.69-.33-1.22-.55.67-.37,1.04-.57,1.45-.8-.35-.27-.68-.52-.98-.75.39-.65.77-1.3,1.23-2.07.53.36,1.07.73,1.66,1.13.4-.42.76-.79,1.26-1.31.32.41.61.78.95,1.21.33,0,.73,0,1.2.01-.11.53-.2,1.02-.32,1.63.63.14,1.21.26,2.08.45-1.32.55-2.42,1.02-3.8,1.6Z"/><path class="cls-7" d="m662.74,541.21c.07-.08.14-.16.07-.08.09-.05,0,0-.09.05,0,0,.02.03.02.03Z"/><path class="cls-11" d="m634.33,396.39c3.18.19,6.36.38,9.54.57-.5.12-1.01.37-1.5.33-2.69-.19-5.44.12-8.04-.9Z"/><path class="cls-11" d="m628.03,395.45c1.05.19,2.11.39,3.16.58-1.05-.19-2.11-.39-3.16-.58Z"/><path class="cls-11" d="m694.79,426.33l.3.86c-.11.06-.21.12-.32.18-.16-.22-.31-.44-.47-.66.16-.13.33-.25.49-.38Z"/></g><g><path class="cls-14" d="m142.46,385.75c-.17.72-.34,1.43-.52,2.15-.8.21-1.61.41-2.42.62-.77.16-1.55.32-2.33.48-.31.02-.62.05-.93.07-1.16.16-2.32.31-3.48.47-2.39.19-4.38,1.22-5.92,3.01-1.3,1.52-2.88,2.49-4.81,2.9-6.71,1.46-12.95,4.21-19.18,6.98-12.36,5.52-24.68,11.14-37.04,16.66-3.65,1.62-7.35,3.17-11.41,3.5-.33.03-.64.28-1.12.51,2.12,1.92,4.66,2.16,7.14,2.56,2.53.7,5.07.72,7.61.03.54-.04,1.09-.09,1.64-.13.9-.14,1.8-.29,2.71-.43,1.82-.24,3.65-.47,5.48-.7.73-.12,1.47-.24,2.21-.36,2.55-.22,5.1-.45,7.66-.68,1.62-.16,3.25-.31,4.88-.47.56-.02,1.13-.05,1.69-.07h7.67c.47.09.94.17,1.41.26-.29,1.21-.58,2.42-.87,3.62-4.07-1.12-8.12-.52-12.12.33-4.26.92-8.48,2-12.71,3-1.14.17-2.28.33-3.42.49-.1,0-.19.03-.28.08-4.14-.01-8.28-.02-12.41-.03-.09-.05-.18-.08-.27-.09-1.15-.14-2.29-.28-3.44-.42-4-.61-7.93-1.5-11.67-3.12-1.31-.56-2.71-.92-4.07-1.37-.6-.13-1.19-.26-1.78-.39-8.15,0-16.3,0-24.45-.01-.61.13-1.23.26-1.84.38-.42.3-.84.59-1.28.9.49,3.09,2.23,5.26,4.6,6.8,2.56,1.67,4.36,3.82,5.28,6.67,1.17,3.62,2.15,7.29,3.26,10.93.55,1.81.87,3.73,2.3,5.28h2.08c.66.1,1.32.2,2.05.32.03.51.06.93.09,1.35-1.15.21-2.34.33-3.26,1.67.57,1.02,1.1,2.16,1.79,3.18,4.25,6.31,9.44,11.67,15.9,15.79,3.13,2,6.07,4.3,9.14,6.39,1.19.8,2.51,1.41,3.77,2.11-.39.18-.76.43-1.18.52-1.67.36-3.35.68-5.03,1.02-.9-1.01-1.68-2.18-2.73-2.99-5.47-4.22-10.77-8.66-16.73-12.22-2.41-1.44-4.54-3.34-6.83-4.99-1.02-.73-2.05-1.55-3.57-1.07-1.17,1.09-1.47,2.65-1.53,4.16-.13,3.09-.15,6.18-.05,9.27.07,2.12.92,4.07,1.97,5.9,2.03,3.55,4.12,7.06,6.17,10.56,4.83,2.03,9.92,3.45,13.3,7.79-.75,1.38-1.9.54-2.85.42-.94-.11-1.83-.75-3.04-.07,0,.76-.05,1.61,0,2.47.07,1.06.22,2.12.34,3.18-1.44-.36-1.99-1.51-2.25-2.76-.28-1.41-.35-2.86-.49-4.29-.13-1.37-.21-2.74-1.78-3.33-.48-.15-.95-.3-1.9-.61.44.77.59,1.04.75,1.31,1.94,5.54.96,10.71-1.86,15.69-.77,1.37-1.56,2.72-2.52,4.11-.38-.22-.74-.44-1.1-.66.35-.77.71-1.53,1.03-2.31,2.43-5.79,2.58-11.62.22-17.48-1.57-3.89-3.51-7.57-5.92-11.01l.05-.17-.18-.06c0-.12-.05-.21-.15-.27-.11-.13-.23-.25-.34-.38-1.46-2.16-3.06-4.24-4.35-6.49-1.72-3.01-2.05-6.33-1.42-9.74.72-3.91,1.5-7.81,2.13-11.74.47-2.96.56-5.94-.09-8.9-.05-.31-.1-.61-.15-.91-.74-4.52-2.55-8.53-5.9-11.7-2.39-2.27-4.49-4.72-6.21-7.54-.65-1.06-1.43-1.98-2.32-2.75.42-3.93.89-7.4,1.41-10.23.36-2.05.96-5.35,1.74-9.63,2.06.77,4.18,1.42,6.35,1.89.39.12.77.24,1.15.36.35.06.7.12,1.05.18.55.14,1.09.28,1.64.42.36.05.72.09,1.08.14.55.13,1.11.26,1.66.4.21.02.41.05.61.07.9.15,1.8.3,2.69.45.55.05,1.1.09,1.65.14,3.26.98,6.6.45,9.91.42.51,0,1.02-.28,1.53-.42,2.91-.29,5.68-1.09,8.35-2.25,1.72-.75,3.09-1.84,3.92-3.58,1.24-2.61,2.54-5.18,3.82-7.77.89.16,1.79.31,2.68.47-.84,2-1.7,4-2.52,6.02-.44,1.07-.82,2.16-1.25,3.33.62.45,1.03.75,1.45,1.05,1.81.91,3.62.7,5.43-.01,8.16-1.45,15.6-4.81,22.86-8.66,3.3-1.75,5.81-4.21,7.83-7.33,2.6-4.03,5.16-8.06,7.1-12.47,3.15-7.18,2.87-14.29-.24-21.39v-.24l-.23-.1c-.06-.09-.14-.18-.22-.25.01-.45.26-1.01-.52-1.08l-.39-.93c-.21-.48-.42-.97-.63-1.45-.22-.44-.45-.88-.68-1.32.34-1.42.47-2.93,1.81-3.89,1.66,4.02,3.32,8.04,4.98,12.06-.02.57-.16,1.21.99,1.36v-2.41c.83-5.48,2.93-10.29,7.16-14.04,1.82-1.62,2.84-3.7,3.43-6.08.78-3.16.88-6.28.24-9.46-.18-.88-.24-1.79-.35-2.69,1.06.7,2.13,1.4,3.19,2.1-.67.79-1.02,1.65-1.09,2.72-.2,3.17-.51,6.33-.79,9.71.4,0,.91.1,1.38-.02,3.13-.78,5.55-2.4,7.24-5.31,1.05-1.81,2.39-3.37,3.92-4.72.81.27,1.63.53,2.46.76-1.62,1.75-3.08,3.65-4.47,5.62-2.12,3.03-4.74,5.44-8.02,7.18-1.6.84-3.11,1.86-4.58,2.91-2.64,1.85-4.32,4.34-4.82,7.57l-.16.18.1.2c-.32,2.44-.64,4.88-.95,7.32l-.18.12.16.15c-.05.6-.1,1.2-.16,1.8-.05.04-.15.08-.15.12.01.12.06.23.09.35-.57,4.06-1.18,8.1-2.79,11.92-1.44,3.44-2.85,6.89-4.23,10.35-.71,1.8-1.33,3.64-2.09,5.74.81-.09,1.28-.03,1.67-.19,4.8-1.97,9.52-4.08,13.96-6.82,2.84-1.75,4.9-4.03,5.72-7.31.52,0,1.03.03,1.55.05-.11,1.78-.93,3.55-.18,5.33,1.74.8,2.09.9,3.36.36.99-.43,2.02-.91,2.82-1.62,1.96-1.75,3.93-3.52,5.66-5.5,3.84-4.38,7.53-8.88,12.33-12.31,1.76-1.26,3.39-2.71,5.09-4.07-.41,2.29.18,4.37,1.31,6.34-5.63,4.13-12.91,11.43-13.99,14.2,1.08.2,2.11.5,3.14.54,1.73.08,3.46-.01,5.18-.03Z"/><path class="cls-11" d="m114.48,490.3c-.76-3.91-3.69-5.84-6.95-7.4-.96-.46-2.07-.87-3.11-.88-2.62,0-5.25.21-7.86.42-1.32.1-2.62.4-4.22.66.35-.51.45-.78.64-.92,1.92-1.29,3.3-3.09,4.49-5,1.2-1.91,1.49-4.01.91-6.28-.92-3.63-3.22-6.22-6.13-8.28-3.17-2.25-6.77-2.98-10.85-2.37-4.09,3.08-5.43,7.63-5.87,13.1-1.08-1.19-1.79-1.98-2.51-2.78-.79-.87-1.48-1.88-2.39-2.59-3.4-2.63-6.4-3.01-9.88-1.26-3.1,1.57-4.52,4.34-5.51,7.45-.45,1.42-.42,2.83.01,4.27.82,2.75,2.13,5.19,4.14,7.26.31.32,1.06.6.4,1.27-.39.18-.76.43-1.18.52-1.67.36-3.35.68-5.03,1.02-2.92.53-4.54,2.34-5.33,5.15-.61,2.16-.67,4.34-.38,6.48.33,2.46,1.72,4.47,4.02,5.48,2.85,1.26,5.86,1.81,9.03,1.31,4-.64,7.71-1.97,11.14-4.13.8-.5,1.58-1.3,2.96-.88.21,1.03.45,2.17.67,3.31.42,2.13.6,4.34,1.27,6.38,1.34,4.02,3.83,6.93,8.3,7.77,3.97.74,7.76.61,11.32-1.49.37-.7.73-1.4,1.1-2.1.66-2.6.72-5.22-.46-7.66-.93-1.94-2.21-3.71-3.32-5.55-.4-.65-.79-1.31-1.18-1.96.98.38,1.96.8,2.94,1.17,6.1,2.29,11.96,2.42,17.33-1.9.36-.53.72-1.05,1.08-1.58.32-1.5.64-3,.93-4.36-.18-1.32-.29-2.5-.52-3.65Zm-32.57,1.94c-.94-.09-1.77-.16-2.78-.26.04.55.07,1.04.12,1.83-.59-.34-.98-.56-1.6-.92-.17.96-.32,1.8-.51,2.84-.46-1.17-.86-2.19-1.32-3.34-1.32.38-2.41.7-3.5,1.01-.06-.11-.13-.23-.2-.35.33-.3.64-.64,1-.91.42-.32.89-.57,1.69-1.07-1.02-.35-1.71-.6-2.39-.84.05-.21.06-.44.13-.46.84-.25,1.69-.46,2.8-.75-.68-1.2-1.21-2.13-1.75-3.06.13-.11.26-.22.38-.33.8.6,1.59,1.21,2.55,1.93.32-1.13.6-2.1,1.02-3.58.3,1.3.47,2.04.63,2.77,1.8-.01,2.17-1.31,2.79-2.69v2.74c.74-.49,1.36-.89,1.98-1.3.07.2.21.4.16.5-.33.74-.7,1.46-1.1,2.26.35.45.66.87,1.11,1.46-.67.25-1.28.49-2.06.79.28.57.51,1.04.85,1.73Z"/><path class="cls-12" d="m185.52,333.62c-8.19,2.94-16.9,4.76-25.96,5.3.34.39.7.68,1.4.12.26.52.49.97.77,1.53.61-.25,1.16-.48,1.77-.73-.12.54-.22,1.02-.35,1.61.64.36,1.22.69,2.26,1.27h-2.77c-.07.52-.13.95-.18,1.36-.73-.21-1.44-.41-2.64-.75-.02-.03-.21-.33-.49-.76-.44.13-.89.28-1.42.45.07-.48.13-.9.21-1.43-.57-.15-1.15-.31-1.84-.5.18-.3.26-.63.43-.69.59-.19,1.21-.29,1.93-.44v-.98c-1.6.08-3.22.12-4.84.12-6.78,0-13.39-.72-19.76-2.08.47.51,1.02.97,1.65,1.4,2.58,1.78,5.54,1.33,8.82,1.45-.6.55-.9.9-1.27,1.16-1.78,1.23-3.64,2.36-5.35,3.67-4.38,3.34-3.88,10.19-.58,13.85,2.69,2.98,5.72,3.89,9.5,2.6.93-.32,1.94-.37,2.91-.54.14.02.28.03.42.04.23-.27.43-.6.71-.82,2.72-2.16,4.88-4.81,6.75-7.72.16-.21.32-.43.63-.84,1.09.8,2.07,1.57,3.1,2.25,1.79,1.19,3.63,2.32,5.44,3.48.29.1.58.2.87.31,1.64,0,3.27.01,4.91.01,2.36-.41,4.26-1.7,6.05-3.2.5-.63,1.02-1.26,1.51-1.9,2.95-3.82,2.31-7.87-2.26-9.73-1.08-.44-2.18-.83-3.91-1.49,1.57-.29,2.51-.48,3.45-.63,3.85-.62,7.24-3,8.13-6.75Z"/><path class="cls-12" d="m146.44,431.17c-3.21-.83-6.46-.83-9.72-.21-.65.12-1.35,0-2.38,0,.55-.64.9-1.03,1.23-1.43,1.33-1.64,2.28-3.46,3.14-5.39,1.46-3.23-.96-9.3-4.6-10.91-1.78-.8-3.55-.68-5.35-.68-2.91,0-5,1.38-6.34,3.96-.99,1.9-1.42,3.9-1.35,6.05.04,1.06.27,2.21-.38,3.65-.87-2.38-1.56-4.33-2.29-6.25-1.6-4.19-4.57-5.22-8.42-2.92-.24.14-.47.29-.67.47-1.98,1.86-3.94,3.73-5.91,5.59-.29,1.21-.58,2.42-.87,3.62-.15,1.67.53,2.95,1.64,4.17,2.09,2.3,4.78,3.18,7.74,3.53,1.11.14,2.21.38,3.31.57-3.77,1.7-8.14,1.98-10.34,5.8-.55,2.41.02,4.4,1.23,6.19,1.31,1.95,2.64,3.92,4.17,5.7.8.93,1.98,1.62,3.12,2.15,2.41,1.12,5.12.13,6.57-2.3.6-1.02,1.05-2.12,1.61-3.17.26-.49.6-.93,1.01-1.56.63,2.36-.49,4.01-1.43,5.64-1.61,2.76-1.53,5.34.56,7.99,3.66,2.48,7.48,1.46,11.33.08,3.42-1.22,4.78-3.97,5.54-7.35-.42-1.19-.79-2.51-1.33-3.74-.54-1.2-1.77-2.06-1.8-3.84.79,0,1.49-.08,2.16.02.89.15,1.75.47,2.64.66,3.52.74,6.69.17,9.22-2.62.48-.54.99-1.06,1.49-1.59.26-.79.54-1.56.78-2.34,1.27-4.05-1.17-8.48-5.31-9.55Zm-16.37,7.22c-.9-.07-1.46-.11-2.16-.16-.13.36-.29.76-.49,1.3-.28-.02-.6-.04-1.05-.08-.45.5-.97,1.06-1.84,2.01.14-1.19.22-1.85.32-2.68-.84-.2-1.7-.4-2.89-.69.76-.42,1.31-.74,2.08-1.17-.88-.52-1.53-.9-2.74-1.62,1.24-.23,1.84-.34,2.67-.49-.41-.83-.78-1.58-1.19-2.4,1.24-.72,1.52.78,2.42.83.25-.37.52-.77.95-1.38.25.77.43,1.33.65,2,.55-.31,1.07-.59,1.72-.95.08.65.14,1.17.22,1.83.41.3.9.67,1.44,1.07-.44.35-.85.68-1.26,1.01.32.44.62.84,1.15,1.57Z"/><path class="cls-11" d="m207.37,322.4c-4.42,3.07-9.11,5.76-14.04,8.03.15.53.4,1.05.76,1.54.89,1.19,1.72,2.55,3.25,3.16.34.13.55.6,1.23,1.39-1.27-.23-1.93-.38-2.6-.48-3.12-.45-5.34.83-6.4,3.81-.49,1.36-.97,2.79-1.06,4.21-.21,3.66.45,7.07,3.65,9.47.1.08,0,.42-.01.64.44.08.88.16,1.32.24,1.7-.49,3.41-.98,5.16-1.48.99-10.78,4.22-20.91,9.23-29.93-.15-.21-.32-.41-.49-.6Z"/><path class="cls-11" d="m188.75,385.25c-.38-2.83-2.49-4.85-5.34-4.93-2.89-.08-5.8.2-8.7.32-.85.03-1.77.42-2.6-.36.73-1.27,2.04-1.34,3.07-1.73,2.26-.85,3.84-2.39,5.11-4.33,3.27-4.99,1.23-10.95-4.44-13.09h-2.45c-.86.38-1.68.74-2.51,1.11-2.69,2.41-4.41,5.42-5.43,8.86-.2.68-.38,1.36-.95,2.05-.09-.52-.16-1.04-.25-1.56-.47-2.5-1.3-4.87-2.69-7.01-2.24-1.14-4.48-2.27-6.71-3.42-.14-.07-.2-.29-.3-.44-.21-.03-.43-.05-.64-.08-1.26.45-2.52.97-3.78.01-.14-.01-.28-.02-.42-.04-.45.54-.95,1.04-1.35,1.62-.55.8-1.04,1.64-1.55,2.47-.41,2.29.18,4.37,1.31,6.34.39.2.82.36,1.17.61,2.13,1.53,4.23,3.07,6.34,4.61.62.45,1.24.91,1.69,1.85h-2.02c-5.35-.04-9.27,2.48-12.2,6.79-.2.29-.43.57-.65.85-.17.72-.34,1.43-.52,2.15-.09,2.46.74,4.57,2.95,5.73,2.55,1.34,5.32,2.04,8.06.49,2.05-1.16,3.97-2.53,5.96-3.79.41-.26.86-.45,1.75-.92-.32,1.14-.49,1.8-.7,2.45-.76,2.34-1.38,4.73-.86,7.2,1.01,4.84,6.15,8.04,11.45,7.23,4.14-2.35,6.42-8.85,4.16-13.64-.38-.81-.78-1.61-1.18-2.42-.09-.12-.18-.23-.27-.35.17.04.34.07.52.1.8.41,1.6.82,2.41,1.22,1.54.77,3.03,1.68,4.63,2.27,2.78,1.02,4.72.37,6.43-2.01,1.32-1.84,1.81-3.99,1.5-6.21Zm-20.87-2.1c-.04.34-.08.75-.11.99-1.42.17-2.78.34-4.33.53.17-.57.3-.98.45-1.44-.43-.38-.81-.71-1.19-1.05.33-.19.63-.37.97-.57-.24-.51-.47-.98-.75-1.55.45-.15.85-.29,1.32-.45.12-.37.26-.79.4-1.23.71.23,1.48.35,2.12.71.53.3.07,1.7,1.33,1.2.16.86.31,1.59.49,2.53-.05.02-.33.16-.7.33Z"/><path class="cls-12" d="m146.99,523.96c-.75-1.76-2.16-2.57-4.1-2.65-2.23-.08-4.35.26-6.32,1.34-1.35.74-2.68,1.54-4.05,2.24-.74.38-1.45,1.19-2.55.47.42-1.34,1.56-2.03,2.43-2.9,1.56-1.58,2.28-3.47,2.41-5.62.06-1-.01-2.01.02-3.01.03-1.36-.54-2.44-1.4-3.44-1.88-2.17-4.27-3.32-7.07-3.8-.87.29-1.72.58-2.43.81-2.41,2.29-2.83,2.84-3.45,5.87-.34,1.67-.35,3.41-.46,5.13-.07,1.02-.05,2.06-.08,3.65-1.13-1.46-1.94-2.42-2.64-3.45-1.34-1.95-3.37-2.93-5.52-3.17-3.44-.39-6.93-.36-10.02,1.7-.29.67-.58,1.34-.88,2.01-1.31,2.86.54,4.82,2.03,7.13,1.96.55,4.08,1.04,6.12,1.76,2.07.73,4.5.06,6.62,1.62-.71.32-1.18.58-1.67.76-4.24,1.58-6.78,4.77-8.34,8.85-.65,1.7-.65,3.5-.29,5.24,4.86.33,9.41.39,13.63.25.41-.55.78-1.14,1.14-1.73.97-1.59,1.89-3.22,2.84-4.83.35.82.32,1.52.36,2.22.08,1.39.29,2.74.66,4.07,6.11-.44,11.51-1.3,16.22-2.38-.23-1.67-1.01-3.14-1.91-4.62-1.13-1.88-3.23-2.46-5.13-4.25,2.14.44,3.7.92,5.3,1.07,3.43.32,7.04,1.01,9.33-2.99.2-.85.44-1.91.72-3.1-.48-1.37-.93-2.84-1.52-4.25Zm-19.81,7.39c-1.01.58-2.25,1.29-3.64,2.08-.05-.5-.1-.98-.15-1.54-.56-.16-1.14-.33-2.01-.59.51-.37.83-.61,1.25-.92-.45-.4-.88-.78-1.36-1.2.39-.34.73-.62,1.1-.94-.11-.48-.22-.98-.4-1.81.71.35,1.2.59,1.69.82.29-.2.57-.41.91-.65.2.41.37.8.6,1.28.39-.21.77-.41,1.04-.56.47.71.93,1.42,1.36,2.08-.14.71-.25,1.25-.39,1.95Z"/><path class="cls-12" d="m108.89,333.63c-1.03-2.48-3.13-3.53-5.54-4.42-2.5-.93-4.68.45-7.34.69,1.81-2.36,4.27-4.07,5.77-6.44-3.09-2.04-6.05-4.27-8.87-6.67-.37.36-.71.78-1.03,1.25-.6.9-1.08,1.92-1.39,2.95-.64,2.17-1.14,4.38-1.7,6.57-.17.67-.35,1.36-1.44,1.8-.05-1.12-.04-1.99-.14-2.85-.15-1.16-.17-2.4-.6-3.45-1.41-3.47-4.7-5.72-8.8-3.92-1.58.69-3.09,1.53-4.49,2.23-.27.6-.43,1.02-.64,1.42-.25.48-.54.93-.95,1.62.23,1.19.27,2.6.79,3.81,1.32,3.08,3.86,5.1,6.67,6.98-.94.24-1.81.3-2.67.23-1.79-.15-3.37.42-4.94,1.22-1.54.78-2.31,2.34-3.57,3.26-2.07,1.54-2.54,3.7-3.09,5.85-.59,2.35,1.08,4.61,3.5,4.95,1.37.19,2.76.13,3.91-.78,2.07-1.63,4.11-3.28,6.13-4.96.82-.68,1.55-1.47,2.32-2.22.19.05.38.09.58.14-2.19,5.26-1.73,10.17,1.62,14.83,1.18.42,2.45.88,3.61,1.29,2.06-.58,3.71-1.45,4.9-3.08.24-.33.68-.52,1.03-.77.34-1.42.47-2.93,1.81-3.89-.46-2.11-.92-4.22-1.38-6.33-.52-1.22-1.04-2.43-1.56-3.65.15-.08.31-.17.46-.25.34.43.68.87,1.02,1.31.69.22,1.43.33,2.06.66,3.77,1.99,7.39,1.95,10.51-1.13,2.24-2.22,4.67-4.52,3.45-8.25Zm-20.04,4.69c-.39-.23-.76-.45-1.15-.68-.38.25-.75.5-.93.62-.74-.23-1.34-.41-2.03-.61.04-.21.09-.54.16-.95-.4-.23-.83-.48-1.25-.72.21-.84,1.54-.71,1.4-1.87-.03-.23,1.05-.59,1.92-1.04.22.04.81.12,1.63.25.25.22.7.62.96.85-.28,1.64-.49,2.88-.71,4.15Z"/><path class="cls-11" d="m67.98,390.13c-1.37.73-2.66,1.58-4.03,2.3-1.04.55-2.11,1.05-3.22,1.42-.37.13-.89-.19-1.78-.42,1.18-.98,1.98-1.7,2.84-2.33,1.61-1.19,3.21-2.41,4.9-3.48,3.95-2.51,4.85-6.43,3.75-11.3-.76-3.35-3.11-5.52-5.99-7.08-2.92-1.58-5.97-2.8-8.85-1.47-3.2,1.73-4.19,4.22-4.1,7.53-1.53-2.07-2.69-3.89-4.11-5.48-1.52-1.69-3.65-2.3-5.69-2.59-2.58.47-4.23,2.04-5.69,3.81-2.41,2.95-2.87,6.46-2.4,10.07.38,2.91,2.69,4.41,4.99,5.78.32.18.65.34.96.53,1.92,1.14,3.84,2.29,5.76,3.43-.96.25-1.72.06-2.45-.21-2.21-.82-4.4-1.7-6.63-2.49-.85-.3-1.77-.49-2.54.24-1.18,6.01,6.74,14.55,14.34,12.38.63-1.33,1.38-2.9,2.33-4.88.61,1.5,1.04,2.56,1.48,3.63.89.16,1.79.31,2.68.47,3.67-.29,7.15-1.25,10.43-2.9,1.72-.87,3.22-2.09,4.34-3.68.76-1.1,1.49-2.3.49-3.85-.65.2-1.28.29-1.81.57Zm-11.06,1.59c-.59.54-1.16,1.05-1.74,1.57.14.15.28.3.42.45-.43-.1-.86-.19-1.32-.29-.26.24-.52.48-.75.69-1.54-.62-3.07-1.24-4.87-1.96.77-.26,1.31-.43,1.92-.63-.1-.55-.19-1.05-.32-1.79.6.26,1.06.46,1.81.79v-2.03c.67.44,1.15.76,1.69,1.11.6-.42,1.23-.85,2.11-1.47-.06.83-.1,1.32-.14,1.85.43.11.86.22,1.29.33-.16.28-.32.57-.52.91.21.23.42.47.42.47Z"/><path class="cls-12" d="m32.45,457.83c-.03-.42-.05-.83-.09-1.35-.73-.11-1.39-.21-2.05-.32.48-.23.96-.47,1.6-.78.33-.89.69-1.91,1.08-2.93,1.64-4.3,3.96-8.16,7.3-11.38,1.92-1.85,4.26-2.79,6.77-3.27,2.24-.43,4.31.48,6.26,1.45.76.38,1.53,1.03,1.53,2.17-.45.89-1.32,1.08-2.24,1.18-2.85.3-5.18,1.68-7.11,3.7-1.17,1.22-2.81,2.1-3.17,3.97-.08.08-.16.17-.24.25,0,0,.02.02.03.02.08-.08.16-.17.24-.25.74-.32,1.61-.48,2.2-.98,3.37-2.83,7.2-4.53,11.82-4.98.64.21,1.49.49,2.24.73,2.17,2.48,2.1,4.91.63,7.64-1.56,2.91-3.76,4.85-6.94,5.63-1.49.37-3.01.59-4.72.92,2.94,1.42,5.75,1.73,8.67.47.88-.38,1.75-1.09,2.8-.41.02.19.11.4.05.54-1.59,3.53-7.36,8.3-12.64,7.33-3.38-.62-6.36-2.13-8.89-4.46-1.74-1.6-3.42-3.27-5.12-4.9Z"/><path class="cls-11" d="m117.19,331.73c-1.07.17-2.14.29-3.22.38-1.06-.7-2.13-1.4-3.19-2.1-.37-.62-.75-1.24-1.11-1.86,2.44,1.3,4.95,2.5,7.52,3.58Z"/><path class="cls-11" d="m14.5,385.69c-.67,1.54-.76,1.73-4.46,3.66.36-1.89.77-3.85,1.11-5.89,1.21.58,2.34,1.31,3.35,2.23Z"/><path class="cls-12" d="m116.71,498.51c0-1.9-.02-3.78.57-5.65,1.3-4.14,6.57-7.19,10.79-6.06.31,1.22-.77,1.7-1.37,2.42-.56.67-1.16,1.31-2.19,2.46,4.52-.82,8.46-2.9,12.39-.27-.22,1.42-1.11,2.09-2.05,2.58-2.25,1.16-4.55,2.22-6.83,3.31-.87.42-1.76.8-2.59,1.37,2.48.4,4.76-.49,7.16-.77q1.98.55,3.22,2.16c-.06,1.8-1.37,2.83-2.64,4.02-3.27,1.43-6.63,1.03-9.99,0-1.3-.39-2.61-.75-3.91-1.12-.85-1.49-1.71-2.97-2.56-4.46Z"/><path class="cls-14" d="m198.3,360c0,.27,0,.53.01.78-1.01-.06-2.03-.12-3.04-.19-1.48-.16-2.97-.31-4.46-.47-.51-.04-1.02-.08-1.53-.11-1.32-.15-2.64-.29-3.96-.43-2.32,0-4.65,0-6.98.01-.77.14-1.54.29-2.31.44-.09,0-.18.03-.26.08-1.95.53-3.9,1.06-5.86,1.58l-.17.05c-.48.16-.96.32-1.45.49l-.2.05c-.48.17-.95.33-1.43.5-1.7.6-3.4,1.2-5.09,1.8-2.24-1.14-4.48-2.27-6.71-3.42-.14-.07-.2-.29-.3-.44,3.92-1.74,8.09-2.67,12.21-3.72.29.1.58.2.87.31,1.64.79,3.27.75,4.91.01,2.36-.41,4.26-1.7,6.05-3.2,1.26-.08,2.52-.17,3.78-.25,2.01.01,4.02.03,6.03.04,1.25.09,2.5.17,3.74.26.44.08.88.16,1.32.24,1.66.23,3.32.47,4.99.7-.11,1.62-.16,3.25-.16,4.89Z"/><path class="cls-12" d="m38.04,510.92c-.12-1.06-.27-2.12-.34-3.18-.06-.85-.01-1.71-.01-2.46,1.22-.68,2.1-.04,3.05.07.94.11,2.09.96,2.84-.43,3.22,1.03,5.48,3.22,6.78,6.24,1.14,2.64,1.96,5.43,2.86,8.18.16.48.02,1.06.02,1.48-.73.77-1.46.66-2.1.29-1.17-.67-2.31-1.41-3.41-2.19-3.19-2.24-6.13-4.79-8.54-7.82-.43-.06-.79-.12-1.15-.17Z"/><path class="cls-14" d="m116.71,498.51c.85,1.49,1.71,2.97,2.56,4.46-1.05-.5-2.1-.99-3.15-1.51-1.05-.52-2.09-1.05-3.13-1.58.36-.53.72-1.05,1.08-1.58.88.07,1.76.14,2.64.2Z"/><path class="cls-14" d="m101.76,517.13c-.29.67-.59,1.34-.88,2.01-1.43-.42-2.87-.84-4.3-1.25.36-.7.73-1.4,1.09-2.1,1.36.45,2.73.89,4.09,1.34Z"/><path class="cls-12" d="m61.59,430.6c4.14.01,8.27.02,12.41.03-.32.15-.63.42-.95.42-3.51.03-7.02.02-10.53-.01-.31,0-.62-.28-.94-.43Z"/><path class="cls-11" d="m35.76,413.12c-.51.15-1.02.41-1.53.42-3.31.03-6.65.56-9.91-.42,3.82,0,7.63,0,11.45,0Z"/><path class="cls-14" d="m92.95,344.94c-.52-1.22-1.04-2.43-1.56-3.65.15-.08.3-.17.46-.25.34.44.68.88,1.03,1.31l.08,2.59Z"/><path class="cls-12" d="m169.91,361.69c1.95-.53,3.91-1.06,5.86-1.58.03.34.05.68.08,1.01h-2.45c-.86.38-1.68.75-2.51,1.11-.33-.18-.65-.36-.98-.54Z"/><path class="cls-11" d="m68.05,425.69c-2.54.69-5.07.67-7.6-.03,2.53,0,5.07.02,7.6.03Z"/><path class="cls-11" d="m101.99,422.85c-2.55,0-5.11,0-7.66,0,2.55-.69,5.11-.83,7.66,0Z"/><path class="cls-12" d="m188.41,353.91c-2.01-.01-4.02-.03-6.03-.04,2.01-.64,4.02-.66,6.03.04Z"/><path class="cls-11" d="m57.64,410.38c-1.81.71-3.62.93-5.43.01,1.81,0,3.62,0,5.43-.01Z"/><path class="cls-11" d="m92.63,422.92c-1.63.16-3.25.31-4.88.47,1.63-.16,3.25-.31,4.88-.47Z"/><path class="cls-11" d="m190.81,360.12c1.49.16,2.98.32,4.47.47-1.49-.16-2.98-.32-4.47-.47Z"/><path class="cls-12" d="m100.3,362.28v2.41c-1.15-.15-1.01-.78-.99-1.36.33-.35.66-.7.99-1.06Z"/><path class="cls-11" d="m185.32,359.58c1.32.14,2.64.29,3.95.43-1.32-.14-2.64-.29-3.95-.43Z"/><path class="cls-11" d="m57.88,430.09c1.15.14,2.29.28,3.44.43-1.15-.14-2.29-.28-3.44-.43Z"/><path class="cls-11" d="m132.78,389.54c1.16-.16,2.32-.31,3.48-.47-1.16.16-2.32.31-3.48.47Z"/><path class="cls-11" d="m74.28,430.55c1.14-.16,2.28-.33,3.42-.49-1.14.16-2.28.33-3.42.49Z"/><path class="cls-11" d="m72.4,425.13c-.9.14-1.8.29-2.71.43.9-.14,1.8-.29,2.71-.43Z"/><path class="cls-11" d="m176.03,360.03c.77-.15,1.54-.29,2.31-.44-.77.15-1.54.29-2.31.44Z"/><path class="cls-11" d="m137.19,389c.78-.16,1.55-.32,2.33-.48-.78.16-1.55.32-2.33.48Z"/><path class="cls-11" d="m22.67,412.98c-.9-.15-1.79-.3-2.69-.45.9.15,1.79.3,2.69.45Z"/><path class="cls-11" d="m80.09,424.07c-.74.12-1.48.24-2.21.36.74-.12,1.48-.24,2.21-.36Z"/><path class="cls-11" d="m93.2,356.48l.63,1.45c-.21-.48-.42-.97-.63-1.45Z"/><path class="cls-11" d="m14.07,425.58c.61-.13,1.23-.25,1.84-.38-.61.13-1.23.25-1.84.38Z"/><path class="cls-11" d="m40.36,425.21c.59.13,1.19.26,1.78.39-.59-.13-1.19-.26-1.78-.39Z"/><path class="cls-12" d="m32.37,501.24c-.15-.27-.31-.54-.75-1.31.96.31,1.43.46,1.9.61-.38.23-.77.47-1.15.7Z"/><path class="cls-11" d="m94.22,358.86c.78.07.53.63.52,1.08-.17-.36-.35-.72-.52-1.08Z"/><path class="cls-11" d="m19.37,412.46c-.56-.13-1.11-.27-1.67-.4.56.13,1.11.27,1.67.4Z"/><path class="cls-11" d="m16.63,411.92c-.55-.14-1.09-.28-1.64-.42.55.14,1.09.28,1.64.42Z"/><path class="cls-11" d="m13.94,411.32c-.38-.12-.77-.24-1.15-.36.38.12.77.24,1.15.36Z"/><path class="cls-12" d="m17.72,450.92c.05.3.1.61.15.91-.05-.3-.1-.61-.15-.91Z"/><path class="cls-11" d="m94.96,360.19l.22.1v.24c-.19-.03-.27-.14-.22-.34Z"/><path class="cls-12" d="m22.09,489.35l.17.07-.04.17c-.11-.04-.15-.12-.13-.23Z"/><path class="cls-12" d="m21.6,488.7c.11.12.22.25.33.37-.11-.12-.22-.25-.33-.37Z"/><path class="cls-11" d="m111.68,360.46c.24-.16.49-.32.73-.48.12-.01.23-.02.35-.03l.12-.04c.4,0,.81.01,1.21.02.12.4.25.79.37,1.19-.14.21-.27.42-.41.62-1.34,3.98-.25,7.57,1.5,11.05.2-.02.4-.04.59-.06-.08-.74-.13-1.48-.24-2.21-.42-2.8-.6-5.59.23-8.35.58-1.92.63-1.97,2.42-3.56,2.97-.86,4.47,1.24,5.89,3.21,1.55,2.15,1.37,4.63.78,7.08-.23.93-.55,1.84-.98,3.27,3.14-2.25,3.9-5.08,4.24-8.33,1.59.58,2.09,1.9,2.22,2.98.27,2.32.5,4.76.06,7.02-.51,2.62-2.72,4.29-4.99,5.47-2.15,1.12-4.53,1.8-6.81,2.68-.41.16-.81.35-1.22.53-.51-.02-1.03-.03-1.54-.05-3.96-2.94-6.3-7.09-7.82-11.57-1.17-3.48-.67-7.03,2.36-9.73.32-.23.63-.46.95-.69Z"/><path class="cls-11" d="m104.01,368.3c.02.11.06.23.06.34,0,.04-.08.09-.12.13-.03-.12-.08-.23-.09-.35,0-.04.1-.08.15-.12Z"/><path class="cls-11" d="m104.19,366.23c.08.1.07.19-.02.27l-.16-.14.18-.12Z"/><path class="cls-11" d="m105.2,358.53c.09.14.06.27-.07.38l-.1-.2.17-.17Z"/><path class="cls-14" d="m79.25,493.81c-.6-.34-.98-.56-1.6-.92-.17.96-.32,1.79-.51,2.84-.46-1.17-.87-2.19-1.32-3.34-1.32.38-2.41.69-3.5,1.01-.07-.12-.14-.23-.2-.35.33-.31.64-.65,1-.92.42-.31.89-.56,1.69-1.06-1.02-.36-1.71-.6-2.39-.84.06-.21.06-.44.13-.46.84-.25,1.69-.46,2.8-.75-.69-1.2-1.22-2.13-1.75-3.05.13-.11.25-.22.38-.33.8.6,1.59,1.21,2.55,1.93.32-1.13.59-2.1,1.02-3.59.3,1.3.47,2.05.64,2.77,1.8,0,2.16-1.31,2.79-2.69v2.74c.74-.49,1.35-.89,1.98-1.3.07.2.21.4.16.5-.33.74-.7,1.46-1.1,2.25.34.46.66.87,1.11,1.46-.67.25-1.28.49-2.06.79.28.57.51,1.04.86,1.73-.94-.09-1.77-.16-2.78-.26.04.54.07,1.04.12,1.83Z"/><path class="cls-7" d="m92.69,500.57c-.24-.04-.48-.08-.09-.01-.32-.23-.13-.09.06.04,0,0,.03-.03.03-.03Z"/><path class="cls-14" d="m165.41,342.72h-2.77c-.07.52-.13.95-.18,1.36-.73-.21-1.44-.41-2.64-.75-.02-.03-.21-.33-.49-.76-.44.13-.89.28-1.42.45.07-.48.13-.9.21-1.43-.57-.15-1.15-.31-1.84-.5.18-.3.26-.63.43-.69.59-.19,1.21-.29,1.93-.44v-.98c.31-.02.62-.03.92-.06.34.39.7.68,1.4.12.26.52.49.97.77,1.53.61-.25,1.16-.48,1.77-.73-.12.54-.22,1.02-.35,1.61.64.36,1.22.69,2.26,1.27Z"/><path class="cls-14" d="m157.6,352.11c-.59,3.12-2.29,5.76-3.68,8.53-1.26.44-2.51.97-3.77,0,.23-.28.43-.6.71-.82,2.72-2.16,4.89-4.81,6.75-7.72Z"/><path class="cls-11" d="m172.55,357.32c-1.64.73-3.28.78-4.91-.02,1.64,0,3.27.01,4.91.02Z"/><path class="cls-14" d="m121.3,435.3c1.23-.22,1.84-.33,2.67-.48-.41-.84-.78-1.58-1.19-2.4,1.24-.73,1.52.78,2.41.83.25-.37.53-.77.95-1.38.25.78.43,1.33.65,2.01.56-.31,1.08-.6,1.72-.96.08.65.14,1.17.22,1.83.41.31.9.67,1.44,1.07-.43.35-.85.68-1.26,1.01.32.44.62.85,1.15,1.58-.9-.07-1.46-.11-2.16-.17-.14.36-.29.77-.49,1.31-.28-.02-.6-.05-1.05-.08-.45.5-.97,1.06-1.84,2.02.14-1.19.22-1.86.32-2.69-.84-.2-1.69-.4-2.88-.68.76-.43,1.31-.74,2.08-1.17-.88-.52-1.53-.9-2.74-1.62Z"/><path class="cls-7" d="m169.91,361.69c.33.18.65.36.98.54-2.69,2.42-4.41,5.43-5.43,8.86-.2.68-.38,1.36-.96,2.04-.08-.52-.15-1.04-.25-1.55-.47-2.5-1.3-4.87-2.69-7.02,1.7-.6,3.4-1.2,5.1-1.8.47-.17.95-.33,1.42-.5,0,0,.21-.05.21-.05.48-.16.96-.33,1.45-.49,0,0,.17-.04.17-.04Z"/><path class="cls-14" d="m163.44,384.67c.17-.56.3-.98.44-1.44-.42-.38-.8-.71-1.19-1.05.33-.19.63-.37.97-.57-.25-.51-.48-.98-.75-1.54.45-.16.85-.29,1.32-.46.12-.37.26-.79.4-1.23.71.23,1.48.35,2.11.71.53.3.08,1.69,1.33,1.2.17.86.31,1.59.49,2.52-.05.02-.33.16-.7.34-.04.34-.08.74-.11.99-1.42.17-2.78.34-4.33.53Z"/><path class="cls-7" d="m173.53,390.23c-.09-.11-.18-.23-.28-.34.17.03.35.07.52.1-.08.08-.16.16-.24.24Z"/><path class="cls-14" d="m127.57,529.4c-.14.7-.25,1.25-.39,1.95-1.01.58-2.25,1.29-3.64,2.08-.05-.51-.1-.98-.16-1.54-.56-.16-1.14-.33-2.01-.59.51-.37.83-.61,1.25-.92-.45-.4-.88-.78-1.36-1.2.39-.34.73-.62,1.1-.94-.11-.48-.22-.98-.4-1.81.71.34,1.2.58,1.7.82.29-.21.57-.41.91-.66.19.42.37.8.6,1.28.39-.21.77-.41,1.05-.56.47.71.93,1.42,1.36,2.08Z"/><path class="cls-14" d="m89.56,334.17c-.28,1.63-.5,2.88-.72,4.15-.39-.23-.76-.45-1.14-.68-.38.25-.75.5-.93.61-.74-.22-1.35-.4-2.03-.61.03-.21.09-.53.16-.95-.4-.23-.83-.48-1.25-.72.21-.84,1.54-.71,1.4-1.87-.03-.23,1.06-.59,1.92-1.04.22.03.81.12,1.63.25.25.22.7.62.96.86Z"/><path class="cls-14" d="m52.07,390.55v-2.02c.67.44,1.16.75,1.7,1.11.6-.42,1.22-.85,2.11-1.47-.06.83-.1,1.32-.14,1.86.43.11.86.22,1.29.33-.16.28-.32.56-.51.91.22.25.45.51.42.47-.59.53-1.16,1.05-1.74,1.56.14.15.28.3.42.45-.43-.09-.87-.19-1.32-.29-.27.24-.52.48-.75.69-1.54-.62-3.07-1.24-4.87-1.96.77-.25,1.31-.43,1.92-.63-.1-.54-.19-1.05-.32-1.79.6.26,1.06.46,1.81.79Z"/><path class="cls-7" d="m42.36,450.29c-.08.08-.16.17-.24.25,0,0-.02-.02-.03-.02.08-.08.16-.17.24-.25,0,0,.02.02.02.02Z"/><path class="cls-12" d="m168.09,362.28c-.47.17-.95.33-1.42.5.47-.17.95-.33,1.42-.5Z"/><path class="cls-12" d="m169.74,361.74c-.48.16-.96.33-1.45.49.48-.16.96-.33,1.45-.49Z"/><path class="cls-12" d="m111.68,360.46c-.32.23-.63.46-.95.69.32-.23.63-.46.95-.69Z"/><path class="cls-12" d="m114.09,359.93c-.4,0-.81-.01-1.21-.02.41-.5.81-.46,1.21.02Z"/><path class="cls-12" d="m114.06,361.74c.14-.21.27-.42.41-.62-.14.21-.27.42-.41.62Z"/><path class="cls-12" d="m112.76,359.96c-.12.01-.23.02-.35.03.11-.02.23-.03.35-.03Z"/></g></g></svg>