<?xml version="1.0" encoding="UTF-8"?><svg id="Layer_1" xmlns="http://www.w3.org/2000/svg" width="178.53" height="104.03" viewBox="0 0 178.53 104.03"><defs><style>.cls-1{fill:#f3939d;}.cls-2{fill:#eee;}.cls-3{isolation:isolate;opacity:.25;}</style></defs><g><path class="cls-1" d="m124.52,20.62c1.4-2,1.2-2.9,1.2-2.9,0,0,.2-.9-1.2-2.9S109.52,1.22,108.82.82s-28.5-2.2-31.4,1.3-2.6,15.6-2.6,15.6c0,0-.3,12.1,2.6,15.6s30.7,1.7,31.4,1.3c.7-.4,14.3-12,15.7-14Z"/><path class="cls-3" d="m124.52,20.62c1.4-2,1.2-2.9,1.2-2.9,0,0,.2-.9-1.2-2.9-.9-1.3-6.9-6.6-11.2-10.3-2.1,3.9-3.4,8.4-3.4,13.2s1.2,9.3,3.4,13.2c4.3-3.7,10.3-9,11.2-10.3Z"/></g><g><path class="cls-1" d="m20.62,1.32C18.62-.08,17.72.12,17.72.12c0,0-.9-.2-2.9,1.2S1.22,16.32.82,17.02s-2.2,28.5,1.3,31.4,15.6,2.6,15.6,2.6c0,0,12.1.3,15.6-2.6s1.7-30.7,1.3-31.4c-.4-.8-12-14.4-14-15.7Z"/><path class="cls-3" d="m20.62,1.32C18.62-.08,17.72.12,17.72.12c0,0-.9-.2-2.9,1.2-1.3.9-6.6,6.9-10.3,11.2,3.9,2.1,8.4,3.4,13.2,3.4s9.3-1.2,13.2-3.4c-3.7-4.4-9-10.4-10.3-11.2Z"/></g><g><path class="cls-1" d="m52.22,49.82c2,1.4,2.9,1.2,2.9,1.2,0,0,.9.2,2.9-1.2s13.6-15,14-15.7,2.2-28.5-1.3-31.4S55.12.12,55.12.12c0,0-12.1-.3-15.6,2.6s-1.7,30.7-1.3,31.4c.4.7,12,14.3,14,15.7Z"/><path class="cls-3" d="m52.22,49.82c2,1.4,2.9,1.2,2.9,1.2,0,0,.9.2,2.9-1.2,1.3-.9,6.6-6.9,10.3-11.2-3.9-2.1-8.4-3.4-13.2-3.4s-9.3,1.2-13.2,3.4c3.7,4.3,9,10.3,10.3,11.2Z"/></g><g><path class="cls-1" d="m175.92,2.32c-2.9-3.5-30.7-1.7-31.4-1.3-.7.4-14.3,12-15.7,14s-1.2,2.9-1.2,2.9c0,0-.2.9,1.2,2.9s15,13.6,15.7,14,28.5,2.2,31.4-1.3,2.6-15.6,2.6-15.6c0,0,.2-12.1-2.6-15.6Z"/><path class="cls-3" d="m140.02,4.72c-4.3,3.7-10.3,9-11.2,10.3-1.4,2-1.2,2.9-1.2,2.9,0,0-.2.9,1.2,2.9.9,1.3,6.9,6.6,11.2,10.3,2.1-3.9,3.4-8.4,3.4-13.2s-1.3-9.3-3.4-13.2Z"/></g><g><path class="cls-2" d="m124.52,73.62c1.4-2,1.2-2.9,1.2-2.9,0,0,.2-.9-1.2-2.9s-15-13.6-15.7-14-28.5-2.2-31.4,1.3-2.6,15.6-2.6,15.6c0,0-.3,12.1,2.6,15.6s30.7,1.7,31.4,1.3c.7-.4,14.3-12,15.7-14Z"/><path class="cls-3" d="m124.52,73.62c1.4-2,1.2-2.9,1.2-2.9,0,0,.2-.9-1.2-2.9-.9-1.3-6.9-6.6-11.2-10.3-2.1,3.9-3.4,8.4-3.4,13.2s1.2,9.3,3.4,13.2c4.3-3.7,10.3-9,11.2-10.3Z"/></g><g><path class="cls-2" d="m20.62,54.32c-2-1.4-2.9-1.2-2.9-1.2,0,0-.9-.2-2.9,1.2S1.22,69.32.82,70.02s-2.2,28.5,1.3,31.4,15.6,2.6,15.6,2.6c0,0,12.1.3,15.6-2.6s1.7-30.7,1.3-31.4c-.4-.8-12-14.4-14-15.7Z"/><path class="cls-3" d="m20.62,54.32c-2-1.4-2.9-1.2-2.9-1.2,0,0-.9-.2-2.9,1.2-1.3.9-6.6,6.9-10.3,11.2,3.9,2.1,8.4,3.4,13.2,3.4s9.3-1.2,13.2-3.4c-3.7-4.4-9-10.4-10.3-11.2Z"/></g><g><path class="cls-2" d="m52.22,102.82c2,1.4,2.9,1.2,2.9,1.2,0,0,.9.2,2.9-1.2s13.6-15,14-15.7,2.2-28.5-1.3-31.4-15.6-2.6-15.6-2.6c0,0-12.1-.3-15.6,2.6s-1.7,30.7-1.3,31.4c.4.7,12,14.3,14,15.7Z"/><path class="cls-3" d="m52.22,102.82c2,1.4,2.9,1.2,2.9,1.2,0,0,.9.2,2.9-1.2,1.3-.9,6.6-6.9,10.3-11.2-3.9-2.1-8.4-3.4-13.2-3.4s-9.3,1.2-13.2,3.4c3.7,4.3,9,10.3,10.3,11.2Z"/></g><g><path class="cls-2" d="m175.92,55.22c-2.9-3.5-30.7-1.7-31.4-1.3s-14.3,12-15.7,14-1.2,2.9-1.2,2.9c0,0-.2.9,1.2,2.9s15,13.6,15.7,14,28.5,2.2,31.4-1.3,2.6-15.6,2.6-15.6c0,0,.2-12.1-2.6-15.6Z"/><path class="cls-3" d="m140.02,57.62c-4.3,3.7-10.3,9-11.2,10.3-1.4,2-1.2,2.9-1.2,2.9,0,0-.2.9,1.2,2.9.9,1.3,6.9,6.6,11.2,10.3,2.1-3.9,3.4-8.4,3.4-13.2s-1.3-9.3-3.4-13.2Z"/></g></svg>