<?xml version="1.0" encoding="UTF-8"?><svg id="Layer_1" xmlns="http://www.w3.org/2000/svg" width="224.1" height="112.4" viewBox="0 0 224.1 112.4"><defs><style>.cls-1{fill:#fff;}.cls-2{fill:#7cb2e8;}.cls-3{fill:#40e2a0;}.cls-4{fill:#ff69f8;}.cls-5{fill:#f66;}.cls-6{fill:#2c2c2c;}.cls-7{fill:#d3d3d3;}</style></defs><g><g><path class="cls-6" d="m27.3,53.6c-14.5,0-26.3-11.8-26.3-26.3S12.8,1,27.3,1s26.3,11.8,26.3,26.3-11.8,26.3-26.3,26.3Z"/><path class="cls-2" d="m27.3,2c13.9,0,25.3,11.3,25.3,25.3s-11.3,25.3-25.3,25.3S2,41.2,2,27.3,13.4,2,27.3,2m0-2C12.3,0,0,12.2,0,27.3s12.2,27.3,27.3,27.3,27.3-12.2,27.3-27.3c-.1-15-12.3-27.3-27.3-27.3h0Z"/></g><polygon class="cls-2" points="41.7 14.9 39.7 12.9 27.3 25.3 14.9 12.9 12.9 14.9 25.3 27.3 12.9 39.7 14.9 41.7 27.3 29.3 39.7 41.7 41.7 39.7 29.3 27.3 41.7 14.9"/></g><g><g><path class="cls-6" d="m83.8,53.5c-14.5,0-26.3-11.8-26.3-26.3S69.3.9,83.8.9s26.2,11.9,26.2,26.4-11.7,26.2-26.2,26.2Z"/><path class="cls-5" d="m83.8,2.1c13.9,0,25.3,11.3,25.3,25.3s-11.3,25.3-25.3,25.3-25.3-11.3-25.3-25.3S69.9,2.1,83.8,2.1m0-2c-15,0-27.3,12.2-27.3,27.3s12.2,27.3,27.3,27.3,27.2-12.4,27.2-27.4S98.8.1,83.8.1h0Z"/></g><path class="cls-5" d="m83.8,8.4c-10.4,0-18.9,8.5-18.9,18.9s8.5,18.9,18.9,18.9,18.9-8.5,18.9-18.9-8.5-18.9-18.9-18.9Zm0,34.9c-8.9,0-16-7.2-16-16s7.2-16,16-16,16,7.2,16,16-7.1,16-16,16Z"/></g><g><g><path class="cls-6" d="m140.3,54.1c-14.5,0-26.3-11.8-26.3-26.3S125.8,1.5,140.3,1.5s26.3,11.8,26.3,26.3-11.8,26.3-26.3,26.3Z"/><path class="cls-4" d="m140.3,2.7c13.9,0,25.3,11.3,25.3,25.3s-11.3,25.3-25.3,25.3-25.3-11.3-25.3-25.3,11.4-25.3,25.3-25.3m0-2c-15,0-27.3,12.2-27.3,27.3s12.2,27.3,27.3,27.3,27.3-12.2,27.3-27.3c-.1-15.1-12.3-27.3-27.3-27.3h0Z"/></g><path class="cls-4" d="m151.8,13.5h-25.8v28.6h28.6V13.5h-2.8Zm0,25.9h-23v-23h23v23Z"/></g><g><g><path class="cls-6" d="m196.8,54.8c-14.5,0-26.3-11.8-26.3-26.3s11.8-26.3,26.3-26.3,26.3,11.8,26.3,26.3-11.8,26.3-26.3,26.3Z"/><path class="cls-3" d="m196.8,3.3c13.9,0,25.3,11.3,25.3,25.3s-11.3,25.3-25.3,25.3-25.3-11.3-25.3-25.3,11.4-25.3,25.3-25.3m0-2c-15,0-27.3,12.2-27.3,27.3s12.2,27.3,27.3,27.3,27.3-12.2,27.3-27.3S211.8,1.3,196.8,1.3h0Z"/></g><path class="cls-3" d="m212.8,36.6l-16-27.6-16,27.6-1.6,2.8h35.2l-1.6-2.8Zm-16,0h-12.7l12.7-21.9,12.7,21.9h-12.7Z"/></g><g><g><path class="cls-7" d="m27.3,111.4c-14.5,0-26.3-11.8-26.3-26.3s11.8-26.3,26.3-26.3,26.3,11.8,26.3,26.3-11.8,26.3-26.3,26.3Z"/><path class="cls-1" d="m27.3,59.8c13.9,0,25.3,11.3,25.3,25.3s-11.3,25.3-25.3,25.3S2,99.1,2,85.1s11.4-25.3,25.3-25.3m0-2c-15,0-27.3,12.2-27.3,27.3s12.2,27.3,27.3,27.3,27.3-12.2,27.3-27.3-12.3-27.3-27.3-27.3h0Z"/></g><polygon class="cls-1" points="41.7 72.7 39.7 70.7 27.3 83.1 14.9 70.7 12.9 72.7 25.3 85.1 12.9 97.5 14.9 99.5 27.3 87.1 39.7 99.5 41.7 97.5 29.3 85.1 41.7 72.7"/></g><g><g><path class="cls-7" d="m83.8,111.2c-14.5,0-26.3-11.8-26.3-26.3s11.8-26.3,26.3-26.3,26.3,11.8,26.3,26.3-11.8,26.3-26.3,26.3Z"/><path class="cls-1" d="m83.8,59.8c13.9,0,25.3,11.3,25.3,25.3s-11.3,25.3-25.3,25.3-25.3-11.3-25.3-25.3,11.4-25.3,25.3-25.3m0-2c-15,0-27.3,12.2-27.3,27.3s12.2,27.3,27.3,27.3,27.3-12.2,27.3-27.3-12.3-27.3-27.3-27.3h0Z"/></g><path class="cls-1" d="m83.8,66.1c-10.4,0-18.9,8.5-18.9,18.9s8.5,18.9,18.9,18.9,18.9-8.5,18.9-18.9-8.5-18.9-18.9-18.9Zm0,34.9c-8.9,0-16-7.2-16-16s7.2-16,16-16,16,7.2,16,16-7.1,16-16,16Z"/></g><g><g><path class="cls-7" d="m140.3,111.2c-14.5,0-26.3-11.8-26.3-26.3s11.8-26.3,26.3-26.3,26.3,11.8,26.3,26.3-11.8,26.3-26.3,26.3Z"/><path class="cls-1" d="m140.3,59.8c13.9,0,25.3,11.3,25.3,25.3s-11.3,25.3-25.3,25.3-25.3-11.3-25.3-25.3,11.4-25.3,25.3-25.3m0-2c-15,0-27.3,12.2-27.3,27.3s12.2,27.3,27.3,27.3,27.3-12.2,27.3-27.3-12.3-27.3-27.3-27.3h0Z"/></g><path class="cls-1" d="m151.8,70.6h-25.8v28.6h28.6v-28.6h-2.8Zm0,25.9h-23v-23h23v23Z"/></g><g><g><path class="cls-7" d="m196.8,111.3c-14.5,0-26.3-11.8-26.3-26.3s11.8-26.3,26.3-26.3,26.3,11.8,26.3,26.3-11.8,26.3-26.3,26.3Z"/><path class="cls-1" d="m196.8,59.8c13.9,0,25.3,11.3,25.3,25.3s-11.3,25.3-25.3,25.3-25.3-11.3-25.3-25.3,11.4-25.3,25.3-25.3m0-2c-15,0-27.3,12.2-27.3,27.3s12.2,27.3,27.3,27.3,27.3-12.2,27.3-27.3-12.3-27.3-27.3-27.3h0Z"/></g><path class="cls-1" d="m212.8,93l-16-27.6-16,27.6-1.6,2.8h35.2l-1.6-2.8Zm-16,0h-12.7l12.7-21.9,12.7,21.9h-12.7Z"/></g></svg>