<?xml version="1.0" encoding="UTF-8"?><svg id="Layer_1" xmlns="http://www.w3.org/2000/svg" width="286" height="94" viewBox="0 0 286 94"><defs><style>.cls-1{fill:#fff;}.cls-2{fill:#d5818a;}.cls-3{fill:#f3939d;}.cls-4{fill:#b66e76;}.cls-5{fill:#eee;}</style></defs><g><g><path class="cls-4" d="m47,92.5C21.9,92.5,1.5,72.1,1.5,47S21.9,1.5,47,1.5s45.5,20.4,45.5,45.5-20.4,45.5-45.5,45.5Z"/><path class="cls-2" d="m47,3c24.3,0,44,19.7,44,44s-19.7,44-44,44S3,71.3,3,47,22.7,3,47,3m0-3C21,0,0,21,0,47s21,47,47,47,47-21,47-47S73,0,47,0h0Z"/></g><circle class="cls-3" cx="47" cy="47" r="27.3"/></g><g><g><path class="cls-5" d="m143,92.5c-25.1,0-45.5-20.4-45.5-45.5S117.9,1.5,143,1.5s45.5,20.4,45.5,45.5-20.4,45.5-45.5,45.5Z"/><path class="cls-1" d="m143,3c24.3,0,44,19.7,44,44s-19.7,44-44,44-44-19.7-44-44S118.7,3,143,3m0-3c-26,0-47,21-47,47s21,47,47,47,47-21,47-47S169,0,143,0h0Z"/></g><circle class="cls-1" cx="143" cy="47" r="27.3"/><g><path d="m125.1,33.5h4.6v22.4h13.4v4h-18v-26.4Z"/><path d="m151.9,44.8c2.8.1,5.7-.9,5.7-4.1,0-2.2-1.7-3.7-4-3.7-2.9,0-4.4,2.6-4.3,5.3h-4.2c.2-5,3.4-8.8,8.6-8.8,4,0,8.2,2.3,8.2,6.9,0,2.6-1.1,4.7-3.7,5.5v.1c3,.6,4.7,3.1,4.7,6.5,0,4.9-4.3,7.9-9.2,7.9-6,0-9-3.6-9.1-9h4.2c-.1,3.1,1.6,5.5,4.9,5.5,2.8,0,5-1.7,5-4.6,0-4-3.4-4.5-6.8-4.4v-3.1h0Z"/></g></g><g><g><path class="cls-5" d="m239,92.5c-25.1,0-45.5-20.4-45.5-45.5S213.9,1.5,239,1.5s45.5,20.4,45.5,45.5-20.4,45.5-45.5,45.5Z"/><path class="cls-1" d="m239,3c24.3,0,44,19.7,44,44s-19.7,44-44,44-44-19.7-44-44S214.7,3,239,3m0-3c-26,0-47,21-47,47s21,47,47,47,47-21,47-47S265,0,239,0h0Z"/></g><circle class="cls-1" cx="239" cy="47" r="27.3"/><g><path d="m218.7,33.5h12.6c5.8,0,8.7,2.7,8.7,7.1,0,5.1-3.5,6.4-4.4,6.7v.1c1.6.2,3.9,1.4,3.9,5.6,0,3.1.4,5.9,1.4,7h-5c-.7-1.1-.7-2.6-.7-3.9,0-4.8-1-7-5.3-7h-6.8v10.9h-4.6v-26.5h.2Zm4.6,12.1h7.6c3,0,4.5-1.4,4.5-4.2,0-3.4-2.2-4-4.6-4h-7.5v8.2Z"/><path d="m250.3,44.8c2.8.1,5.7-.9,5.7-4.1,0-2.2-1.7-3.7-4-3.7-2.9,0-4.4,2.6-4.3,5.3h-4.2c.2-5,3.4-8.8,8.6-8.8,4,0,8.2,2.3,8.2,6.9,0,2.6-1.1,4.7-3.7,5.5v.1c3,.6,4.7,3.1,4.7,6.5,0,4.9-4.3,7.9-9.2,7.9-6,0-9-3.6-9.1-9h4.2c-.1,3.1,1.6,5.5,4.9,5.5,2.8,0,5-1.7,5-4.6,0-4-3.4-4.5-6.8-4.4v-3.1h0Z"/></g></g></svg>