<?xml version="1.0" encoding="utf-8"?>
<!-- Generator: Adobe Illustrator 26.5.0, SVG Export Plug-In . SVG Version: 6.00 Build 0)  -->
<svg version="1.1" id="Layer_1" xmlns="http://www.w3.org/2000/svg" xmlns:xlink="http://www.w3.org/1999/xlink" x="0px" y="0px"
	 width="806px" height="598.9px" viewBox="0 0 806 598.9" style="enable-background:new 0 0 806 598.9;" xml:space="preserve">
<style type="text/css">
	.st0{fill:none;}
	.st1{fill:#B3B3B3;}
	.st2{display:none;}
	.st3{display:inline;fill:#CBCBCB;}
	.st4{display:inline;}
	.st5{fill:#CBCBCB;}
	.st6{fill:#333333;}
	.st7{opacity:0.25;}
	.st8{fill:#FFFFFF;}
	.st9{opacity:0.15;enable-background:new    ;}
	.st10{fill:#1F1F1F;}
	.st11{opacity:0.25;enable-background:new    ;}
	.st12{opacity:6.000000e-02;}
	.st13{fill:#181818;}
	.st14{fill:#252525;}
	.st15{opacity:0.3;enable-background:new    ;}
	.st16{opacity:0.12;}
	.st17{fill:#0B0B0F;}
	.st18{display:none;opacity:0.5;}
	.st19{display:inline;fill:#171918;}
	.st20{display:inline;fill:#1F2221;}
	.st21{display:inline;fill:#333735;}
	.st22{display:inline;fill:#E7F3FC;}
	.st23{display:inline;fill:#83898D;}
	.st24{display:inline;fill:#4D5254;}
	.st25{display:inline;fill:#B5B5B5;}
	.st26{display:inline;fill:#394141;}
	.st27{display:inline;fill:#878787;}
	.st28{display:inline;fill:#E5F3FC;}
	.st29{display:inline;fill:#82898E;}
	.st30{display:inline;fill:#444B4F;}
	.st31{display:inline;fill:#353937;}
	.st32{display:inline;fill:#E7F4FD;}
	.st33{display:inline;fill:#394140;}
	.st34{display:inline;fill:#E2F2FB;}
	.st35{display:inline;fill:#5BAABF;}
	.st36{display:inline;fill:#181A19;}
	.st37{display:inline;fill:#E7F3FD;}
	.st38{display:inline;fill:#E8F4FD;}
	.st39{display:inline;fill:#F8F8F8;}
	.st40{display:inline;fill:#1E2221;}
	.st41{display:inline;fill:#E5F3FD;}
	.st42{display:inline;fill:#292C2A;}
	.st43{display:inline;fill:#68C6E2;}
	.st44{display:inline;fill:#4D5153;}
	.st45{opacity:0.5;}
	.st46{fill:url(#SVGID_1_);}
	.st47{fill:#E5E5E5;}
	.st48{fill:#0A0A0A;}
	.st49{fill:#121212;}
	.st50{opacity:8.000000e-02;}
	.st51{fill:#CCCCCC;}
	.st52{display:none;opacity:0.25;}
	.st53{display:inline;fill:#FFFFFF;}
	.st54{opacity:5.000000e-02;}
	.st55{display:inline;fill:#FFF5F4;}
</style>
<pattern  y="598.9" width="71" height="71" patternUnits="userSpaceOnUse" id="SVGID_0000012776198955295640061" viewBox="0 -71 71 71" style="overflow:visible;">
	<g>
		<rect y="-71" class="st0" width="71" height="71"/>
		<g>
			<rect y="-71" class="st0" width="71" height="71"/>
			<g>
				<rect y="-71" class="st0" width="71" height="71"/>
				<g>
					<rect y="-71" class="st0" width="71" height="71"/>
					<g>
						<rect y="-71" class="st0" width="71" height="71"/>
						<g>
							<rect y="-71" class="st0" width="71" height="71"/>
							<g>
								<rect y="-71" class="st0" width="71" height="71"/>
								<g>
									<rect y="-71" class="st0" width="71" height="71"/>
									<g>
										<polygon class="st0" points="0,0 71,0 71,-71 0,-71 										"/>
										<path class="st1" d="M41.8-35.5c0-3.5-2.8-6.3-6.3-6.3s-6.3,2.8-6.3,6.3s2.8,6.3,6.3,6.3S41.8-32,41.8-35.5z"/>
									</g>
								</g>
							</g>
						</g>
					</g>
				</g>
			</g>
		</g>
	</g>
</pattern>
<g>
	<g class="st2">
		<path class="st3" d="M806,508.8c0,0-2.2,26.2-14.4,49.3c-2.9,5.4-6.3,10.7-10.4,15.4c-3.3,3.8-7.1,7.3-11.4,10.2
			c-25.3,17.2-46.3,15.8-53.8,14.6c-0.1,0-0.1,0-0.2,0c-0.2,0-0.4-0.1-0.7-0.1c-0.1,0-0.3-0.1-0.4-0.1c-0.1,0-0.3-0.1-0.4-0.1
			c-0.1,0-0.3-0.1-0.4-0.1c-0.6-0.1-0.9-0.2-0.9-0.2s-33.1-8.1-57.8-41.9s-56.6-129.2-56.6-129.2s-2.2-3-5.7-5.3s-6.3-2.6-6.3-2.6
			H219.1c0,0-2.8,0.3-6.3,2.6s-5.7,5.3-5.7,5.3s-31.9,95.5-56.6,129.2c-5.2,7-10.7,13-16.2,17.9c-20.9,18.8-41.6,24-41.6,24
			s-5.3,1.6-14.2,1.2c-10-0.5-24.5-3.4-40.9-14.2c-0.5-0.3-1-0.7-1.6-1c-11.3-7.6-19.1-19.4-24.5-31.3c-0.2-0.5-0.5-1.1-0.7-1.7
			c-1.2-2.7-2.2-5.4-3.2-8.1c0-0.1-0.1-0.2-0.1-0.3c-0.5-1.6-1-3.1-1.5-4.6c-2.3-7.3-3.8-14.1-4.7-19.2c0-0.1,0-0.2,0-0.2
			c-0.2-1-0.3-1.8-0.5-2.7c-0.6-4-0.8-6.5-0.9-6.8v-20.5c0-2.5,0.1-5.1,0.2-7.8v-1.2c0.1-2.4,0.1-4.8,0.2-7.3c0-1.3,0.1-2.7,0.2-4.1
			v-1c0-1.2,0.1-2.5,0.1-3.7c0-0.5,0-1,0.1-1.6c0-0.2,0-0.5,0-0.7s0-0.5,0.1-0.8c0-0.8,0.1-1.7,0.1-2.5v-0.7c0-0.3,0-0.7,0.1-1
			c0-1.1,0.1-2.1,0.1-3.1c0.1-2.2,0.2-4.4,0.4-6.6c0-0.6,0.1-1.2,0.1-1.8c0.2-4,0.5-7.9,0.9-11.5c0.1-0.9,0.1-1.7,0.2-2.5
			c0.1-1.3,0.3-2.6,0.4-3.8v-0.3c0.3-2.9,0.7-5.5,1.1-7.7c0.5-2.8,1.5-8,2.7-14.8c1.1-6.1,2.5-13.5,4-21.8c0.2-0.9,0.4-1.9,0.5-2.8
			c1.1-5.9,2.3-12.2,3.6-18.7c0.4-2.2,0.9-4.5,1.4-6.8c0.9-4.4,1.8-8.9,2.8-13.3c1-4.8,2.1-9.7,3.1-14.4c2.5-11.2,5.2-22.1,7.9-32.1
			c0.7-2.6,1.4-5.1,2.1-7.5c1.3-4.4,2.6-8.6,3.8-12.3c2.3-6.8,4.2-13.5,5.9-19.8c3.3-12.2,5.6-23.2,7.6-32c0.6-2.6,1.2-5.1,1.8-7.3
			s1.2-4.1,1.8-5.8c12-35.7,33-65.7,33-65.7s9.5-13,10.1-16.3s4.7-8.6,4.7-8.6s1.5-0.5,4.8-1.2c0.5-0.1,1.1-0.2,1.8-0.4
			c8.7-1.7,26.3-4.1,55.7-4.1c30.9,0,44.7,2.4,50.3,3.9c0.1,0,0.3,0.1,0.4,0.1c0.3,0.1,0.6,0.2,0.9,0.2c0.1,0,0.3,0.1,0.4,0.1
			c0.1,0,0.2,0.1,0.3,0.1h0.1c0.1,0,0.2,0.1,0.3,0.1c0.7,0.2,0.9,0.4,0.9,0.4s2.4,3,5.9,4.8c0.4,0.2,1,0.5,1.5,0.6h0.1
			c3.9,1.2,10.1,1,10.1,1h33.4c0,0,0.3-0.1,0.6,0.1c0.1,0,0.2,0.1,0.3,0.2c0.2,0.2,0.5,1.5,0.6,1.9c0,0.1,0,0.1,0,0.1H536
			c0,0,0,0,0-0.1c0-0.4,0.2-1.6,0.6-1.9l0.1-0.1l0,0c0.3-0.3,0.8-0.2,0.8-0.2h33.4c0,0,8.2,0.1,11.7-1.7c1.8-1,3.3-2.2,4.4-3.2
			c0.6-0.5,1-1,1.3-1.3c0.2-0.2,0.2-0.3,0.2-0.3l0,0l0,0c0.6-0.3,10.2-5,53.7-5c44.9,0,62.3,5.7,62.3,5.7l0.1,0.1c0,0,0,0.1,0.1,0.1
			c0,0.1,0.1,0.1,0.1,0.2c0.1,0.1,0.1,0.2,0.2,0.3c0.1,0.2,0.2,0.3,0.4,0.5c0.1,0.2,0.2,0.3,0.4,0.5c0.3,0.5,0.7,1.1,1.1,1.7
			c1,1.7,2,3.6,2.3,5.1c0.6,3.2,10.1,16.3,10.1,16.3s14.2,20.3,26,47.4c2.2,5.1,4.4,10.6,6.3,16.1c0.1,0.4,0.3,0.9,0.4,1.3
			c0,0.1,0,0.1,0.1,0.2c0.1,0.2,0.1,0.5,0.2,0.7c3.9,11.9,7.6,37.2,17,64.9c1.2,3.7,2.5,7.6,3.7,11.9c0.3,0.9,0.5,1.8,0.8,2.8
			c1.2,4.2,2.3,8.5,3.5,13.1c0.7,2.8,1.5,5.7,2.2,8.7c0.1,0.2,0.1,0.5,0.2,0.7l0,0c1.5,6.2,3,12.6,4.4,19.1c0.2,0.8,0.4,1.7,0.5,2.5
			c2.1,9.6,4.1,19.2,5.9,28.4c5.4,26.9,9.4,50.2,10.8,57.5c1,5,1.7,12.2,2.4,20.2c0,0.2,0,0.4,0,0.6c0.2,2.8,0.4,5.6,0.5,8.6
			c0,0.1,0,0.2,0,0.3c0.1,1.5,0.2,3,0.2,4.5c0.1,1.2,0.1,2.4,0.2,3.6c0,0.4,0,0.9,0.1,1.3v0.1c0.1,1.3,0.2,2.6,0.2,4v0.1
			c0,0.4,0,0.8,0,1.3v3.9c0.3,6.8,0.5,13.4,0.6,19.3c0.1,3,0.1,5.9,0.2,8.5c0,0.5,0,1,0,1.5c0,0.6,0,1.2,0,1.8c0,1,0,2,0,3
			c0,0.8,0,1.5,0,2.2C806,506.6,806,508.8,806,508.8z"/>
		<path class="st3" d="M220.9,418.6L220.9,418.6l-2.5,0.1c0.3-0.1,0.5-0.1,0.5-0.1H220.9z"/>
		<path class="st3" d="M726.8,598.8L726.8,598.8c-8.9,0.4-14.2-1.2-14.2-1.2s-20.7-5.1-41.6-24c-5.5-5-11-10.9-16.2-17.9
			c-24.7-33.7-56.6-129.2-56.6-129.2s-2.2-3-5.7-5.3c-2.8-1.8-5.1-2.4-6-2.5H221l-0.1-0.1h-2c0,0-0.2,0-0.5,0.1
			c-1,0.2-3.2,0.8-5.8,2.5c-3.5,2.3-5.7,5.3-5.7,5.3S175,522,150.3,555.7c-5.2,7-10.7,13-16.2,17.9c-20.9,18.8-41.6,24-41.6,24
			s-5.3,1.6-14.2,1.2l0,0c57.5-175.6,71.9-239.5,108.4-265.9c12.4-9,20.7-12.5,20.7-12.5h390.3c0,0,8.3,3.6,20.7,12.5
			C654.9,359.3,669.4,423.3,726.8,598.8z"/>
		<path class="st3" d="M804.8,457.6c1,21.3,1.2,43.2,1.2,49.4c-0.1-7.2-0.3-23.8-1-41c0-0.3,0-0.6,0-1c-0.1-2.5-0.2-5-0.3-7.5
			c-0.3-6.5-0.7-13-1.2-18.9c-0.6-7.2-1.3-13.5-2.1-18.1c-1.4-7.5-5.6-31.8-11.2-59.7c-1.9-9.3-3.9-19-6-28.6
			c-0.2-0.9-0.4-1.8-0.6-2.7c-1.4-6.2-2.8-12.4-4.3-18.3c-0.1-0.4-0.2-0.8-0.3-1.1c-0.7-2.9-1.4-5.7-2.1-8.5
			c-1.2-4.6-2.4-9.1-3.6-13.3c-0.2-0.9-0.5-1.7-0.7-2.5c-1-3.5-2.1-6.9-3.1-10c-9.3-27.7-13-53-17-64.9c-0.3-0.9-0.6-1.9-1-2.8
			c-2.1-6-4.5-11.8-6.9-17.4c-11.5-26.1-25.1-45.5-25.1-45.5s-9.5-13-10.1-16.3s-4.7-8.6-4.7-8.6s-17.4-5.7-62.3-5.7
			c-44.9,0-53.7,5-53.7,5s-2.4,3-5.9,4.8c-3.5,1.9-11.7,1.7-11.7,1.7h-33.4c0,0-0.5-0.1-0.9,0.3c-0.3,0.3-0.6,2-0.6,2H269.9
			c0,0-0.2-1.6-0.6-2c-0.3-0.4-0.9-0.3-0.9-0.3H235c0,0-8.2,0.1-11.7-1.7c-3.5-1.9-5.9-4.8-5.9-4.8s-8.8-5-53.7-5
			s-62.3,5.7-62.3,5.7s-4.1,5.3-4.7,8.6c-0.6,3.2-10.1,16.3-10.1,16.3s-21,30-33,65.7c-3.9,11.9-7.6,37.2-17,64.9
			C22.3,317.9,7.6,405,4.7,420.4c-3.9,20.2-4.6,73.9-4.7,87.2c0.1-8.6,0.6-67.7,4.6-89c2.9-15.5,17.7-102.5,32-144.6
			c9.3-27.7,13-53,17-64.9c12-35.7,33-65.7,33-65.7s9.5-13,10.1-16.3s4.7-8.6,4.7-8.6s17.4-5.7,62.3-5.7c32.9,0,46.4,2.7,51.3,4.1
			l0,0c0.1,0,0.3,0.1,0.4,0.1c0.1,0,0.2,0.1,0.3,0.1h0.1c1.1,0.4,1.6,0.6,1.6,0.6s2.4,3,5.9,4.8c0.4,0.2,0.8,0.4,1.2,0.5h0.1
			c3.9,1.3,10.4,1.1,10.4,1.1h33.4c0,0,0.1,0,0.3,0c0.2,0,0.4,0.1,0.6,0.3c0.3,0.3,0.5,1.5,0.6,1.9c0,0.1,0,0.1,0,0.1h266.2
			c0,0,0.2-1.6,0.6-2c0.3-0.4,0.9-0.3,0.9-0.3H571c0,0,8.2,0.1,11.7-1.7c3.5-1.9,5.9-4.8,5.9-4.8s8.8-5,53.7-5
			c44.2,0,61.8,5.5,62.3,5.7l0,0c0,0,0,0.1,0.1,0.1c0,0.1,0.1,0.1,0.1,0.2c0.1,0.1,0.1,0.2,0.2,0.3c1.1,1.5,3.8,5.4,4.3,8
			c0.6,3.2,10.1,16.3,10.1,16.3s14.2,20.3,25.9,47.3c2.4,5.5,4.7,11.4,6.8,17.4c0.1,0.3,0.2,0.7,0.3,1c3.9,11.9,7.6,37.2,17,64.9
			c1.2,3.6,2.5,7.6,3.7,11.8c0.3,0.9,0.5,1.8,0.8,2.8c1.2,4.1,2.3,8.5,3.5,13c0.7,2.8,1.5,5.8,2.2,8.7c0,0.2,0.1,0.4,0.1,0.6
			c1.5,6.3,3,12.8,4.5,19.3c0.2,0.8,0.4,1.7,0.5,2.5c2.1,9.5,4.1,19.2,5.9,28.3c5.4,27,9.4,50.3,10.8,57.6c0.9,5,1.7,12.1,2.3,20.1
			C804.2,444.7,804.5,451.2,804.8,457.6z"/>
		<path class="st3" d="M806.1,508.8c0-0.3,0-0.6,0-1C806.1,508.5,806.1,508.8,806.1,508.8z"/>
		<path class="st3" d="M351.1,362c0.1,0.7,0.1,1.3,0.1,2c0,21.5-8.9,40.9-23.1,54.8c-13.8,13.4-32.6,21.7-53.4,21.7
			c-17.4,0-33.4-5.8-46.2-15.6c-2.5-1.9-5-4-7.2-6.2l0,0c-14.2-13.9-23-33.3-23-54.7c0-0.7,0.1-1.3,0.1-2c-0.1-0.7-0.1-1.3-0.1-2
			c0-13.7,3.6-26.6,10-37.7c0.2-0.3,0.3-0.6,0.5-0.8c6-10.3,14.3-19,24.3-25.5c1.6-1.1,3.3-2.1,5-3c10.9-6,23.4-9.4,36.7-9.4
			s25.8,3.4,36.7,9.4c23.7,13,39.8,38.2,39.8,67.1C351.2,360.6,351.1,361.3,351.1,362L351.1,362z"/>
		<circle class="st3" cx="274.7" cy="356" r="73"/>
		<circle class="st3" cx="274.7" cy="356" r="51.5"/>
		<path class="st3" d="M607.8,360c0-42.2-34.3-76.5-76.5-76.5s-76.5,34.3-76.5,76.5c0,0.7,0,1.3,0.1,2c0,0.7-0.1,1.3-0.1,2
			c0,42.2,34.3,76.5,76.5,76.5s76.5-34.3,76.5-76.5c0-0.7,0-1.3-0.1-2C607.8,361.3,607.8,360.6,607.8,360z"/>
		<circle class="st3" cx="531.3" cy="356" r="73"/>
		<circle class="st3" cx="531.3" cy="356" r="51.5"/>
		<path class="st3" d="M553,131.3L534.9,261c-1.4,7.9-4.9,13.1-12.9,15.4c-1.7,0.5-3.5,0.7-5.3,0.7H289.4c-1.9,0-3.8-0.3-5.5-0.9
			c-6.9-2.4-11.6-7.8-12.7-15.2L253,131.3c-0.1-0.7,0-1.4,0.1-2.1c0.4-3.2,3.3-5.6,6.5-5.6h286.7c3.2,0,6.1,2.4,6.5,5.6
			C553,129.9,553.1,130.6,553,131.3L553,131.3z"/>
		<path class="st3" d="M746.6,244.8c0,52.1-42.2,94.3-94.3,94.3c-21.8,0-42-7.4-57.9-19.9c-5.3-9.1-12.5-16.9-21.1-22.9
			c-9.7-14.8-15.3-32.5-15.3-51.5c0-52.1,42.2-94.3,94.3-94.3S746.6,192.7,746.6,244.8L746.6,244.8z"/>
		<g class="st4">
			<path class="st5" d="M248,244.8c0,18.9-5.6,36.5-15.2,51.3c-8.7,6.1-16,14-21.3,23.2c-16,12.4-36,19.8-57.8,19.8
				c-52.1,0-94.3-42.2-94.3-94.3s42.2-94.3,94.3-94.3S248,192.7,248,244.8z"/>
			<path class="st5" d="M230.4,254.1l9.5-8.9c0.5-0.5,0.5-1.2,0-1.7l-9.5-8.9c-0.7-0.7-1.9-0.2-1.9,0.8v17.8
				C228.4,254.2,229.6,254.7,230.4,254.1L230.4,254.1z"/>
			<path class="st5" d="M145,169.8h17.8c1,0,1.5-1.2,0.8-1.9l-8.9-9.5c-0.5-0.5-1.2-0.5-1.7,0l-8.9,9.5
				C143.5,168.6,144,169.8,145,169.8L145,169.8z"/>
			<path class="st5" d="M77.5,234.6l-9.5,8.9c-0.5,0.5-0.5,1.2,0,1.7l9.5,8.9c0.7,0.7,1.9,0.2,1.9-0.8v-17.8
				C79.4,234.4,78.2,233.9,77.5,234.6L77.5,234.6z"/>
			<path class="st5" d="M162.8,318.8H145c-1,0-1.5,1.2-0.8,1.9l8.9,9.5c0.5,0.5,1.2,0.5,1.7,0l8.9-9.5
				C164.3,320,163.8,318.8,162.8,318.8L162.8,318.8z"/>
		</g>
	</g>
	<g>
		<path class="st6" d="M806,508.8c0,0-2.2,26.2-14.4,49.3c-2.9,5.4-6.3,10.7-10.4,15.4c-3.3,3.8-7.1,7.3-11.4,10.2
			c-25.3,17.2-46.3,15.8-53.8,14.6c-0.1,0-0.1,0-0.2,0c-0.2,0-0.4-0.1-0.7-0.1c-0.1,0-0.3-0.1-0.4-0.1c-0.1,0-0.3-0.1-0.4-0.1
			c-0.1,0-0.3-0.1-0.4-0.1c-0.6-0.1-0.9-0.2-0.9-0.2s-33.1-8.1-57.8-41.9s-56.6-129.2-56.6-129.2s-2.2-3-5.7-5.3s-6.3-2.6-6.3-2.6
			H219.1c0,0-2.8,0.3-6.3,2.6s-5.7,5.3-5.7,5.3s-31.9,95.5-56.6,129.2c-5.2,7-10.7,13-16.2,17.9c-20.9,18.8-41.6,24-41.6,24
			s-5.3,1.6-14.2,1.2c-10-0.5-24.5-3.4-40.9-14.2c-0.5-0.3-1-0.7-1.6-1c-11.3-7.6-19.1-19.4-24.5-31.3c-0.2-0.5-0.5-1.1-0.7-1.7
			c-1.2-2.7-2.2-5.4-3.2-8.1c0-0.1-0.1-0.2-0.1-0.3c-0.5-1.6-1-3.1-1.5-4.6c-2.3-7.3-3.8-14.1-4.7-19.2c0-0.1,0-0.2,0-0.2
			c-0.2-1-0.3-1.8-0.5-2.7c-0.6-4-0.8-6.5-0.9-6.8v-20.5c0-2.5,0.1-5.1,0.2-7.8v-1.2c0.1-2.4,0.1-4.8,0.2-7.3c0-1.3,0.1-2.7,0.2-4.1
			v-1c0-1.2,0.1-2.5,0.1-3.7c0-0.5,0-1,0.1-1.6c0-0.2,0-0.5,0-0.7s0-0.5,0.1-0.8c0-0.8,0.1-1.7,0.1-2.5v-0.7c0-0.3,0-0.7,0.1-1
			c0-1.1,0.1-2.1,0.1-3.1c0.1-2.2,0.2-4.4,0.4-6.6c0-0.6,0.1-1.2,0.1-1.8c0.2-4,0.5-7.9,0.9-11.5c0.1-0.9,0.1-1.7,0.2-2.5
			c0.1-1.3,0.3-2.6,0.4-3.8v-0.3c0.3-2.9,0.7-5.5,1.1-7.7c0.5-2.8,1.5-8,2.7-14.8c1.1-6.1,2.5-13.5,4-21.8c0.2-0.9,0.4-1.9,0.5-2.8
			c1.1-5.9,2.3-12.2,3.6-18.7c0.4-2.2,0.9-4.5,1.4-6.8c0.9-4.4,1.8-8.9,2.8-13.3c1-4.8,2.1-9.7,3.1-14.4c2.5-11.2,5.2-22.1,7.9-32.1
			c0.7-2.6,1.4-5.1,2.1-7.5c1.3-4.4,2.6-8.6,3.8-12.3c2.3-6.8,4.2-13.5,5.9-19.8c3.3-12.2,5.6-23.2,7.6-32c0.6-2.6,1.2-5.1,1.8-7.3
			s1.2-4.1,1.8-5.8c12-35.7,33-65.7,33-65.7s9.5-13,10.1-16.3s4.7-8.6,4.7-8.6s1.5-0.5,4.8-1.2c0.5-0.1,1.1-0.2,1.8-0.4
			c8.7-1.7,26.3-4.1,55.7-4.1c30.9,0,44.7,2.4,50.3,3.9c0.1,0,0.3,0.1,0.4,0.1c0.3,0.1,0.6,0.2,0.9,0.2c0.1,0,0.3,0.1,0.4,0.1
			c0.1,0,0.2,0.1,0.3,0.1h0.1c0.1,0,0.2,0.1,0.3,0.1c0.7,0.2,0.9,0.4,0.9,0.4s2.4,3,5.9,4.8c0.4,0.2,1,0.5,1.5,0.6h0.1
			c3.9,1.2,10.1,1,10.1,1h33.4c0,0,0.3-0.1,0.6,0.1c0.1,0,0.2,0.1,0.3,0.2c0.2,0.2,0.5,1.5,0.6,1.9c0,0.1,0,0.1,0,0.1H536
			c0,0,0,0,0-0.1c0-0.4,0.2-1.6,0.6-1.9l0.1-0.1l0,0c0.3-0.3,0.8-0.2,0.8-0.2h33.4c0,0,8.2,0.1,11.7-1.7c1.8-1,3.3-2.2,4.4-3.2
			c0.6-0.5,1-1,1.3-1.3c0.2-0.2,0.2-0.3,0.2-0.3l0,0l0,0c0.6-0.3,10.2-5,53.7-5c44.9,0,62.3,5.7,62.3,5.7l0.1,0.1c0,0,0,0.1,0.1,0.1
			c0,0.1,0.1,0.1,0.1,0.2c0.1,0.1,0.1,0.2,0.2,0.3c0.1,0.2,0.2,0.3,0.4,0.5c0.1,0.2,0.2,0.3,0.4,0.5c0.3,0.5,0.7,1.1,1.1,1.7
			c1,1.7,2,3.6,2.3,5.1c0.6,3.2,10.1,16.3,10.1,16.3s14.2,20.3,26,47.4c2.2,5.1,4.4,10.6,6.3,16.1c0.1,0.4,0.3,0.9,0.4,1.3
			c0,0.1,0,0.1,0.1,0.2c0.1,0.2,0.1,0.5,0.2,0.7c3.9,11.9,7.6,37.2,17,64.9c1.2,3.7,2.5,7.6,3.7,11.9c0.3,0.9,0.5,1.8,0.8,2.8
			c1.2,4.2,2.3,8.5,3.5,13.1c0.7,2.8,1.5,5.7,2.2,8.7c0.1,0.2,0.1,0.5,0.2,0.7l0,0c1.5,6.2,3,12.6,4.4,19.1c0.2,0.8,0.4,1.7,0.5,2.5
			c2.1,9.6,4.1,19.2,5.9,28.4c5.4,26.9,9.4,50.2,10.8,57.5c1,5,1.7,12.2,2.4,20.2c0,0.2,0,0.4,0,0.6c0.2,2.8,0.4,5.6,0.5,8.6
			c0,0.1,0,0.2,0,0.3c0.1,1.5,0.2,3,0.2,4.5c0.1,1.2,0.1,2.4,0.2,3.6c0,0.4,0,0.9,0.1,1.3v0.1c0.1,1.3,0.2,2.6,0.2,4v0.1
			c0,0.4,0,0.8,0,1.3v3.9c0.3,6.8,0.5,13.4,0.6,19.3c0.1,3,0.1,5.9,0.2,8.5c0,0.5,0,1,0,1.5c0,0.6,0,1.2,0,1.8c0,1,0,2,0,3
			c0,0.8,0,1.5,0,2.2C806,506.6,806,508.8,806,508.8z"/>
		<g class="st7">
			<path class="st8" d="M770.2,323.5c-7.6-2-14.3-1.6-20.2,1.2c-0.4,0.2-0.8,0.4-1.2,0.6c-3.4,1.8-6.6,4.5-9.5,7.9h-7.9
				c-0.1,0-0.1,0.1-0.2,0.1c-4.3,2-7.3,3.5-9.2,4.5c-4.6-0.6-7.9-1.1-11.1-1.4c-4.5-0.5-7.2-3.2-9-7c-0.5-1-0.1-2.4-0.1-4.3V325
				c0,0-0.1,0-0.1,0.1c0,0-0.1,0-0.1,0.1V325c0,0-0.1,0-0.1,0.1v0.2c0,2-0.4,3.4,0.1,4.4c1.8,3.8,4.5,6.5,9,7
				c3.2,0.3,6.5,0.8,11.1,1.4c1.9-1,5-2.5,9.4-4.6h8c0.1-0.1,0.2-0.2,0.3-0.3c0.6-0.7,1.2-1.4,1.8-2c0.3-0.3,0.6-0.6,0.9-0.9
				c7.7-7.3,17-9.6,28.3-6.5C770.3,323.7,770.2,323.6,770.2,323.5z M740.9,320.6c0.1-0.4,0.2-0.8,0.4-1.1l0,0c0.2-0.6,0.3-1.3,0.4-2
				C741.5,318.5,741.2,319.6,740.9,320.6z M727.7,321.5c-0.1,1.8-0.2,3.5-0.3,5.1l0.1,0.1C727.6,325,727.7,323.3,727.7,321.5
				L727.7,321.5z M716.3,319.7c0.1,0.2,0.2,0.3,0.3,0.5s0.2,0.3,0.3,0.4C716.7,320.2,716.5,320,716.3,319.7z M718.5,323.3
				L718.5,323.3c0,0,0,0,0,0.1C718.5,323.4,718.5,323.4,718.5,323.3z M718.3,322.8l-0.2-0.5c-0.1-0.1-0.2-0.3-0.3-0.4
				c-0.2-0.3-0.4-0.6-0.6-0.9c-0.1-0.1-0.2-0.3-0.3-0.4c0.1,0.2,0.2,0.3,0.3,0.5l0.3,0.5c0.1,0.2,0.2,0.4,0.4,0.6
				c0.2,0.4,0.4,0.8,0.6,1.2C718.4,323.1,718.4,323,718.3,322.8z M762.3,343.2c1.3-1.2,2.7-2.1,4.3-2.6
				C765,341.1,763.6,342,762.3,343.2z M776.3,341.9c-1.7,2.6-3.2,5.1-5.5,8.9c0,0,0.1,0,0.2,0c2.3-3.8,3.8-6.2,5.5-8.8
				c0.8,0.3,1.5,0.7,2.2,1.2C778,342.6,777.2,342.2,776.3,341.9z M718.8,324.8c0-0.3-0.1-0.6-0.1-0.9l0,0c0-0.1,0-0.2-0.1-0.2
				c0,0,0,0,0-0.1v-0.1v-0.1c0-0.2-0.1-0.3-0.2-0.5l-0.2-0.5c-0.1-0.1-0.2-0.3-0.3-0.4c-0.2-0.3-0.4-0.6-0.6-0.9
				c-0.1-0.1-0.2-0.3-0.3-0.4l0,0c-0.2-0.3-0.4-0.6-0.6-0.9l0,0c-0.2-0.3-0.4-0.6-0.6-0.9c-0.3-0.5-0.5-0.9-0.7-1.5
				s-0.3-1.2-0.2-1.9v-0.1c-0.1,0.1-0.2,0.2-0.3,0.2l0,0c0,0,0,0,0,0.1c-0.1,0.1-0.2,0.2-0.3,0.3l0,0c0,0-0.1,0-0.1,0.1
				c-0.2,0.1-0.3,0.3-0.5,0.4c-0.8,0.7-1.6,1.4-2.5,2c-0.3,0.2-0.5,0.4-0.8,0.6c-2.2,1.7-4.4,3.3-6.7,4.8l0,0c0,0,0,0-0.1,0
				c0,0,0,0-0.1,0c-0.1,0.1-0.3,0.2-0.4,0.2c-0.2,0.1-0.5,0.3-0.7,0.4c0,0-0.1,0-0.1,0.1c-0.1,0.1-0.3,0.2-0.4,0.3h0.1
				c4,2,6.5,5.7,10.6,5.7c0.7,0,1.5-0.1,2.3-0.4c1.3-1.8,2.8-3.7,4-5.3v-0.1C718.8,324.9,718.8,324.8,718.8,324.8L718.8,324.8z
				 M751.7,206.7c-2-5.5-4.1-10.8-6.3-15.9h-0.6c0,0-0.1,0-0.2,0.1c-4.3,0.5-8.7,0.9-13,1.4c3.6,5.4,6.6,11.1,9,17.2
				c1.4-0.2,2.8-0.4,4.1-0.6c2.3-0.3,4.5-0.5,6.8-0.7h0.6c0,0,0,0,0.1,0C752,207.7,751.9,207.2,751.7,206.7z M668.7,424.3
				c0.3-0.1,0.7-0.3,1-0.4c0.1,0,0.1,0,0.1,0s0,0,0.1-0.1c0,0,0,0,0.1,0c1.6-0.6,3.3-1,5-1.1c8.5-0.4,16.9,0,25.3,1.5
				c10.3,1.9,20.6,3.4,30.9,5.5c6.8,1.4,13.6,3.1,20.2,5.2c3.6,1.1,7.2,2.3,10.8,3.6c4.6,1.7,9.2,3.4,13.7,5.3
				c9.8,4.1,19.5,8.5,28.8,13.6c0,0,0,0,0.1,0c-0.2-1.2-0.3-2.4-0.3-3.6c0-0.5,0-1-0.1-1.6c0-1.3-0.1-2.7-0.2-4v-0.3
				c0-0.7-0.1-1.5-0.1-2.2c0-0.1,0-0.1,0-0.2s0-0.2,0-0.3c-0.1-2-0.2-4-0.4-5.9v-0.5l-0.1-0.1c0,0,0,0-0.1,0
				c-9.4-6-19.1-11.5-29.2-16.4c-22.8-10.9-46.5-18.9-71.6-22.8c-12.3-1.9-24.6-4.2-36.4-8.6c-3.8-1.4-7.5-3-11-4.8
				c0,0-0.1,0-0.1-0.1c-2.5-1.3-4.8-2.7-7-4.3c-2.2-1.6-4.4-3.4-6.4-5.5c-6.4-6.5-10.5-14.2-12.6-22.9c-1.1-4.7-2.2-9.4-3.3-14.1
				c0,0,0,0,0-0.1c-0.3-1.3-0.6-2.7-0.9-3.9v-0.1c0-0.2-0.1-0.4-0.2-0.7c-2.1-0.6-4.1-1.3-6.1-2.1c-6.8-4.8-12.3-8.1-15.9-10
				c0,0.2,0.1,0.5,0.1,0.7c0,0,0,0,0,0.1c0.1,0.8,0.3,1.5,0.4,2.3v0.1c1.2,6.5,2.7,12.9,4.3,19.3c5.7,22.5,13.7,44.2,23.5,65.2
				c9.3,20,20,39.1,32.2,57.5c10.8,16.3,22.6,31.7,35.8,45.9c0.1,0.1,0.2,0.2,0.2,0.3c6.8,7.3,14,14.3,21.8,20.9
				c10.3,9,21.2,17.2,32.9,24.2c5.4,3.3,10.9,6.4,16.5,9.3c3.5,1.8,7,3.6,10.5,5.3c4.1-4.7,7.5-9.9,10.4-15.4
				c-18.6-8.8-36-19.2-52-32.1c-10.6-8.6-20.5-18-29.7-28.1c-9.4-10.3-18-21.3-26-32.8c-0.1-0.2-0.3-0.4-0.4-0.5
				c-4.9-7.1-9.5-14.3-13.9-21.7c-1.6-2.7-3.3-5.4-4.6-8.3C662.7,429.8,664,426.4,668.7,424.3z M727.7,326.7v-0.1l-0.1-0.1
				c0.1-1.6,0.2-3.3,0.3-5.1h-5.4c-1.8-2.3-3.6-4.7-5.7-7.5l-0.1-0.1c0.1-0.1,0.1-0.1,0.2-0.2c0.4-0.3,0.7-0.6,1.1-1
				c0.4-0.5,0.9-0.9,1.3-1.3c0.2-0.1,0.3-0.2,0.4-0.3c0.1,0,0.1-0.1,0.1-0.1c0.1-0.1,0.3-0.3,0.5-0.5c0.1-0.1,0.1-0.1,0.1-0.1
				c0-0.1,0.1-0.2,0.2-0.3c0.5-0.5,0.9-1,1.3-1.4c0.1,0,0.2,0,0.2-0.1c1.7-2,3.4-3.9,5-6c-3.2,4.1-6.7,7.9-10.6,11.4l0.1,0.1
				c2.1,2.8,3.9,5.2,5.7,7.5h5.4c-0.1,1.8-0.2,3.5-0.3,5.1l0.1,0.1v0.1c3.3,2.1,6,2.6,8.3,1.6C733.5,329.3,730.9,328.8,727.7,326.7z
				 M718.8,324.8c0-0.3-0.1-0.6-0.1-0.9l0,0c0-0.1,0-0.2-0.1-0.2c0,0,0,0,0-0.1v-0.1v-0.1c0-0.2-0.1-0.3-0.2-0.5l-0.2-0.5
				c-0.1-0.1-0.2-0.3-0.3-0.4c-0.2-0.3-0.4-0.6-0.6-0.9c-0.1-0.1-0.2-0.3-0.3-0.4l0,0c-0.2-0.3-0.4-0.6-0.6-0.9l0,0
				c-0.2-0.3-0.4-0.6-0.6-0.9c-0.3-0.5-0.5-0.9-0.7-1.5s-0.3-1.2-0.2-1.9v-0.1c-0.1,0.1-0.2,0.2-0.3,0.2l0,0c0,0,0,0,0,0.1
				c-0.1,0.1-0.2,0.2-0.3,0.3l0,0c0,0-0.1,0-0.1,0.1c-0.2,0.1-0.3,0.3-0.5,0.4c-0.8,0.7-1.6,1.4-2.5,2c-0.3,0.2-0.5,0.4-0.8,0.6
				c-2.2,1.7-4.4,3.3-6.7,4.8l0,0c0,0,0,0-0.1,0c0,0,0,0-0.1,0c-0.1,0.1-0.3,0.2-0.4,0.2c-0.2,0.1-0.5,0.3-0.7,0.4
				c0,0-0.1,0-0.1,0.1c-0.1,0.1-0.3,0.2-0.4,0.3h0.1c4,2,6.5,5.7,10.6,5.7c0.7,0,1.5-0.1,2.3-0.4c1.3-1.8,2.8-3.7,4-5.3v-0.1
				C718.8,324.9,718.8,324.8,718.8,324.8L718.8,324.8z M701.5,325.1L701.5,325.1c-0.6,0.4-1.2,0.8-1.8,1.1c0.3-0.1,0.6-0.3,0.9-0.5
				c0.3-0.1,0.6-0.3,0.9-0.5C701.5,325.2,701.6,325.2,701.5,325.1L701.5,325.1C701.6,325,701.5,325,701.5,325.1z M784.7,332.7
				l-0.1-0.1c-0.1-0.1-0.3-0.2-0.4-0.3c-2.3-2-4.6-3.9-6.9-5.9c2-0.1,4.3,1,6.3,3.2l0.6,0.6c-1-4.4-2-8.7-3-13
				c-0.1-0.6-0.3-1.2-0.4-1.8c-0.4-1.5-0.7-3-1.1-4.5c0,0,0,0,0,0.1c0,0,0,0-0.1,0c0,0.1-0.1,0.2-0.1,0.3h-11.1
				c-0.1-1.7-0.2-3.1-0.4-5.5c4.1,1.6,7.6,3,11,4.3c0.1,0,0.3,0.1,0.4,0.2c0,0,0,0,0.1,0c-0.7-3-1.4-5.9-2.2-8.7c0,0,0,0-0.1,0h-0.4
				h-0.1c-0.1,0-0.1,0-0.2,0c-0.1,0-0.3,0-0.4,0h-1.4c-1.7-0.1-3.6-0.5-5.6-1.5c-2.8-1.3-6.1-1.8-9-2.8c-1.9-0.7-3.7-1.8-5.6-2.7
				c0.1-0.3,0.1-0.7,0.2-1c5.5-1.8,11-3.5,17.5-5.6l0,0c0.3,0.1,0.7,0.2,1,0.3c0.1,0,0.1,0,0.1,0.1c0.1,0,0.2,0.1,0.4,0.1
				c0,0,0,0,0.1,0c-0.3-0.9-0.5-1.9-0.8-2.8h-0.4c0,0-0.1,0-0.1,0.1c-1.1,0.2-2.1,0.5-3.1,0.8c-5.1,1.6-10,3.6-15.2,4.9
				c-1.2,0.3-2.5,0.6-3.8,0.9c-0.4,0.1-0.8,0.2-1.3,0.2c-0.6,0.1-1.1,0.2-1.7,0.3c-1.4,0.2-2.8,0.3-4.2,0.4h-2.9
				c-1.6-0.1-3.2-0.6-4.7-1.3c-0.2-0.1-0.4-0.2-0.7-0.3c-0.2-0.1-0.4-0.2-0.5-0.2s-0.1-0.1-0.2-0.1l-0.9,1.5
				c-0.3,0.4-0.5,0.9-0.8,1.3c-0.3,0.5-0.6,0.9-0.8,1.3s-0.5,0.7-0.7,1.1c-0.2,0.3-0.3,0.5-0.5,0.8c0,0.1-0.1,0.1-0.1,0.2
				c-0.1,0.2-0.3,0.4-0.4,0.6c0,0,0,0,0,0.1c-0.1,0.1-0.1,0.2-0.2,0.2c-0.1,0.1-0.2,0.2-0.3,0.4c-0.3,0.5-0.7,1-1,1.5c0,0,0,0,0,0.1
				s0,0,0,0s0,0,0,0.1l0,0c-0.5,0.6-0.9,1.2-1.4,1.8c-3.2,4.1-6.7,7.9-10.6,11.4l0.1,0.1c2.1,2.8,3.9,5.2,5.7,7.5h5.4
				c-0.1,1.8-0.2,3.5-0.3,5.1l0.1,0.1v0.1c3.3,2.1,6,2.6,8.3,1.6c0.1-0.1,0.2-0.1,0.3-0.2c2-1,3.5-3.2,4.7-6.6
				c0-0.1,0.1-0.2,0.1-0.4c0.4-1.2,0.8-2.5,1.1-3.9c5.8-1.6,11.7-2.3,17.8-0.8c0,0,0-0.1,0.1-0.1h0.1c0.5-0.8,1-1.6,1.3-2.3
				c2.6,0.2,6.2,4.1,8.8,9.1c-7.6-2-14.2-1.5-20.2,1.3c-0.4,0.2-0.8,0.4-1.2,0.6c-3.4,1.8-6.6,4.5-9.5,7.9h-7.9
				c-0.1,0-0.1,0.1-0.2,0.1c-4.3,2-7.3,3.5-9.2,4.5c-4.6-0.6-7.9-1.1-11.1-1.4c-4.5-0.5-7.2-3.2-9-7c-0.5-1-0.1-2.4-0.1-4.3v0.2
				c0,0-0.1,0-0.1,0.1c0,0-0.1,0-0.1,0.1V325c0,0-0.1,0-0.1,0.1l0,0c-0.6,0.4-1.2,0.7-1.8,1.1c-0.1,0-0.1,0.1-0.2,0.1
				c-0.5,0.3-1,0.5-1.5,0.8c-0.2,0.1-0.5,0.3-0.7,0.4c-0.1,0-0.2,0.1-0.2,0.1l0,0l0,0c-0.1,0.1-0.2,0.1-0.4,0.2
				c-0.1,0-0.2,0.1-0.2,0.2c0,0,0,0-0.1,0c-0.1,0.1-0.2,0.1-0.3,0.2h-0.1c-0.1,0-0.2,0.1-0.3,0.1c-0.3,0.1-0.5,0.3-0.8,0.4
				c-0.5,0.3-1.1,0.5-1.6,0.8c-0.4,0.2-0.8,0.4-1.2,0.6c-0.1,0.1-0.3,0.1-0.4,0.2c-0.5,0.2-1,0.5-1.6,0.7l-0.4,0.1
				c0,0-0.1,0-0.1,0.1l0,0h-0.1l0,0c-0.5,0.2-1,0.4-1.5,0.6c0,0.1,0.1,0.1,0.1,0.2c2.2,3.5,5.4,6.3,8.8,8.5c3.5,2.1,7.2,3.5,10.8,4
				c3.4,0.5,7.1-1,10.6-2c1.9-0.5,3.6-1.7,5-2.3c3.6,1.2,6.6,2.3,9.9,3.4h0.1c-0.2,1.6-0.3,3.2-0.6,4.8c-1.4,6-0.9,11.2,1.3,15.8
				c0.2,0.4,0.3,0.7,0.5,1.1c2,3.8,5,7.1,8.9,10.1c0.9,0.7,1.9,1.3,2.9,2c13.3,8.2,24,5.7,34.9-5.3c3.2-3.2,5.3-7.5,8.1-11.6
				c0.3,0.1,0.5,0.3,0.8,0.4c0.1,0.1,0.2,0.1,0.3,0.2h0.1C788.8,351.8,786.8,342.2,784.7,332.7z M756.4,351c1.5,1.4,2.8,2.6,4.4,4.2
				c-1.9,3.1-3.6,5.9-5.4,8.8c-0.3-0.2-0.7-0.3-1.1-0.4C753.8,359.4,753.5,355.3,756.4,351z M764.4,360.6c1.6,4,2.9,7.1,4.2,10.4
				c-6.1,1.2-7.1,1-11.1-1.7C759.6,366.7,761.7,364.1,764.4,360.6z M774.5,368.3c-2.1-3.1-3.2-6.2-3-10.1c3.3-0.5,6.4-1,10.5-1.6
				C780.3,361.9,778.4,365.6,774.5,368.3z M779.3,343.6l0.4,0.4c0.3,0.3,0.5,0.6,0.7,0.9c0.2,0.2,0.3,0.4,0.4,0.6l0,0
				c0.9,1.6,1.3,3.7,1.4,6.2c-3.6-0.3-6.8-0.5-11.2-0.9c2.3-3.8,3.8-6.2,5.5-8.8c0.8,0.3,1.5,0.7,2.2,1.2
				C778.9,343.3,779.1,343.5,779.3,343.6z M765.2,349.2c-2-1.3-3.4-2.1-5.2-3.3c0.2-0.3,0.4-0.5,0.5-0.7c0.2-0.2,0.3-0.4,0.5-0.6
				c0.2-0.3,0.5-0.5,0.7-0.8c0.2-0.2,0.4-0.4,0.6-0.6c1.3-1.2,2.7-2.1,4.3-2.6c0.3-0.1,0.5-0.2,0.8-0.2c0.2,0,0.4-0.1,0.6-0.1
				c0.5-0.1,0.9-0.2,1.4-0.2c0.7-0.1,1.5-0.1,2.4-0.1C769.4,343.3,767.4,346.1,765.2,349.2z M718.3,322.8c0.1,0.1,0.1,0.3,0.2,0.4
				v0.1C718.5,323.2,718.4,323,718.3,322.8z M717.8,321.9c0,0,0,0.1,0.1,0.1c0.1,0.1,0.1,0.2,0.2,0.3
				C718,322.2,717.9,322,717.8,321.9z M717.2,321c-0.1-0.1-0.2-0.3-0.3-0.4C717,320.7,717.2,320.9,717.2,321l0.3,0.5
				c0.1,0.2,0.2,0.3,0.3,0.4C717.7,321.6,717.5,321.3,717.2,321z M716.3,319.7c0.1,0.2,0.2,0.3,0.3,0.5s0.2,0.3,0.3,0.4
				C716.7,320.2,716.5,320,716.3,319.7z M716.3,319.7c0.1,0.2,0.2,0.3,0.3,0.5s0.2,0.3,0.3,0.4C716.7,320.2,716.5,320,716.3,319.7z
				 M717.8,321.9c0,0,0,0.1,0.1,0.1c0.1,0.1,0.1,0.2,0.2,0.3C718,322.2,717.9,322,717.8,321.9z M717.2,321c-0.1-0.1-0.2-0.3-0.3-0.4
				C717,320.7,717.2,320.9,717.2,321l0.3,0.5c0.1,0.2,0.2,0.3,0.3,0.4C717.7,321.6,717.5,321.3,717.2,321z M718.7,323.9l0.1,0.9l0,0
				C718.8,324.5,718.7,324.2,718.7,323.9z M710.9,336.4c-4.5-0.5-7.2-3.2-9-7c-0.5-1-0.1-2.4-0.1-4.3V325c0,0-0.1,0-0.1,0.1
				c0,0-0.1,0-0.1,0.1l0,0c0,1.9-0.4,3.3,0.1,4.3c1.8,3.8,4.5,6.5,9,7c3.2,0.3,6.5,0.8,11.1,1.4c0.1,0,0.1-0.1,0.2-0.1
				C717.4,337.2,714.1,336.7,710.9,336.4z M731.4,333.2c-0.1,0-0.1,0.1-0.2,0.1h8l0.1-0.1H731.4z M741.8,317.4
				c-0.1,0.7-0.3,1.4-0.5,2l0,0c-0.1,0.4-0.2,0.8-0.4,1.1c0,0.1,0,0.2-0.1,0.3c0,0.2-0.1,0.3-0.1,0.4c0,0.2-0.1,0.3-0.1,0.4
				c-1.2,3.3-2.7,5.5-4.5,6.5c2-1,3.5-3.2,4.7-6.6c0-0.1,0.1-0.2,0.1-0.4c0.4-1.2,0.8-2.5,1.1-3.9
				C741.9,317.4,741.9,317.4,741.8,317.4z M761.2,314.2c-0.4,0.7-0.9,1.4-1.3,2.3h0.1C760.5,315.7,761,314.9,761.2,314.2
				L761.2,314.2z M770.1,323.3c-7.6-2-14.2-1.5-20.2,1.3C755.8,321.8,762.6,321.4,770.1,323.3C770.2,323.4,770.1,323.4,770.1,323.3z
				 M718.7,323.9L718.7,323.9c0-0.1,0-0.2-0.1-0.2c0,0,0,0,0-0.1v-0.1v-0.1c0-0.2-0.1-0.3-0.2-0.5l-0.2-0.5
				c-0.1-0.1-0.1-0.2-0.2-0.3c0,0,0-0.1-0.1-0.1c-0.1-0.1-0.2-0.3-0.3-0.4l-0.3-0.5c-0.1-0.2-0.2-0.3-0.3-0.5l0,0
				c-0.1-0.1-0.2-0.3-0.3-0.4c-0.1-0.2-0.2-0.3-0.3-0.5l0,0c-0.2-0.3-0.4-0.6-0.6-0.9c-0.3-0.5-0.5-0.9-0.7-1.5s-0.3-1.2-0.2-1.9
				c-0.1,0.1-0.2,0.2-0.3,0.2l0,0c0,0,0,0,0,0.1c-0.1,0.1-0.2,0.2-0.3,0.3l0,0c0,0-0.1,0-0.1,0.1c-0.2,0.1-0.3,0.3-0.5,0.4
				c-0.8,0.7-1.6,1.4-2.5,2c-0.3,0.2-0.5,0.4-0.8,0.6c-2.2,1.7-4.4,3.3-6.7,4.8l0,0c0,0,0,0-0.1,0c0,0,0,0-0.1,0
				c-0.1,0.1-0.3,0.2-0.4,0.2c-0.2,0.1-0.5,0.3-0.7,0.4c0,0-0.1,0-0.1,0.1c-0.1,0.1-0.2,0.1-0.3,0.2h0.1c4.6,2.3,7.2,6.9,12.8,5.2
				c1.3-1.8,2.8-3.7,4-5.3l0,0C718.8,324.5,718.7,324.2,718.7,323.9z M780.8,345.5c0.9,1.6,1.3,3.7,1.4,6.2
				c-3.6-0.3-6.8-0.5-11.2-0.9v0.1c4.4,0.3,7.8,0.6,11.4,0.9C782.2,349.3,781.8,347.2,780.8,345.5z M784.2,332.3
				c-2.3-2-4.6-3.9-6.9-5.9c2-0.1,4.3,1,6.3,3.2c-1.4-6.2-2.8-12.4-4.3-18.3h-10.9c-0.1-1.7-0.2-3.1-0.4-5.5c4.1,1.6,7.6,3,11,4.3
				c-0.7-2.9-1.4-5.7-2.1-8.5h-0.1h-0.1c-0.1,0-0.1,0-0.2,0c-0.1,0-0.3,0-0.4,0h-1.4c-1.7-0.1-3.6-0.6-5.5-1.5
				c-2.8-1.3-6.1-1.8-9-2.8c-1.9-0.7-3.7-1.8-5.6-2.7c0.1-0.3,0.1-0.7,0.2-1c5.5-1.8,11-3.5,17.5-5.6l0,0c0.3,0.1,0.7,0.2,1,0.3
				c-0.2-0.9-0.5-1.7-0.7-2.5c-1.1,0.2-2.1,0.5-3.1,0.8c-5.1,1.6-10,3.6-15.2,4.9c-1.3,0.3-2.6,0.6-3.9,0.9
				c-0.4,0.1-0.8,0.2-1.3,0.2c-0.6,0.1-1.1,0.2-1.7,0.3c-1.4,0.2-2.8,0.3-4.2,0.4h-2.8c-1.6-0.1-3.2-0.6-4.8-1.3
				c-0.2-0.1-0.4-0.2-0.7-0.3c-0.2-0.1-0.4-0.2-0.5-0.2s-0.1-0.1-0.2-0.1l-0.9,1.5c-0.3,0.4-0.5,0.9-0.8,1.3
				c-0.3,0.5-0.6,0.9-0.8,1.3s-0.5,0.7-0.7,1.1c-0.2,0.3-0.3,0.5-0.5,0.8c0,0.1-0.1,0.1-0.1,0.2c-0.1,0.2-0.3,0.4-0.4,0.6
				c0,0,0,0,0,0.1c-0.1,0.1-0.1,0.2-0.2,0.2c-0.1,0.1-0.2,0.2-0.3,0.4c-0.3,0.5-0.7,1-1,1.5c0,0,0,0,0,0.1s0,0,0,0s0,0,0,0.1l0,0
				c-0.5,0.6-0.9,1.2-1.4,1.8c-1.6,2.1-3.2,4-5,6c0,0.1-0.1,0.1-0.2,0.1c-0.4,0.4-0.8,0.9-1.3,1.4c-0.1,0.1-0.2,0.2-0.2,0.3
				c0,0,0,0-0.1,0.1c-0.2,0.2-0.4,0.4-0.5,0.5c0,0,0,0.1-0.1,0.1c-0.1,0.1-0.2,0.2-0.4,0.3c-0.4,0.4-0.9,0.8-1.3,1.3
				c-0.4,0.4-0.7,0.7-1.1,1c-0.1,0.1-0.1,0.1-0.2,0.2l0.1,0.1c2.1,2.8,3.9,5.2,5.7,7.5h5.4c-0.1,1.8-0.2,3.5-0.3,5.1l0.1,0.1v0.1
				c3.2,2,5.8,2.6,8.1,1.7c0.1-0.1,0.2-0.1,0.3-0.2c2-1,3.5-3.2,4.7-6.6c0-0.1,0.1-0.2,0.1-0.4c0.4-1.2,0.8-2.5,1.1-3.9
				c5.8-1.6,11.7-2.3,17.8-0.8c0,0,0-0.1,0.1-0.1h0.1c0.5-0.8,1-1.6,1.3-2.3c2.6,0.2,6.2,4.1,8.8,9.1c-7.6-2-14.2-1.5-20.2,1.3
				c-0.4,0.2-0.8,0.4-1.2,0.6c-3.4,1.8-6.6,4.5-9.5,7.9h-7.9c-0.1,0-0.1,0.1-0.2,0.1c-4.3,2-7.3,3.5-9.2,4.5
				c-4.6-0.6-7.9-1.1-11.1-1.4c-4.5-0.5-7.2-3.2-9-7c-0.5-1-0.1-2.4-0.1-4.3v0.2c0,0-0.1,0-0.1,0.1c0,0-0.1,0-0.1,0.1
				c0,0-0.1,0-0.1,0.1c-0.3,0.2-0.6,0.4-0.9,0.5c-0.3,0.2-0.6,0.4-0.9,0.5c-0.1,0-0.1,0.1-0.2,0.1c-0.5,0.3-1,0.5-1.5,0.8
				c-0.2,0.1-0.5,0.3-0.7,0.4c-0.1,0-0.2,0.1-0.2,0.1l0,0l0,0c-0.1,0.1-0.2,0.1-0.4,0.2c-0.1,0-0.2,0.1-0.2,0.2c0,0,0,0-0.1,0
				c-0.1,0.1-0.2,0.1-0.3,0.2h-0.1c-0.1,0-0.2,0.1-0.3,0.1c-0.3,0.1-0.5,0.3-0.8,0.4c-0.5,0.3-1.1,0.5-1.6,0.8
				c-0.4,0.2-0.8,0.4-1.2,0.6c-0.1,0.1-0.3,0.1-0.4,0.2c-0.5,0.2-1,0.5-1.6,0.7l-0.4,0.1c0,0-0.1,0-0.1,0.1l0,0c0,0,0,0-0.1,0l0,0
				c-0.4,0.2-0.9,0.4-1.3,0.6c0.1,0.1,0.1,0.1,0.1,0.2c4.5,6.9,12.4,11.2,19.5,12.2c3.4,0.5,7.1-1,10.6-2c1.9-0.5,3.6-1.7,5-2.3
				c3.6,1.2,6.7,2.3,10,3.4c0,0,0,0.1,0,0.2c-0.2,1.5-0.3,3.1-0.6,4.6c-1.4,6.1-0.8,11.4,1.4,16c0.2,0.4,0.3,0.7,0.5,1.1
				c2,3.7,5,6.9,8.8,9.9c0.9,0.7,1.9,1.3,2.9,2c13.3,8.2,24,5.7,34.9-5.3c3.2-3.2,5.3-7.5,8.1-11.6c0.3,0.1,0.5,0.3,0.8,0.4
				C788.3,351.6,786.3,341.9,784.2,332.3z M779.3,343.6l0.4,0.4c0.3,0.3,0.5,0.6,0.7,0.9c0.2,0.2,0.3,0.4,0.4,0.6l0,0
				c0.9,1.6,1.3,3.7,1.4,6.2c-3.6-0.3-6.8-0.5-11.2-0.9c2.3-3.8,3.8-6.2,5.5-8.8c0.8,0.3,1.5,0.7,2.2,1.2
				C778.9,343.3,779.1,343.5,779.3,343.6z M760.5,345.2c0.2-0.2,0.3-0.4,0.5-0.6c0.2-0.3,0.5-0.5,0.7-0.8c0.2-0.2,0.4-0.4,0.6-0.6
				c1.3-1.2,2.7-2.1,4.3-2.6c0.3-0.1,0.5-0.2,0.8-0.2c0.2,0,0.4-0.1,0.6-0.1c0.5-0.1,0.9-0.2,1.4-0.2c0.7-0.1,1.5-0.1,2.4-0.1
				c-2.5,3.4-4.5,6.2-6.7,9.3c-2-1.3-3.4-2.1-5.2-3.3C760.2,345.6,760.4,345.4,760.5,345.2z M754.3,363.6c-0.5-4.2-0.8-8.3,2.1-12.6
				c1.5,1.4,2.8,2.6,4.4,4.2c-1.9,3.1-3.6,5.9-5.4,8.8C755.1,363.8,754.7,363.7,754.3,363.6z M757.5,369.3c2.1-2.6,4.2-5.2,6.9-8.7
				c1.6,4,2.9,7.1,4.2,10.4C762.5,372.2,761.5,372,757.5,369.3z M774.5,368.3c-2.1-3.1-3.2-6.2-3-10.1c3.3-0.5,6.4-1,10.5-1.6
				C780.3,361.9,778.4,365.6,774.5,368.3z M717.2,321c-0.1-0.2-0.2-0.3-0.3-0.5l0,0l0,0c-0.1-0.1-0.2-0.3-0.3-0.4
				c-0.1-0.2-0.2-0.3-0.3-0.5l0,0c-0.2-0.3-0.4-0.6-0.6-0.9c-0.3-0.5-0.5-0.9-0.7-1.5c0.8,2.7,3.5,4.7,3.6,7.6
				C718.7,323.5,718,322.2,717.2,321z M804.5,452.2c-0.1-2.2-0.3-4.4-0.4-6.5c0-0.1,0-0.1,0-0.2s0-0.2,0-0.3c0-0.3-0.1-0.6-0.1-0.8
				c-0.1-2-0.3-3.9-0.4-5.7l0,0c-9.4-6-19.1-11.5-29.2-16.4c-22.8-10.9-46.5-18.9-71.6-22.8c-12.3-1.9-24.6-4.2-36.4-8.6
				c-3.8-1.4-7.6-3-11.1-4.9c0,0,0,0,0,0.1c2.4,5.6,4.9,11.7,7.4,18.2v0.1c0.2,0.5,0.4,1.1,0.6,1.6c0.3,0.7,0.5,1.4,0.8,2
				c1.9,5,3.8,10.3,5.7,15.8v0.1c0,0,0,0.1,0.1,0.1c1.7-0.6,3.5-1.1,5.2-1.2c8.5-0.4,16.9,0,25.3,1.5c10.3,1.9,20.6,3.4,30.9,5.5
				c6.7,1.4,13.4,3.1,19.9,5.1c3.6,1.1,7.2,2.3,10.8,3.6c4.7,1.7,9.4,3.5,14,5.4c9.7,4.1,19.4,8.4,28.6,13.5h0.1c0,0,0.1,0,0.1,0.1
				v-0.3C804.7,455.5,804.6,453.9,804.5,452.2z M718.7,323.9L718.7,323.9c0-0.1,0-0.2-0.1-0.2c0,0,0,0,0-0.1v-0.1v-0.1
				c0-0.2-0.1-0.3-0.2-0.5l-0.2-0.5c-0.1-0.1-0.1-0.2-0.2-0.3c0,0,0-0.1-0.1-0.1c-0.1-0.1-0.2-0.3-0.3-0.4l-0.3-0.5
				c-0.1-0.2-0.2-0.3-0.3-0.5l0,0c-0.1-0.1-0.2-0.3-0.3-0.4c-0.1-0.2-0.2-0.3-0.3-0.5l0,0c-0.2-0.3-0.4-0.6-0.6-0.9
				c-0.3-0.5-0.5-0.9-0.7-1.5s-0.3-1.2-0.2-1.9c-0.1,0.1-0.2,0.2-0.3,0.2l0,0c0,0,0,0,0,0.1c-0.1,0.1-0.2,0.2-0.3,0.3l0,0
				c0,0-0.1,0-0.1,0.1c-0.2,0.1-0.3,0.3-0.5,0.4c-0.8,0.7-1.6,1.4-2.5,2c-0.3,0.2-0.5,0.4-0.8,0.6c-2.2,1.7-4.4,3.3-6.7,4.8l0,0
				c0,0,0,0-0.1,0c0,0,0,0-0.1,0c-0.1,0.1-0.3,0.2-0.4,0.2c-0.2,0.1-0.5,0.3-0.7,0.4c0,0-0.1,0-0.1,0.1c-0.1,0.1-0.2,0.1-0.3,0.2
				h0.1c4.6,2.3,7.2,6.9,12.8,5.2c1.3-1.8,2.8-3.7,4-5.3l0,0C718.8,324.5,718.7,324.2,718.7,323.9z"/>
		</g>
		<path class="st9" d="M726.8,598.8c-8.9,0.4-14.2-1.2-14.2-1.2s-20.7-5.1-41.6-24c-5.5-5-11-10.9-16.2-17.9
			c-24.7-33.7-56.6-129.2-56.6-129.2s-2.2-3-5.7-5.3c-2.8-1.8-5.1-2.4-6-2.5H221l-0.1-0.1h-2c0,0-0.2,0-0.5,0.1
			c-1,0.2-3.2,0.8-5.8,2.5c-3.5,2.3-5.7,5.3-5.7,5.3S175,522,150.3,555.7c-5.2,7-10.7,13-16.2,17.9c-20.9,18.8-41.6,24-41.6,24
			s-5.3,1.6-14.2,1.2C107,511,125,451.1,140.4,409.9c15.2-40.7,27.8-63.2,45.7-76.5c0.2-0.2,0.4-0.3,0.7-0.5c4.2-3.1,8-5.5,11.1-7.4
			c6-3.6,9.6-5.1,9.6-5.1h2.1c-0.2,0.2-0.3,0.5-0.5,0.8c0.4-0.3,0.7-0.5,1.1-0.8h387.6c0,0,4.4,1.9,11.7,6.4
			c2.6,1.6,5.6,3.6,8.8,5.9c0.1,0,0.1,0.1,0.2,0.2C654.9,359.3,669.4,423.3,726.8,598.8z"/>
		<path class="st10" d="M220.9,418.6L220.9,418.6l-2.5,0.1c0.3-0.1,0.5-0.1,0.5-0.1H220.9z"/>
		<path class="st11" d="M210.1,320.4c-0.3,0.3-0.7,0.5-1.1,0.8c0.2-0.3,0.3-0.5,0.5-0.8H210.1z"/>
		<g class="st12">
			<path class="st8" d="M804.8,457.6c1,21.3,1.2,43.2,1.2,49.4c-0.1-7.2-0.3-23.8-1-41c0-0.3,0-0.6,0-1c-0.1-2.5-0.2-5-0.3-7.5
				c-0.3-6.5-0.7-13-1.2-18.9c-0.6-7.2-1.3-13.5-2.1-18.1c-1.4-7.5-5.6-31.8-11.2-59.7c-1.9-9.3-3.9-19-6-28.6
				c-0.2-0.9-0.4-1.8-0.6-2.7c-1.4-6.2-2.8-12.4-4.3-18.3c-0.1-0.4-0.2-0.8-0.3-1.1c-0.7-2.9-1.4-5.7-2.1-8.5
				c-1.2-4.6-2.4-9.1-3.6-13.3c-0.2-0.9-0.5-1.7-0.7-2.5c-1-3.5-2.1-6.9-3.1-10c-9.3-27.7-13-53-17-64.9c-0.3-0.9-0.6-1.9-1-2.8
				c-2.1-6-4.5-11.8-6.9-17.4c-11.5-26.1-25.1-45.5-25.1-45.5s-9.5-13-10.1-16.3s-4.7-8.6-4.7-8.6s-17.4-5.7-62.3-5.7
				c-44.9,0-53.7,5-53.7,5s-2.4,3-5.9,4.8c-3.5,1.9-11.7,1.7-11.7,1.7h-33.4c0,0-0.5-0.1-0.9,0.3c-0.3,0.3-0.6,2-0.6,2H269.9
				c0,0-0.2-1.6-0.6-2c-0.3-0.4-0.9-0.3-0.9-0.3H235c0,0-8.2,0.1-11.7-1.7c-3.5-1.9-5.9-4.8-5.9-4.8s-8.8-5-53.7-5
				s-62.3,5.7-62.3,5.7s-4.1,5.3-4.7,8.6c-0.6,3.2-10.1,16.3-10.1,16.3s-21,30-33,65.7c-3.9,11.9-7.6,37.2-17,64.9
				C22.3,317.9,7.6,405,4.7,420.4c-3.9,20.2-4.6,73.9-4.7,87.2c0.1-8.6,0.6-67.7,4.6-89c2.9-15.5,17.7-102.5,32-144.6
				c9.3-27.7,13-53,17-64.9c12-35.7,33-65.7,33-65.7s9.5-13,10.1-16.3s4.7-8.6,4.7-8.6s17.4-5.7,62.3-5.7c32.9,0,46.4,2.7,51.3,4.1
				l0,0c0.1,0,0.3,0.1,0.4,0.1c0.1,0,0.2,0.1,0.3,0.1h0.1c1.1,0.4,1.6,0.6,1.6,0.6s2.4,3,5.9,4.8c0.4,0.2,0.8,0.4,1.2,0.5h0.1
				c3.9,1.3,10.4,1.1,10.4,1.1h33.4c0,0,0.1,0,0.3,0c0.2,0,0.4,0.1,0.6,0.3c0.3,0.3,0.5,1.5,0.6,1.9c0,0.1,0,0.1,0,0.1h266.2
				c0,0,0.2-1.6,0.6-2c0.3-0.4,0.9-0.3,0.9-0.3H571c0,0,8.2,0.1,11.7-1.7c3.5-1.9,5.9-4.8,5.9-4.8s8.8-5,53.7-5
				c44.2,0,61.8,5.5,62.3,5.7l0,0c0,0,0,0.1,0.1,0.1c0,0.1,0.1,0.1,0.1,0.2c0.1,0.1,0.1,0.2,0.2,0.3c1.1,1.5,3.8,5.4,4.3,8
				c0.6,3.2,10.1,16.3,10.1,16.3s14.2,20.3,25.9,47.3c2.4,5.5,4.7,11.4,6.8,17.4c0.1,0.3,0.2,0.7,0.3,1c3.9,11.9,7.6,37.2,17,64.9
				c1.2,3.6,2.5,7.6,3.7,11.8c0.3,0.9,0.5,1.8,0.8,2.8c1.2,4.1,2.3,8.5,3.5,13c0.7,2.8,1.5,5.8,2.2,8.7c0,0.2,0.1,0.4,0.1,0.6
				c1.5,6.3,3,12.8,4.5,19.3c0.2,0.8,0.4,1.7,0.5,2.5c2.1,9.5,4.1,19.2,5.9,28.3c5.4,27,9.4,50.3,10.8,57.6c0.9,5,1.7,12.1,2.3,20.1
				C804.2,444.7,804.5,451.2,804.8,457.6z"/>
			<path class="st8" d="M806.1,508.8c0-0.3,0-0.6,0-1C806.1,508.5,806.1,508.8,806.1,508.8z"/>
		</g>
		<path class="st13" d="M351.1,362c0.1,0.7,0.1,1.3,0.1,2c0,21.5-8.9,40.9-23.1,54.8c-13.8,13.4-32.6,21.7-53.4,21.7
			c-17.4,0-33.4-5.8-46.2-15.6c-2.5-1.9-5-4-7.2-6.2c-7.1-7-12.8-15.3-16.8-24.5c-4-9.3-6.2-19.5-6.2-30.2c0-0.7,0.1-1.3,0.1-2
			c-0.1-0.7-0.1-1.3-0.1-2c0-13.7,3.6-26.6,10-37.7c0.1-0.1,0.1-0.2,0.2-0.3c0.1-0.2,0.2-0.3,0.3-0.5c0.1-0.1,0.1-0.2,0.2-0.3
			c0.2-0.3,0.3-0.5,0.5-0.8c3.1-5.2,6.8-9.9,11-14.2c3.1-3.2,6.6-6.1,10.2-8.7c0.8-0.5,1.6-1.1,2.4-1.6c0.2-0.1,0.3-0.2,0.5-0.3
			c-4.3,2.9-8.3,6.3-11.9,10.1c-4.1,4.3-7.6,9.1-10.5,14.2c-6,10.6-9.5,22.9-9.5,36c0,40.3,32.7,73,73,73s73-32.7,73-73
			c0-26.2-13.9-49.2-34.6-62.1c22.8,13.2,38.2,38,38.2,66.2C351.2,360.6,351.1,361.3,351.1,362z"/>
		<path class="st13" d="M347.7,356c0,40.3-32.7,73-73,73s-73-32.7-73-73c0-13.1,3.4-25.4,9.5-36c2.9-5.2,6.5-10,10.5-14.2
			c3.6-3.8,7.6-7.2,11.9-10.1c1.5-1,3-1.9,4.5-2.7c10.9-6,23.4-9.4,36.7-9.4s25.8,3.4,36.7,9.4c0.5,0.3,1,0.6,1.6,0.9
			C333.8,306.8,347.7,329.8,347.7,356z"/>
		<path class="st14" d="M347.7,356c0,40.3-32.7,73-73,73s-73-32.7-73-73c0-13.1,3.4-25.4,9.5-36c2.9-5.2,6.5-10,10.5-14.2
			c3.6-3.8,7.6-7.2,11.9-10.1c11.7-8,25.9-12.7,41.1-12.7c14.1,0,27.2,4,38.4,10.9C333.8,306.8,347.7,329.8,347.7,356z"/>
		<circle cx="274.7" cy="356" r="51.5"/>
		<path class="st13" d="M607.7,362c0.1,0.7,0.1,1.3,0.1,2c0,42.2-34.3,76.5-76.5,76.5s-76.5-34.3-76.5-76.5c0-0.7,0.1-1.3,0.1-2
			c-0.1-0.7-0.1-1.3-0.1-2c0-42.2,34.3-76.5,76.5-76.5c21.2,0,40.4,8.6,54.2,22.6c4.3,4.3,8,9.1,11.2,14.3
			c7,11.6,11.1,25.1,11.1,39.6C607.8,360.6,607.8,361.3,607.7,362z"/>
		<circle cx="531.3" cy="356" r="51.5"/>
		<path class="st8" d="M553,131.3L534.9,261c-1.4,7.9-4.9,13.1-12.9,15.4c-1.7,0.5-3.5,0.7-5.3,0.7H289.4c-1.9,0-3.8-0.3-5.5-0.9
			c-6.9-2.4-11.6-7.8-12.7-15.2L253,131.3c-0.1-0.7,0-1.4,0.1-2.1c0.4-3.2,3.3-5.6,6.5-5.6h286.7c3.2,0,6.1,2.4,6.5,5.6
			C553,129.9,553.1,130.6,553,131.3L553,131.3z"/>
		<path class="st9" d="M746.6,244.8c0,52.1-42.2,94.3-94.3,94.3c-12,0-23.5-2.2-34.1-6.3c-12.3-8.8-20.5-12.3-20.5-12.3H596
			c-0.5-0.4-1-0.8-1.5-1.2c-5.3-9.1-12.5-16.9-21.1-22.9c-9.7-14.8-15.3-32.5-15.3-51.5c0-52.1,42.2-94.3,94.3-94.3
			C704.4,150.5,746.6,192.7,746.6,244.8z"/>
		<g>
			<path class="st9" d="M248,244.8c0,1.9-0.1,3.8-0.2,5.7l0,0c-0.8,13.6-4.5,26.4-10.5,37.9l0,0c-1.4,2.7-2.9,5.2-4.5,7.7
				c-0.7,0.5-1.4,1-2.1,1.5c-3.7,2.6-7.1,5.5-10.2,8.7c-4.2,4.2-7.9,9-11,14.2h-2.1c0,0-3.6,1.5-9.6,5.1c-3.1,1.9-6.9,4.3-11.1,7.4
				c-0.2,0.2-0.4,0.3-0.7,0.5c-2.3,0.9-4.7,1.6-7.2,2.3l0,0c-8,2.2-16.4,3.4-25.2,3.4c-8.7,0-17-1.2-25-3.4
				c-5.8-1.6-11.4-3.7-16.8-6.4l0,0c-12.4-6.1-23.3-15-31.9-25.7c-4.1-5.1-7.7-10.7-10.6-16.6l0,0c0,0,0-0.1-0.1-0.1l0,0
				c0-0.1,0-0.2-0.1-0.2c-0.5-1-1-2.1-1.5-3.1c-4.5-10-7.4-21-8.1-32.5l0,0c-0.1-2.1-0.2-4.2-0.2-6.3c0-3.8,0.2-7.6,0.7-11.3
				c0.2-1.7,0.4-3.3,0.7-5c0-0.3,0.1-0.5,0.1-0.8c3.6-19.7,13.3-37.2,27-50.6l0,0c7.9-7.7,17.1-14,27.3-18.5
				c5.4-2.4,11.1-4.4,17-5.7c0.6-0.1,1.2-0.3,1.8-0.4c1-0.2,2.1-0.4,3.1-0.6c2.1-0.4,4.3-0.7,6.5-0.9c1.2-0.1,2.3-0.2,3.5-0.3
				c2.1-0.1,4.2-0.2,6.4-0.2c7.5,0,14.9,0.9,21.9,2.5c5.7,1.4,11.3,3.2,16.5,5.6c10.7,4.8,20.3,11.4,28.4,19.6
				c4.9,4.9,9.2,10.3,12.9,16.2c0,0,0,0,0,0.1c7.2,11.4,12,24.5,13.8,38.5C247.8,236.8,248,240.8,248,244.8z"/>
			<path class="st15" d="M230.4,254.1l9.5-8.9c0.5-0.5,0.5-1.2,0-1.7l-9.5-8.9c-0.7-0.7-1.9-0.2-1.9,0.8v17.8
				C228.4,254.2,229.6,254.7,230.4,254.1L230.4,254.1z"/>
			<path class="st15" d="M145,169.8h17.8c1,0,1.5-1.2,0.8-1.9l-8.9-9.5c-0.5-0.5-1.2-0.5-1.7,0l-8.9,9.5
				C143.5,168.6,144,169.8,145,169.8L145,169.8z"/>
			<path class="st15" d="M77.5,234.6l-9.5,8.9c-0.5,0.5-0.5,1.2,0,1.7l9.5,8.9c0.7,0.7,1.9,0.2,1.9-0.8v-17.8
				C79.4,234.4,78.2,233.9,77.5,234.6L77.5,234.6z"/>
			<path class="st15" d="M162.8,318.8H145c-1,0-1.5,1.2-0.8,1.9l8.9,9.5c0.5,0.5,1.2,0.5,1.7,0l8.9-9.5
				C164.3,320,163.8,318.8,162.8,318.8L162.8,318.8z"/>
		</g>
	</g>
</g>
<g>
	<g>
		<path class="st8" d="M240.5,146.6c3.6,0,6.6,3,6.6,6.6v9.7c0,3.6-3,6.6-6.6,6.6s-6.6-3-6.6-6.6v-9.7
			C233.9,149.5,236.9,146.6,240.5,146.6 M240.5,145.7c-4.1,0-7.5,3.4-7.5,7.5v9.7c0,4.1,3.4,7.5,7.5,7.5s7.5-3.4,7.5-7.5v-9.7
			C248,149,244.6,145.7,240.5,145.7L240.5,145.7z"/>
		<path class="st6" d="M240.5,146.6c-3.6,0-6.6,3-6.6,6.6v9.7c0,3.6,3,6.6,6.6,6.6s6.6-3,6.6-6.6v-9.7
			C247.1,149.5,244.1,146.6,240.5,146.6z"/>
	</g>
	<g>
		<path class="st8" d="M565.5,146.6c3.6,0,6.6,3,6.6,6.6v9.7c0,3.6-3,6.6-6.6,6.6s-6.6-3-6.6-6.6v-9.7
			C558.9,149.5,561.9,146.6,565.5,146.6 M565.5,145.7c-4.1,0-7.5,3.4-7.5,7.5v9.7c0,4.1,3.4,7.5,7.5,7.5s7.5-3.4,7.5-7.5v-9.7
			C573,149,569.6,145.7,565.5,145.7L565.5,145.7z"/>
		<path class="st6" d="M565.5,146.6c-3.6,0-6.6,3-6.6,6.6v9.7c0,3.6,3,6.6,6.6,6.6s6.6-3,6.6-6.6v-9.7
			C572.1,149.5,569.1,146.6,565.5,146.6z"/>
	</g>
</g>
<g>
	<g>
		<circle cx="403" cy="294.1" r="4.1"/>
		<circle cx="396.1" cy="304.3" r="4.1"/>
		<circle cx="381.4" cy="304.3" r="4.1"/>
		<circle cx="388.7" cy="294.1" r="4.1"/>
		<circle cx="374.4" cy="294.1" r="4.1"/>
	</g>
	<g>
		<circle cx="409.9" cy="304.3" r="4.1"/>
		<circle cx="424.6" cy="304.3" r="4.1"/>
		<circle cx="417.2" cy="294.1" r="4.1"/>
		<circle cx="431.6" cy="294.1" r="4.1"/>
	</g>
</g>
<g class="st16">
	<path class="st8" d="M403,299.6c2.3,0,4.1-1.8,4.1-4.1c0-0.2,0-0.3-0.1-0.5c-0.2,2-2,3.6-4.1,3.6s-3.8-1.6-4.1-3.6
		c0,0.2-0.1,0.3-0.1,0.5C398.9,297.7,400.7,299.6,403,299.6L403,299.6z"/>
	<path class="st8" d="M400.2,305.7c0-0.2,0-0.3-0.1-0.5c-0.2,2-2,3.6-4.1,3.6s-3.8-1.6-4.1-3.6c0,0.2-0.1,0.3-0.1,0.5
		c0,2.3,1.8,4.1,4.1,4.1C398.3,309.8,400.2,308,400.2,305.7L400.2,305.7z"/>
	<path class="st8" d="M385.4,305.2c-0.2,2-2,3.6-4.1,3.6s-3.8-1.6-4.1-3.6c0,0.2-0.1,0.3-0.1,0.5c0,2.3,1.8,4.1,4.1,4.1
		s4.1-1.8,4.1-4.1C385.5,305.5,385.5,305.4,385.4,305.2z"/>
	<path class="st8" d="M388.8,299.6c2.3,0,4.1-1.8,4.1-4.1c0-0.2,0-0.3-0.1-0.5c-0.2,2-2,3.6-4.1,3.6s-3.8-1.6-4.1-3.6
		c0,0.2-0.1,0.3-0.1,0.5C384.6,297.7,386.5,299.6,388.8,299.6L388.8,299.6z"/>
	<path class="st8" d="M378.6,295.5c0-0.2,0-0.3-0.1-0.5c-0.2,2-2,3.6-4.1,3.6s-3.8-1.6-4.1-3.6c0,0.2-0.1,0.3-0.1,0.5
		c0,2.3,1.8,4.1,4.1,4.1S378.6,297.7,378.6,295.5L378.6,295.5z"/>
	<path class="st8" d="M414,305.2c-0.2,2-2,3.6-4.1,3.6s-3.8-1.6-4.1-3.6c0,0.2-0.1,0.3-0.1,0.5c0,2.3,1.8,4.1,4.1,4.1
		s4.1-1.8,4.1-4.1C414.1,305.5,414,305.4,414,305.2z"/>
	<path class="st8" d="M424.6,308.8c-2.1,0-3.8-1.6-4.1-3.6c0,0.2-0.1,0.3-0.1,0.5c0,2.3,1.8,4.1,4.1,4.1s4.1-1.8,4.1-4.1
		c0-0.2,0-0.3-0.1-0.5C428.5,307.3,426.7,308.8,424.6,308.8z"/>
	<path class="st8" d="M417.3,299.6c2.3,0,4.1-1.8,4.1-4.1c0-0.2,0-0.3-0.1-0.5c-0.2,2-2,3.6-4.1,3.6s-3.8-1.6-4.1-3.6
		c0,0.2-0.1,0.3-0.1,0.5C413.1,297.7,415,299.6,417.3,299.6L417.3,299.6z"/>
	<path class="st8" d="M431.6,298.6c-2.1,0-3.8-1.6-4.1-3.6c0,0.2-0.1,0.3-0.1,0.5c0,2.3,1.8,4.1,4.1,4.1s4.1-1.8,4.1-4.1
		c0-0.2,0-0.3-0.1-0.5C435.4,297,433.7,298.6,431.6,298.6z"/>
</g>
<path class="st17" d="M423.2,400.8c0,1-0.9,2.2-2.4,2.2h-35.6c-1.5,0-2.4-1.2-2.4-2.2c0-1.4,0.3-2.6,1-3.5s2-1.5,3.9-1.5h30.6
	c1.9,0,3.1,0.5,3.9,1.5C422.9,398.2,423.2,399.4,423.2,400.8z"/>
<g>
	<path class="st6" d="M543.9,124.9l-3,22.1l-14.6,106.5v0.8c-0.1,1.3-0.3,2.6-0.7,3.8c0,0.1-0.1,0.3-0.1,0.4
		c-2.1,6.1-7.9,10.6-14.8,10.6H295.1c-7.1,0-13.2-4.8-15-11.4c0-0.1-0.1-0.3-0.1-0.4c-0.1-0.2-0.1-0.4-0.2-0.7
		c-0.2-1-0.3-2.1-0.3-3.1l-0.7-5L264.9,147l-3-22.1c0-1,0.8-1.9,1.9-1.9l139.1-0.6L542,123C543.1,123,543.9,123.9,543.9,124.9
		L543.9,124.9z"/>
	<g class="st18">
		<path class="st19" d="M331.8,243.4c-4.9-0.6-9.1-2.6-12.7-5.9c-3.6-3.4-5.9-7.5-6.8-12.3c-0.4-2-0.5-4-0.4-6.1
			c0.1-1.7,0.4-3.4,0.9-5c0.1-0.4,0.1-0.7,0.1-1.1c0.3,0,0.3-0.3,0.4-0.4c0.2-0.4,0.4-0.9,0.6-1.3c0.3-0.8,0.8-1.6,1.2-2.4
			c0.4-0.6,0.8-1.2,1.2-1.8c0.4-0.7,1-1.3,1.5-1.9c0.6-0.6,1.2-1.3,1.9-1.8c0.5-0.3,0.9-0.7,1.3-1.1c0.2-0.1,0.4-0.2,0.6-0.4
			c0.6-0.5,1.2-0.8,1.9-1.2c0.5-0.3,1.1-0.6,1.6-0.8c1.1-0.5,2.1-0.9,3.2-1.2c0.9-0.2,1.8-0.5,2.7-0.6c0.5-0.1,1-0.2,1.5-0.1
			c0.1,0,0.2,0,0.3,0c0.3-0.1,0.6-0.1,1-0.1c0.5,0,0.9,0,1.4,0c0.1,0,0.3,0,0.4,0c0.5,0.2,1.1,0.1,1.7,0.2c0.4,0.1,0.9,0.1,1.3,0.2
			c0.5,0.1,1.1,0.2,1.6,0.4c1,0.2,1.9,0.6,2.9,1c0.6,0.3,1.3,0.6,1.9,0.9c1,0.6,2,1.2,3,1.9c0.2,0.2,0.4,0.4,0.7,0.5
			c0.4,0.3,0.8,0.7,1.2,1c0.6,0.5,1.1,1.1,1.6,1.7c0.4,0.5,0.8,0.9,1.2,1.5c0.9,1.3,1.8,2.7,2.4,4.2c0.5,1.2,1,2.4,1.3,3.7
			c0.3,1.1,0.6,2.3,0.6,3.4c0,0.1,0,0.1,0,0.2c0.1,0.2,0.1,0.5,0.1,0.7c0,1.1,0,2.2,0,3.3c0,0.2-0.1,0.3-0.1,0.5
			c-0.9,9.3-7.4,17.2-16.3,19.7c-1.2,0.3-2.4,0.6-3.6,0.7c-0.4,0-0.8,0-1.2,0.1c-0.8,0-1.7,0-2.5,0c-0.1,0-0.2-0.1-0.2-0.1
			c-0.2,0-0.4,0-0.6,0C332.2,243.4,332,243.4,331.8,243.4z M352.5,220.4c0-1-0.1-2.2-0.3-3.3c-0.7-3.4-2.1-6.3-4.4-8.9
			c-4.1-4.6-10.3-6.8-16.4-5.8c-3.2,0.5-6.1,1.9-8.6,4c-4.4,3.7-6.9,9.4-6.5,15.3c0.1,1.9,0.5,3.8,1.2,5.6
			c2.9,7.5,10.5,12.4,18.7,11.6c1.8-0.2,3.6-0.6,5.3-1.4C347.8,234.8,352.5,228.4,352.5,220.4z"/>
		<path class="st20" d="M305.3,158.4c-0.4,0.1-0.9,0.1-1.3,0.2c-0.3,0-0.6,0.1-0.9,0.1c-0.9,0-1.6-0.4-2-1.2c-1.7-3-3.5-6-5.2-9.1
			c-0.1-0.1-0.1-0.3-0.2-0.4h-0.1c0-0.2,0-0.4,0-0.5c0.1-0.1,0.1-0.1,0.2-0.2c0.1-0.1,0.2-0.2,0.2-0.3c0.3,0,0.6,0,1,0
			c1.5,0.2,3,0.5,4.4,0.8c3.4,0.7,6.9,1.6,10.3,2.4c1.6,0.4,3.2,0.7,4.8,1.2c4.5,1.2,9,2.7,13.3,4.4c0.2,0.1,0.5,0.1,0.6,0.4
			c0,0.2-0.1,0.4-0.2,0.5c-0.2,0.3-0.5,0.6-0.8,0.9c-0.2,0.3-0.5,0.5-0.8,0.7c-0.3,0.3-0.6,0.5-0.9,0.6c-0.3,0.2-0.7,0.3-1.1,0.3
			c-0.7,0.1-1.5,0-2.2-0.1c-0.2,0-0.5-0.1-0.7-0.1c-0.4-0.1-0.7-0.1-1.1-0.2c-0.2,0-0.4-0.1-0.6-0.2c-0.3-0.1-0.6-0.1-0.9,0
			c0,0.2,0,0.4,0,0.5c0.2,1.2,0.7,2.2,1.4,3.2c0.1,0.1,0.2,0.1,0.3,0.2c0,0.2,0.1,0.3,0.1,0.4c0.3,0.5,0.7,1,1,1.5
			c0.1,0.2,0.3,0.4,0.4,0.5s0.2,0.2,0.3,0.1c0.1,0.1,0.2,0.2,0.3,0.3c0.3,0.3,0.6,0.5,0.9,0.8c1,1,2,1.9,3,2.9l0.1,0.1
			c0.6,0.5,1.3,1.1,1.9,1.6c0.7,0.5,1.3,1,2.1,1.4c0.3,0.2,0.6,0.3,0.9,0.3c0.1,0,0.1,0,0.2-0.1c0,0,0,0,0.1,0
			c0.5,0.2,0.9,0.4,1.5,0.4c0,0.1,0.1,0.2,0.2,0.2c0.4,0.1,0.8,0.2,1.1,0.3c0.6,0.2,1.2,0.4,1.8,0.6c0.3,0.1,0.5,0.3,0.4,0.6
			c0,0.2,0,0.4,0,0.5c0,0.2,0.1,0.3,0.1,0.5c-0.2,0.6-0.6,0.8-1.2,0.7c-0.2,0-0.4,0-0.6,0c-0.6-0.1-1.3-0.1-1.9-0.2
			c-1.4-0.1-2.8-0.2-4.2-0.3c-0.1,0-0.3,0-0.4,0s-0.2,0.1-0.3,0.2c0,0.1-0.1,0.2-0.1,0.3c0,0.7-0.1,1.5-0.1,2.2c0,0.3,0,0.6,0.1,0.9
			c-1.1-0.2-2.3-0.4-3.4-0.7c-0.5-0.1-1-0.2-1.5-0.3c0-1.3,0-2.6-0.1-3.9c-0.1-0.6-0.1-1.2-0.5-1.7c0-0.1-0.1-0.2-0.1-0.3
			c-0.6-0.9-1.3-1.8-1.9-2.7c-0.5-0.7-1-1.4-1.5-2.1c-0.5-0.6-1-1.2-1.5-1.8c-1.2-1.5-2.4-3-3.4-4.7c-0.4-0.6-0.7-1.3-0.7-2
			c0-0.1,0-0.2-0.1-0.3c0-0.4,0-0.9,0-1.4c-0.3-0.1-0.5-0.1-0.7-0.1c-0.6,0-1.3,0-1.9-0.1c-0.5-0.1-1-0.1-1.4,0.1
			c-0.1,0-0.3,0-0.4,0c-0.4,0-0.8,0-1.1,0c-0.1,0-0.3,0-0.4,0c-0.3,0.1-0.6,0.1-0.9,0.1c-0.1,0-0.3,0-0.4,0c-0.5,0.1-1,0.1-1.5,0.2
			C306.3,158.3,305.8,158.3,305.3,158.4z"/>
		<path class="st21" d="M504.9,226.3c-0.1,0.1-0.1,0.3-0.1,0.4c0,0.3-0.1,0.6-0.3,0.8c-0.3,0.4-0.7,0.7-1.2,0.6
			c-1-0.1-2-0.3-2.9-0.9c0,0-0.1,0-0.2-0.1c0,0.1-0.1,0.2-0.1,0.3c-0.3,0.7-0.7,1.3-1.2,1.9c-0.4,0.5-0.9,0.7-1.6,0.7
			s-1.4-0.1-2-0.2c-2.1-0.4-4.1-1.1-6-2.1c-1.5-0.7-2.9-1.4-4.4-2.1c-0.2-0.1-0.3-0.2-0.5-0.2c0-0.3,0.1-0.6,0.1-1
			c0-0.5,0.1-1-0.1-1.4c0-0.1,0-0.3,0-0.5c0.1,0,0.2,0.1,0.3,0.1c1.4,0.6,2.8,1.3,4.1,2.1c0.2,0.1,0.3,0.2,0.5,0.2
			c0.3-0.6,0.5-1.2,0.6-1.8c0-0.1,0.1-0.1,0.1-0.2c0.6-1.6,1.2-3.2,1.7-4.8c0.9-2.4,1.7-4.8,2.6-7.2c0.1-0.1,0.1-0.3,0.3-0.4
			c0.4,0,0.8,0.2,1.2,0.5c0.3,0.2,0.6,0.5,0.9,0.8c0.1,0.1,0.2,0.1,0.2,0.2c0.2-0.1,0.2-0.3,0.3-0.4c0.2-0.7,0.3-1.4,0.5-2.1
			c0.1-0.3,0-0.4-0.3-0.5c-1.2-0.5-2.2-1.3-3.2-2.1c-0.1-0.1-0.1-0.1-0.1-0.2c0.1,0,0.2,0,0.4,0.1c2,0.8,4,1.6,5.9,2.4
			c0.3,0.1,0.6,0.2,0.9,0.1c0.6-0.1,1.3,0,1.9,0.2c0.2,0.1,0.5,0.2,0.7,0.4c0.3,0.2,0.5,0.5,0.5,0.9c0,0.3,0,0.5,0,0.8
			c0,1.3-0.1,2.6-0.2,3.9c-0.1,1-0.2,1.9-0.3,2.8c0,0.1,0,0.2-0.1,0.3c-0.1,0.5-0.4,0.7-0.9,0.9c-0.2,0-0.3,0-0.5,0.1
			c-0.3,0.9-0.5,1.9-0.8,2.8c0.1,0.1,0.3,0,0.4,0c0.6-0.1,1.3-0.1,1.9,0c0.3,0,0.6,0.2,0.9,0.4c0,0,0.1,0,0.1,0.1
			C504.9,224.2,504.9,225.2,504.9,226.3z M496.1,218c-0.5,2-0.9,4-1.3,6v0.1c0.6-0.5,1-1.1,2-3.2c0.6-1.1,0.8-1.9,0.9-2.5
			C497.2,218.3,496.7,218.2,496.1,218z"/>
		<path class="st22" d="M295.9,147c-0.1,0.1-0.2,0.2-0.2,0.3c-0.1,0.1-0.1,0.1-0.2,0.2c0-0.2,0-0.4,0-0.5
			C295.6,147,295.8,147,295.9,147L295.9,147z"/>
		<path class="st23" d="M335.7,243.5c0.4-0.1,0.8-0.1,1.2-0.1v0.1C336.5,243.5,336.1,243.5,335.7,243.5z"/>
		<path class="st23" d="M295.9,147v-0.1c0.3,0,0.7,0,1,0v0.1C296.6,147,296.2,147,295.9,147z"/>
		<path class="st24" d="M332.4,243.4c0.2,0,0.4,0,0.6,0c0.1,0,0.2,0.1,0.2,0.1c-0.3,0-0.6,0-0.9,0
			C332.4,243.4,332.4,243.4,332.4,243.4z"/>
		<path class="st23" d="M332.4,243.4v0.1c-0.2,0-0.4,0-0.5,0v-0.1C332,243.4,332.2,243.4,332.4,243.4z"/>
		<path class="st25" d="M494.2,206.8c0,0.1,0.1,0.2,0.1,0.2c1,0.8,2,1.6,3.2,2.1c0.3,0.1,0.4,0.2,0.3,0.5c-0.2,0.7-0.3,1.4-0.5,2.1
			c0,0.1-0.1,0.3-0.3,0.4c-0.1-0.1-0.2-0.1-0.2-0.2c-0.3-0.3-0.6-0.6-0.9-0.8c-0.3-0.3-0.7-0.4-1.2-0.5c-0.2,0.1-0.2,0.3-0.3,0.4
			c-0.9,2.4-1.7,4.8-2.6,7.2c-0.6,1.6-1.2,3.2-1.7,4.8c0,0.1-0.1,0.2-0.1,0.2c-0.3,0.3-0.6,0.3-0.9,0.1c-0.1-0.1-0.2-0.1-0.3-0.2
			c-1.3-0.8-2.7-1.5-4.1-2.1c-0.2-0.1-0.3-0.1-0.5-0.2c0-0.1,0-0.1,0-0.2c-0.6-3.5-2-6.5-4.3-9.2c-4.4-5.2-11.1-7.6-17.7-6.5
			c-3.4,0.6-6.3,2-8.9,4.2c-0.8,0.7-1.6,1.4-2.3,2.3c-0.1,0.1-0.2,0.3-0.5,0.4c-0.1,0-0.2,0-0.3,0c-1.1,0-2.1,0.1-3.2,0.1
			c-1.4,0.1-2.7,0.2-4.1,0.3c-1,0.1-1.9,0.1-2.9,0.3c-1.6,0.2-3.2,0.4-4.8,0.6c-1.3,0.2-2.6,0.5-3.9,0.9c-1.7,0.5-3.3,1.1-4.9,1.7
			c-4.1,1.5-8.2,3.2-12.3,4.9c-0.6,0.2-1.2,0.5-1.8,0.8c-0.1,0-0.2,0.1-0.3,0.2c-0.3,0-0.6,0.1-0.8,0.2c-1.6,0.7-3.2,1.3-4.7,2
			c-1.5,0.6-3,1.3-4.5,2c-1.7,0.8-3.5,1.5-5.2,2.3c-0.1,0-0.2,0.1-0.3,0.1c0.1-0.4,0.1-0.7-0.1-1.1c-0.1-0.2-0.3-0.3-0.4-0.4
			c-0.3-0.2-0.6-0.3-1-0.4c-0.7-0.2-1.5-0.3-2.3-0.3s-1.6,0-2.3,0c-0.1,0-0.3,0-0.4,0c-0.8,0.1-1.5,0.1-2.3,0.2c-0.5,0-1,0-1.5-0.1
			c-1.1-0.1-2-0.4-3-0.9c-1.4-0.7-2.5-1.6-3.6-2.6c-0.9-0.9-1.8-1.7-2.6-2.7c-0.9-1.1-1.9-2.2-2.8-3.3c-1.3-1.6-2.5-3.2-3.7-4.8
			c-1.8-2.3-3.4-4.7-5.3-6.9c-0.6-0.8-1.3-1.5-2-2.2c-0.4-0.3-0.8-0.7-1.2-0.9c-0.3-0.1-0.6-0.3-0.9-0.2c-0.4,0-0.8,0.1-1.2,0.3
			c-0.1,0.1-0.2,0.2-0.3,0.3c-0.1-0.1-0.1-0.1-0.2-0.2c-0.9-1-1.9-1.9-2.8-2.9c-0.1-0.1-0.1-0.1-0.2-0.2l0.1-0.1
			c1.6-0.5,3.3-1.1,4.9-1.4c0.9-0.2,1.9-0.2,2.9-0.2c0.1,0,0.3,0,0.4,0c1.3,0.2,2.6,0.7,3.8,1.4c0.2,0.1,0.4,0.2,0.6,0.3
			c0.1-0.1,0.2-0.2,0.3-0.3c0.1-0.1,0.1-0.3,0.1-0.5c0-0.5,0-0.9-0.2-1.3c-0.3-1-1.2-1.8-2.2-2c0-0.1-0.1-0.2-0.2-0.3
			c-1.1-0.7-2.2-1.4-3.4-2.2c-0.4-0.3-0.8-0.5-1.3-0.7c-0.6-0.3-1.2-0.7-1.8-1c-0.1,0-0.1-0.1-0.2-0.2c0.1,0,0.3,0,0.4,0
			c0.9,0.2,1.8,0.4,2.6,0.6c1.7,0.4,3.5,0.7,5.2,1.1c1.4,0.3,2.8,0.6,4.2,1c0.3,0.1,0.7,0.2,1,0.3c2,0.6,4.1,1.2,6.1,1.8
			c1.1,0.3,2.2,0.7,3.4,1c2.1,0.6,4.3,1.3,6.4,1.9c1.5,0.5,3,0.9,4.6,1.4c2.1,0.6,4.2,1.2,6.2,1.8c1.9,0.6,3.8,1.1,5.7,1.7
			c0.2,0.1,0.4,0.1,0.6,0.1c0,0.3,0.2,0.6,0.3,0.8c0.2,0.4,0.5,0.8,0.7,1.2c0.8,1.1,1.6,2.3,2.4,3.4c1.4,1.9,2.9,3.8,4.3,5.8
			c0.2,0.3,0.4,0.5,0.5,0.8c-0.6,0.3-1.3,0.7-1.9,1c-2.2,1.1-4.5,2.2-6.7,3.4c-1.5,0.7-3,1.5-4.5,2.2c-0.2,0.1-0.4,0.1-0.6,0.4
			c0.2,0,0.2,0,0.3-0.1c0.4-0.2,0.9-0.3,1.3-0.5c1.4-0.5,2.8-1.1,4.2-1.6c1.8-0.7,3.6-1.5,5.5-2.2c1.5-0.6,2.9-1.3,4.3-2
			c0.5-0.3,0.9-0.6,1.4-0.9c0.3-0.2,0.5-0.5,0.6-0.8c0.1-0.4,0.2-0.8,0.1-1.2c0-0.1-0.1-0.2-0.1-0.2c-0.1-0.4-0.3-0.7-0.5-0.9
			c-0.3-0.3-0.7-0.6-1-1c-2.3-2.2-4.7-4.5-7-6.7c-0.2-0.2-0.4-0.4-0.7-0.5c-0.7-0.3-1.5-0.5-2.2-0.8c-0.2-0.1-0.4-0.1-0.6-0.1
			c-0.1-0.1-0.2-0.1-0.3-0.2c-1.7-0.6-3.4-1.2-5.2-1.8c-4.2-1.4-8.4-2.8-12.7-4.1c-1-0.3-2.1-0.6-3.1-1c-1.7-0.5-3.5-1-5.3-1.5
			s-3.5-1-5.3-1.4c-2.5-0.6-4.9-1.3-7.4-1.8c-1.5-0.3-3-0.6-4.4-0.9c-1.2-0.3-2.4-0.5-3.7-0.7c-1-0.2-2-0.4-3-0.6
			c-0.1,0-0.1,0-0.2,0.1c-0.1-0.1-0.3-0.1-0.4-0.2c-1.1-0.6-2.2-1.1-3.3-1.6c-0.6-0.3-1.2-0.5-1.7-0.7c-0.8-0.3-1.6-0.6-2.4-0.9
			c-1.1-0.4-2.3-0.9-3.5-1.3c-1-0.3-1.9-0.6-2.9-0.9c-0.7-0.2-1.3-0.4-2-0.6c-1.6-0.4-3.1-0.8-4.7-1.2c-0.5-0.1-1-0.2-1.5-0.3
			c-0.9-0.2-1.9-0.4-2.8-0.6c-0.3-0.1-0.7-0.1-1-0.2c0-0.3-0.1-0.6-0.1-0.9c0-0.7,0.1-1.5,0.1-2.2c0-0.1,0-0.2,0.1-0.3
			s0.2-0.2,0.3-0.2c0.1,0,0.3,0,0.4,0c1.4,0.1,2.8,0.2,4.2,0.3c0.6,0.1,1.3,0.1,1.9,0.2c0.2,0,0.4,0,0.6,0c0.6,0,1-0.2,1.2-0.7
			c0.1-0.1,0.2-0.2,0.3-0.3c0.2,0,0.4,0,0.6,0c0.9,0.1,1.8,0.1,2.8,0.2c1.4,0.1,2.8,0.1,4.2,0.2c1.2,0.1,2.5,0.1,3.7,0.2
			c1.4,0.1,2.8,0.2,4.3,0.2c1,0.1,2,0.1,3,0.1c0.1,0,0.1,0,0.2,0c1,0.1,2,0.1,3,0.2c0.9,0.1,1.9,0.1,2.8,0.1
			c1.2,0.1,2.4,0.1,3.6,0.2c0.1,0.1,0.2,0.1,0.4,0.1c0.8,0,1.7,0.1,2.5,0.1c0.1,0,0.1,0,0.2,0c0.7,0.2,1.5,0.1,2.2,0.2
			c0.5,0.1,1,0,1.6,0.1c0.7,0.1,1.4,0,2.2,0.1c0.5,0.1,1,0,1.5,0c0.4,0,0.7-0.1,1.1-0.3c1-0.6,2-1.2,3-1.8c1.7-1.1,3.4-2.3,5.1-3.5
			c1-0.8,2-1.5,3-2.3c0.9-0.7,1.7-1.4,2.6-2.1c0.8-0.7,1.6-1.4,2.4-2.2c0.1-0.1,0.2-0.2,0.3-0.4c0.2,0,0.5,0,0.7,0
			c0.1,0,0.3,0,0.4,0c1.7,0,3.3,0,5,0c0.1,0,0.3,0,0.4,0c0.9,0.2,1.7,0.3,2.6,0.5c2,0.4,3.9,0.8,5.9,1.3c3.1,0.7,6.2,1.5,9.3,2.4
			c2.4,0.7,4.8,1.5,7.2,2.3c1.9,0.7,3.9,1.4,5.7,2.4c0.2,0.1,0.5,0.2,0.7,0.4c0.2,0.1,0.4,0.2,0.5,0.4c0.9,0.9,2,1.6,3,2.4
			c2.1,1.6,4.2,3.2,6.3,4.7c2.1,1.5,4.2,3.1,6.2,4.6c1,0.7,2,1.4,3,2.2c0.2,0.2,0.4,0.3,0.7,0.3c1.4,0.5,2.7,0.9,4.1,1.4
			c2.7,0.9,5.4,1.9,8.1,3c0.3,0.1,0.6,0.2,0.9,0.4c-0.1,0-0.3,0-0.4,0c-0.3-0.1-0.6-0.1-1-0.1c-0.5,0-1,0-1.6,0c-0.2,0-0.3,0-0.5,0
			s-0.4-0.1-0.6-0.1c-0.6,0-1.1,0-1.7,0c-0.9,0-1.9-0.1-2.8,0.1c-0.2-0.2-0.5-0.3-0.8-0.4c-1.9-0.7-3.9-1.3-5.9-1.8
			c-0.9-0.2-1.9-0.2-2.8,0c-1.8,0.5-3.4,1.2-5,2.1c-0.5,0.3-1,0.5-1.5,0.6c-1.1,0.3-2.2,0.4-3.3,0.4c-1.5,0-3.1-0.1-4.6-0.3
			c-1.6-0.2-3.2-0.5-4.8-0.9c-2.6-0.6-5.1-1.3-7.7-2.1c-2.3-0.7-4.7-1.4-7.1-2c-2.3-0.6-4.7-1.2-7.1-1.7c-2.3-0.5-4.5-0.9-6.8-1.4
			c-1.5-0.3-3-0.6-4.5-0.8c-1.6-0.3-3.2-0.5-4.8-0.8c-1.1-0.2-2.1-0.3-3.2-0.5c-1-0.2-2.1-0.3-3.1-0.5c-1.1-0.2-2.2-0.3-3.3-0.5
			c-1.1-0.2-2.3-0.3-3.4-0.5s-2.1-0.3-3.2-0.5c-1.5-0.3-3.1-0.5-4.7-0.7c-0.7-0.1-1.4-0.2-2.2-0.2c-0.9-0.1-1.8-0.2-2.6-0.3
			c-0.8-0.1-1.7-0.2-2.5-0.3c-0.9-0.1-1.8-0.2-2.7-0.3c-1-0.1-1.9-0.2-2.9-0.3c-1.4-0.1-2.7-0.3-4.1-0.4c-1-0.1-2-0.2-3-0.3
			c-0.4,0-0.9-0.1-1.3-0.1c-1-0.1-2.1-0.2-3.1-0.3c-0.7-0.1-1.5-0.1-2.2-0.2c-0.3,0-0.6-0.1-1,0c0,0.4-0.1,0.7,0,1
			c0.5,0,1,0.1,1.5,0.1c0.7,0,1.3,0.1,2,0.1c1,0.1,2,0.2,3,0.3c0.9,0.1,1.8,0.2,2.6,0.3c0.9,0.1,1.9,0.2,2.8,0.3
			c0.8,0.1,1.5,0.2,2.3,0.2c0.8,0.1,1.6,0.2,2.5,0.3c0.8,0.1,1.6,0.2,2.4,0.3c0.9,0.1,1.8,0.2,2.7,0.3c1,0.1,1.9,0.2,2.9,0.3
			c0.9,0.1,1.8,0.2,2.7,0.4c0.9,0.1,1.8,0.3,2.7,0.4c0.9,0.1,1.8,0.3,2.7,0.4c0.9,0.1,1.8,0.2,2.7,0.4c0.9,0.1,1.9,0.3,2.8,0.4
			c0.9,0.1,1.8,0.2,2.7,0.4c1.5,0.3,3.1,0.5,4.6,0.8c1.9,0.3,3.8,0.7,5.8,1c1.7,0.3,3.4,0.6,5.1,0.9c2,0.4,4,0.7,6,1.1
			c2.4,0.5,4.7,1,7.1,1.5c3.7,0.8,7.3,1.7,11,2.6c2.4,0.6,4.8,1.2,7.2,2c2.2,0.7,4.4,1.2,6.8,1.4c1.6,0.1,3.2,0,4.7-0.4
			c0.5-0.1,0.9-0.3,1.4-0.5c0.6-0.4,1.2-0.7,1.8-1c1.1-0.6,2.2-1.1,3.3-1.4c0.4-0.1,0.9-0.2,1.3-0.3c1.9-0.2,3.6,0.4,5.2,1.4
			c0.1,0,0.1,0.1,0.2,0.2c-0.1,0-0.1,0.1-0.2,0.1c-1.9,0.4-3.8,1.1-5.7,1.8c-1.7,0.7-3.4,1.4-5.1,2.2c-0.9,0.4-1.8,0.9-2.7,1.3
			c-0.8,0.4-1.6,0.8-2.4,1.3c-0.6,0.3-1.2,0.7-1.9,1c-0.3,0.2-0.7,0.4-1,0.6c-0.8,0.4-1.6,0.9-2.3,1.3c-0.3,0.2-0.6,0.4-1,0.6v0.1
			c-0.2,0.1-0.4,0.2-0.6,0.3c-0.1,0.1-0.3,0.1-0.4,0.2c-1.2,0.7-2.3,1.4-3.5,2.2c-0.3,0.2-0.6,0.5-0.7,0.9c-0.1,0.2-0.1,0.4,0,0.6
			c0.1,0.1,0.1,0.2,0.3,0.2c0.2,0,0.3-0.1,0.4-0.1c0.9-0.5,1.7-1.1,2.6-1.5c1.4-0.6,2.8-1.3,4.3-1.7c1.2-0.3,2.3-0.7,3.5-0.9
			c0.5-0.1,0.9-0.2,1.4-0.1c0.5,0.1,1,0.2,1.5,0.2c0.2,0,0.4,0,0.5,0.1c0.8,0,1.5-0.1,2.3-0.2c0.6-0.1,1.1-0.3,1.6-0.6
			c0.8-0.6,1.7-1.1,2.7-1.5c0.6-0.3,1.2-0.5,1.8-0.8c1.5-0.6,2.9-1.1,4.5-1.5c1.4-0.3,2.8-0.5,4.1-0.8c0.9-0.2,1.8-0.2,2.7-0.3
			c1.1,0,2.2,0.1,3.2,0.1h0.1c0.6,0.1,1.1,0.1,1.7,0.2c0.6,0.1,1.1,0.2,1.7,0.2c0.1,0,0.2,0.1,0.3,0.1l0,0c0.1,0.2,0.3,0.2,0.5,0.3
			c1.9,0.8,3.9,1.6,5.8,2.4c3.6,1.5,7.3,3.1,10.9,4.6c0.2,0.1,0.4,0.1,0.6,0.2c0.2,0.2,0.4,0.3,0.7,0.3c0.2-0.3,0.3-0.6,0.3-0.9
			c0-0.8-0.1-1.5-0.4-2.3c-0.1-0.3-0.2-0.6-0.3-0.9c0.5,0.2,0.9,0.4,1.4,0.7c0.4,0.2,0.8,0.4,1.2,0.6c1.2,0.7,2.4,1.3,3.7,2
			c0.3,0.1,0.5,0.3,0.8,0.4C494,206.8,494.1,206.8,494.2,206.8L494.2,206.8z M405.6,185.1v0.1c0.5,0.2,1.1,0.4,1.6,0.4
			c0.1,0,0.1,0,0.2,0c0.3,0.1,0.5,0.2,0.8,0.3c6.3,1.7,12.6,3.5,18.9,5.1c2.5,0.6,4.9,1.2,7.4,1.7c0.7,0.1,1.4,0.3,2.1,0.3
			c0.9,0,1.9-0.2,2.8-0.4c2-0.5,4-1.2,5.9-2.1c0.1,0,0.2-0.1,0.2-0.1c0.2-0.2,0.3-0.4,0.3-0.6c-0.1-0.3-0.2-0.5-0.4-0.8
			c-0.3-0.4-0.6-0.7-0.9-1.1c-0.6-0.5-1.2-1.1-1.9-1.6c-2.8-2.3-5.6-4.4-8.5-6.5c-1.5-1.1-3-2.1-4.6-3c-0.5-0.3-1.1-0.6-1.7-0.8
			c-0.5-0.2-1.1-0.4-1.6-0.6c-2.3-0.7-4.6-1.3-6.9-1.8c-3.6-0.8-7.2-1.6-10.9-2.3c-2.3-0.5-4.6-0.9-6.8-1.4
			c-0.5-0.1-1.1-0.2-1.6-0.1c-0.6,0.1-1.2,0.3-1.6,0.8c-0.3,0.3-0.6,0.6-0.9,0.8c-2.4,1.8-4.7,3.6-7.1,5.4c-0.1,0.1-0.3,0.2-0.4,0.4
			c-0.1,0.1-0.2,0.1-0.3,0.2c-0.8,0.6-1.5,1.2-2.3,1.7c-0.1,0.1-0.2,0.2-0.4,0.3c0.3,0.6,0.8,0.9,1.4,1.1c0.7,0.2,1.4,0.5,2.1,0.7
			c2.4,0.7,4.9,1.4,7.3,2c2,0.5,3.9,1.1,5.9,1.7c0.3,0.1,0.6,0.2,0.9,0.2c0.1,0,0.2,0.1,0.3,0.1l0,0
			C405.2,185.1,405.4,185.1,405.6,185.1L405.6,185.1z M401.4,221.9C401.4,221.9,401.5,222,401.4,221.9
			C401.5,221.9,401.5,221.9,401.4,221.9L401.4,221.9z"/>
		<path class="st26" d="M367.6,177.2c-1.2-0.1-2.4-0.1-3.6-0.2c-0.9,0-1.9-0.1-2.8-0.1c-1-0.1-2-0.1-3-0.2c-0.1,0-0.1,0-0.2,0
			c-1,0-2-0.1-3-0.1c-1.4-0.1-2.8-0.2-4.3-0.2c-1.2-0.1-2.5-0.1-3.7-0.2c-1.4-0.1-2.8-0.1-4.2-0.2c-0.9-0.1-1.8-0.1-2.8-0.2
			c-0.2,0-0.4,0-0.6,0c-0.1,0.1-0.2,0.2-0.3,0.3c0-0.2-0.1-0.3-0.1-0.5s0-0.4,0-0.5c0-0.3-0.1-0.5-0.4-0.6c-0.6-0.2-1.2-0.4-1.8-0.6
			c-0.4-0.1-0.8-0.2-1.1-0.3c-0.1,0-0.2-0.1-0.2-0.2c0.2,0,0.4,0,0.5,0c1.7,0,3.3,0.1,5,0.1c0.2,0,0.4,0,0.5,0
			c0.1-0.4,0-0.8,0.1-1.1c0.1-0.2,0.3-0.1,0.4-0.1c0.6,0,1.2-0.1,1.8-0.3c1.1-0.3,2.1-0.9,2.9-1.7c0.1-0.1,0.2-0.2,0.3-0.3
			c0.7-0.7,1.1-1.5,1.4-2.4c0.1-0.2,0.2-0.4,0.2-0.6c0.1-0.4,0.4-0.6,0.8-0.6c0.2,0,0.3,0,0.5,0c1.3-0.1,2.6-0.1,3.9-0.2
			c0.2,0,0.4,0,0.6,0c0.5,0,0.9-0.1,1.3-0.2c1.4-0.4,2.9-0.6,4.4-0.7c1.2-0.1,2.3-0.1,3.5,0c0.8,0.1,1.7,0.1,2.5,0.3
			c0.3,0,0.5,0,0.8,0c0.2,0,0.4-0.1,0.7,0c0.2,0,0.5,0,0.7-0.1c0.4,0,0.9,0,1.3-0.1c0.1,0,0.2,0,0.3,0c0.4,0,0.8,0,1.2,0
			c0.1,0,0.3,0,0.4,0c0.4-0.1,0.7-0.1,1.1-0.1c0.6,0,1.1,0.1,1.7-0.1c0.1,0,0.2,0,0.3,0c0.4,0,0.8,0,1.2,0c0.1,0,0.3,0,0.4,0
			c0.3-0.1,0.6-0.1,0.9-0.1c0.4,0,0.8,0,1.1,0c0.1,0,0.3,0,0.4,0c0.2-0.1,0.5-0.1,0.7-0.1c0.4,0,0.9,0,1.3,0c0.1,0,0.2,0,0.3-0.1
			c0.5,0,1,0,1.5,0s0.8,0.2,1.1,0.6c0.3,0.4,0.4,0.9,0.5,1.5c0.1,0.5,0.1,1,0.2,1.4c-0.1,0.2-0.2,0.5-0.3,0.7
			c-0.7,0.9-1.3,1.8-2,2.7c-1.4,1.8-2.8,3.6-4.2,5.5c-0.2,0.3-0.5,0.5-0.9,0.4c0,0,0,0-0.1,0c-2.9,0-5.8,0-8.7,0
			C367.9,177.2,367.8,177.2,367.6,177.2z"/>
		<path class="st27" d="M432.7,204.2v-0.1c0.3-0.2,0.6-0.4,1-0.6c0.8-0.4,1.6-0.9,2.3-1.3c0.3-0.2,0.7-0.4,1-0.6
			c0.6-0.3,1.2-0.7,1.9-1c0.8-0.4,1.6-0.8,2.4-1.3c0.9-0.5,1.8-0.9,2.7-1.3c1.7-0.8,3.4-1.5,5.1-2.2c1.9-0.7,3.7-1.3,5.7-1.8
			c0.1,0,0.2-0.1,0.2-0.1c0.2,0,0.5,0,0.7,0c0.6-0.1,1.2-0.2,1.9-0.3c0.9-0.2,1.9-0.1,2.8-0.1c0.6,0,1.1,0,1.7,0
			c0.2,0,0.4,0,0.6,0.1c0.2,0,0.3,0,0.5,0c0.5,0,1,0,1.6,0c0.3,0,0.6,0,1,0.1c0.1,0,0.3,0,0.4,0c1.1,0.1,2.2,0.2,3.3,0.3
			c2,0.2,3.9,0.6,5.8,1.1c1.8,0.5,3.5,1,5.3,1.7c1,0.4,1.9,0.8,2.8,1.3c0.8,0.4,1.4,1.1,1.9,1.8c0,0,0,0.1,0,0.2c-0.1,0-0.3,0-0.4,0
			c-0.9-0.3-1.8-0.2-2.7,0.3c-0.5,0.3-1,0.5-1.5,0.7c-0.6,0.3-1.1,0.2-1.7-0.1c-0.7-0.4-1.5-0.8-2.2-1.1c-2.5-1.1-5.1-1.9-7.9-2.3
			c-0.9-0.1-1.7-0.2-2.6-0.3c-1.5-0.1-3-0.1-4.5,0.1c-1.1,0.1-2.1,0.2-3.2,0.3c-1.4,0.2-2.8,0.4-4.3,0.8c-2,0.5-3.9,1.1-5.6,2.1
			c-0.6,0.4-1.3,0.7-1.9,1.1c-1,0.5-2,1-3,1.3c-0.7,0.2-1.4,0.2-2.1-0.1s-1.4-0.4-2.1-0.4s-1.4,0.1-2,0.3c-1.4,0.3-2.8,0.7-4.2,1.2
			C433.1,204.1,432.9,204.2,432.7,204.2z"/>
		<path class="st23" d="M367.7,161.6c-0.7,0-1.3-0.1-2-0.1c-0.5,0-1-0.2-1.5-0.5c0-1.5,0-2.9,0-4.4c0.3-0.3,0.7-0.5,1.1-0.7
			c0.1,0,0.2-0.1,0.3-0.1c0.5,0,0.9-0.1,1.4-0.1c0.8-0.1,1.6-0.1,2.4-0.2c0.5,0,1-0.1,1.6-0.1c0.8-0.1,1.5-0.1,2.3-0.1
			c1.2-0.1,2.4-0.2,3.6-0.3c0.5,0,1-0.1,1.6-0.1c0.7,0,1.5-0.1,2.2-0.1c0.8-0.1,1.6-0.1,2.4-0.2c0.3,0,0.6,0,0.9,0
			c0.1,0,0.1,0,0.2,0c0.1,0.2,0,0.4-0.1,0.5c-0.2,0.7-0.5,1.3-0.7,2c-0.3,0.9-0.6,1.8-0.8,2.7c-0.2,1-0.4,2-0.6,3
			c-0.1,0.1-0.2,0-0.4,0c-0.6-0.1-1.1-0.1-1.7-0.2c-0.2,0-0.5-0.1-0.7-0.1c-0.6,0-1.2-0.1-1.8-0.1c-0.1,0-0.2,0-0.3,0
			c-0.6-0.1-1.2-0.1-1.8-0.2c-0.6-0.1-1.2-0.1-1.8-0.1h-0.1c-0.6-0.1-1.2-0.1-1.8-0.2c-0.6-0.1-1.2-0.1-1.8-0.1h-0.1
			C369,161.7,368.4,161.6,367.7,161.6z"/>
		<path class="st28" d="M432.7,204.2c0.2-0.1,0.4-0.1,0.6-0.2c1.4-0.5,2.8-0.9,4.2-1.2c0.7-0.1,1.3-0.2,2-0.3c0.7,0,1.4,0.1,2.1,0.4
			c0.7,0.3,1.4,0.3,2.1,0.1c1.1-0.3,2.1-0.8,3-1.3c0.6-0.4,1.3-0.7,1.9-1.1c1.8-1,3.7-1.6,5.6-2.1c1.4-0.3,2.8-0.6,4.3-0.8
			c1.1-0.1,2.1-0.2,3.2-0.3c1.5-0.1,3-0.1,4.5-0.1c0.9,0,1.7,0.2,2.6,0.3c2.7,0.4,5.3,1.2,7.9,2.3c0.8,0.3,1.5,0.7,2.2,1.1
			c0.6,0.3,1.1,0.3,1.7,0.1c0.5-0.2,1-0.5,1.5-0.7c0.9-0.4,1.7-0.6,2.7-0.3c0.1,0,0.2,0,0.4,0l0,0c0,0.1,0,0.1,0.1,0.1l0,0l0.1,0.1
			c0.1,0.2,0.3,0.3,0.4,0.5c0.4,0.7,0.9,1.4,1.2,2.2c0.1,0.3,0.2,0.6,0.3,0.9c0.3,0.7,0.4,1.5,0.4,2.3c0,0.3-0.1,0.6-0.3,0.9
			c-0.3,0-0.5-0.1-0.7-0.3c0-0.1-0.1-0.2-0.1-0.3c-0.1-0.5-0.2-1.1-0.3-1.6c-0.2-0.8-0.5-1.5-0.9-2.2c-0.5-0.9-1.3-1.3-2.3-1.3
			c-0.6,0-1.1,0.1-1.5,0.6c-0.2,0.2-0.4,0.4-0.6,0.6c-0.2,0.2-0.5,0.4-0.8,0.4c-0.2,0-0.5,0-0.7-0.1c-3.1-1.4-6.3-2.4-9.6-3.2
			c-0.3-0.1-0.7-0.2-1.1-0.2l0,0c-0.1-0.1-0.2-0.1-0.3-0.1c-0.6-0.1-1.1-0.2-1.7-0.2c-0.6-0.1-1.1-0.1-1.7-0.2H465
			c-1.1,0-2.2-0.1-3.2-0.1c-0.9,0-1.8,0.1-2.7,0.3c-1.4,0.3-2.8,0.5-4.1,0.8c-1.5,0.3-3,0.9-4.5,1.5c-0.6,0.3-1.2,0.5-1.8,0.8
			c-0.9,0.4-1.8,0.9-2.7,1.5c-0.5,0.4-1,0.5-1.6,0.6c-0.8,0.1-1.5,0.2-2.3,0.2c-0.2,0-0.4,0-0.5-0.1c-0.5-0.1-1-0.2-1.5-0.2
			c-0.5-0.1-0.9,0-1.4,0.1c-1.2,0.2-2.3,0.6-3.5,0.9c-1.5,0.4-2.9,1.1-4.3,1.7c-0.9,0.4-1.8,0.9-2.6,1.5c-0.1,0.1-0.2,0.2-0.4,0.1
			c-0.1,0-0.2-0.1-0.3-0.2c-0.1-0.2-0.1-0.4,0-0.6c0.1-0.4,0.3-0.7,0.7-0.9c1.2-0.7,2.3-1.4,3.5-2.2c0.1-0.1,0.3-0.1,0.4-0.2
			C432.3,204.4,432.5,204.3,432.7,204.2z"/>
		<path class="st29" d="M367.6,177.2c0.2,0,0.3,0,0.5,0c2.9,0,5.8,0,8.7,0c0,0,0,0,0.1,0c0.4,0,0.6-0.1,0.9-0.4
			c1.4-1.8,2.8-3.6,4.2-5.5c0.7-0.9,1.3-1.8,2-2.7c0.2-0.2,0.3-0.4,0.3-0.7c0.2,0,0.3-0.2,0.4-0.3c0.6-0.8,1.2-1.5,1.8-2.3
			c0.6-0.8,0.5-0.6,1.4-0.6c1.2,0,2.4,0.1,3.7,0.2c1.1,0.1,2.1,0.1,3.2,0.2c0.2,0,0.5,0.1,0.7,0.1c0,0.2-0.1,0.3-0.3,0.4
			c-0.7,0.8-1.5,1.5-2.4,2.2s-1.7,1.4-2.6,2.1c-1,0.8-2,1.6-3,2.3c-1.6,1.2-3.3,2.4-5.1,3.5c-1,0.6-2,1.2-3,1.8
			c-0.3,0.2-0.7,0.3-1.1,0.3c-0.5,0-1,0-1.5,0c-0.7-0.1-1.4,0-2.2-0.1c-0.5-0.1-1,0-1.6-0.1c-0.7-0.1-1.5,0-2.2-0.2
			c-0.1,0-0.1,0-0.2,0c-0.8,0-1.7-0.1-2.5-0.1C367.8,177.3,367.7,177.3,367.6,177.2z"/>
		<path class="st30" d="M367.7,161.6c0.6,0.1,1.3,0.1,1.9,0.2h0.1c0.6,0,1.2,0.1,1.8,0.1c0.6,0.1,1.2,0.1,1.8,0.2h0.1
			c0.6,0,1.2,0.1,1.8,0.1c0.6,0.1,1.2,0.1,1.8,0.2c0.1,0,0.2,0,0.3,0c0.6,0,1.2,0.1,1.8,0.1c0.3,0,0.5,0.1,0.7,0.1
			c-0.1,0.6,0.1,0.8,0.7,0.9c0.1,0,0.3,0,0.5,0c0,0.3,0,0.6,0.1,0.9c-0.1,0-0.2,0.1-0.3,0.1c-0.4,0-0.9,0-1.3,0
			c-0.3,0-0.5,0-0.7,0.1c-0.1,0-0.2,0-0.4,0c-0.4,0-0.8,0-1.1,0c-0.3,0-0.6,0-0.9,0.1c-0.1,0-0.2,0-0.4,0c-0.4,0-0.8,0-1.2,0
			c-0.1,0-0.2,0-0.3,0c-0.5,0.2-1.1,0.1-1.7,0.1c-0.4,0-0.7,0-1.1,0.1c-0.1,0-0.3,0-0.4,0c-0.4,0-0.8,0-1.2,0c-0.1,0-0.2,0-0.3,0
			c-0.4,0.1-0.9,0.1-1.3,0.1c-0.2,0-0.5,0.1-0.7,0.1s-0.5,0-0.7,0c-0.3,0-0.5,0-0.8,0c0-0.3,0.1-0.6,0.1-0.9
			c0.2-0.1,0.4-0.1,0.5-0.1c0.3,0,0.5-0.1,0.7-0.2c0.2-0.1,0.3-0.3,0.3-0.6C367.7,162.9,367.7,162.2,367.7,161.6z"/>
		<path class="st28" d="M324.5,165.2c-0.1,0-0.2-0.1-0.3-0.1c-0.1-0.2-0.3-0.4-0.4-0.5c-0.3-0.5-0.7-1-1-1.5
			c-0.1-0.1-0.2-0.3-0.1-0.4c0.1-0.2,0.3-0.5,0.3-0.8c0.1,0,0.2-0.1,0.2-0.2c0.2-0.5,0.5-1,0.7-1.5c0-0.1,0-0.2,0-0.3
			c0.1-0.1,0.2-0.1,0.2-0.2c0.1-0.2,0.2-0.3,0.3-0.5c0.7,0.1,1.5,0.2,2.2,0.1c0.4,0,0.7-0.1,1.1-0.3c0,0.1-0.1,0.3-0.1,0.4
			c-0.1,0.3-0.3,0.5-0.4,0.8c0,0,0,0.1,0,0.2c-0.2,0.1-0.3,0.2-0.4,0.4c-0.6,1.1-1.1,2.2-1.7,3.4c-0.1,0.1-0.1,0.3-0.1,0.4
			c-0.1,0-0.2,0.1-0.2,0.1C324.7,164.9,324.6,165.1,324.5,165.2z"/>
		<path class="st31" d="M327.1,160.4c0-0.1-0.1-0.1,0-0.2c0.1-0.3,0.3-0.5,0.4-0.8c0.1-0.1,0.1-0.3,0.1-0.4c0.3-0.2,0.7-0.4,0.9-0.6
			c0.3-0.2,0.6-0.5,0.8-0.7c0.3-0.3,0.5-0.6,0.8-0.9c0.1-0.2,0.2-0.3,0.2-0.5c0.8,0.3,1.7,0.7,2.5,1c0.2,0.1,0.3,0.1,0.5,0.2
			c0.1,0.1,0.2,0.2,0.1,0.4c-0.1,0.1-0.2,0.3-0.3,0.4c-0.8,0.8-1.7,1.5-2.6,2c-0.4,0.3-0.9,0.4-1.3,0.3
			C328.5,160.6,327.8,160.5,327.1,160.4z"/>
		<path class="st32" d="M402,165.2c-0.1,0-0.3,0-0.4,0c-1.7,0-3.3,0-5,0c-0.1,0-0.3,0-0.4,0c0-0.2,0-0.5,0-0.7c0-0.4,0-0.9,0.1-1.3
			c0.1-0.6,0.3-0.9,0.9-0.6c1,0.1,1.9,0.5,2.7,0.9c0.7,0.3,1.3,0.8,1.9,1.4C401.9,165,401.9,165.1,402,165.2z"/>
		<path class="st33" d="M324.5,165.2c0.1-0.2,0.1-0.3,0.2-0.5c0-0.1,0.1-0.1,0.2-0.1l0.1,0.1c1.1,1.4,2.4,2.7,3.6,4
			c1.3,1.3,2.8,2.4,4.3,3.3c0.3,0.2,0.7,0.4,1,0.6c-0.1,0-0.1,0.1-0.2,0.1c-0.3-0.1-0.6-0.2-0.9-0.3c-0.7-0.4-1.4-0.9-2.1-1.4
			s-1.3-1.1-1.9-1.6l-0.1-0.1c-1-1-2-1.9-3-2.9c-0.3-0.3-0.6-0.5-0.9-0.8C324.7,165.5,324.6,165.4,324.5,165.2z"/>
		<path class="st34" d="M348.5,167.3c-0.3,0.9-0.7,1.7-1.4,2.4c-0.1,0.1-0.2,0.2-0.3,0.3c-0.1-0.5,0.1-0.9,0.3-1.3
			c0.2-0.5,0.5-0.8,0.9-1.1C348.1,167.4,348.3,167.4,348.5,167.3z"/>
		<path class="st21" d="M494.2,206.8c-0.1,0-0.2,0-0.1-0.1C494.1,206.7,494.1,206.8,494.2,206.8z"/>
		<path class="st35" d="M485.3,200.2c-0.1,0-0.1,0-0.1-0.1C485.2,200.1,485.3,200.2,485.3,200.2z"/>
		<path class="st35" d="M485.4,200.3l-0.1-0.1L485.4,200.3z"/>
		<path class="st20" d="M356.6,198.6c0.1,0.1,0.1,0.1,0.2,0.2c0.9,1,1.9,1.9,2.8,2.9c0.1,0.1,0.1,0.1,0.2,0.2c0.4,0.5,0.8,1,1.3,1.5
			c2.4,2.7,4.6,5.5,6.7,8.5c0.2,0.3,0.4,0.6,0.6,0.9c2.1,2.9,4.3,5.8,6.9,8.3c0.1,0.1,0.1,0.2,0.2,0.3c-1.9,0-3.9-0.1-5.8-0.1
			c-1.3,0-2.5,0-3.8,0c-1.2,0-2.4,0.2-3.7,0.4c-1.5,0.3-3.1,0.5-4.6,0.8c-0.2,0-0.4,0-0.6,0.1c0-1.1,0-2.2,0-3.3
			c0-0.2,0-0.5-0.1-0.7c0,0,0-0.1,0-0.2c0-1.2-0.3-2.3-0.6-3.4c-0.3-1.3-0.8-2.5-1.3-3.7c-0.6-1.5-1.5-2.9-2.4-4.2
			c-0.4-0.5-0.8-1-1.2-1.5c-0.5-0.6-1.1-1.1-1.6-1.7c-0.4-0.4-0.8-0.7-1.2-1c-0.2-0.2-0.4-0.4-0.7-0.5c-0.9-0.7-1.9-1.3-3-1.9
			c-0.6-0.3-1.3-0.6-1.9-0.9c-0.9-0.4-1.9-0.7-2.9-1c-0.5-0.1-1.1-0.2-1.6-0.4c-0.4-0.1-0.9-0.1-1.3-0.2c-0.6-0.1-1.1,0-1.7-0.2
			c-0.1,0-0.3,0-0.4,0c-0.5,0-0.9,0-1.4,0c-0.3,0-0.6,0-1,0.1c-0.1,0-0.2,0-0.3,0c-0.5,0-1,0.1-1.5,0.1c-0.9,0.1-1.8,0.3-2.7,0.6
			c-1.1,0.3-2.2,0.7-3.2,1.2c-0.6,0.3-1.1,0.5-1.6,0.8c-0.6,0.4-1.3,0.7-1.9,1.2c-0.2,0.1-0.4,0.2-0.6,0.4c-0.4,0.4-0.9,0.8-1.3,1.1
			c-0.7,0.5-1.3,1.2-1.9,1.8c-0.5,0.6-1.1,1.2-1.5,1.9c-0.4,0.6-0.8,1.2-1.2,1.8c-0.5,0.8-0.9,1.5-1.2,2.4c-0.2,0.5-0.4,0.9-0.6,1.3
			c-0.1,0.2-0.1,0.4-0.4,0.4c0-0.6,0-1.2,0-1.8c0-5.4-0.1-10.9-0.1-16.3c0-2.7,0-5.3-0.1-8c0.2,0,0.4,0,0.6,0c0.9,0,1.9,0,2.8,0
			c0.3,0,0.6-0.1,0.8-0.3c0.2-0.2,0.4-0.5,0.6-0.7s0.4-0.4,0.7-0.4c0.5-0.1,1-0.1,1.6-0.1c1.2,0.1,2.3,0.3,3.4,0.6
			c2,0.5,3.9,1.1,5.8,1.7c2.6,0.8,5.2,1.6,7.7,2.7c5.5,2.3,10.8,5,15.8,8.4c0.3,0.2,0.5,0.4,0.8,0.6c0.3,0.2,0.6,0.3,0.9,0.2
			c0.2,0,0.4-0.1,0.5-0.1c0.5-0.2,1-0.4,1.5-0.6C356.4,198.6,356.5,198.6,356.6,198.6z"/>
		<path class="st36" d="M450.6,211.7c0.2,0,0.3-0.2,0.5-0.4c0.7-0.8,1.4-1.6,2.3-2.3c2.6-2.2,5.6-3.6,8.9-4.2
			c6.6-1.2,13.3,1.3,17.7,6.5c2.3,2.7,3.7,5.8,4.3,9.2c0,0.1,0,0.1,0,0.2c0.1,0.6,0.1,1.2,0.2,1.8c0,0.2,0,0.3,0,0.5
			c0.1,0.5,0.1,1,0.1,1.4c0,0.3-0.1,0.6-0.1,1c-0.3,3.8-1.6,7.3-3.9,10.4c-2.8,3.6-6.5,6-10.9,7c-1.7,0.4-3.4,0.5-5.2,0.4
			c-8.1-0.4-15.4-6.3-17.4-14.9c-0.5-2-0.6-4-0.4-6c0-0.4,0.1-0.8,0.1-1.2c0-0.1,0.1-0.2,0.1-0.2c0-0.1,0-0.3,0-0.4
			c0.2-0.7,0.3-1.4,0.5-2c0.2-0.9,0.5-1.7,0.9-2.5c0.6-1.4,1.4-2.8,2.4-4C450.5,212,450.6,211.9,450.6,211.7z M480.8,224
			c0-0.6-0.1-1.3-0.1-1.9c-0.3-2.3-1-4.4-2.2-6.3c-3.1-5-8.8-7.9-14.5-7.2c-1.8,0.2-3.5,0.7-5.1,1.4c-5.9,2.9-9.5,9.3-8.6,16.2
			c0.3,2.2,1,4.3,2.2,6.2c2.9,4.4,6.9,6.9,12.2,7.2c2.3,0.2,4.6-0.3,6.7-1.2C477.1,235.9,480.8,230.2,480.8,224z"/>
		<path class="st20" d="M450.6,211.7c0,0.1,0,0.2-0.1,0.3c-1,1.2-1.7,2.6-2.4,4c-0.4,0.8-0.7,1.6-0.9,2.5c-0.2,0.7-0.3,1.4-0.5,2
			c0,0.1,0,0.3,0,0.4c0,0.1-0.1,0.2-0.1,0.2c-2.8,0-5.6,0-8.5,0c-5,0-10.1,0.1-15.1,0.1c-3.2,0-6.4,0-9.6,0c-0.4,0-0.8,0-1.1,0
			c0-0.1,0.2-0.2,0.3-0.2c0.6-0.2,1.2-0.5,1.8-0.8c4.1-1.7,8.1-3.4,12.3-4.9c1.6-0.6,3.3-1.2,4.9-1.7c1.3-0.4,2.5-0.7,3.9-0.9
			c1.6-0.2,3.2-0.4,4.8-0.6c1-0.1,1.9-0.2,2.9-0.3c1.3-0.1,2.7-0.2,4.1-0.3c1.1-0.1,2.1-0.1,3.2-0.1
			C450.4,211.7,450.5,211.7,450.6,211.7z"/>
		<path class="st32" d="M375.4,221.3c-0.1-0.1-0.1-0.2-0.2-0.3c-2.6-2.5-4.8-5.4-6.9-8.3c-0.2-0.3-0.4-0.6-0.6-0.9
			c-2-3-4.3-5.8-6.7-8.5c-0.4-0.5-0.8-1-1.3-1.5c0.1-0.1,0.2-0.2,0.3-0.3c0.4-0.2,0.8-0.2,1.2-0.3c0.3,0,0.6,0.1,0.9,0.2
			c0.5,0.2,0.9,0.5,1.2,0.9c0.7,0.7,1.4,1.4,2,2.2c1.9,2.2,3.5,4.6,5.3,6.9c1.2,1.6,2.4,3.2,3.7,4.8c0.9,1.1,1.9,2.2,2.8,3.3
			c0.8,1,1.7,1.9,2.6,2.7c1.1,1,2.3,1.9,3.6,2.6c0.9,0.5,1.9,0.8,3,0.9c0.5,0,1,0.1,1.5,0.1c0.8,0,1.5-0.1,2.3-0.2
			c0.1,0,0.3,0,0.4,0c0.8,0,1.6,0,2.3,0c0.8,0,1.5,0.1,2.3,0.3c0.3,0.1,0.7,0.2,1,0.4c0.2,0.1,0.3,0.3,0.4,0.4
			c0.2,0.3,0.2,0.7,0.1,1.1c-0.1,0.3-0.4,0.3-0.7,0.3c-0.6,0.1-1.2,0.1-1.8,0.2c-0.1,0-0.3,0-0.4,0c-0.3,0-0.6,0-0.9,0.1
			c-0.1,0-0.3,0-0.5,0c-0.6,0-1.1-0.1-1.7,0.1c-0.1,0-0.2,0-0.3,0c-1.6,0-3.1,0-4.7,0c-0.2,0-0.4,0-0.6-0.1c-0.1,0-0.2,0-0.4,0
			c-0.8,0-1.5-0.2-2.1-0.7c-0.6-0.4-1.2-0.8-1.8-1.2c-0.3-0.2-0.5-0.4-0.8-0.6c-0.4-0.3-0.8-0.7-1.1-1c-0.5-0.5-1.1-1-1.6-1.6
			c-0.5-0.5-1-1.1-1.5-1.6C375.8,221.7,375.6,221.5,375.4,221.3z"/>
		<path class="st27" d="M360.6,190.2c0.1,0.1,0.1,0.2,0.2,0.2c0.6,0.3,1.2,0.7,1.8,1c0.4,0.2,0.8,0.5,1.3,0.7
			c1.1,0.7,2.2,1.4,3.4,2.2c0.1,0.1,0.2,0.2,0.2,0.3c-0.9-0.1-1.8-0.2-2.6-0.2c-0.9,0-1.9,0.1-2.8,0.2c-1.3,0.1-2.6,0.4-3.9,0.6
			c-0.9,0.2-1.8,0.4-2.8,0.5c-0.2,0-0.5,0-0.7,0s-0.3-0.1-0.4-0.2c-0.2-0.1-0.3-0.3-0.5-0.4c-0.6-0.3-1.2-0.7-1.8-1
			c-2.9-1.5-5.9-2.9-8.8-4.3c-0.9-0.4-1.8-0.8-2.7-1.2c-2-0.9-4-1.8-6-2.7c-1.1-0.5-2.3-1-3.5-1.4c-3.1-1.1-6.3-1.8-9.5-2.4
			c-1.2-0.2-2.3-0.4-3.5-0.6c-1-0.1-1.9-0.3-2.9-0.4c-0.7-0.1-1.3-0.1-2-0.2c-0.2-0.3-0.2-0.7-0.2-1.1c0-0.8,0-1.7,0-2.5
			c0.2-0.3,0.5-0.4,0.8-0.4c0.2,0,0.4,0,0.6,0c1.1,0,2.2,0.1,3.3,0.3c0.3,0,0.5,0.1,0.8,0.1c0.1,0,0.1,0.1,0.2,0.1
			c0.8,0.2,1.5,0.3,2.3,0.5c1.2,0.2,2.3,0.5,3.5,0.7c0.4,0.1,0.8,0.1,1.2,0.1c0.5,0.1,1,0.2,1.5,0.3c1.1,0.2,2.3,0.4,3.4,0.7
			c0.3,0.1,0.7,0.1,1,0.2c0.9,0.2,1.9,0.4,2.8,0.6c0.5,0.1,1,0.2,1.5,0.3c1.6,0.4,3.1,0.8,4.7,1.2c0.7,0.2,1.4,0.4,2,0.6
			c1,0.3,2,0.6,2.9,0.9c1.2,0.4,2.3,0.8,3.5,1.3c0.8,0.3,1.6,0.6,2.4,0.9c0.6,0.2,1.2,0.5,1.7,0.7c1.1,0.5,2.2,1,3.3,1.6
			c0.1,0.1,0.3,0.1,0.4,0.2c0.1,0.1,0.3,0.1,0.4,0.2c0.8,0.4,1.6,0.8,2.5,1.3c0.2,0.1,0.5,0.2,0.7,0.3
			C360.4,190.2,360.4,190.2,360.6,190.2L360.6,190.2L360.6,190.2z"/>
		<path class="st37" d="M312.9,181.2c0.7,0.1,1.3,0.1,2,0.2c1,0.1,1.9,0.3,2.9,0.4c1.2,0.2,2.4,0.4,3.5,0.6c3.2,0.6,6.4,1.3,9.5,2.4
			c1.2,0.4,2.3,0.9,3.5,1.4c2,0.9,4,1.8,6,2.7c0.9,0.4,1.8,0.8,2.7,1.2c3,1.4,5.9,2.8,8.8,4.3c0.6,0.3,1.2,0.6,1.8,1
			c0.2,0.1,0.4,0.2,0.5,0.4c0.1,0.1,0.3,0.2,0.4,0.2c0.2,0,0.5,0,0.7,0c0.9-0.2,1.8-0.4,2.8-0.5c1.3-0.3,2.6-0.5,3.9-0.6
			c0.9-0.1,1.9-0.2,2.8-0.2s1.8,0.1,2.6,0.2c1,0.2,1.9,1,2.2,2c0.1,0.4,0.2,0.9,0.2,1.3c0,0.2-0.1,0.3-0.1,0.5
			c-0.1,0.1-0.2,0.2-0.3,0.3c-0.2-0.1-0.4-0.2-0.6-0.3c-1.2-0.7-2.4-1.2-3.8-1.4c-0.1,0-0.3,0-0.4,0c-1,0-1.9,0-2.9,0.2
			c-1.7,0.3-3.3,0.8-4.9,1.4l-0.1,0.1c-0.1,0-0.3,0-0.4,0.1c-0.5,0.2-1,0.4-1.5,0.6c-0.2,0.1-0.3,0.1-0.5,0.1c-0.3,0-0.6,0-0.9-0.2
			s-0.5-0.4-0.8-0.6c-5-3.4-10.3-6.1-15.8-8.4c-2.5-1-5.1-1.9-7.7-2.7c-1.9-0.6-3.9-1.2-5.8-1.7c-1.1-0.3-2.3-0.5-3.4-0.6
			c-0.5,0-1-0.1-1.6,0.1c-0.3,0.1-0.5,0.2-0.7,0.4s-0.4,0.5-0.6,0.7s-0.4,0.3-0.8,0.3c-0.9,0-1.9,0-2.8,0c-0.2,0-0.4,0-0.6,0
			s-0.5,0-0.7,0c-0.3,0-0.4-0.1-0.5-0.3c0-0.2,0-0.4-0.1-0.6c0.2-0.2,0.3-0.4,0.3-0.6c0.3-0.8,0.5-1.6,0.8-2.4
			C312.8,182.3,312.9,181.8,312.9,181.2z"/>
		<path class="st32" d="M325.5,178.9c-0.4,0-0.8-0.1-1.2-0.1c-1.2-0.2-2.3-0.4-3.5-0.7c-0.8-0.2-1.5-0.3-2.3-0.5
			c-0.1,0-0.1,0-0.2-0.1c0-0.3,0-0.6,0-0.9c0-0.4,0.1-0.8,0.2-1.2c0.1-0.7,0.6-1.1,1.1-1.5c0.3-0.2,0.6-0.5,1-0.7
			c0.5-0.3,1.1-0.5,1.7-0.5c0.2,0,0.4,0,0.6,0c0.6,0,1.1,0.1,1.6,0.3c0.1,0.1,0.3,0.1,0.4,0.1c0.3,0.5,0.4,1.1,0.5,1.7
			C325.5,176.3,325.5,177.6,325.5,178.9z"/>
		<path class="st31" d="M312.9,181.2c0,0.6-0.1,1.1-0.3,1.6c-0.3,0.8-0.5,1.6-0.8,2.4c-0.1,0.2-0.1,0.5-0.3,0.6
			c-0.8,0.1-1.5,0-2.2-0.2c-0.3-1.8-0.5-6.6,0-7.9c0.6-0.1,1.1,0,1.7,0s1.2,0,1.7,0c0,0.8,0,1.7,0,2.5
			C312.7,180.5,312.8,180.9,312.9,181.2z"/>
		<path class="st31" d="M305.3,158.4c0.5-0.1,1-0.1,1.5-0.2c0.5-0.1,1-0.1,1.5-0.2c0.1,0,0.3,0,0.4,0c0.3,0,0.6,0,0.9-0.1
			c0.1,0,0.2,0,0.4,0c0.4,0,0.8,0,1.1,0c0.1,0,0.3,0,0.4,0c0.5-0.1,1-0.1,1.4-0.1c0.6,0.1,1.3,0.1,1.9,0.1c0.2,0,0.5,0.1,0.7,0.1
			c0,0.5,0,0.9,0,1.4c-1-0.2-2,0-3,0.1s-1.9,0.2-2.9,0.3c-0.5,0.1-1,0.1-1.6,0.2c-0.3,0-0.6,0-1,0.1c-0.5,0-0.8-0.1-1.1-0.5
			C305.7,159.2,305.5,158.8,305.3,158.4z"/>
		<path class="st38" d="M352.5,220.4c0,7.9-4.7,14.3-11,17.1c-1.7,0.7-3.5,1.2-5.3,1.4c-8.2,0.8-15.7-4-18.7-11.6
			c-0.7-1.8-1.1-3.7-1.2-5.6c-0.4-5.9,2.1-11.6,6.5-15.3c2.5-2.1,5.4-3.4,8.6-4c6.1-1,12.2,1.2,16.4,5.8c2.3,2.6,3.7,5.5,4.4,8.9
			C352.4,218.3,352.5,219.5,352.5,220.4z M334.2,234c1.5,0,2.7-0.2,4-0.6c6.3-1.9,10.5-8.5,9.1-15.4c-0.6-3-2-5.6-4.4-7.6
			c-3.5-3-7.6-3.9-12.1-2.7c-5.2,1.4-9.4,6.3-9.6,12.5c-0.1,1.6,0.2,3.2,0.7,4.8C323.6,229.9,328.3,233.9,334.2,234z"/>
		<path class="st31" d="M324.4,159.2c-0.1,0.2-0.2,0.4-0.3,0.5c-0.1,0.1-0.1,0.2-0.2,0.2c-0.5-0.1-1.6-0.2-1.9-0.2
			c0,0.3,0,0.7,0.2,1c0.2,0.4,0.5,0.8,0.7,1.1c0.1,0.3-0.1,0.5-0.3,0.8c-0.1,0-0.2-0.1-0.3-0.2c-0.7-1-1.2-2.1-1.4-3.2
			c0-0.2,0-0.4,0-0.5c0.3-0.1,0.6-0.1,0.9,0c0.2,0,0.4,0.1,0.6,0.2c0.4,0.1,0.7,0.2,1.1,0.2C323.9,159.1,324.1,159.2,324.4,159.2z"
			/>
		<path class="st34" d="M484.4,222.6c-0.1-0.6-0.1-1.2-0.2-1.8c0.2,0.1,0.3,0.1,0.5,0.2c1.4,0.7,2.8,1.3,4.1,2.1
			c0.1,0.1,0.2,0.1,0.3,0.2c0.3,0.2,0.6,0.2,0.9-0.1c-0.1,0.6-0.4,1.2-0.6,1.8c-0.2-0.1-0.3-0.1-0.5-0.2c-1.4-0.7-2.7-1.4-4.1-2.1
			C484.6,222.7,484.5,222.6,484.4,222.6z"/>
		<path class="st39" d="M496.1,218c0.6,0.2,1.1,0.3,1.6,0.4c0,0.6-0.3,1.4-0.9,2.5c-1.1,2.1-1.4,2.7-2,3.2c0-0.1,0-0.1,0-0.1
			C495.3,222,495.7,220,496.1,218z"/>
		<path class="st40" d="M405.1,185.1L405.1,185.1L405.1,185.1c0.1-0.1,0.1-0.2,0-0.2c-0.1-0.1-0.3-0.1-0.4-0.2
			c-0.5-0.2-1-0.4-1.6-0.6c-0.2-0.1-0.3-0.2-0.4-0.4c-0.3-0.6-0.7-1.2-1-1.8c-0.2-0.4-0.5-0.7-0.7-1.1c-0.2-0.3-0.4-0.4-0.7-0.5
			c-0.4-0.1-0.8-0.3-1.2-0.4c-3-0.9-5.9-1.8-8.9-2.7c0.1-0.1,0.3-0.3,0.4-0.4c2.4-1.8,4.7-3.6,7.1-5.4c0.3-0.3,0.6-0.5,0.9-0.8
			c0.4-0.5,1-0.7,1.6-0.8c0.5,0,1.1,0,1.6,0.1c2.3,0.5,4.6,0.9,6.8,1.4c3.6,0.7,7.3,1.5,10.9,2.3c2.3,0.5,4.6,1.1,6.9,1.8
			c0.6,0.2,1.1,0.4,1.6,0.6c0.6,0.2,1.1,0.5,1.7,0.8c1.6,0.9,3.1,2,4.6,3c2.9,2.1,5.8,4.2,8.5,6.5c0.6,0.5,1.3,1.1,1.9,1.6
			c0.4,0.3,0.7,0.7,0.9,1.1c0.2,0.2,0.3,0.5,0.4,0.8s0,0.5-0.3,0.6c-0.1,0-0.2,0.1-0.2,0.1c-1.9,0.9-3.8,1.6-5.9,2.1
			c-0.9,0.2-1.8,0.3-2.8,0.4c-0.7,0-1.4-0.1-2.1-0.3c-2.5-0.5-5-1.1-7.4-1.7c-6.3-1.6-12.6-3.3-18.9-5.1c-0.3-0.1-0.5-0.2-0.8-0.3
			c-0.1,0-0.1,0-0.2,0c-0.5-0.2-0.9-0.4-1.4-0.5c-0.1,0-0.1-0.1-0.2,0l0,0c-0.1-0.2-0.3-0.2-0.5-0.2C405,184.9,405,185,405.1,185.1z
			"/>
		<path class="st33" d="M457.6,193.7c-0.6,0.1-1.2,0.2-1.9,0.3c-0.2,0-0.5,0-0.7,0c-0.1-0.1-0.1-0.2-0.2-0.2c-1.6-1-3.3-1.6-5.2-1.4
			c-0.4,0-0.9,0.2-1.3,0.3c-1.2,0.3-2.3,0.8-3.3,1.4c-0.6,0.3-1.2,0.7-1.8,1c-0.4,0.3-0.9,0.4-1.4,0.5c-1.6,0.4-3.1,0.5-4.7,0.4
			c-2.3-0.2-4.6-0.7-6.8-1.4c-2.4-0.7-4.8-1.4-7.2-2c-3.6-0.9-7.3-1.8-11-2.6c-2.4-0.5-4.7-1-7.1-1.5c-2-0.4-4-0.7-6-1.1
			c-1.7-0.3-3.4-0.6-5.1-0.9c-1.9-0.3-3.8-0.7-5.8-1c-1.5-0.3-3.1-0.6-4.6-0.8c-0.9-0.1-1.8-0.3-2.7-0.4c-0.9-0.1-1.9-0.3-2.8-0.4
			c-0.9-0.1-1.8-0.2-2.7-0.4c-0.9-0.1-1.8-0.3-2.7-0.4c-0.9-0.1-1.8-0.3-2.7-0.4c-0.9-0.1-1.8-0.3-2.7-0.4c-0.9-0.1-1.9-0.3-2.9-0.3
			c-0.9-0.1-1.8-0.2-2.7-0.3c-0.8-0.1-1.6-0.2-2.4-0.3s-1.6-0.2-2.5-0.3c-0.8-0.1-1.5-0.2-2.3-0.2c-0.9-0.1-1.9-0.2-2.8-0.3
			s-1.8-0.2-2.6-0.3c-1-0.1-2-0.2-3-0.3c-0.7-0.1-1.3-0.1-2-0.1c-0.5,0-1-0.1-1.5-0.1c-0.1-0.3-0.1-0.7,0-1c0.3-0.1,0.7,0,1,0
			c0.7,0.1,1.5,0.1,2.2,0.2c1,0.1,2.1,0.2,3.1,0.3c0.4,0,0.9,0.1,1.3,0.1c1,0.1,2,0.2,3,0.3c1.4,0.1,2.7,0.3,4.1,0.4
			c1,0.1,1.9,0.2,2.9,0.3c0.9,0.1,1.8,0.2,2.7,0.3c0.8,0.1,1.7,0.2,2.5,0.3c0.9,0.1,1.8,0.2,2.6,0.3c0.7,0.1,1.4,0.2,2.2,0.2
			c1.6,0.2,3.1,0.4,4.7,0.7c1,0.2,2.1,0.4,3.2,0.5c1.1,0.2,2.3,0.3,3.4,0.5s2.2,0.3,3.3,0.5c1,0.2,2.1,0.3,3.1,0.5
			c1.1,0.2,2.1,0.3,3.2,0.5c1.6,0.3,3.2,0.5,4.8,0.8c1.5,0.3,3,0.5,4.5,0.8c2.3,0.4,4.5,0.9,6.8,1.4c2.4,0.5,4.7,1.1,7.1,1.7
			c2.4,0.6,4.7,1.3,7.1,2c2.5,0.8,5.1,1.5,7.7,2.1c1.6,0.4,3.2,0.7,4.8,0.9c1.5,0.2,3.1,0.4,4.6,0.3c1.1,0,2.2-0.1,3.3-0.4
			c0.5-0.1,1-0.4,1.5-0.6c1.6-0.9,3.2-1.7,5-2.1c0.9-0.2,1.9-0.3,2.8,0c2,0.5,4,1.1,5.9,1.8C457.1,193.4,457.4,193.4,457.6,193.7z"
			/>
		<path class="st41" d="M360.6,190.2L360.6,190.2C360.5,190.2,360.5,190.2,360.6,190.2c-0.1,0-0.2-0.1-0.2-0.1
			c-0.2-0.1-0.5-0.2-0.7-0.3c-0.8-0.4-1.6-0.8-2.5-1.3c-0.1-0.1-0.3-0.1-0.4-0.2c0.1,0,0.1-0.1,0.2-0.1c1,0.2,2,0.4,3,0.6
			c1.2,0.2,2.4,0.5,3.7,0.7c1.5,0.3,3,0.6,4.4,0.9c2.5,0.5,5,1.1,7.4,1.8c1.8,0.5,3.6,1,5.3,1.4c1.8,0.5,3.5,1,5.3,1.5
			c1,0.3,2.1,0.6,3.1,1c4.2,1.3,8.5,2.7,12.7,4.1c1.7,0.6,3.4,1.2,5.2,1.8c0.1,0,0.2,0.1,0.3,0.2c-0.1,0.2-0.2,0.3-0.2,0.5
			c-0.2,0-0.4,0-0.6-0.1c-1.9-0.6-3.8-1.1-5.7-1.7c-2.1-0.6-4.2-1.2-6.2-1.8c-1.5-0.5-3-0.9-4.6-1.4c-2.1-0.6-4.3-1.3-6.4-1.9
			c-1.1-0.3-2.2-0.7-3.4-1c-2-0.6-4.1-1.2-6.1-1.8c-0.3-0.1-0.7-0.2-1-0.3c-1.4-0.4-2.8-0.7-4.2-1c-1.7-0.4-3.5-0.7-5.2-1.1
			c-0.9-0.2-1.8-0.4-2.6-0.6C360.8,190.2,360.7,190.2,360.6,190.2z"/>
		<path class="st42" d="M407.1,202.9c0-0.2,0.1-0.4,0.2-0.5c0.2,0,0.4,0.1,0.6,0.1c0.7,0.3,1.5,0.5,2.2,0.8c0.3,0.1,0.5,0.3,0.7,0.5
			c2.3,2.2,4.7,4.5,7,6.7c0.3,0.3,0.7,0.6,1,1c0.3,0.3,0.5,0.5,0.5,0.9c0,0.2-0.1,0.3-0.1,0.5c-0.2,0.5-0.5,1-1.1,1.3
			c-0.7,0.4-1.4,0.7-2.1,1c-0.2,0.1-0.3,0.1-0.5,0c-0.1-0.1-0.1-0.1-0.2-0.2c-0.2-0.3-0.3-0.6-0.5-0.8c-1.4-1.9-2.9-3.8-4.3-5.8
			c-0.8-1.1-1.6-2.3-2.4-3.4c-0.3-0.4-0.5-0.8-0.7-1.2C407.2,203.5,407.1,203.2,407.1,202.9z"/>
		<path class="st37" d="M390.1,177.2c3,0.9,5.9,1.8,8.9,2.7c0.4,0.1,0.8,0.3,1.2,0.4c0.3,0.1,0.5,0.3,0.7,0.5
			c0.2,0.4,0.5,0.7,0.7,1.1c0.4,0.6,0.7,1.2,1,1.8c0.1,0.2,0.2,0.3,0.4,0.4c0.5,0.2,1,0.4,1.6,0.6c0.1,0.1,0.3,0.1,0.4,0.2
			c0.1,0.1,0.1,0.2,0,0.2s-0.2-0.1-0.3-0.1c-0.3-0.1-0.6-0.1-0.9-0.2c-2-0.5-3.9-1.1-5.9-1.7c-2.4-0.7-4.9-1.4-7.3-2
			c-0.7-0.2-1.4-0.4-2.1-0.7c-0.6-0.2-1-0.5-1.4-1.1c0.1-0.1,0.2-0.2,0.4-0.3c0.8-0.6,1.5-1.2,2.3-1.7
			C389.9,177.3,390,177.2,390.1,177.2z"/>
		<path class="st33" d="M468.9,199.3c0.4,0,0.7,0.1,1.1,0.2c3.3,0.7,6.5,1.8,9.6,3.2c0.2,0.1,0.4,0.2,0.7,0.1c0.3,0,0.6-0.1,0.8-0.4
			c0.2-0.2,0.4-0.4,0.6-0.6c0.4-0.4,0.9-0.6,1.5-0.6c1,0.1,1.8,0.5,2.3,1.3c0.4,0.7,0.7,1.5,0.9,2.2c0.1,0.5,0.2,1.1,0.3,1.6
			c0,0.1,0.1,0.2,0.1,0.3c-0.2-0.1-0.4-0.1-0.6-0.2c-3.6-1.5-7.3-3.1-10.9-4.6c-1.9-0.8-3.9-1.6-5.8-2.4
			C469.2,199.5,469,199.5,468.9,199.3z"/>
		<path class="st34" d="M415.4,214.9c0.1,0.1,0.1,0.1,0.2,0.2c0.1,0.1,0.3,0.1,0.5,0c0.7-0.3,1.4-0.6,2.1-1c0.5-0.3,0.8-0.8,1.1-1.3
			c0.1-0.1,0.1-0.3,0.1-0.5c0,0.1,0.1,0.2,0.1,0.2c0,0.4,0,0.8-0.1,1.2c-0.1,0.3-0.3,0.6-0.6,0.8c-0.5,0.3-0.9,0.6-1.4,0.9
			c-1.4,0.7-2.8,1.4-4.3,2c-1.8,0.8-3.6,1.5-5.5,2.2c-1.4,0.6-2.8,1.1-4.2,1.6c-0.4,0.2-0.9,0.3-1.3,0.5c-0.1,0-0.2,0-0.3,0.1
			c0.2-0.2,0.4-0.3,0.6-0.4c1.5-0.7,3-1.5,4.5-2.2c2.2-1.1,4.5-2.2,6.7-3.4C414.1,215.6,414.7,215.2,415.4,214.9z"/>
		<path class="st34" d="M405.8,185.1c0.5,0.2,0.9,0.4,1.4,0.5c-0.6-0.1-1.1-0.2-1.6-0.4C405.7,185.2,405.7,185.2,405.8,185.1z"/>
		<path class="st37" d="M405.1,185.1c0-0.1-0.1-0.2,0-0.2c0.2,0,0.4,0,0.5,0.2C405.4,185.1,405.2,185.1,405.1,185.1z"/>
		<path class="st33" d="M468.6,199.2c0.1,0,0.2,0,0.3,0.1C468.8,199.3,468.7,199.3,468.6,199.2z"/>
		<path class="st37" d="M405.8,185.1c-0.1,0-0.1,0.1-0.2,0.1v-0.1C405.7,185,405.7,185.1,405.8,185.1z"/>
		<path class="st34" d="M404.8,185c0.1,0,0.2,0.1,0.3,0.1l0,0C405,185.1,404.9,185,404.8,185z"/>
		<path class="st34" d="M401.4,221.9L401.4,221.9C401.5,221.9,401.5,221.9,401.4,221.9C401.5,222,401.4,221.9,401.4,221.9z"/>
		<path class="st22" d="M480.8,224c0,6.2-3.7,11.9-9.4,14.3c-2.1,0.9-4.4,1.4-6.7,1.2c-5.3-0.4-9.3-2.8-12.2-7.2
			c-1.2-1.9-1.9-3.9-2.2-6.2c-0.9-6.9,2.6-13.3,8.6-16.2c1.6-0.8,3.3-1.3,5.1-1.4c5.8-0.6,11.4,2.2,14.5,7.2
			c1.2,1.9,1.9,4.1,2.2,6.3C480.7,222.7,480.7,223.4,480.8,224z M476.6,223.8c0-0.5-0.1-1.2-0.2-1.9c-0.6-2.8-1.9-5.1-4.2-6.8
			c-2.7-2.1-5.7-2.8-9-2.1c-2.6,0.5-4.6,1.9-6.3,3.9c-2.2,2.7-2.9,5.8-2.3,9.2c0.4,2.1,1.3,3.9,2.6,5.4c3.1,3.5,7.8,4.6,12,3.1
			C473.5,233.1,476.6,228.8,476.6,223.8z"/>
		<path class="st43" d="M360.3,190.1c0,0,0.1,0,0.1,0.1C360.4,190.2,360.4,190.2,360.3,190.1z"/>
		<path class="st44" d="M334.2,234c-5.9-0.1-10.5-4.1-12.2-9c-0.5-1.6-0.8-3.2-0.7-4.8c0.2-6.2,4.4-11.1,9.6-12.5
			c4.5-1.2,8.5-0.3,12.1,2.7c2.4,2,3.8,4.6,4.4,7.6c1.3,6.9-2.8,13.4-9.1,15.4C336.9,233.8,335.6,234,334.2,234z"/>
		<path class="st24" d="M476.6,223.8c0,5.1-3,9.3-7.4,10.9c-4.2,1.5-8.9,0.4-12-3.1c-1.4-1.6-2.3-3.4-2.6-5.4
			c-0.6-3.4,0.2-6.5,2.3-9.2c1.6-2,3.7-3.4,6.3-3.9c3.3-0.7,6.4,0,9,2.1c2.3,1.7,3.6,4,4.2,6.8C476.5,222.5,476.6,223.3,476.6,223.8
			z"/>
	</g>
	<g class="st45">
		
			<pattern  id="SVGID_1_" xlink:href="#SVGID_0000012776198955295640061" patternTransform="matrix(0.1 0 0 -0.1 -69919.9297 -9060.8408)"  class="st45">
		</pattern>
		<path class="st46" d="M540.9,147l-14.6,106.5v0.8c-0.1,1.3-0.3,2.6-0.7,3.8c0,0.1-0.1,0.3-0.1,0.4c-2.1,5.2-8.9,10.6-30.4,10.6
			h-200c-7.1,0-13.2-4.8-15-11.4c0-0.1-0.1-0.3-0.1-0.4c-0.1-0.2-0.1-0.4-0.2-0.7c-0.2-1-0.3-2.1-0.3-3.1l-0.7-5L264.9,147H540.9z"
			/>
	</g>
</g>
<g>
	<path class="st5" d="M422.6,365.8c-1.6-0.5-3-0.9-4.4-1c-0.8-0.1-1.7-0.2-2.6-0.2c1.5-1.5,2.3-3.7,2.3-6.6c0-3.5-0.8-6.3-2.3-8
		c-1.6-2-4.1-3.6-7.4-4.8l-1.9-0.6c-1.4-0.4-2.7-0.8-3.9-1.2c-1.8-0.5-3.3-0.8-4.8-1.2l-2-0.4v20.5l-2.3,0.7l-8.9,3.2l-1.6,0.6
		c-2,0.8-4.6,2.1-4.6,4.4v0.2c0.1,1.2,1.1,3.4,5.5,4.4c1.2,0.4,2.5,0.5,3.6,0.7c1.2,0.2,2.5,0.2,3.8,0.2c1.4,0,2.9-0.1,4.5-0.4v1.9
		l8.1,2.6l1.4,0.5l1.3-0.5l5.1-1.9l10.5-3.8l1.1-0.6c3.9-1.4,4.5-3.4,4.5-4.6C427.6,367.4,423.8,366.2,422.6,365.8L422.6,365.8z
		 M396.5,368.2l-1,0.4l-5.7,2.1l-1.8,0.6c-0.2,0.2-0.5,0.2-0.6,0.3c-0.2,0.2-0.3,0.2-0.5,0.3c-0.3,0.3-0.2,0.7,0.3,1l2.4,0.3
		l2.6-0.5l1.5-0.6l1.8-0.6l0.8-0.3v3.7c-0.3,0.1-0.5,0.1-0.8,0.1c-1.6,0.3-3.1,0.4-4.5,0.4c-1.3,0-2.4,0-3.6-0.2
		c-1.1-0.2-2.3-0.3-3.4-0.6c-2.8-0.6-4.2-1.8-4.4-3.1c0-1,1.1-1.9,3.6-2.9l1.6-0.6l8.9-3.2l1.8-0.5l1-0.3L396.5,368.2L396.5,368.2
		L396.5,368.2z M404.8,352v27.7l-7.6-2.4V344c1.5,0.3,2.9,0.7,4.7,1.1c1.8,0.5,3.7,1.1,5.8,1.8c3.2,1.1,5.3,2.6,6.6,4.2
		c1.3,1.5,1.9,3.9,1.9,7c0,2.9-0.8,4.9-2.4,6c-0.6,0.5-1.6,0.8-2.6,0.8s-2.1-0.2-3.4-0.8v-11.2c0-1.6-0.5-2.4-1.5-2.8
		c-0.5-0.2-1,0-1.1,0.3C404.9,350.7,404.8,351.2,404.8,352L404.8,352z M407.5,365.5c-0.4,0.1-0.7,0.2-1.1,0.3V365l0.7,0.3
		C407.2,365.4,407.3,365.5,407.5,365.5z M422.4,373.2l-1.1,0.7l-10.4,3.7l-4.5,1.7l-1.1,0.4v-4.4l1.1-0.4l9.4-3.5l2.3-0.8
		c1-0.3,1.3-0.7,1.3-1c-0.2-0.3-0.6-0.5-1.1-0.6H416l-1.8,0.5l-2.6,0.8l-5.2,1.9l-1.1,0.4V368c0.4-0.2,0.8-0.3,1.1-0.5
		c1.1-0.4,2.1-0.6,3.1-0.8c1.5-0.2,3.1-0.5,4.5-0.5c1.3-0.2,2.8,0,4,0.2c1.3,0.2,2.6,0.5,4,1c2.6,0.8,3.9,1.8,3.9,2.8
		C426,371.2,424.8,372.4,422.4,373.2L422.4,373.2z"/>
	<g>
		<path class="st47" d="M404.8,372.7V352c0-0.8,0.2-1.3,0.5-1.6c0.2-0.3,0.6-0.5,1.1-0.3c1,0.3,1.5,1.1,1.5,2.8v11.2
			c1.3,0.6,2.4,0.8,3.4,0.8s1.9-0.3,2.6-0.8c1.6-1.1,2.4-3.1,2.4-6c0-3.1-0.6-5.5-1.9-7c-1.3-1.6-3.4-3.1-6.6-4.2
			c-2.1-0.6-4-1.3-5.8-1.8s-3.2-0.8-4.7-1.1v19.7l0,0v4.4l0,0v2.8l0,0v4l0,0v2.4l7.6,2.4v-5.8l0,0v-1.2L404.8,372.7L404.8,372.7z"/>
		<path class="st47" d="M387,371.9c-0.3,0.3-0.2,0.6,0.3,1l2.4,0.3l2.6-0.5l1.5-0.6l2.6-0.9v3.7c-1.9,0.3-3.7,0.5-5.3,0.5
			c-1.3,0-2.4,0-3.6-0.2c-1.1-0.2-2.3-0.3-3.4-0.6c-2.8-0.6-4.2-1.8-4.4-3.1c0-1,1.1-1.9,3.6-2.9l1.6-0.6l8.9-3.2l2.8-0.8v4.4
			l-6.6,2.4l-1.8,0.6c-0.2,0.2-0.5,0.2-0.6,0.3C387.3,371.7,387.1,371.7,387,371.9L387,371.9z"/>
		<path class="st47" d="M422.1,367.3c-1.5-0.5-2.8-0.8-4-1c-1.3-0.2-2.8-0.3-4-0.2c-1.5,0-3.1,0.3-4.5,0.5c-1.3,0.3-2.8,0.6-4.2,1.3
			v4.5l6.3-2.3l2.6-0.8l1.8-0.5h2.3c0.5,0.2,1,0.3,1.1,0.6c0,0.3-0.3,0.6-1.3,1l-2.3,0.8l-10.5,3.9v4.4l5.7-2.1l10.4-3.7l1.1-0.6
			c2.4-0.8,3.6-1.9,3.6-3.1C426,369.1,424.7,368.2,422.1,367.3L422.1,367.3z"/>
	</g>
</g>
<g>
	<g>
		<path class="st48" d="M697.2,109.9c0-0.8-0.4-1.5-1.1-1.9c-4.5-2.9-23.4-13.6-51.5-13.6s-41.1,5.9-45.1,8c-0.8,0.4-1.2,1.2-1.2,2
			c0,0,9.8-2.9,47.5-2.9S697.2,109.9,697.2,109.9L697.2,109.9z"/>
		<path class="st49" d="M697.1,116.8L697.1,116.8v-6.9c0,0-13.7-8.4-51.4-8.4s-47.5,2.9-47.5,2.9v11l0,0c7.7-1.3,21.2-2.6,44.1-2.6
			C670.8,112.9,688.2,115.2,697.1,116.8L697.1,116.8z"/>
	</g>
	<g>
		<path class="st48" d="M108.8,109.9c0-0.8,0.4-1.5,1.1-1.9c4.5-2.9,23.4-13.6,51.5-13.6s41.1,5.9,45.1,8c0.8,0.4,1.2,1.2,1.2,2
			c0,0-9.8-2.9-47.5-2.9S108.8,109.9,108.8,109.9z"/>
		<path class="st49" d="M108.9,116.8L108.9,116.8v-6.9c0,0,13.7-8.4,51.4-8.4s47.5,2.9,47.5,2.9v11l0,0c-7.7-1.3-21.2-2.6-44.1-2.6
			C135.2,112.9,117.8,115.2,108.9,116.8z"/>
	</g>
</g>
<g>
	<g>
		<g>
			<path class="st49" d="M697.2,90.8c0,0-32.7-3.2-50.6-3.2S598.2,90,598.2,90s3.1-44.7,4.8-52c1.6-7.3,7.7-21.3,16.9-27.9
				S631.8,0,642.6,0s25.4,6.4,34.6,21.4C686.5,36.4,697.2,90.8,697.2,90.8z"/>
			<path class="st48" d="M598.7,83.2c0,0,26.1-4.4,49-4.4s47.9,4.4,47.9,4.4c1,4.7,1.6,7.6,1.6,7.6s-32.7-3.2-50.6-3.2
				S598.2,90,598.2,90S598.4,87.3,598.7,83.2z"/>
		</g>
		<g class="st50">
			<path class="st8" d="M648.7,65.7c-2.1,1.7-3.2,2.6-3.2,2.6c-1.2,1.2-1.9,2.7-2,4.5h9.8v-2.6H647c0.3-0.5,1-1.2,2.1-1.9
				c1.4-0.9,2.3-1.6,2.7-2.1c0.9-1,1.3-2.1,1.3-3.3c0-1.4-0.5-2.5-1.4-3.3s-2.1-1.2-3.5-1.2c-3.1,0-4.7,1.7-4.7,5h2.7
				c0-1.8,0.7-2.7,2.1-2.7c1.3,0,2,0.7,2,2.1C650.5,63.9,649.9,64.8,648.7,65.7L648.7,65.7z"/>
			<path class="st8" d="M631.1,67.2h3c1.5,0,2.3,0.6,2.4,1.9c0.1,1.2,0.2,2.5,0.3,3.8h3.3v-0.4c-0.5-0.2-0.7-0.7-0.7-1.5
				c0-0.2,0-0.4,0.1-0.8v-0.7c0-1.7-0.6-2.9-1.8-3.5c1.4-0.5,2.2-1.6,2.2-3.4c0-1.3-0.4-2.3-1.3-3c-0.8-0.7-1.9-1-3.2-1h-7.3v14.3h3
				V67.2z M631.1,61h3.7c1.4,0,2.1,0.6,2.1,1.9s-0.8,1.9-2.3,1.9h-3.5V61z"/>
		</g>
	</g>
	<g>
		<g>
			<path class="st49" d="M108.8,90.8c0,0,32.7-3.2,50.6-3.2s48.3,2.4,48.3,2.4s-3.1-44.7-4.8-52c-1.6-7.3-7.7-21.3-16.9-27.9
				C176.9,3.4,174.2,0,163.4,0S138,6.4,128.8,21.4S108.8,90.8,108.8,90.8L108.8,90.8z"/>
			<path class="st48" d="M207.3,83.2c0,0-26.1-4.4-49-4.4s-47.9,4.4-47.9,4.4c-1,4.7-1.6,7.6-1.6,7.6s32.7-3.2,50.6-3.2
				s48.3,2.4,48.3,2.4S207.6,87.3,207.3,83.2z"/>
		</g>
		<g class="st50">
			<path class="st8" d="M173.3,65.7c-2.1,1.7-3.2,2.6-3.2,2.6c-1.2,1.2-1.9,2.7-2,4.5h9.8v-2.6h-6.2c0.3-0.5,1-1.2,2.1-1.9
				c1.4-0.9,2.3-1.6,2.7-2.1c0.9-1,1.3-2.1,1.3-3.3c0-1.4-0.5-2.5-1.4-3.3s-2.1-1.2-3.5-1.2c-3.1,0-4.7,1.7-4.7,5h2.7
				c0-1.8,0.7-2.7,2.1-2.7c1.3,0,2,0.7,2,2.1C175.1,63.9,174.5,64.8,173.3,65.7L173.3,65.7z"/>
			<polygon class="st8" points="164.8,70.2 157.8,70.2 157.8,58.5 154.7,58.5 154.7,72.8 164.8,72.8 			"/>
		</g>
	</g>
</g>
<path class="st51" d="M240.7,142.5L240.7,142.5c-0.4,0-0.8-0.4-0.8-0.8v-5.6c0-0.4,0.4-0.8,0.8-0.8l0,0c0.4,0,0.8,0.4,0.8,0.8v5.6
	C241.5,142.2,241.1,142.5,240.7,142.5z"/>
<path class="st51" d="M238.3,143L238.3,143c-0.4,0.2-0.9,0-1.1-0.4l-2.4-5.1c-0.2-0.4,0-0.9,0.4-1.1l0,0c0.4-0.2,0.9,0,1.1,0.4
	l2.4,5.1C238.8,142.3,238.7,142.8,238.3,143z"/>
<path class="st51" d="M243.1,143L243.1,143c0.4,0.2,0.9,0,1.1-0.4l2.4-5.1c0.2-0.4,0-0.9-0.4-1.1l0,0c-0.4-0.2-0.9,0-1.1,0.4
	l-2.4,5.1C242.5,142.3,242.7,142.8,243.1,143z"/>
<path class="st51" d="M558.5,141.8L558.5,141.8c0-0.4,0.4-0.8,0.8-0.8h12.5c0.4,0,0.8,0.4,0.8,0.8l0,0c0,0.4-0.4,0.8-0.8,0.8h-12.5
	C558.8,142.6,558.5,142.2,558.5,141.8z"/>
<path class="st51" d="M558.5,138.2L558.5,138.2c0-0.4,0.4-0.8,0.8-0.8h12.5c0.4,0,0.8,0.4,0.8,0.8l0,0c0,0.4-0.4,0.8-0.8,0.8h-12.5
	C558.8,139,558.5,138.6,558.5,138.2z"/>
<path class="st51" d="M558.5,134.6L558.5,134.6c0-0.4,0.4-0.8,0.8-0.8h12.5c0.4,0,0.8,0.4,0.8,0.8l0,0c0,0.4-0.4,0.8-0.8,0.8h-12.5
	C558.8,135.4,558.5,135,558.5,134.6z"/>
<g class="st52">
	<path class="st4" d="M342.6,219l-2.5-6.8h-17.7l-2.5,6.8h-9.2v-4.1l15.3-35.5h10.5l15.2,35.5v4.1H342.6L342.6,219z M331.3,186.8
		l-6.6,18.1h13.1L331.3,186.8z"/>
	<path class="st4" d="M355.4,219v-39.5h8.4v32.1h16.7v7.4H355.4z"/>
	<path class="st4" d="M386.4,219v-39.5h28v7.2h-19.6v8.6H414v7.2h-19.1v9.2h19.6v7.3H386.4z"/>
	<path class="st4" d="M446.8,219l-9.9-14.5l-10,14.5h-10v-4.1l14.3-16.2l-13.5-19.3v-4.1l10,4.1l9.1,13.5l8.9-13.5l10.1-4.1v4.1
		l-13.5,19.2l14.3,16.3v4.1H446.8z"/>
	<path class="st4" d="M471.6,219v-16.2l-15.2-23.3v-4.1l9.6,4.1l9.8,15.9l9.7-15.9l9.6-4.1v4.1L480,202.9V219H471.6z"/>
</g>
<g class="st2">
	<path class="st53" d="M342.6,215l-2.5-6.8h-17.7l-2.5,6.8h-9.2l15.3-39.5h10.5l15.2,39.5H342.6L342.6,215z M331.3,182.7l-6.6,18.1
		h13.1L331.3,182.7z"/>
	<path class="st53" d="M355.4,215v-39.5h8.4v32.1h16.7v7.4H355.4z"/>
	<path class="st53" d="M386.4,215v-39.5h28v7.2h-19.6v8.6H414v7.2h-19.1v9.2h19.6v7.3H386.4z"/>
	<path class="st53" d="M446.8,215l-9.9-14.5l-10,14.5h-10l14.3-20.3l-13.5-19.3h10l9.1,13.5l8.9-13.5h10.1l-13.5,19.2l14.3,20.3
		h-9.8V215z"/>
	<path class="st53" d="M471.6,215v-16.2l-15.2-23.3h9.6l9.8,15.9l9.7-15.9h9.6L480,198.8V215H471.6z"/>
</g>
<g class="st54">
	<path class="st8" d="M604.3,356c0,40.3-32.7,73-73,73s-73-32.7-73-73s32.7-73,73-73c20.7,0,39.4,8.6,52.7,22.5
		c4.1,4.2,7.7,9,10.6,14.1C600.8,330.3,604.3,342.8,604.3,356z"/>
</g>
<g class="st52">
	<path class="st4" d="M297.5,219v-32.5h-11.7V179h31.9v7.5h-11.6V219H297.5z"/>
	<path class="st4" d="M347.4,219l-2.5-6.9H327l-2.5,6.9h-9.4v-3.7l15.5-36.3h10.7l15.4,36.3v3.7H347.4z M335.9,186.4l-6.7,18.4h13.3
		L335.9,186.4z"/>
	<path class="st4" d="M388,219l-19.1-26.9V219h-8.5v-40h8.8l18.5,25.9V179h8.5v40H388z"/>
	<path class="st4" d="M404.1,219v-40h15.8c12.1,0,20.7,4.9,21.2,16.3c0,0.4,0,3.3,0,3.7c0,12.1-8.7,20-21.2,20H404.1z M412.7,211.5
		h7.3c7.9,0,12.5-5.7,12.5-12.5c0-7.1-4.3-12.5-12.5-12.5h-7.3V211.5z"/>
	<path class="st4" d="M447.2,219v-40h28.3v7.3h-19.8v8.7h19.4v7.3h-19.4v9.3h19.8v7.4H447.2z"/>
	<path class="st4" d="M504.8,219l-7.9-14.3h-6.2V219h-8.5v-40h18.7c7.8,0,12.8,2.4,13.4,9.2c0,0.4,0,3.3,0,3.7
		c0,7.1-4.4,10.9-8.8,11.9l9,11.5v3.7L504.8,219L504.8,219z M499.6,186.3h-8.9v11h8.9c3.4,0,6-2.2,6-5.5S503.1,186.3,499.6,186.3z"
		/>
</g>
<g class="st2">
	<path class="st55" d="M297.5,215.3v-32.5h-11.7v-7.5h31.9v7.5h-11.6v32.5H297.5z"/>
	<path class="st55" d="M347.4,215.3l-2.5-6.9H327l-2.5,6.9h-9.4l15.5-40h10.7l15.4,40H347.4z M335.9,182.6l-6.7,18.4h13.3
		L335.9,182.6z"/>
	<path class="st55" d="M388,215.3l-19.1-26.9v26.9h-8.5v-40h8.8l18.5,25.9v-25.9h8.5v40H388z"/>
	<path class="st55" d="M404.1,215.3v-40h15.8c12.5,0,21.2,8,21.2,20c0,12.1-8.7,20-21.2,20H404.1z M412.7,207.8h7.3
		c7.9,0,12.5-5.7,12.5-12.5c0-7.1-4.3-12.5-12.5-12.5h-7.3V207.8z"/>
	<path class="st55" d="M447.2,215.3v-40h28.3v7.3h-19.8v8.7h19.4v7.3h-19.4v9.3h19.8v7.4H447.2z"/>
	<path class="st55" d="M504.8,215.3l-7.9-14.3h-6.2v14.3h-8.5v-40h18.7c8.3,0,13.4,5.5,13.4,12.9c0,7.1-4.4,10.9-8.8,11.9l9,15.2
		L504.8,215.3L504.8,215.3z M499.6,182.6h-8.9v11h8.9c3.4,0,6-2.2,6-5.5S503.1,182.6,499.6,182.6z"/>
</g>
<g class="st52">
	<path class="st4" d="M342.7,219.2l-2.5-6.8h-17.7l-2.5,6.8h-9.2v-4.1l15.3-35.5h10.5l15.2,35.5v4.1H342.7L342.7,219.2z M331.4,187
		l-6.6,18.1h13.1L331.4,187z"/>
	<path class="st4" d="M355.5,219.2v-39.5h8.4v32.1h16.7v7.4L355.5,219.2L355.5,219.2z"/>
	<path class="st4" d="M386.5,219.2v-39.5h28v7.2h-19.6v8.6h19.2v7.2H395v9.2h19.6v7.3H386.5z"/>
	<path class="st4" d="M446.9,219.2l-9.9-14.5l-10,14.5h-10v-4.1l14.3-16.2l-13.5-19.3v-4.1l10,4.1l9.1,13.5l8.9-13.5l10.1-4.1v4.1
		l-13.5,19.2l14.3,16.3v4.1H446.9z"/>
	<path class="st4" d="M471.7,219.2V203l-15.2-23.3v-4.1l9.6,4.1l9.8,15.9l9.7-15.9l9.6-4.1v4.1l-15.1,23.4v16.1H471.7z"/>
</g>
<g class="st2">
	<path class="st53" d="M342.7,215.2l-2.5-6.8h-17.7l-2.5,6.8h-9.2l15.3-39.5h10.5l15.2,39.5H342.7L342.7,215.2z M331.4,182.9
		l-6.6,18.1h13.1L331.4,182.9z"/>
	<path class="st53" d="M355.5,215.2v-39.5h8.4v32.1h16.7v7.4L355.5,215.2L355.5,215.2z"/>
	<path class="st53" d="M386.5,215.2v-39.5h28v7.2h-19.6v8.6h19.2v7.2H395v9.2h19.6v7.3H386.5z"/>
	<path class="st53" d="M446.9,215.2l-9.9-14.5l-10,14.5h-10l14.3-20.3l-13.5-19.3h10l9.1,13.5l8.9-13.5h10.1l-13.5,19.2l14.3,20.3
		h-9.8V215.2z"/>
	<path class="st53" d="M471.7,215.2V199l-15.2-23.3h9.6l9.8,15.9l9.7-15.9h9.6L480.1,199v16.2H471.7z"/>
</g>
<g class="st7">
	<path d="M287.5,222.1v-40h8.5v32.5H313v7.5H287.5z"/>
	<path d="M346.9,222.1l-2.5-6.9h-17.9l-2.5,6.9h-9.4V215l15.5-32.9h10.7l15.4,32.9v7.1H346.9z M335.5,189.5l-6.7,18.4h13.3
		L335.5,189.5z"/>
	<path d="M387.5,222.1l-19.1-26.9v26.9H360v-40h8.8l18.5,25.9v-25.9h8.5v40H387.5z"/>
	<path d="M403.7,222.1v-40h15.8c11.9,0,20.4,2.6,21.2,13.7c0,0.6,0,5.8,0,6.4c0,12.1-8.7,20-21.2,20H403.7z M412.2,214.6h7.3
		c7.9,0,12.5-5.7,12.5-12.5c0-7.1-4.3-12.5-12.5-12.5h-7.3V214.6z"/>
	<path d="M446.8,222.1v-40h28.3v7.3h-19.8v8.7h19.4v7.3h-19.4v9.3h19.8v7.4H446.8z"/>
	<path d="M509.3,222.1l-19.1-26.9v26.9h-8.5v-40h8.8L509,208v-25.9h8.5v40H509.3z"/>
</g>
<g>
	<path class="st8" d="M287.5,215v-40h8.5v32.5H313v7.5H287.5z"/>
	<path class="st8" d="M346.9,215l-2.5-6.9h-17.9L324,215h-9.4l15.5-40h10.7l15.4,40H346.9z M335.5,182.4l-6.7,18.4h13.3L335.5,182.4
		z"/>
	<path class="st8" d="M387.5,215l-19.1-26.9V215H360v-40h8.8l18.5,25.9V175h8.5v40H387.5z"/>
	<path class="st8" d="M403.7,215v-40h15.8c12.5,0,21.2,8,21.2,20s-8.7,20-21.2,20H403.7z M412.2,207.5h7.3c7.9,0,12.5-5.7,12.5-12.5
		c0-7.1-4.3-12.5-12.5-12.5h-7.3V207.5z"/>
	<path class="st8" d="M446.8,215v-40h28.3v7.3h-19.8v8.7h19.4v7.3h-19.4v9.3h19.8v7.4H446.8z"/>
	<path class="st8" d="M509.3,215l-19.1-26.9V215h-8.5v-40h8.8l18.5,25.9V175h8.5v40H509.3z"/>
</g>
</svg>
