<?xml version="1.0" encoding="utf-8"?>
<!-- Generator: Adobe Illustrator 26.3.1, SVG Export Plug-In . SVG Version: 6.00 Build 0)  -->
<svg version="1.1" id="Layer_1" opacity="0" xmlns="http://www.w3.org/2000/svg" xmlns:xlink="http://www.w3.org/1999/xlink"
	 x="0px" y="0px" width="806px" height="598.9px" viewBox="0 0 806 598.9" style="enable-background:new 0 0 806 598.9;"
	 xml:space="preserve">
<style type="text/css">
	.st0{fill:#CBCBCB;}
	.st1{fill:#E5E5E5;}
	.st2{fill:#1F1F1F;}
	.st3{opacity:6.000000e-02;}
	.st4{fill:#FFFFFF;}
	.st5{opacity:0.12;}
	.st6{fill:#0A0A0A;}
	.st7{fill:#121212;}
	.st8{opacity:8.000000e-02;}
</style>
<g>
	<g>
		<path class="st0" d="M806,508.8c0,0-4.5,53.4-36.2,74.9s-56.7,14-56.7,14s-33.1-8.1-57.8-41.9s-56.6-129.2-56.6-129.2
			s-2.2-3-5.7-5.3s-6.3-2.6-6.3-2.6H219.1c0,0-2.8,0.3-6.3,2.6s-5.7,5.3-5.7,5.3s-31.9,95.5-56.6,129.2c-5.2,7-10.7,13-16.2,17.9
			c-20.9,18.8-41.6,24-41.6,24s-5.3,1.6-14.2,1.2c-10.3-0.5-25.4-3.6-42.5-15.2C4.8,562.4,0.1,509.9,0,508.8v-20.5
			c0.1-6.4,0.3-13.8,0.6-21.4c0-1.2,0.1-2.5,0.1-3.7c0-0.5,0-1,0.1-1.6c0-0.5,0-1,0.1-1.5c0-0.8,0.1-1.7,0.1-2.5v-0.7
			c0.1-1.4,0.1-2.8,0.2-4.1c0.1-2.2,0.2-4.4,0.4-6.6c0-0.6,0.1-1.2,0.1-1.8c0.3-5,0.7-9.7,1.1-14c0.1-1.3,0.3-2.6,0.4-3.8v-0.3
			c0.3-2.9,0.7-5.5,1.1-7.7C7.2,403.1,22,316.1,36.3,274c9.3-27.7,13-53,17-64.9c12-35.7,33-65.7,33-65.7s9.5-13,10.1-16.3
			s4.7-8.6,4.7-8.6s17.5-5.7,62.3-5.7s53.7,5,53.7,5s2.4,3,5.9,4.8c3.5,1.9,11.7,1.7,11.7,1.7h33.4c0,0,0.5-0.1,0.9,0.3
			c0.3,0.3,0.6,2,0.6,2H536c0,0,0.2-1.6,0.6-2c0.3-0.4,0.9-0.3,0.9-0.3h33.4c0,0,8.2,0.1,11.7-1.7c3.5-1.9,5.9-4.8,5.9-4.8
			s8.8-5,53.7-5s62.3,5.7,62.3,5.7l0.1,0.1l0,0c0.5,0.7,4.1,5.5,4.6,8.5c0.6,3.2,10.1,16.3,10.1,16.3s21,30,33,65.7
			c3.9,11.9,7.6,37.2,17,64.9c14.3,42.1,29.1,129.1,32,144.6c1.9,9.8,3,27.4,3.7,44.4c0,1.3,0.1,2.5,0.1,3.8
			C805.9,488.8,806,508.8,806,508.8L806,508.8z"/>
		<path class="st0" d="M220.9,418.6L220.9,418.6l-2.5,0.1c0.3-0.1,0.5-0.1,0.5-0.1H220.9z"/>
		<path class="st0" d="M726.8,598.8L726.8,598.8c-8.9,0.4-14.2-1.2-14.2-1.2s-20.7-5.1-41.6-24c-5.5-5-11-10.9-16.2-17.9
			c-24.7-33.7-56.6-129.2-56.6-129.2s-2.2-3-5.7-5.3c-2.8-1.8-5.1-2.4-6-2.5H221l-0.1-0.1h-2c0,0-0.2,0-0.5,0.1
			c-1,0.2-3.2,0.8-5.8,2.5c-3.5,2.3-5.7,5.3-5.7,5.3S175,522,150.3,555.7c-5.2,7-10.7,13-16.2,17.9c-20.9,18.8-41.6,24-41.6,24
			s-5.3,1.6-14.2,1.2l0,0c57.5-175.6,71.9-239.5,108.4-265.9c12.4-9,20.7-12.5,20.7-12.5h390.3c0,0,8.3,3.6,20.7,12.5
			C654.9,359.3,669.4,423.3,726.8,598.8z"/>
		<path class="st0" d="M36.6,276c9.4-27.7,13.1-53,17-64.9c12-35.7,33-65.7,33-65.7s9.5-13.1,10.1-16.3c0.6-3.3,4.7-8.6,4.7-8.6
			s17.4-5.7,62.3-5.7s53.7,5,53.7,5s2.4,2.9,5.9,4.8c3.5,1.8,11.7,1.7,11.7,1.7h33.4c0,0,0.6-0.1,0.9,0.3c0.4,0.4,0.6,2,0.6,2h266.2
			c0,0,0.3-1.7,0.6-2c0.4-0.4,0.9-0.3,0.9-0.3H571c0,0,8.2,0.2,11.7-1.7c3.5-1.8,5.9-4.8,5.9-4.8s8.8-5,53.7-5s62.3,5.7,62.3,5.7
			s4.1,5.3,4.7,8.6c0.6,3.3,10.1,16.3,10.1,16.3s21,30,33,65.7c4,11.9,7.7,37.2,17,64.9c14.3,42.1,29.1,129.1,32,144.6
			c3.9,20.9,4.6,77.3,4.7,88.3v-0.1c0,0-0.3-66.9-4.7-90.1c-2.9-15.5-17.7-102.5-32-144.6c-9.4-27.7-13.1-53-17-64.9
			c-12-35.7-33-65.7-33-65.7s-9.5-13.1-10.1-16.3c-0.6-3.3-4.7-8.6-4.7-8.6s-17.4-5.7-62.3-5.7s-53.7,5-53.7,5s-2.4,2.9-5.9,4.8
			c-3.5,1.8-11.7,1.7-11.7,1.7h-33.4c0,0-0.6-0.1-0.9,0.3c-0.4,0.4-0.6,2-0.6,2H269.9c0,0-0.3-1.7-0.6-2c-0.4-0.4-0.9-0.3-0.9-0.3
			H235c0,0-8.2,0.2-11.7-1.7c-3.5-1.8-5.9-4.8-5.9-4.8s-8.8-5-53.7-5s-62.3,5.7-62.3,5.7s-4.1,5.3-4.7,8.6
			c-0.6,3.3-10.1,16.3-10.1,16.3s-21,30-33,65.7c-4,11.9-7.7,37.2-17,64.9c-14.3,42.1-29.1,129.1-32,144.6
			C0.3,441.8,0,508.8,0,508.8v0.1c0.1-10.9,0.7-67.4,4.7-88.3C7.6,405.2,22.3,318.1,36.6,276L36.6,276z"/>
		<circle class="st0" cx="274.7" cy="356" r="51.5"/>
		<circle class="st0" cx="531.3" cy="356" r="51.5"/>
		<path class="st0" d="M746.6,244.8c0,52.1-42.2,94.3-94.3,94.3c-21.8,0-42-7.4-57.9-19.9c-5.3-9.1-12.5-16.9-21.1-22.9
			c-9.7-14.8-15.3-32.5-15.3-51.5c0-52.1,42.2-94.3,94.3-94.3S746.6,192.7,746.6,244.8L746.6,244.8z"/>
		<g>
			<path class="st0" d="M248,244.8c0,18.9-5.6,36.5-15.2,51.3c-8.7,6.1-16,14-21.3,23.2c-16,12.4-36,19.8-57.8,19.8
				c-52.1,0-94.3-42.2-94.3-94.3s42.2-94.3,94.3-94.3S248,192.7,248,244.8z"/>
			<path class="st0" d="M230.4,254.1l9.5-8.9c0.5-0.5,0.5-1.2,0-1.7l-9.5-8.9c-0.7-0.7-1.9-0.2-1.9,0.8v17.8
				C228.4,254.2,229.6,254.7,230.4,254.1L230.4,254.1z"/>
			<path class="st0" d="M145,169.8h17.8c1,0,1.5-1.2,0.8-1.9l-8.9-9.5c-0.5-0.5-1.2-0.5-1.7,0l-8.9,9.5
				C143.5,168.6,144,169.8,145,169.8L145,169.8z"/>
			<path class="st0" d="M77.5,234.6l-9.5,8.9c-0.5,0.5-0.5,1.2,0,1.7l9.5,8.9c0.7,0.7,1.9,0.2,1.9-0.8v-17.8
				C79.4,234.4,78.2,233.9,77.5,234.6L77.5,234.6z"/>
			<path class="st0" d="M162.8,318.8H145c-1,0-1.5,1.2-0.8,1.9l8.9,9.5c0.5,0.5,1.2,0.5,1.7,0l8.9-9.5
				C164.3,320,163.8,318.8,162.8,318.8L162.8,318.8z"/>
		</g>
	</g>
	<g>
		<path class="st1" d="M806,508.8c0,0-4.5,53.4-36.2,74.9s-56.7,14-56.7,14s-33.1-8.1-57.8-41.9s-56.6-129.2-56.6-129.2
			s-2.2-3-5.7-5.3s-6.3-2.6-6.3-2.6H219.1c0,0-2.8,0.3-6.3,2.6s-5.7,5.3-5.7,5.3s-31.9,95.5-56.6,129.2c-5.2,7-10.7,13-16.2,17.9
			c-20.9,18.8-41.6,24-41.6,24s-5.3,1.6-14.2,1.2c-10.3-0.5-25.4-3.6-42.5-15.2C4.8,562.4,0.1,509.9,0,508.8v-20.5
			c0.1-6.4,0.3-13.8,0.6-21.4c0-1.2,0.1-2.5,0.1-3.7c0-0.5,0-1,0.1-1.6c0-0.5,0-1,0.1-1.5c0-0.8,0.1-1.7,0.1-2.5v-0.7
			c0.1-1.4,0.1-2.8,0.2-4.1c0.1-2.2,0.2-4.4,0.4-6.6c0-0.6,0.1-1.2,0.1-1.8c0.3-5,0.7-9.7,1.1-14c0.1-1.3,0.3-2.6,0.4-3.8v-0.3
			c0.3-2.9,0.7-5.5,1.1-7.7C7.2,403.1,22,316.1,36.3,274c9.3-27.7,13-53,17-64.9c12-35.7,33-65.7,33-65.7s9.5-13,10.1-16.3
			c0.6-3.3,4.7-8.6,4.7-8.6s17.5-5.7,62.3-5.7c44.8,0,53.7,5,53.7,5s2.4,3,5.9,4.8c3.5,1.9,11.7,1.7,11.7,1.7h22
			c0.9-0.5,1.9-0.7,2.9-0.7h286.7c1,0,2,0.2,2.9,0.7h21.7c0,0,8.2,0.1,11.7-1.7c3.5-1.9,5.9-4.8,5.9-4.8s8.8-5,53.7-5
			c44.9,0,62.3,5.7,62.3,5.7l0.1,0.1c0.2,0.4,1.3,1.7,2.3,3.4c1,1.7,2,3.6,2.3,5.1c0.6,3.2,10.1,16.3,10.1,16.3s21,30,33,65.7
			c3.9,11.9,7.6,37.2,17,64.9c14.3,42.1,29.1,129.1,32,144.6c1.9,9.8,3,27.4,3.7,44.4c0,1.3,0.1,2.5,0.1,3.8
			C805.9,488.8,806,508.8,806,508.8z"/>
		<path class="st2" d="M220.9,418.6L220.9,418.6l-2.5,0.1c0.3-0.1,0.5-0.1,0.5-0.1H220.9z"/>
		<g class="st3">
			<path class="st4" d="M36.6,276c9.4-27.7,13.1-53,17-64.9c12-35.7,33-65.7,33-65.7s9.5-13.1,10.1-16.3c0.6-3.3,4.7-8.6,4.7-8.6
				s17.4-5.7,62.3-5.7s53.7,5,53.7,5s2.4,2.9,5.9,4.8c3.5,1.8,11.7,1.7,11.7,1.7h33.4c0,0,0.6-0.1,0.9,0.3c0.4,0.4,0.6,2,0.6,2
				h266.2c0,0,0.3-1.7,0.6-2c0.4-0.4,0.9-0.3,0.9-0.3H571c0,0,8.2,0.2,11.7-1.7c3.5-1.8,5.9-4.8,5.9-4.8s8.8-5,53.7-5
				s62.3,5.7,62.3,5.7s4.1,5.3,4.7,8.6c0.6,3.3,10.1,16.3,10.1,16.3s21,30,33,65.7c4,11.9,7.7,37.2,17,64.9
				c14.3,42.1,29.1,129.1,32,144.6c3.9,20.9,4.6,77.3,4.7,88.3v-0.1c0,0-0.3-66.9-4.7-90.1c-2.9-15.5-17.7-102.5-32-144.6
				c-9.4-27.7-13.1-53-17-64.9c-12-35.7-33-65.7-33-65.7s-9.5-13.1-10.1-16.3c-0.6-3.3-4.7-8.6-4.7-8.6s-17.4-5.7-62.3-5.7
				s-53.7,5-53.7,5s-2.4,2.9-5.9,4.8c-3.5,1.8-11.7,1.7-11.7,1.7h-33.4c0,0-0.6-0.1-0.9,0.3c-0.4,0.4-0.6,2-0.6,2H269.9
				c0,0-0.3-1.7-0.6-2c-0.4-0.4-0.9-0.3-0.9-0.3H235c0,0-8.2,0.2-11.7-1.7c-3.5-1.8-5.9-4.8-5.9-4.8s-8.8-5-53.7-5
				s-62.3,5.7-62.3,5.7s-4.1,5.3-4.7,8.6c-0.6,3.3-10.1,16.3-10.1,16.3s-21,30-33,65.7c-4,11.9-7.7,37.2-17,64.9
				c-14.3,42.1-29.1,129.1-32,144.6C0.3,441.8,0,508.8,0,508.8v0.1c0.1-10.9,0.7-67.4,4.7-88.3C7.6,405.2,22.3,318.1,36.6,276
				L36.6,276z"/>
		</g>
	</g>
</g>
<g class="st5">
	<path class="st4" d="M403,319.5c-2.1,0-3.8-1.6-4.1-3.6c0,0.2-0.1,0.3-0.1,0.5c0,2.3,1.8,4.1,4.1,4.1s4.1-1.8,4.1-4.1
		c0-0.2,0-0.3-0.1-0.5C406.8,317.9,405.1,319.5,403,319.5z"/>
	<path class="st4" d="M403,299.6c2.3,0,4.1-1.8,4.1-4.1c0-0.2,0-0.3-0.1-0.5c-0.2,2-2,3.6-4.1,3.6s-3.8-1.6-4.1-3.6
		c0,0.2-0.1,0.3-0.1,0.5C398.9,297.7,400.7,299.6,403,299.6L403,299.6z"/>
	<path class="st4" d="M400.2,305.7c0-0.2,0-0.3-0.1-0.5c-0.2,2-2,3.6-4.1,3.6s-3.8-1.6-4.1-3.6c0,0.2-0.1,0.3-0.1,0.5
		c0,2.3,1.8,4.1,4.1,4.1C398.3,309.8,400.2,308,400.2,305.7L400.2,305.7z"/>
	<path class="st4" d="M385.4,305.2c-0.2,2-2,3.6-4.1,3.6s-3.8-1.6-4.1-3.6c0,0.2-0.1,0.3-0.1,0.5c0,2.3,1.8,4.1,4.1,4.1
		s4.1-1.8,4.1-4.1C385.5,305.5,385.5,305.4,385.4,305.2z"/>
	<path class="st4" d="M388.8,319.5c-2.1,0-3.8-1.6-4.1-3.6c0,0.2-0.1,0.3-0.1,0.5c0,2.3,1.8,4.1,4.1,4.1s4.1-1.8,4.1-4.1
		c0-0.2,0-0.3-0.1-0.5C392.6,317.9,390.9,319.5,388.8,319.5z"/>
	<path class="st4" d="M388.8,299.6c2.3,0,4.1-1.8,4.1-4.1c0-0.2,0-0.3-0.1-0.5c-0.2,2-2,3.6-4.1,3.6s-3.8-1.6-4.1-3.6
		c0,0.2-0.1,0.3-0.1,0.5C384.6,297.7,386.5,299.6,388.8,299.6L388.8,299.6z"/>
	<path class="st4" d="M378.6,295.5c0-0.2,0-0.3-0.1-0.5c-0.2,2-2,3.6-4.1,3.6s-3.8-1.6-4.1-3.6c0,0.2-0.1,0.3-0.1,0.5
		c0,2.3,1.8,4.1,4.1,4.1S378.6,297.7,378.6,295.5L378.6,295.5z"/>
	<path class="st4" d="M414,305.2c-0.2,2-2,3.6-4.1,3.6s-3.8-1.6-4.1-3.6c0,0.2-0.1,0.3-0.1,0.5c0,2.3,1.8,4.1,4.1,4.1
		s4.1-1.8,4.1-4.1C414.1,305.5,414,305.4,414,305.2z"/>
	<path class="st4" d="M424.6,308.8c-2.1,0-3.8-1.6-4.1-3.6c0,0.2-0.1,0.3-0.1,0.5c0,2.3,1.8,4.1,4.1,4.1s4.1-1.8,4.1-4.1
		c0-0.2,0-0.3-0.1-0.5C428.5,307.3,426.7,308.8,424.6,308.8z"/>
	<path class="st4" d="M417.3,319.5c-2.1,0-3.8-1.6-4.1-3.6c0,0.2-0.1,0.3-0.1,0.5c0,2.3,1.8,4.1,4.1,4.1s4.1-1.8,4.1-4.1
		c0-0.2,0-0.3-0.1-0.5C421.1,317.9,419.4,319.5,417.3,319.5z"/>
	<path class="st4" d="M417.3,299.6c2.3,0,4.1-1.8,4.1-4.1c0-0.2,0-0.3-0.1-0.5c-0.2,2-2,3.6-4.1,3.6s-3.8-1.6-4.1-3.6
		c0,0.2-0.1,0.3-0.1,0.5C413.1,297.7,415,299.6,417.3,299.6L417.3,299.6z"/>
	<path class="st4" d="M431.6,298.6c-2.1,0-3.8-1.6-4.1-3.6c0,0.2-0.1,0.3-0.1,0.5c0,2.3,1.8,4.1,4.1,4.1s4.1-1.8,4.1-4.1
		c0-0.2,0-0.3-0.1-0.5C435.4,297,433.7,298.6,431.6,298.6z"/>
</g>
<g>
	<g>
		<path class="st6" d="M697.2,109.9c0-0.8-0.4-1.5-1.1-1.9c-4.5-2.9-23.4-13.6-51.5-13.6s-41.1,5.9-45.1,8c-0.8,0.4-1.2,1.2-1.2,2
			c0,0,9.8-2.9,47.5-2.9S697.2,109.9,697.2,109.9L697.2,109.9z"/>
		<path class="st7" d="M697.1,116.8L697.1,116.8v-6.9c0,0-13.7-8.4-51.4-8.4s-47.5,2.9-47.5,2.9v11l0,0c7.7-1.3,21.2-2.6,44.1-2.6
			C670.8,112.9,688.2,115.2,697.1,116.8L697.1,116.8z"/>
	</g>
	<g>
		<path class="st6" d="M108.8,109.9c0-0.8,0.4-1.5,1.1-1.9c4.5-2.9,23.4-13.6,51.5-13.6s41.1,5.9,45.1,8c0.8,0.4,1.2,1.2,1.2,2
			c0,0-9.8-2.9-47.5-2.9S108.8,109.9,108.8,109.9z"/>
		<path class="st7" d="M108.9,116.8L108.9,116.8v-6.9c0,0,13.7-8.4,51.4-8.4s47.5,2.9,47.5,2.9v11l0,0c-7.7-1.3-21.2-2.6-44.1-2.6
			C135.2,112.9,117.8,115.2,108.9,116.8z"/>
	</g>
</g>
<g>
	<g>
		<g>
			<path class="st7" d="M697.2,90.8c0,0-32.7-3.2-50.6-3.2S598.2,90,598.2,90s3.1-44.7,4.8-52c1.6-7.3,7.7-21.3,16.9-27.9
				S631.8,0,642.6,0s25.4,6.4,34.6,21.4C686.5,36.4,697.2,90.8,697.2,90.8z"/>
			<path class="st6" d="M598.7,83.2c0,0,26.1-4.4,49-4.4s47.9,4.4,47.9,4.4c1,4.7,1.6,7.6,1.6,7.6s-32.7-3.2-50.6-3.2
				S598.2,90,598.2,90S598.4,87.3,598.7,83.2z"/>
		</g>
		<g class="st8">
			<path class="st4" d="M648.7,65.7c-2.1,1.7-3.2,2.6-3.2,2.6c-1.2,1.2-1.9,2.7-2,4.5h9.8v-2.6H647c0.3-0.5,1-1.2,2.1-1.9
				c1.4-0.9,2.3-1.6,2.7-2.1c0.9-1,1.3-2.1,1.3-3.3c0-1.4-0.5-2.5-1.4-3.3s-2.1-1.2-3.5-1.2c-3.1,0-4.7,1.7-4.7,5h2.7
				c0-1.8,0.7-2.7,2.1-2.7c1.3,0,2,0.7,2,2.1C650.5,63.9,649.9,64.8,648.7,65.7L648.7,65.7z"/>
			<path class="st4" d="M631.1,67.2h3c1.5,0,2.3,0.6,2.4,1.9c0.1,1.2,0.2,2.5,0.3,3.8h3.3v-0.4c-0.5-0.2-0.7-0.7-0.7-1.5
				c0-0.2,0-0.4,0.1-0.8v-0.7c0-1.7-0.6-2.9-1.8-3.5c1.4-0.5,2.2-1.6,2.2-3.4c0-1.3-0.4-2.3-1.3-3c-0.8-0.7-1.9-1-3.2-1h-7.3v14.3h3
				C631.1,72.9,631.1,67.2,631.1,67.2z M631.1,61h3.7c1.4,0,2.1,0.6,2.1,1.9c0,1.3-0.8,1.9-2.3,1.9h-3.5V61z"/>
		</g>
	</g>
	<g>
		<g>
			<path class="st7" d="M108.8,90.8c0,0,32.7-3.2,50.6-3.2s48.3,2.4,48.3,2.4s-3.1-44.7-4.8-52c-1.6-7.3-7.7-21.3-16.9-27.9
				C176.9,3.4,174.2,0,163.4,0S138,6.4,128.8,21.4C119.6,36.4,108.8,90.8,108.8,90.8L108.8,90.8z"/>
			<path class="st6" d="M207.3,83.2c0,0-26.1-4.4-49-4.4s-47.9,4.4-47.9,4.4c-1,4.7-1.6,7.6-1.6,7.6s32.7-3.2,50.6-3.2
				s48.3,2.4,48.3,2.4S207.6,87.3,207.3,83.2z"/>
		</g>
		<g class="st8">
			<path class="st4" d="M173.3,65.7c-2.1,1.7-3.2,2.6-3.2,2.6c-1.2,1.2-1.9,2.7-2,4.5h9.8v-2.6h-6.2c0.3-0.5,1-1.2,2.1-1.9
				c1.4-0.9,2.3-1.6,2.7-2.1c0.9-1,1.3-2.1,1.3-3.3c0-1.4-0.5-2.5-1.4-3.3s-2.1-1.2-3.5-1.2c-3.1,0-4.7,1.7-4.7,5h2.7
				c0-1.8,0.7-2.7,2.1-2.7c1.3,0,2,0.7,2,2.1C175.1,63.9,174.5,64.8,173.3,65.7L173.3,65.7z"/>
			<polygon class="st4" points="164.8,70.2 157.8,70.2 157.8,58.5 154.7,58.5 154.7,72.8 164.8,72.8 			"/>
		</g>
	</g>
</g>
</svg>
