<?xml version="1.0" encoding="utf-8"?>
<!-- Generator: Adobe Illustrator 26.5.0, SVG Export Plug-In . SVG Version: 6.00 Build 0)  -->
<svg version="1.1" id="Layer_1" xmlns="http://www.w3.org/2000/svg" xmlns:xlink="http://www.w3.org/1999/xlink" x="0px" y="0px"
	 width="282px" height="146.7px" viewBox="0 0 282 146.7" style="enable-background:new 0 0 282 146.7;" xml:space="preserve">
<style type="text/css">
	.st0{fill:none;}
	.st1{fill:#B3B3B3;}
	.st2{fill:#2AEAFF;}
	.st3{opacity:0.5;}
	.st4{fill:url(#SVGID_1_);}
	.st5{opacity:0.25;}
	.st6{fill:#FFFFFF;}
</style>
<pattern  y="146.7" width="71" height="71" patternUnits="userSpaceOnUse" id="SVGID_0000016955174204849368022" viewBox="0 -71 71 71" style="overflow:visible;">
	<g>
		<rect y="-71" class="st0" width="71" height="71"/>
		<g>
			<rect y="-71" class="st0" width="71" height="71"/>
			<g>
				<rect y="-71" class="st0" width="71" height="71"/>
				<g>
					<rect y="-71" class="st0" width="71" height="71"/>
					<g>
						<rect y="-71" class="st0" width="71" height="71"/>
						<g>
							<polygon class="st0" points="0,0 71,0 71,-71 0,-71 							"/>
							<path class="st1" d="M41.8-35.5c0-3.5-2.8-6.3-6.3-6.3s-6.3,2.8-6.3,6.3s2.8,6.3,6.3,6.3S41.8-32,41.8-35.5z"/>
						</g>
					</g>
				</g>
			</g>
		</g>
	</g>
</pattern>
<g>
	<path class="st2" d="M282,2.5l-3,22.1l-14.6,106.5v0.8c-0.1,1.3-0.3,2.6-0.7,3.8c0,0.1-0.1,0.3-0.1,0.4
		c-2.1,6.1-7.9,10.6-14.8,10.6H33.2c-7.1,0-13.2-4.8-15-11.4c0-0.1-0.1-0.3-0.1-0.4c-0.1-0.2-0.1-0.4-0.2-0.7
		c-0.2-1-0.3-2.1-0.3-3.1l-0.7-5L3,24.6L0,2.5c0-1,0.8-1.9,1.9-1.9L141,0l139.1,0.6C281.2,0.6,282,1.5,282,2.5z"/>
	<g class="st3">
		
			<pattern  id="SVGID_1_" xlink:href="#SVGID_0000016955174204849368022" patternTransform="matrix(0.1 0 0 -0.1 -14488.2402 -1887.1504)"  class="st3">
		</pattern>
		<path class="st4" d="M279,24.6l-14.6,106.5v0.8c-0.1,1.3-0.3,2.6-0.7,3.8c0,0.1-0.1,0.3-0.1,0.4c-2.1,5.2-8.9,10.6-30.4,10.6h-200
			c-7.1,0-13.2-4.8-15-11.4c0-0.1-0.1-0.3-0.1-0.4c-0.1-0.2-0.1-0.4-0.2-0.7c-0.2-1-0.3-2.1-0.3-3.1l-0.7-5L3,24.6H279z"/>
	</g>
</g>
<g class="st5">
	<path d="M25,100.1v-40h8.5v32.5h16.9v7.5H25z"/>
	<path d="M84.4,100.1l-2.5-6.9H64l-2.5,6.9h-9.4V93l15.5-32.9h10.7L93.7,93v7.1H84.4z M72.9,67.5l-6.7,18.4h13.3L72.9,67.5z"/>
	<path d="M125,100.1l-19.1-26.9v26.9h-8.5v-40h8.8L124.7,86V60.1h8.5v40H125z"/>
	<path d="M141.1,100.1v-40h15.8c11.9,0,20.4,2.6,21.2,13.7c0,0.6,0,5.8,0,6.4c0,12.1-8.7,20-21.2,20H141.1z M149.7,92.6h7.3
		c7.9,0,12.5-5.7,12.5-12.5c0-7.1-4.3-12.5-12.5-12.5h-7.3V92.6z"/>
	<path d="M184.2,100.1v-40h28.3v7.3h-19.8v8.7h19.4v7.3h-19.4v9.3h19.8v7.4H184.2z"/>
	<path d="M246.8,100.1l-19.1-26.9v26.9h-8.5v-40h8.8L246.5,86V60.1h8.5v40H246.8z"/>
</g>
<g>
	<path class="st6" d="M25,93V53h8.5v32.5h16.9V93H25z"/>
	<path class="st6" d="M84.4,93l-2.5-6.9H64L61.5,93h-9.4l15.5-40h10.7l15.4,40H84.4z M72.9,60.4l-6.7,18.4h13.3L72.9,60.4z"/>
	<path class="st6" d="M125,93l-19.1-26.9V93h-8.5V53h8.8l18.5,25.9V53h8.5v40H125z"/>
	<path class="st6" d="M141.1,93V53h15.8c12.5,0,21.2,8,21.2,20s-8.7,20-21.2,20H141.1z M149.7,85.5h7.3c7.9,0,12.5-5.7,12.5-12.5
		c0-7.1-4.3-12.5-12.5-12.5h-7.3V85.5z"/>
	<path class="st6" d="M184.2,93V53h28.3v7.3h-19.8V69h19.4v7.3h-19.4v9.3h19.8V93H184.2z"/>
	<path class="st6" d="M246.8,93l-19.1-26.9V93h-8.5V53h8.8l18.5,25.9V53h8.5v40H246.8z"/>
</g>
</svg>
