<?xml version="1.0" encoding="UTF-8"?><svg id="Layer_1" xmlns="http://www.w3.org/2000/svg" width="200" height="90.8" viewBox="0 0 200 90.8"><defs><style>.cls-1{fill:#f5f5f5;}.cls-2{opacity:.08;}.cls-3{fill:#ededed;}</style></defs><g><g><path class="cls-3" d="M200,90.8s-32.7-3.2-50.6-3.2-48.4,2.4-48.4,2.4c0,0,3.1-44.7,4.8-52s7.7-21.3,16.9-27.9S134.7,0,145.5,0s25.4,6.4,34.6,21.4,19.9,69.4,19.9,69.4Z"/><path class="cls-1" d="M101.5,83.2s26.1-4.4,49-4.4,47.9,4.4,47.9,4.4c1,4.7,1.6,7.6,1.6,7.6,0,0-32.7-3.2-50.6-3.2s-48.4,2.4-48.4,2.4c0,0,.2-2.7,.5-6.8Z"/></g><g class="cls-2"><path d="M151.5,65.7c-2.1,1.7-3.2,2.6-3.2,2.6-1.2,1.2-1.9,2.7-2,4.5h9.8v-2.6h-6.2c.3-.5,1-1.2,2.1-1.9,1.4-.9,2.3-1.6,2.7-2.1,.9-1,1.3-2.1,1.3-3.3,0-1.4-.5-2.5-1.4-3.3s-2.1-1.2-3.5-1.2c-3.1,0-4.7,1.7-4.7,5h2.7c0-1.8,.7-2.7,2.1-2.7,1.3,0,2,.7,2,2.1,.1,1.1-.5,2-1.7,2.9Z"/><path d="M134,67.2h3c1.5,0,2.3,.6,2.4,1.9,.1,1.2,.2,2.5,.3,3.8h3.3v-.4c-.5-.2-.7-.7-.7-1.5,0-.2,0-.4,.1-.8v-.7c0-1.7-.6-2.9-1.8-3.5,1.4-.5,2.2-1.6,2.2-3.4,0-1.3-.4-2.3-1.3-3-.8-.7-1.9-1-3.2-1h-7.3v14.3h3v-5.7Zm0-6.2h3.7c1.4,0,2.1,.6,2.1,1.9s-.8,1.9-2.3,1.9h-3.5v-3.8Z"/></g></g><g><g><path class="cls-3" d="M.1,90.8s32.7-3.2,50.6-3.2,48.3,2.4,48.3,2.4c0,0-3.1-44.7-4.8-52s-7.7-21.3-16.9-27.9S65.4,0,54.6,0,29.2,6.4,20,21.4C10.8,36.4,.1,90.8,.1,90.8Z"/><path class="cls-1" d="M98.5,83.2s-26.1-4.4-49-4.4S1.6,83.2,1.6,83.2c-1,4.7-1.6,7.6-1.6,7.6,0,0,32.7-3.2,50.6-3.2s48.4,2.4,48.4,2.4c0,0-.1-2.7-.5-6.8Z"/></g><g class="cls-2"><path d="M64.6,65.7c-2.1,1.7-3.2,2.6-3.2,2.6-1.2,1.2-1.9,2.7-2,4.5h9.7v-2.6h-6.2c.3-.5,1-1.2,2.1-1.9,1.4-.9,2.3-1.6,2.7-2.1,.9-1,1.3-2.1,1.3-3.3,0-1.4-.5-2.5-1.4-3.3s-2.1-1.2-3.5-1.2c-3.1,0-4.7,1.7-4.7,5h2.7c0-1.8,.7-2.7,2.1-2.7,1.3,0,2,.7,2,2.1,.1,1.1-.4,2-1.6,2.9Z"/><polygon points="56.1 70.2 49 70.2 49 58.5 46 58.5 46 72.8 56.1 72.8 56.1 70.2"/></g></g></svg>