<?xml version="1.0" encoding="utf-8"?>
<!-- Generator: Adobe Illustrator 26.3.1, SVG Export Plug-In . SVG Version: 6.00 Build 0)  -->
<svg version="1.1" id="Layer_1" xmlns="http://www.w3.org/2000/svg" xmlns:xlink="http://www.w3.org/1999/xlink" x="0px" y="0px"
	 width="806px" height="598.9px" viewBox="0 0 806 598.9" style="enable-background:new 0 0 806 598.9;" xml:space="preserve">
<style type="text/css">
	.st0{fill:none;}
	.st1{fill:#B3B3B3;}
	.st2{fill:#CBCBCB;}
	.st3{fill:#D33131;}
	.st4{fill:#1F1F1F;}
	.st5{opacity:0.1;fill:#1F1F1F;enable-background:new    ;}
	.st6{opacity:6.000000e-02;}
	.st7{fill:#FFFFFF;}
	.st8{fill:#9A3131;}
	.st9{fill:#A40000;}
	.st10{opacity:0.5;fill:#FFFFFF;}
	.st11{opacity:0.1;fill:#DCDCDC;}
	.st12{opacity:0.12;}
	.st13{fill:#0B0B0F;}
	.st14{fill:#E5E5E5;}
	.st15{opacity:0.5;}
	.st16{fill:url(#SVGID_1_);}
	.st17{fill:#0A0A0A;}
	.st18{fill:#121212;}
	.st19{opacity:8.000000e-02;}
	.st20{display:none;opacity:0.25;}
	.st21{display:inline;}
	.st22{display:none;}
	.st23{display:inline;fill:#A400BC;}
	.st24{opacity:0.25;}
</style>
<pattern  y="598.9" width="71" height="71" patternUnits="userSpaceOnUse" id="SVGID_0000014216470758415787009" viewBox="0 -71 71 71" style="overflow:visible;">
	<g>
		<rect y="-71" class="st0" width="71" height="71"/>
		<g>
			<rect y="-71" class="st0" width="71" height="71"/>
			<g>
				<rect y="-71" class="st0" width="71" height="71"/>
				<g>
					<rect y="-71" class="st0" width="71" height="71"/>
					<g>
						<polygon class="st0" points="0,0 71,0 71,-71 0,-71 						"/>
						<path class="st1" d="M41.8-35.5c0-3.5-2.8-6.3-6.3-6.3s-6.3,2.8-6.3,6.3s2.8,6.3,6.3,6.3S41.8-32,41.8-35.5z"/>
					</g>
				</g>
			</g>
		</g>
	</g>
</pattern>
<g>
	<g>
		<path class="st2" d="M806,508.8c0,0-4.5,53.4-36.2,74.9c-25.8,17.5-47.2,15.8-54.2,14.5c-0.3,0-0.5-0.1-0.8-0.1
			c-0.1,0-0.2-0.1-0.4-0.1c-0.1,0-0.3-0.1-0.4-0.1c-0.1,0-0.1,0-0.2,0c-0.1,0-0.1,0-0.2,0c-0.4-0.1-0.6-0.1-0.6-0.1
			s-33.1-8.1-57.8-41.9c-7.7-10.6-16.2-27.2-24.1-45c-9-20.2-17.3-41.9-23.3-58.2c-5.6-15.4-9.2-26-9.2-26s-1.6-2.2-4.2-4.2
			c-0.5-0.4-0.9-0.7-1.5-1.1c-3.5-2.3-6.3-2.6-6.3-2.6H219.1c0,0-2.8,0.3-6.3,2.6s-5.7,5.3-5.7,5.3s-31.9,95.5-56.6,129.2
			c-5.2,7-10.7,13-16.2,17.9c-20.9,18.8-41.6,24-41.6,24s-5.3,1.6-14.2,1.2c-10.3-0.5-25.4-3.6-42.5-15.2
			C4.9,562.5,0.1,510.2,0,508.8c0,0,0,0,0,0v-20.5c0.1-6.4,0.3-13.8,0.6-21.4c0-1.2,0.1-2.5,0.1-3.7c0-0.5,0-1,0.1-1.6
			c0-0.5,0-1,0.1-1.5c0-0.8,0.1-1.7,0.1-2.5v-0.7c0.1-1.4,0.1-2.8,0.2-4.1c0.1-2.2,0.2-4.4,0.4-6.6c0-0.6,0.1-1.2,0.1-1.8
			c0.3-5,0.7-9.7,1.1-14c0.1-1.3,0.3-2.6,0.4-3.8v-0.3c0.3-2.9,0.7-5.5,1.1-7.7C6.8,405,18.6,336.1,31.1,291
			c1.7-6.2,3.5-11.9,5.2-17c9.3-27.7,13-53,17-64.9c12-35.7,33-65.7,33-65.7s9.5-13,10.1-16.3c0.6-3.3,4.7-8.6,4.7-8.6
			s2.7-0.9,8.6-1.9c9.2-1.7,26.4-3.8,53.7-3.8c30.9,0,44.7,2.4,50.3,3.9c0.3,0.1,0.6,0.2,0.8,0.2c0.2,0,0.3,0.1,0.5,0.1
			c0.1,0,0.3,0.1,0.4,0.1c0.1,0.1,0.3,0.1,0.4,0.1c0.1,0,0.2,0.1,0.3,0.1c0.7,0.2,0.9,0.4,0.9,0.4s2.4,3,5.9,4.8
			c0.4,0.2,1,0.5,1.5,0.6c0,0,0.1,0,0.1,0c3.9,1.2,10.1,1,10.1,1h33.4c0,0,0.3-0.1,0.6,0.1c0,0,0,0,0,0c0.1,0,0.2,0.1,0.3,0.2
			c0.3,0.3,0.6,2,0.6,2H536c0,0,0.2-1.6,0.6-2c0.3-0.4,0.9-0.3,0.9-0.3h33.4c0,0,8.2,0.1,11.7-1.7c3.5-1.9,5.9-4.8,5.9-4.8
			s8.8-5,53.7-5c44.9,0,62.3,5.7,62.3,5.7l0.1,0.1c0,0,0,0,0,0s0,0.1,0.1,0.1c0,0.1,0.1,0.1,0.1,0.2c0.1,0.1,0.1,0.2,0.2,0.3
			c0.1,0.1,0.1,0.2,0.2,0.3c0.2,0.3,0.4,0.6,0.7,0.9c0,0,0,0,0,0c0.2,0.2,0.3,0.5,0.5,0.7c0.2,0.3,0.3,0.5,0.5,0.8
			c1,1.7,2,3.6,2.3,5.1c0.6,3.2,10.1,16.3,10.1,16.3s21,30,33,65.7c3.9,11.9,7.6,37.2,17,64.9c8,23.6,16.2,61.3,22.3,92.7
			c2.6,13.2,4.8,25.2,6.5,34.6c1.5,8.1,2.6,14.2,3.1,17.4c1.9,9.8,3,27.4,3.7,44.4c0,0.7,0,1.4,0,2.1c0,0.3,0,0.6,0,1
			c0,0.1,0,0.3,0,0.4c0,0.1,0,0.3,0,0.4C805.9,488.8,806,508.8,806,508.8z"/>
		<path class="st2" d="M220.9,418.6L220.9,418.6l-2.5,0.1c0.3-0.1,0.5-0.1,0.5-0.1H220.9z"/>
		<path class="st2" d="M726.8,598.8c-5.5,0.2-9.6-0.3-12-0.7c-0.1,0-0.2-0.1-0.4-0.1c-0.1,0-0.3-0.1-0.4-0.1c-0.1,0-0.1,0-0.2,0
			c-0.8-0.2-1.2-0.3-1.2-0.3s-20.7-5.1-41.6-24c-5.5-5-11-10.9-16.2-17.9c-7.8-10.6-16.2-27.2-24.2-45.2c-9-20.2-17.3-42-23.3-58.3
			c-5.6-15.3-9.1-25.8-9.1-25.8s-1.4-2-3.8-3.9c-0.6-0.5-1.2-0.9-1.9-1.4c-2.8-1.8-5.1-2.4-6-2.5H221l-0.1-0.1h-2c0,0-0.2,0-0.5,0.1
			c-1,0.2-3.2,0.8-5.8,2.5c-3.5,2.3-5.7,5.3-5.7,5.3S175,522,150.3,555.7c-5.2,7-10.7,13-16.2,17.9c-20.9,18.8-41.6,24-41.6,24
			s-5.3,1.6-14.2,1.2C107,511,125,451.1,140.4,409.9c15.2-40.7,27.8-63.2,45.7-76.5c0.2-0.2,0.4-0.3,0.7-0.5
			c1.8-1.3,3.6-2.6,5.2-3.6c9.5-6.3,15.5-8.9,15.5-8.9h390.3c0,0,8.2,3.6,20.5,12.3c0.1,0,0.1,0.1,0.2,0.2
			c9.5,6.9,17.6,16.3,25.2,29.7c10.2,17.7,19.8,42.2,31.5,76.6c1.9,5.7,3.9,11.7,6,17.9c2.8,8.4,5.7,17.4,8.7,26.8
			c5.3,16.5,11.1,34.7,17.5,54.7C713.3,557.1,719.7,577.1,726.8,598.8z"/>
		<path class="st2" d="M801.4,418.7c4,21,4.6,77.7,4.7,88.4c-0.1-7.2-0.3-23.8-1-41c0-0.3,0-0.6,0-1c-0.7-17.1-1.8-34.7-3.6-44.5
			c-0.6-3.3-1.8-10-3.4-18.9c-1.8-9.7-4-21.9-6.6-35.2h0c-6.1-30.9-14.1-67.5-21.9-90.5c-9.3-27.7-13-53-17-64.9
			c-12-35.7-33-65.7-33-65.7s-9.5-13-10.1-16.3c-0.6-3.3-4.7-8.6-4.7-8.6s-17.4-5.7-62.3-5.7c-44.9,0-53.7,5-53.7,5s-2.4,3-5.9,4.8
			c-3.5,1.9-11.7,1.7-11.7,1.7h-33.4c0,0-0.5-0.1-0.9,0.3c-0.3,0.3-0.6,2-0.6,2H269.9c0,0-0.2-1.6-0.6-2c-0.3-0.4-0.9-0.3-0.9-0.3
			H235c0,0-8.2,0.1-11.7-1.7c-3.5-1.9-5.9-4.8-5.9-4.8s-8.8-5-53.7-5c-24.1,0-40.3,1.7-50.1,3.2c-8.5,1.3-12.2,2.5-12.2,2.5
			s-4.1,5.3-4.7,8.6c-0.6,3.2-10.1,16.3-10.1,16.3s-21,30-33,65.7c-3.9,11.9-7.6,37.2-17,64.9c-1.6,4.6-3.1,9.8-4.7,15.3
			c-12.7,45-24.6,115.6-27.2,129.3c-3.9,20.2-4.6,73.9-4.7,87.2c0.1-8.6,0.6-67.7,4.6-89c2.6-13.6,14.3-82.5,26.8-127.5
			c1.7-6.2,3.5-12,5.2-17.1c9.3-27.7,13-53,17-64.9c12-35.7,33-65.7,33-65.7s9.5-13,10.1-16.3c0.6-3.3,4.7-8.6,4.7-8.6
			s2.7-0.9,8.6-1.9h0c9.2-1.6,26.4-3.8,53.7-3.8c32.9,0,46.4,2.7,51.3,4.1c0.1,0,0.3,0.1,0.4,0.1c0.1,0.1,0.3,0.1,0.4,0.1
			c1.1,0.4,1.6,0.6,1.6,0.6s2.4,3,5.9,4.8c0.4,0.2,0.8,0.4,1.2,0.5c0,0,0.1,0,0.1,0c3.9,1.3,10.4,1.1,10.4,1.1h33.4c0,0,0.1,0,0.3,0
			c0,0,0,0,0,0c0.2,0,0.4,0.1,0.6,0.3c0.3,0.3,0.5,1.5,0.6,1.9c0,0.1,0,0.1,0,0.1h266.2c0,0,0.2-1.6,0.6-2c0.3-0.4,0.9-0.3,0.9-0.3
			H571c0,0,8.2,0.1,11.7-1.7c3.5-1.9,5.9-4.8,5.9-4.8s8.8-5,53.7-5c44.2,0,61.8,5.5,62.3,5.7c0,0,0,0,0,0s0,0.1,0.1,0.1
			c0,0.1,0.1,0.1,0.1,0.2c0.1,0.1,0.1,0.2,0.2,0.3c0.2,0.3,0.5,0.7,0.8,1.2c0,0,0,0,0,0c0.2,0.2,0.3,0.5,0.5,0.7
			c1.2,1.8,2.6,4.2,2.9,6c0.6,3.2,10.1,16.3,10.1,16.3s21,30,33,65.7c3.9,11.9,7.6,37.2,17,64.9c8,23.6,16.2,61.3,22.3,92.6
			c2.6,13.1,4.8,25,6.5,34.4C799.7,409.3,800.8,415.5,801.4,418.7z"/>
		<path class="st2" d="M806.1,508.8c0-0.3,0-0.6,0-1C806.1,508.5,806.1,508.8,806.1,508.8z"/>
		<path class="st2" d="M351.1,362c0.1,0.7,0.1,1.3,0.1,2c0,21.5-8.9,40.9-23.1,54.8c-13.8,13.4-32.6,21.7-53.4,21.7
			c-17.4,0-33.4-5.8-46.2-15.6c-2.5-1.9-5-4-7.2-6.2l0,0c-14.2-13.9-23-33.3-23-54.7c0-0.7,0.1-1.3,0.1-2c-0.1-0.7-0.1-1.3-0.1-2
			c0-13.7,3.6-26.6,10-37.7c0.2-0.3,0.3-0.6,0.5-0.8c6-10.3,14.3-19,24.3-25.5c1.6-1.1,3.3-2.1,5-3c10.9-6,23.4-9.4,36.7-9.4
			s25.8,3.4,36.7,9.4c23.7,13,39.8,38.2,39.8,67.1C351.2,360.6,351.1,361.3,351.1,362L351.1,362z"/>
		<circle class="st2" cx="274.7" cy="356" r="73"/>
		<circle class="st2" cx="274.7" cy="356" r="51.5"/>
		<path class="st2" d="M607.7,362c0.1,0.7,0.1,1.3,0.1,2c0,21.4-8.8,40.8-23,54.7c-12.4,12.1-29,20.1-47.3,21.5
			c-2,0.2-4.1,0.2-6.2,0.2c-11.5,0-22.3-2.5-32.1-7.1c-8-3.7-15.2-8.7-21.4-14.7c-14.2-13.9-23-33.3-23-54.7c0-0.7,0.1-1.3,0.1-2
			c-0.1-0.7-0.1-1.3-0.1-2c0-8.5,1.4-16.6,3.9-24.2c1.8-5.4,4.2-10.6,7.1-15.4c4-6.6,8.9-12.5,14.7-17.6c4.3-3.8,9-7.1,14-9.9
			c0,0,0,0,0,0c10.9-6,23.4-9.4,36.7-9.4c0.6,0,1.2,0,1.8,0c12.6,0.3,24.5,3.7,34.9,9.4c0,0,0,0,0.1,0c1.7,0.9,3.3,1.9,5,3h0
			c8.6,5.6,15.9,12.9,21.7,21.3c0.7,1,1.4,2.1,2,3.2c0.2,0.3,0.4,0.7,0.6,1v0c6.6,11.3,10.5,24.5,10.5,38.6
			C607.8,360.6,607.8,361.3,607.7,362z"/>
		<circle class="st2" cx="531.3" cy="356" r="73"/>
		<circle class="st2" cx="531.3" cy="356" r="51.5"/>
		<path class="st2" d="M553,131.3L534.9,261c-1.4,7.9-4.9,13.1-12.9,15.4c-1.7,0.5-3.5,0.7-5.3,0.7H289.4c-1.9,0-3.8-0.3-5.5-0.9
			c-6.9-2.4-11.6-7.8-12.7-15.2L253,131.3c-0.1-0.7,0-1.4,0.1-2.1c0.4-3.2,3.3-5.6,6.5-5.6h286.7c3.2,0,6.1,2.4,6.5,5.6
			C553,129.9,553.1,130.6,553,131.3L553,131.3z"/>
		<path class="st2" d="M746.6,244.8c0,52.1-42.2,94.3-94.3,94.3c-21.8,0-42-7.4-57.9-19.9c-5.3-9.1-12.5-16.9-21.1-22.9
			c-9.7-14.8-15.3-32.5-15.3-51.5c0-52.1,42.2-94.3,94.3-94.3S746.6,192.7,746.6,244.8L746.6,244.8z"/>
		<g>
			<path class="st2" d="M248,244.8c0,18.9-5.6,36.5-15.2,51.3c-8.7,6.1-16,14-21.3,23.2c-16,12.4-36,19.8-57.8,19.8
				c-52.1,0-94.3-42.2-94.3-94.3s42.2-94.3,94.3-94.3S248,192.7,248,244.8z"/>
			<path class="st2" d="M230.4,254.1l9.5-8.9c0.5-0.5,0.5-1.2,0-1.7l-9.5-8.9c-0.7-0.7-1.9-0.2-1.9,0.8v17.8
				C228.4,254.2,229.6,254.7,230.4,254.1L230.4,254.1z"/>
			<path class="st2" d="M145,169.8h17.8c1,0,1.5-1.2,0.8-1.9l-8.9-9.5c-0.5-0.5-1.2-0.5-1.7,0l-8.9,9.5
				C143.5,168.6,144,169.8,145,169.8L145,169.8z"/>
			<path class="st2" d="M77.5,234.6l-9.5,8.9c-0.5,0.5-0.5,1.2,0,1.7l9.5,8.9c0.7,0.7,1.9,0.2,1.9-0.8v-17.8
				C79.4,234.4,78.2,233.9,77.5,234.6L77.5,234.6z"/>
			<path class="st2" d="M162.8,318.8H145c-1,0-1.5,1.2-0.8,1.9l8.9,9.5c0.5,0.5,1.2,0.5,1.7,0l8.9-9.5
				C164.3,320,163.8,318.8,162.8,318.8L162.8,318.8z"/>
		</g>
	</g>
	<g>
		<path class="st3" d="M806,508.8c0,0-4.5,53.4-36.2,74.9c-25.8,17.5-47.2,15.8-54.2,14.5c-0.3,0-0.5-0.1-0.8-0.1
			c-0.1,0-0.2-0.1-0.4-0.1c-0.1,0-0.3-0.1-0.4-0.1c-0.1,0-0.1,0-0.2,0c-0.1,0-0.1,0-0.2,0c-0.4-0.1-0.6-0.1-0.6-0.1
			s-33.1-8.1-57.8-41.9c-7.7-10.6-16.2-27.2-24.1-45c-9-20.2-17.3-41.9-23.3-58.2c-5.6-15.4-9.2-26-9.2-26s-1.6-2.2-4.2-4.2
			c-0.5-0.4-0.9-0.7-1.5-1.1c-3.5-2.3-6.3-2.6-6.3-2.6H219.1c0,0-2.8,0.3-6.3,2.6s-5.7,5.3-5.7,5.3s-31.9,95.5-56.6,129.2
			c-5.2,7-10.7,13-16.2,17.9c-20.9,18.8-41.6,24-41.6,24s-5.3,1.6-14.2,1.2c-10.3-0.5-25.4-3.6-42.5-15.2
			C4.9,562.5,0.1,510.2,0,508.8c0,0,0,0,0,0v-20.5c0.1-6.4,0.3-13.8,0.6-21.4c0-1.2,0.1-2.5,0.1-3.7c0-0.5,0-1,0.1-1.6
			c0-0.5,0-1,0.1-1.5c0-0.8,0.1-1.7,0.1-2.5v-0.7c0.1-1.4,0.1-2.8,0.2-4.1c0.1-2.2,0.2-4.4,0.4-6.6c0-0.6,0.1-1.2,0.1-1.8
			c0.3-5,0.7-9.7,1.1-14c0.1-1.3,0.3-2.6,0.4-3.8v-0.3c0.3-2.9,0.7-5.5,1.1-7.7C6.8,405,18.6,336.1,31.1,291
			c1.7-6.2,3.5-11.9,5.2-17c9.3-27.7,13-53,17-64.9c12-35.7,33-65.7,33-65.7s9.5-13,10.1-16.3c0.6-3.3,4.7-8.6,4.7-8.6
			s2.7-0.9,8.6-1.9c9.2-1.7,26.4-3.8,53.7-3.8c30.9,0,44.7,2.4,50.3,3.9c0.3,0.1,0.6,0.2,0.8,0.2c0.2,0,0.3,0.1,0.5,0.1
			c0.1,0,0.3,0.1,0.4,0.1c0.1,0.1,0.3,0.1,0.4,0.1c0.1,0,0.2,0.1,0.3,0.1c0.7,0.2,0.9,0.4,0.9,0.4s2.4,3,5.9,4.8
			c0.4,0.2,1,0.5,1.5,0.6c0,0,0.1,0,0.1,0c3.9,1.2,10.1,1,10.1,1h33.4c0,0,0.3-0.1,0.6,0.1c0,0,0,0,0,0c0.1,0,0.2,0.1,0.3,0.2
			c0.3,0.3,0.6,2,0.6,2H536c0,0,0.2-1.6,0.6-2c0.3-0.4,0.9-0.3,0.9-0.3h33.4c0,0,8.2,0.1,11.7-1.7c3.5-1.9,5.9-4.8,5.9-4.8
			s8.8-5,53.7-5c44.9,0,62.3,5.7,62.3,5.7l0.1,0.1c0,0,0,0,0,0s0,0.1,0.1,0.1c0,0.1,0.1,0.1,0.1,0.2c0.1,0.1,0.1,0.2,0.2,0.3
			c0.1,0.1,0.1,0.2,0.2,0.3c0.2,0.3,0.4,0.6,0.7,0.9c0,0,0,0,0,0c0.2,0.2,0.3,0.5,0.5,0.7c0.2,0.3,0.3,0.5,0.5,0.8
			c1,1.7,2,3.6,2.3,5.1c0.6,3.2,10.1,16.3,10.1,16.3s21,30,33,65.7c3.9,11.9,7.6,37.2,17,64.9c8,23.6,16.2,61.3,22.3,92.7
			c2.6,13.2,4.8,25.2,6.5,34.6c1.5,8.1,2.6,14.2,3.1,17.4c1.9,9.8,3,27.4,3.7,44.4c0,0.7,0,1.4,0,2.1c0,0.3,0,0.6,0,1
			c0,0.1,0,0.3,0,0.4c0,0.1,0,0.3,0,0.4C805.9,488.8,806,508.8,806,508.8z"/>
		<path class="st4" d="M220.9,418.6L220.9,418.6l-2.5,0.1c0.3-0.1,0.5-0.1,0.5-0.1H220.9z"/>
		<path class="st5" d="M726.8,598.8c-5.5,0.2-9.6-0.3-12-0.7c-0.1,0-0.2-0.1-0.4-0.1c-0.1,0-0.3-0.1-0.4-0.1c-0.1,0-0.1,0-0.2,0
			c-0.8-0.2-1.2-0.3-1.2-0.3s-20.7-5.1-41.6-24c-5.5-5-11-10.9-16.2-17.9c-7.8-10.6-16.2-27.2-24.2-45.2c-9-20.2-17.3-42-23.3-58.3
			c-5.6-15.3-9.1-25.8-9.1-25.8s-1.4-2-3.8-3.9c-0.6-0.5-1.2-0.9-1.9-1.4c-2.8-1.8-5.1-2.4-6-2.5H221l-0.1-0.1h-2c0,0-0.2,0-0.5,0.1
			c-1,0.2-3.2,0.8-5.8,2.5c-3.5,2.3-5.7,5.3-5.7,5.3S175,522,150.3,555.7c-5.2,7-10.7,13-16.2,17.9c-20.9,18.8-41.6,24-41.6,24
			s-5.3,1.6-14.2,1.2C107,511,125,451.1,140.4,409.9c15.2-40.7,27.8-63.2,45.7-76.5c0.2-0.2,0.4-0.3,0.7-0.5
			c1.8-1.3,3.6-2.6,5.2-3.6c9.5-6.3,15.5-8.9,15.5-8.9h390.3c0,0,8.2,3.6,20.5,12.3c0.1,0,0.1,0.1,0.2,0.2
			c9.5,6.9,17.6,16.3,25.2,29.7c10.2,17.7,19.8,42.2,31.5,76.6c1.9,5.7,3.9,11.7,6,17.9c2.8,8.4,5.7,17.4,8.7,26.8
			c5.3,16.5,11.1,34.7,17.5,54.7C713.3,557.1,719.7,577.1,726.8,598.8z"/>
		<g class="st6">
			<path class="st7" d="M801.4,418.7c4,21,4.6,77.7,4.7,88.4c-0.1-7.2-0.3-23.8-1-41c0-0.3,0-0.6,0-1c-0.7-17.1-1.8-34.7-3.6-44.5
				c-0.6-3.3-1.8-10-3.4-18.9c-1.8-9.7-4-21.9-6.6-35.2h0c-6.1-30.9-14.1-67.5-21.9-90.5c-9.3-27.7-13-53-17-64.9
				c-12-35.7-33-65.7-33-65.7s-9.5-13-10.1-16.3c-0.6-3.3-4.7-8.6-4.7-8.6s-17.4-5.7-62.3-5.7c-44.9,0-53.7,5-53.7,5s-2.4,3-5.9,4.8
				c-3.5,1.9-11.7,1.7-11.7,1.7h-33.4c0,0-0.5-0.1-0.9,0.3c-0.3,0.3-0.6,2-0.6,2H269.9c0,0-0.2-1.6-0.6-2c-0.3-0.4-0.9-0.3-0.9-0.3
				H235c0,0-8.2,0.1-11.7-1.7c-3.5-1.9-5.9-4.8-5.9-4.8s-8.8-5-53.7-5c-24.1,0-40.3,1.7-50.1,3.2c-8.5,1.3-12.2,2.5-12.2,2.5
				s-4.1,5.3-4.7,8.6c-0.6,3.2-10.1,16.3-10.1,16.3s-21,30-33,65.7c-3.9,11.9-7.6,37.2-17,64.9c-1.6,4.6-3.1,9.8-4.7,15.3
				c-12.7,45-24.6,115.6-27.2,129.3c-3.9,20.2-4.6,73.9-4.7,87.2c0.1-8.6,0.6-67.7,4.6-89c2.6-13.6,14.3-82.5,26.8-127.5
				c1.7-6.2,3.5-12,5.2-17.1c9.3-27.7,13-53,17-64.9c12-35.7,33-65.7,33-65.7s9.5-13,10.1-16.3c0.6-3.3,4.7-8.6,4.7-8.6
				s2.7-0.9,8.6-1.9h0c9.2-1.6,26.4-3.8,53.7-3.8c32.9,0,46.4,2.7,51.3,4.1c0.1,0,0.3,0.1,0.4,0.1c0.1,0.1,0.3,0.1,0.4,0.1
				c1.1,0.4,1.6,0.6,1.6,0.6s2.4,3,5.9,4.8c0.4,0.2,0.8,0.4,1.2,0.5c0,0,0.1,0,0.1,0c3.9,1.3,10.4,1.1,10.4,1.1h33.4
				c0,0,0.1,0,0.3,0c0,0,0,0,0,0c0.2,0,0.4,0.1,0.6,0.3c0.3,0.3,0.5,1.5,0.6,1.9c0,0.1,0,0.1,0,0.1h266.2c0,0,0.2-1.6,0.6-2
				c0.3-0.4,0.9-0.3,0.9-0.3H571c0,0,8.2,0.1,11.7-1.7c3.5-1.9,5.9-4.8,5.9-4.8s8.8-5,53.7-5c44.2,0,61.8,5.5,62.3,5.7c0,0,0,0,0,0
				s0,0.1,0.1,0.1c0,0.1,0.1,0.1,0.1,0.2c0.1,0.1,0.1,0.2,0.2,0.3c0.2,0.3,0.5,0.7,0.8,1.2c0,0,0,0,0,0c0.2,0.2,0.3,0.5,0.5,0.7
				c1.2,1.8,2.6,4.2,2.9,6c0.6,3.2,10.1,16.3,10.1,16.3s21,30,33,65.7c3.9,11.9,7.6,37.2,17,64.9c8,23.6,16.2,61.3,22.3,92.6
				c2.6,13.1,4.8,25,6.5,34.4C799.7,409.3,800.8,415.5,801.4,418.7z"/>
			<path class="st7" d="M806.1,508.8c0-0.3,0-0.6,0-1C806.1,508.5,806.1,508.8,806.1,508.8z"/>
		</g>
		<path class="st8" d="M351.1,362c0.1,0.7,0.1,1.3,0.1,2c0,21.5-8.9,40.9-23.1,54.8c-13.8,13.4-32.6,21.7-53.4,21.7
			c-17.4,0-33.4-5.8-46.2-15.6c-2.5-1.9-5-4-7.2-6.2l0,0c-14.2-13.9-23-33.3-23-54.7c0-0.7,0.1-1.3,0.1-2c-0.1-0.7-0.1-1.3-0.1-2
			c0-13.7,3.6-26.6,10-37.7c0.2-0.3,0.3-0.6,0.5-0.8c6-10.3,14.3-19,24.3-25.5c1.6-1.1,3.3-2.1,5-3c10.9-6,23.4-9.4,36.7-9.4
			s25.8,3.4,36.7,9.4c23.7,13,39.8,38.2,39.8,67.1C351.2,360.6,351.1,361.3,351.1,362L351.1,362z"/>
		<circle class="st9" cx="274.7" cy="356" r="73"/>
		<circle cx="274.7" cy="356" r="51.5"/>
		<path class="st8" d="M607.7,362c0.1,0.7,0.1,1.3,0.1,2c0,21.4-8.8,40.8-23,54.7c-12.4,12.1-29,20.1-47.3,21.5
			c-2,0.2-4.1,0.2-6.2,0.2c-11.5,0-22.3-2.5-32.1-7.1c-8-3.7-15.2-8.7-21.4-14.7c-14.2-13.9-23-33.3-23-54.7c0-0.7,0.1-1.3,0.1-2
			c-0.1-0.7-0.1-1.3-0.1-2c0-8.5,1.4-16.6,3.9-24.2c1.8-5.4,4.2-10.6,7.1-15.4c4-6.6,8.9-12.5,14.7-17.6c4.3-3.8,9-7.1,14-9.9
			c0,0,0,0,0,0c10.9-6,23.4-9.4,36.7-9.4c0.6,0,1.2,0,1.8,0c12.6,0.3,24.5,3.7,34.9,9.4c0,0,0,0,0.1,0c1.7,0.9,3.3,1.9,5,3h0
			c8.6,5.6,15.9,12.9,21.7,21.3c0.7,1,1.4,2.1,2,3.2c0.2,0.3,0.4,0.7,0.6,1v0c6.6,11.3,10.5,24.5,10.5,38.6
			C607.8,360.6,607.8,361.3,607.7,362z"/>
		<circle class="st9" cx="531.3" cy="356" r="73"/>
		<circle cx="531.3" cy="356" r="51.5"/>
		<path class="st10" d="M492.5,420.3c-0.3-0.5-0.6-1.1-0.8-1.6c-0.4-0.7-0.7-1.4-1.1-2.1v0c-4.3-8.3-8.5-16.7-12.6-24.9l-2.5-5.3
			c0.7-0.1,1.3,0.1,2,0.1c4.1,0.1,8.3,0.4,12.5,0.5c-6.5-8.6-10.3-19.3-10.3-31c0-5.5,0.9-10.8,2.5-15.8c-1.1,0-2.2-0.1-3.5-0.3
			c-6.6-1-12.5-2.1-17.8-3.5c-0.8-0.2-1.5-0.4-2.2-0.6c-1.6-0.5-3.1-1-4.5-1.5c-14.8-5.4-26.5-9.6-38.5-13.9
			c-5.7-2-11.4-4.1-17.6-6.4l-15.2-5.6c-0.9-0.4-1.8-0.3-2.7,0c-1,0.2-1.8,1-2.1,2l-3.7,10l-9.6,26c0,0.1-0.1,0.2-0.1,0.3
			c-0.6,1.9,0.4,4,2.4,4.6l44.7,16.4c1.2,0.4,2,1.1,2.7,2.7c7.7,16.3,15.6,32.2,23.5,48.3h39.8c6.2,6,13.4,11,21.4,14.7
			C497,429.1,494.8,424.7,492.5,420.3z M533.1,283.5c-0.2-0.2-0.4-0.4-0.5-0.5c-1-0.9-2-1.9-3.1-2.8c-1.8-1.6-3.6-3.1-5.5-4.5
			c-14.7-11.3-31.5-18.5-46.2-24c-43.6-16.4-130.7-48-131.6-48.3c-0.1,0-0.2-0.1-0.3-0.1c-1.9-0.6-4,0.4-4.6,2.4l-26.2,71.4
			l-5.4,14.8l0,0.1l-7.5,20.3c3.6,2.3,6.9,5,9.9,8.1c8.8,9.2,14.2,21.7,14.2,35.5c0,14.8-6.3,28.2-16.3,37.6l0.1,0l15.9,5.9
			c0.1,0,0.2,0.1,0.3,0.1c1.9,0.6,4-0.4,4.6-2.4l16.7-45.6v0l2.3-6.2v0l9.1-24.8l15.9-43.3l4.6-12.5l34,12.5l47.6,17.5
			c6.8,2.5,13.4,5,19.5,8.2c0.2,0.1,0.3,0.2,0.5,0.3c3.4,1.8,6.7,3.8,9.7,6.1c3.4,2.6,5.6,5.1,6.7,7.9c9-7.9,20.9-12.6,33.8-12.6
			c6.6,0,12.9,1.2,18.8,3.5C546.9,299.4,541.3,291.4,533.1,283.5z M533.1,283.5c-0.2-0.2-0.4-0.4-0.5-0.5c-1-0.9-2-1.9-3.1-2.8
			c-1.8-1.6-3.6-3.1-5.5-4.5c-0.3,0.1-0.6,0.2-0.9,0.3c0,0-0.1,0-0.1,0c-0.3,0.1-0.6,0.2-1,0.3c-1.7,0.5-3.5,0.7-5.3,0.7H413.4
			l47.6,17.5c6.8,2.5,13.4,5,19.5,8.2c0.2,0.1,0.3,0.2,0.5,0.3c3.4,1.8,6.7,3.8,9.7,6.1c3.4,2.6,5.6,5.1,6.7,7.9
			c9-7.9,20.9-12.6,33.8-12.6c6.6,0,12.9,1.2,18.8,3.5C546.9,299.4,541.3,291.4,533.1,283.5z M780.5,452.1
			c0.2-0.6-93.5-34.3-93.5-34.3c-0.1,0-0.2-0.1-0.3-0.1c-1.9-0.6-4,0.4-4.6,2.4l-7,19.2l-3.8,10.3c0,0.1-0.1,0.2-0.1,0.3
			c-0.6,1.9,0.4,4,2.4,4.6l7.5,2.8l36.8,13.5l-7.6,20.8l-20.5-7.5l-61.1-22.5c-7.2-2.7-14.3-5.4-20.8-9c-0.2-0.1-0.4-0.2-0.6-0.3
			c6,16.3,14.3,38.1,23.3,58.3l0.6,0.2l76.2,28l36.4,13.4c0.1,0,0.2,0.1,0.3,0.1c1.9,0.6,4-0.4,4.6-2.4l34.1-92.9
			c0-0.1,0.1-0.2,0.1-0.3C783.5,454.8,782.4,452.7,780.5,452.1z M533.1,283.5c-0.2-0.2-0.4-0.4-0.5-0.5c-1-0.9-2-1.9-3.1-2.8
			c-1.8-1.6-3.6-3.1-5.5-4.5c-0.3,0.1-0.6,0.2-0.9,0.3c0,0-0.1,0-0.1,0c-0.3,0.1-0.6,0.2-1,0.3c-1.7,0.5-3.5,0.7-5.3,0.7H413.4
			l47.6,17.5c6.8,2.5,13.4,5,19.5,8.2c0.2,0.1,0.3,0.2,0.5,0.3c3.4,1.8,6.7,3.8,9.7,6.1c3.4,2.6,5.6,5.1,6.7,7.9
			c9-7.9,20.9-12.6,33.8-12.6c6.6,0,12.9,1.2,18.8,3.5C546.9,299.4,541.3,291.4,533.1,283.5z M791.7,366.7L791.7,366.7l-0.4-0.2h0
			l-99-36.3l-14.4-5.3c-16.4-6-36.2-11.9-57.8-11.8c-9.7,0.2-18.1,1.5-25.4,4.1c-0.4,0.2-0.8,0.3-1.2,0.5c0,0,0,0,0,0
			c-2.1,0.8-4,1.7-5.9,2.7c-4.3,2.3-8.2,5.1-11.8,8.5l-0.4,0.4c4.7,7.8,7.4,16.9,7.4,26.7c0,25.3-18.3,46.4-42.4,50.7l-0.7,1.9
			c-1.1,3.3-1.9,6.7-2.5,10.1c-0.5,3.3-0.8,6.7-0.8,10.1c0,2.1,0.1,4.2,0.3,6.4c0.2,1.7,0.4,3.4,0.7,5c18.3-1.5,34.9-9.4,47.3-21.5
			h1.8c0.9,0.1,3.2,0.7,6,2.5c0.7,0.5,1.3,0.9,1.9,1.4l0.1-0.2l18.7-51c3.1-8.3,8.2-11.2,17.5-10.8c4.4,0.2,8.7,1,13,2
			c6.4,1.5,12.8,3.7,19.2,6.1l126.3,46.1c0.1,0,0.2,0.1,0.3,0.1c1.9,0.6,4-0.4,4.6-2.4l3.9-10.8l0.2-0.5l0.1-0.1
			C796.5,391.7,794.3,379.8,791.7,366.7z M533.1,283.5c-0.2-0.2-0.4-0.4-0.5-0.5c-1-0.9-2-1.9-3.1-2.8c-1.8-1.6-3.6-3.1-5.5-4.5
			c-0.3,0.1-0.6,0.2-0.9,0.3c0,0-0.1,0-0.1,0c-0.3,0.1-0.6,0.2-1,0.3c-1.7,0.5-3.5,0.7-5.3,0.7H413.4l47.6,17.5
			c6.8,2.5,13.4,5,19.5,8.2c0.2,0.1,0.3,0.2,0.5,0.3c3.4,1.8,6.7,3.8,9.7,6.1c3.4,2.6,5.6,5.1,6.7,7.9c9-7.9,20.9-12.6,33.8-12.6
			c6.6,0,12.9,1.2,18.8,3.5C546.9,299.4,541.3,291.4,533.1,283.5z M533.1,283.5c-0.2-0.2-0.4-0.4-0.5-0.5c-1-0.9-2-1.9-3.1-2.8
			c-1.8-1.6-3.6-3.1-5.5-4.5c-0.3,0.1-0.6,0.2-0.9,0.3c0,0-0.1,0-0.1,0c-0.3,0.1-0.6,0.2-1,0.3c-1.7,0.5-3.5,0.7-5.3,0.7H413.4
			l47.6,17.5c6.8,2.5,13.4,5,19.5,8.2c0.2,0.1,0.3,0.2,0.5,0.3c3.4,1.8,6.7,3.8,9.7,6.1c3.4,2.6,5.6,5.1,6.7,7.9
			c9-7.9,20.9-12.6,33.8-12.6c6.6,0,12.9,1.2,18.8,3.5C546.9,299.4,541.3,291.4,533.1,283.5z M477.8,251.7
			c-43.6-16.4-130.7-48-131.6-48.3c-0.1,0-0.2-0.1-0.3-0.1c-1.9-0.6-4,0.4-4.6,2.4l-26.2,71.4l-5.4,14.8l0,0.1l-7.5,20.3
			c3.6,2.3,6.9,5,9.9,8.1H359l15.9-43.3l4.6-12.5l34,12.5h103.3c1.8,0,3.6-0.2,5.3-0.7c0.3-0.1,0.7-0.2,1-0.3c0,0,0.1,0,0.1,0
			c0.3-0.1,0.6-0.2,0.9-0.3C509.4,264.4,492.6,257.2,477.8,251.7z M477.8,251.7c-43.6-16.4-130.7-48-131.6-48.3
			c-0.1,0-0.2-0.1-0.3-0.1c-1.9-0.6-4,0.4-4.6,2.4l-26.2,71.4l-5.4,14.8l0,0.1l-7.5,20.3c3.6,2.3,6.9,5,9.9,8.1H359l15.9-43.3
			l4.6-12.5l34,12.5h103.3c1.8,0,3.6-0.2,5.3-0.7c0.3-0.1,0.7-0.2,1-0.3c0,0,0.1,0,0.1,0c0.3-0.1,0.6-0.2,0.9-0.3
			C509.4,264.4,492.6,257.2,477.8,251.7z M326,196l-45.2-16.6c-0.1,0-0.2-0.1-0.2-0.1c-1.9-0.6-4,0.4-4.6,2.4l-11.4,31.1l-17.9,48.8
			c0,0,0,0,0,0l-11.2,30.4c0,0,0,0,0,0l-1.2,3.3v0l0,0l-1.6,4.4l-1.3-2.4l0-0.1l0,0l-42.8-75.9c-9.7-17.1-19.5-34.4-29.2-51.6
			c-2.1-3.7-4.2-7.4-6.3-11.1c-1.5-2.7-3-5.4-4.6-8c-4.1-7.3-8.2-14.6-12.4-21.8c-1.2-2.1-3.6-4-6-4.9l-16.3-6l-3.5-1.3h0l-0.3-0.1
			c-6,1.1-8.6,1.9-8.6,1.9s-4.1,5.3-4.7,8.6c-0.6,3.3-10.1,16.3-10.1,16.3s-21,30-33,65.7c-4,11.9-7.7,37.2-17,64.9
			c-1.7,5.1-3.5,10.8-5.2,17l0.3,0.1l0.5,0.2l32.4,11.9c0.1,0,0.2,0.1,0.3,0.1c1.9,0.6,4-0.4,4.6-2.4l3.1-8.5l39-106.1l43.2,76.3
			l37.4,66.5l0.8,1.4l7.3,13l2.2,3.8v0l2.6,4.6c1.1,2.4,3.8,4.4,6.2,5.3l12.6,4.6h0c-0.2-2-0.4-4.1-0.4-6.2
			c0-28.4,23.1-51.5,51.5-51.5c5.1,0,10.1,0.8,14.7,2.1l7.2-19.7l0.1-0.4l3.4-9.3l28-76.2c0-0.1,0.1-0.2,0.1-0.3
			C329,198.7,327.9,196.6,326,196z M477.8,251.7c-43.6-16.4-130.7-48-131.6-48.3c-0.1,0-0.2-0.1-0.3-0.1c-1.9-0.6-4,0.4-4.6,2.4
			l-26.2,71.4l-5.4,14.8l0,0.1l-7.5,20.3c3.6,2.3,6.9,5,9.9,8.1H359l15.9-43.3l4.6-12.5l34,12.5h103.3c1.8,0,3.6-0.2,5.3-0.7
			c0.3-0.1,0.7-0.2,1-0.3c0,0,0.1,0,0.1,0c0.3-0.1,0.6-0.2,0.9-0.3C509.4,264.4,492.6,257.2,477.8,251.7z M477.8,251.7
			c-43.6-16.4-130.7-48-131.6-48.3c-0.1,0-0.2-0.1-0.3-0.1c-1.9-0.6-4,0.4-4.6,2.4l-26.2,71.4l-5.4,14.8l0,0.1l-7.5,20.3
			c3.6,2.3,6.9,5,9.9,8.1H359l15.9-43.3l4.6-12.5l34,12.5h103.3c1.8,0,3.6-0.2,5.3-0.7c0.3-0.1,0.7-0.2,1-0.3c0,0,0.1,0,0.1,0
			c0.3-0.1,0.6-0.2,0.9-0.3C509.4,264.4,492.6,257.2,477.8,251.7z"/>
		<path class="st9" d="M553,131.3L534.9,261c-1.4,7.9-4.9,13.1-12.9,15.4c-1.7,0.5-3.5,0.7-5.3,0.7H289.4c-1.9,0-3.8-0.3-5.5-0.9
			c-6.9-2.4-11.6-7.8-12.7-15.2L253,131.3c-0.1-0.7,0-1.4,0.1-2.1c0.4-3.2,3.3-5.6,6.5-5.6h286.7c3.2,0,6.1,2.4,6.5,5.6
			C553,129.9,553.1,130.6,553,131.3L553,131.3z"/>
		<path class="st11" d="M746.6,244.8c0,52.1-42.2,94.3-94.3,94.3c-21.8,0-42-7.4-57.9-19.9c-5.3-9.1-12.5-16.9-21.1-22.9
			c-9.7-14.8-15.3-32.5-15.3-51.5c0-52.1,42.2-94.3,94.3-94.3S746.6,192.7,746.6,244.8L746.6,244.8z"/>
		<g>
			<path class="st11" d="M248,244.8c0,18.9-5.6,36.5-15.2,51.3c-8.7,6.1-16,14-21.3,23.2c-16,12.4-36,19.8-57.8,19.8
				c-52.1,0-94.3-42.2-94.3-94.3s42.2-94.3,94.3-94.3S248,192.7,248,244.8z"/>
			<path class="st8" d="M230.4,254.1l9.5-8.9c0.5-0.5,0.5-1.2,0-1.7l-9.5-8.9c-0.7-0.7-1.9-0.2-1.9,0.8v17.8
				C228.4,254.2,229.6,254.7,230.4,254.1L230.4,254.1z"/>
			<path class="st8" d="M145,169.8h17.8c1,0,1.5-1.2,0.8-1.9l-8.9-9.5c-0.5-0.5-1.2-0.5-1.7,0l-8.9,9.5
				C143.5,168.6,144,169.8,145,169.8L145,169.8z"/>
			<path class="st8" d="M77.5,234.6l-9.5,8.9c-0.5,0.5-0.5,1.2,0,1.7l9.5,8.9c0.7,0.7,1.9,0.2,1.9-0.8v-17.8
				C79.4,234.4,78.2,233.9,77.5,234.6L77.5,234.6z"/>
			<path class="st8" d="M162.8,318.8H145c-1,0-1.5,1.2-0.8,1.9l8.9,9.5c0.5,0.5,1.2,0.5,1.7,0l8.9-9.5
				C164.3,320,163.8,318.8,162.8,318.8L162.8,318.8z"/>
		</g>
	</g>
</g>
<g>
	<g>
		<path d="M240.5,146.6c3.6,0,6.6,3,6.6,6.6v9.7c0,3.6-3,6.6-6.6,6.6s-6.6-3-6.6-6.6v-9.7C233.9,149.5,236.9,146.6,240.5,146.6
			 M240.5,145.7c-4.1,0-7.5,3.4-7.5,7.5v9.7c0,4.1,3.4,7.5,7.5,7.5s7.5-3.4,7.5-7.5v-9.7C248,149,244.6,145.7,240.5,145.7
			L240.5,145.7z"/>
		<path class="st3" d="M240.5,146.6c-3.6,0-6.6,3-6.6,6.6v9.7c0,3.6,3,6.6,6.6,6.6s6.6-3,6.6-6.6v-9.7
			C247.1,149.5,244.1,146.6,240.5,146.6z"/>
	</g>
	<g>
		<path d="M565.5,146.6c3.6,0,6.6,3,6.6,6.6v9.7c0,3.6-3,6.6-6.6,6.6s-6.6-3-6.6-6.6v-9.7C558.9,149.5,561.9,146.6,565.5,146.6
			 M565.5,145.7c-4.1,0-7.5,3.4-7.5,7.5v9.7c0,4.1,3.4,7.5,7.5,7.5s7.5-3.4,7.5-7.5v-9.7C573,149,569.6,145.7,565.5,145.7
			L565.5,145.7z"/>
		<path class="st3" d="M565.5,146.6c-3.6,0-6.6,3-6.6,6.6v9.7c0,3.6,3,6.6,6.6,6.6s6.6-3,6.6-6.6v-9.7
			C572.1,149.5,569.1,146.6,565.5,146.6z"/>
	</g>
</g>
<g>
	<g>
		<circle cx="403" cy="294.1" r="4.1"/>
		<circle cx="396.1" cy="304.3" r="4.1"/>
		<circle cx="381.4" cy="304.3" r="4.1"/>
		<circle cx="388.7" cy="294.1" r="4.1"/>
		<circle cx="374.4" cy="294.1" r="4.1"/>
	</g>
	<g>
		<circle cx="409.9" cy="304.3" r="4.1"/>
		<circle cx="424.6" cy="304.3" r="4.1"/>
		<circle cx="417.2" cy="294.1" r="4.1"/>
		<circle cx="431.6" cy="294.1" r="4.1"/>
	</g>
</g>
<g class="st12">
	<path class="st7" d="M403,299.6c2.3,0,4.1-1.8,4.1-4.1c0-0.2,0-0.3-0.1-0.5c-0.2,2-2,3.6-4.1,3.6s-3.8-1.6-4.1-3.6
		c0,0.2-0.1,0.3-0.1,0.5C398.9,297.7,400.7,299.6,403,299.6L403,299.6z"/>
	<path class="st7" d="M400.2,305.7c0-0.2,0-0.3-0.1-0.5c-0.2,2-2,3.6-4.1,3.6s-3.8-1.6-4.1-3.6c0,0.2-0.1,0.3-0.1,0.5
		c0,2.3,1.8,4.1,4.1,4.1C398.3,309.8,400.2,308,400.2,305.7L400.2,305.7z"/>
	<path class="st7" d="M385.4,305.2c-0.2,2-2,3.6-4.1,3.6s-3.8-1.6-4.1-3.6c0,0.2-0.1,0.3-0.1,0.5c0,2.3,1.8,4.1,4.1,4.1
		s4.1-1.8,4.1-4.1C385.5,305.5,385.5,305.4,385.4,305.2z"/>
	<path class="st7" d="M388.8,299.6c2.3,0,4.1-1.8,4.1-4.1c0-0.2,0-0.3-0.1-0.5c-0.2,2-2,3.6-4.1,3.6s-3.8-1.6-4.1-3.6
		c0,0.2-0.1,0.3-0.1,0.5C384.6,297.7,386.5,299.6,388.8,299.6L388.8,299.6z"/>
	<path class="st7" d="M378.6,295.5c0-0.2,0-0.3-0.1-0.5c-0.2,2-2,3.6-4.1,3.6s-3.8-1.6-4.1-3.6c0,0.2-0.1,0.3-0.1,0.5
		c0,2.3,1.8,4.1,4.1,4.1S378.6,297.7,378.6,295.5L378.6,295.5z"/>
	<path class="st7" d="M414,305.2c-0.2,2-2,3.6-4.1,3.6s-3.8-1.6-4.1-3.6c0,0.2-0.1,0.3-0.1,0.5c0,2.3,1.8,4.1,4.1,4.1
		s4.1-1.8,4.1-4.1C414.1,305.5,414,305.4,414,305.2z"/>
	<path class="st7" d="M424.6,308.8c-2.1,0-3.8-1.6-4.1-3.6c0,0.2-0.1,0.3-0.1,0.5c0,2.3,1.8,4.1,4.1,4.1s4.1-1.8,4.1-4.1
		c0-0.2,0-0.3-0.1-0.5C428.5,307.3,426.7,308.8,424.6,308.8z"/>
	<path class="st7" d="M417.3,299.6c2.3,0,4.1-1.8,4.1-4.1c0-0.2,0-0.3-0.1-0.5c-0.2,2-2,3.6-4.1,3.6s-3.8-1.6-4.1-3.6
		c0,0.2-0.1,0.3-0.1,0.5C413.1,297.7,415,299.6,417.3,299.6L417.3,299.6z"/>
	<path class="st7" d="M431.6,298.6c-2.1,0-3.8-1.6-4.1-3.6c0,0.2-0.1,0.3-0.1,0.5c0,2.3,1.8,4.1,4.1,4.1s4.1-1.8,4.1-4.1
		c0-0.2,0-0.3-0.1-0.5C435.4,297,433.7,298.6,431.6,298.6z"/>
</g>
<path class="st13" d="M423.2,400.8c0,1-0.9,2.2-2.4,2.2h-35.6c-1.5,0-2.4-1.2-2.4-2.2c0-1.4,0.3-2.6,1-3.5s2-1.5,3.9-1.5h30.6
	c1.9,0,3.1,0.5,3.9,1.5C422.9,398.2,423.2,399.4,423.2,400.8z"/>
<g>
	<path class="st14" d="M543.9,124.9l-3,22.1l-14.6,106.5v0.8c-0.1,1.3-0.3,2.6-0.7,3.8c0,0.1-0.1,0.3-0.1,0.4
		c-2.1,6.1-7.9,10.6-14.8,10.6H295.1c-7.1,0-13.2-4.8-15-11.4c0-0.1-0.1-0.3-0.1-0.4c-0.1-0.2-0.1-0.4-0.2-0.7
		c-0.2-1-0.3-2.1-0.3-3.1l-0.7-5L264.9,147l-3-22.1c0-1,0.8-1.9,1.9-1.9l139.1-0.6L542,123C543.1,123,543.9,123.9,543.9,124.9
		L543.9,124.9z"/>
	<g class="st15">
		
			<pattern  id="SVGID_1_" xlink:href="#SVGID_0000014216470758415787009" patternTransform="matrix(0.1 0 0 -0.1 -41891.9297 -5636.0801)"  class="st15">
		</pattern>
		<path class="st16" d="M540.9,147l-14.6,106.5v0.8c-0.1,1.3-0.3,2.6-0.7,3.8c0,0.1-0.1,0.3-0.1,0.4c-2.1,5.2-8.9,10.6-30.4,10.6
			h-200c-7.1,0-13.2-4.8-15-11.4c0-0.1-0.1-0.3-0.1-0.4c-0.1-0.2-0.1-0.4-0.2-0.7c-0.2-1-0.3-2.1-0.3-3.1l-0.7-5L264.9,147H540.9z"
			/>
	</g>
</g>
<g>
	<path class="st8" d="M422.6,365.8c-1.6-0.5-3-0.9-4.4-1c-0.8-0.1-1.7-0.2-2.6-0.2c1.5-1.5,2.3-3.7,2.3-6.6c0-3.5-0.8-6.3-2.3-8
		c-1.6-2-4.1-3.6-7.4-4.8l-1.9-0.6c-1.4-0.4-2.7-0.8-3.9-1.2c-1.8-0.5-3.3-0.8-4.8-1.2l-2-0.4v20.5l-2.3,0.7l-8.9,3.2l-1.6,0.6
		c-2,0.8-4.6,2.1-4.6,4.4v0.2c0.1,1.2,1.1,3.4,5.5,4.4c1.2,0.4,2.5,0.5,3.6,0.7c1.2,0.2,2.5,0.2,3.8,0.2c1.4,0,2.9-0.1,4.5-0.4v1.9
		l8.1,2.6l1.4,0.5l1.3-0.5l5.1-1.9l10.5-3.8l1.1-0.6c3.9-1.4,4.5-3.4,4.5-4.6C427.6,367.4,423.8,366.2,422.6,365.8L422.6,365.8z
		 M396.5,368.2l-1,0.4l-5.7,2.1l-1.8,0.6c-0.2,0.2-0.5,0.2-0.6,0.3c-0.2,0.2-0.3,0.2-0.5,0.3c-0.3,0.3-0.2,0.7,0.3,1l2.4,0.3
		l2.6-0.5l1.5-0.6l1.8-0.6l0.8-0.3v3.7c-0.3,0.1-0.5,0.1-0.8,0.1c-1.6,0.3-3.1,0.4-4.5,0.4c-1.3,0-2.4,0-3.6-0.2
		c-1.1-0.2-2.3-0.3-3.4-0.6c-2.8-0.6-4.2-1.8-4.4-3.1c0-1,1.1-1.9,3.6-2.9l1.6-0.6l8.9-3.2l1.8-0.5l1-0.3L396.5,368.2L396.5,368.2
		L396.5,368.2z M404.8,352v27.7l-7.6-2.4V344c1.5,0.3,2.9,0.7,4.7,1.1c1.8,0.5,3.7,1.1,5.8,1.8c3.2,1.1,5.3,2.6,6.6,4.2
		c1.3,1.5,1.9,3.9,1.9,7c0,2.9-0.8,4.9-2.4,6c-0.6,0.5-1.6,0.8-2.6,0.8s-2.1-0.2-3.4-0.8v-11.2c0-1.6-0.5-2.4-1.5-2.8
		c-0.5-0.2-1,0-1.1,0.3C404.9,350.7,404.8,351.2,404.8,352L404.8,352z M407.5,365.5c-0.4,0.1-0.7,0.2-1.1,0.3V365l0.7,0.3
		C407.2,365.4,407.3,365.5,407.5,365.5z M422.4,373.2l-1.1,0.7l-10.4,3.7l-4.5,1.7l-1.1,0.4v-4.4l1.1-0.4l9.4-3.5l2.3-0.8
		c1-0.3,1.3-0.7,1.3-1c-0.2-0.3-0.6-0.5-1.1-0.6H416l-1.8,0.5l-2.6,0.8l-5.2,1.9l-1.1,0.4V368c0.4-0.2,0.8-0.3,1.1-0.5
		c1.1-0.4,2.1-0.6,3.1-0.8c1.5-0.2,3.1-0.5,4.5-0.5c1.3-0.2,2.8,0,4,0.2c1.3,0.2,2.6,0.5,4,1c2.6,0.8,3.9,1.8,3.9,2.8
		C426,371.2,424.8,372.4,422.4,373.2L422.4,373.2z"/>
	<g>
		<path class="st3" d="M404.8,372.7V352c0-0.8,0.2-1.3,0.5-1.6c0.2-0.3,0.6-0.5,1.1-0.3c1,0.3,1.5,1.1,1.5,2.8v11.2
			c1.3,0.6,2.4,0.8,3.4,0.8s1.9-0.3,2.6-0.8c1.6-1.1,2.4-3.1,2.4-6c0-3.1-0.6-5.5-1.9-7c-1.3-1.6-3.4-3.1-6.6-4.2
			c-2.1-0.6-4-1.3-5.8-1.8s-3.2-0.8-4.7-1.1v19.7l0,0v4.4l0,0v2.8l0,0v4l0,0v2.4l7.6,2.4v-5.8l0,0v-1.2L404.8,372.7L404.8,372.7z"/>
		<path class="st3" d="M387,371.9c-0.3,0.3-0.2,0.6,0.3,1l2.4,0.3l2.6-0.5l1.5-0.6l2.6-0.9v3.7c-1.9,0.3-3.7,0.5-5.3,0.5
			c-1.3,0-2.4,0-3.6-0.2c-1.1-0.2-2.3-0.3-3.4-0.6c-2.8-0.6-4.2-1.8-4.4-3.1c0-1,1.1-1.9,3.6-2.9l1.6-0.6l8.9-3.2l2.8-0.8v4.4
			l-6.6,2.4l-1.8,0.6c-0.2,0.2-0.5,0.2-0.6,0.3C387.3,371.7,387.1,371.7,387,371.9L387,371.9z"/>
		<path class="st3" d="M422.1,367.3c-1.5-0.5-2.8-0.8-4-1c-1.3-0.2-2.8-0.3-4-0.2c-1.5,0-3.1,0.3-4.5,0.5c-1.3,0.3-2.8,0.6-4.2,1.3
			v4.5l6.3-2.3l2.6-0.8l1.8-0.5h2.3c0.5,0.2,1,0.3,1.1,0.6c0,0.3-0.3,0.6-1.3,1l-2.3,0.8l-10.5,3.9v4.4l5.7-2.1l10.4-3.7l1.1-0.6
			c2.4-0.8,3.6-1.9,3.6-3.1C426,369.1,424.7,368.2,422.1,367.3L422.1,367.3z"/>
	</g>
</g>
<g>
	<g>
		<path class="st17" d="M697.2,109.9c0-0.8-0.4-1.5-1.1-1.9c-4.5-2.9-23.4-13.6-51.5-13.6s-41.1,5.9-45.1,8c-0.8,0.4-1.2,1.2-1.2,2
			c0,0,9.8-2.9,47.5-2.9S697.2,109.9,697.2,109.9L697.2,109.9z"/>
		<path class="st18" d="M697.1,116.8L697.1,116.8v-6.9c0,0-13.7-8.4-51.4-8.4s-47.5,2.9-47.5,2.9v11l0,0c7.7-1.3,21.2-2.6,44.1-2.6
			C670.8,112.9,688.2,115.2,697.1,116.8L697.1,116.8z"/>
	</g>
	<g>
		<path class="st17" d="M108.8,109.9c0-0.8,0.4-1.5,1.1-1.9c4.5-2.9,23.4-13.6,51.5-13.6s41.1,5.9,45.1,8c0.8,0.4,1.2,1.2,1.2,2
			c0,0-9.8-2.9-47.5-2.9S108.8,109.9,108.8,109.9z"/>
		<path class="st18" d="M108.9,116.8L108.9,116.8v-6.9c0,0,13.7-8.4,51.4-8.4s47.5,2.9,47.5,2.9v11l0,0c-7.7-1.3-21.2-2.6-44.1-2.6
			C135.2,112.9,117.8,115.2,108.9,116.8z"/>
	</g>
</g>
<g>
	<g>
		<g>
			<path class="st18" d="M697.2,90.8c0,0-32.7-3.2-50.6-3.2S598.2,90,598.2,90s3.1-44.7,4.8-52c1.6-7.3,7.7-21.3,16.9-27.9
				S631.8,0,642.6,0s25.4,6.4,34.6,21.4C686.5,36.4,697.2,90.8,697.2,90.8z"/>
			<path class="st17" d="M598.7,83.2c0,0,26.1-4.4,49-4.4s47.9,4.4,47.9,4.4c1,4.7,1.6,7.6,1.6,7.6s-32.7-3.2-50.6-3.2
				S598.2,90,598.2,90S598.4,87.3,598.7,83.2z"/>
		</g>
		<g class="st19">
			<path class="st7" d="M648.7,65.7c-2.1,1.7-3.2,2.6-3.2,2.6c-1.2,1.2-1.9,2.7-2,4.5h9.8v-2.6H647c0.3-0.5,1-1.2,2.1-1.9
				c1.4-0.9,2.3-1.6,2.7-2.1c0.9-1,1.3-2.1,1.3-3.3c0-1.4-0.5-2.5-1.4-3.3s-2.1-1.2-3.5-1.2c-3.1,0-4.7,1.7-4.7,5h2.7
				c0-1.8,0.7-2.7,2.1-2.7c1.3,0,2,0.7,2,2.1C650.5,63.9,649.9,64.8,648.7,65.7L648.7,65.7z"/>
			<path class="st7" d="M631.1,67.2h3c1.5,0,2.3,0.6,2.4,1.9c0.1,1.2,0.2,2.5,0.3,3.8h3.3v-0.4c-0.5-0.2-0.7-0.7-0.7-1.5
				c0-0.2,0-0.4,0.1-0.8v-0.7c0-1.7-0.6-2.9-1.8-3.5c1.4-0.5,2.2-1.6,2.2-3.4c0-1.3-0.4-2.3-1.3-3c-0.8-0.7-1.9-1-3.2-1h-7.3v14.3h3
				V67.2z M631.1,61h3.7c1.4,0,2.1,0.6,2.1,1.9s-0.8,1.9-2.3,1.9h-3.5V61z"/>
		</g>
	</g>
	<g>
		<g>
			<path class="st18" d="M108.8,90.8c0,0,32.7-3.2,50.6-3.2s48.3,2.4,48.3,2.4s-3.1-44.7-4.8-52c-1.6-7.3-7.7-21.3-16.9-27.9
				C176.9,3.4,174.2,0,163.4,0S138,6.4,128.8,21.4S108.8,90.8,108.8,90.8L108.8,90.8z"/>
			<path class="st17" d="M207.3,83.2c0,0-26.1-4.4-49-4.4s-47.9,4.4-47.9,4.4c-1,4.7-1.6,7.6-1.6,7.6s32.7-3.2,50.6-3.2
				s48.3,2.4,48.3,2.4S207.6,87.3,207.3,83.2z"/>
		</g>
		<g class="st19">
			<path class="st7" d="M173.3,65.7c-2.1,1.7-3.2,2.6-3.2,2.6c-1.2,1.2-1.9,2.7-2,4.5h9.8v-2.6h-6.2c0.3-0.5,1-1.2,2.1-1.9
				c1.4-0.9,2.3-1.6,2.7-2.1c0.9-1,1.3-2.1,1.3-3.3c0-1.4-0.5-2.5-1.4-3.3s-2.1-1.2-3.5-1.2c-3.1,0-4.7,1.7-4.7,5h2.7
				c0-1.8,0.7-2.7,2.1-2.7c1.3,0,2,0.7,2,2.1C175.1,63.9,174.5,64.8,173.3,65.7L173.3,65.7z"/>
			<polygon class="st7" points="164.8,70.2 157.8,70.2 157.8,58.5 154.7,58.5 154.7,72.8 164.8,72.8 			"/>
		</g>
	</g>
</g>
<path class="st9" d="M240.7,142.5L240.7,142.5c-0.4,0-0.8-0.4-0.8-0.8v-5.6c0-0.4,0.4-0.8,0.8-0.8l0,0c0.4,0,0.8,0.4,0.8,0.8v5.6
	C241.5,142.2,241.1,142.5,240.7,142.5z"/>
<path class="st9" d="M238.3,143L238.3,143c-0.4,0.2-0.9,0-1.1-0.4l-2.4-5.1c-0.2-0.4,0-0.9,0.4-1.1l0,0c0.4-0.2,0.9,0,1.1,0.4
	l2.4,5.1C238.8,142.3,238.7,142.8,238.3,143z"/>
<path class="st9" d="M243.1,143L243.1,143c0.4,0.2,0.9,0,1.1-0.4l2.4-5.1c0.2-0.4,0-0.9-0.4-1.1l0,0c-0.4-0.2-0.9,0-1.1,0.4
	l-2.4,5.1C242.5,142.3,242.7,142.8,243.1,143z"/>
<path class="st9" d="M558.5,141.8L558.5,141.8c0-0.4,0.4-0.8,0.8-0.8h12.5c0.4,0,0.8,0.4,0.8,0.8l0,0c0,0.4-0.4,0.8-0.8,0.8h-12.5
	C558.8,142.6,558.5,142.2,558.5,141.8z"/>
<path class="st9" d="M558.4,138.2L558.4,138.2c0-0.4,0.4-0.8,0.8-0.8h12.5c0.4,0,0.8,0.4,0.8,0.8l0,0c0,0.4-0.4,0.8-0.8,0.8h-12.5
	C558.7,139,558.4,138.6,558.4,138.2z"/>
<path class="st9" d="M558.5,134.6L558.5,134.6c0-0.4,0.4-0.8,0.8-0.8h12.5c0.4,0,0.8,0.4,0.8,0.8l0,0c0,0.4-0.4,0.8-0.8,0.8h-12.5
	C558.8,135.4,558.5,135,558.5,134.6z"/>
<g class="st20">
	<path class="st21" d="M342.6,219l-2.5-6.8h-17.7l-2.5,6.8h-9.2v-4.1l15.3-35.5h10.5l15.2,35.5v4.1H342.6L342.6,219z M331.3,186.8
		l-6.6,18.1h13.1L331.3,186.8z"/>
	<path class="st21" d="M355.4,219v-39.5h8.4v32.1h16.7v7.4H355.4z"/>
	<path class="st21" d="M386.4,219v-39.5h28v7.2h-19.6v8.6H414v7.2h-19.1v9.2h19.6v7.3H386.4z"/>
	<path class="st21" d="M446.8,219l-9.9-14.5l-10,14.5h-10v-4.1l14.3-16.2l-13.5-19.3v-4.1l10,4.1l9.1,13.5l8.9-13.5l10.1-4.1v4.1
		l-13.5,19.2l14.3,16.3v4.1H446.8z"/>
	<path class="st21" d="M471.6,219v-16.2l-15.2-23.3v-4.1l9.6,4.1l9.8,15.9l9.7-15.9l9.6-4.1v4.1L480,202.9V219H471.6z"/>
</g>
<g class="st22">
	<path class="st23" d="M342.6,215l-2.5-6.8h-17.7l-2.5,6.8h-9.2l15.3-39.5h10.5l15.2,39.5H342.6L342.6,215z M331.3,182.7l-6.6,18.1
		h13.1L331.3,182.7z"/>
	<path class="st23" d="M355.4,215v-39.5h8.4v32.1h16.7v7.4H355.4z"/>
	<path class="st23" d="M386.4,215v-39.5h28v7.2h-19.6v8.6H414v7.2h-19.1v9.2h19.6v7.3H386.4z"/>
	<path class="st23" d="M446.8,215l-9.9-14.5l-10,14.5h-10l14.3-20.3l-13.5-19.3h10l9.1,13.5l8.9-13.5h10.1l-13.5,19.2l14.3,20.3
		h-9.8V215z"/>
	<path class="st23" d="M471.6,215v-16.2l-15.2-23.3h9.6l9.8,15.9l9.7-15.9h9.6L480,198.8V215H471.6z"/>
</g>
<g class="st24">
	<path d="M364,219.1l-19-26.8v26.8h-8.5v-39.8h8.7l18.5,25.8v-25.8h8.5v39.8H364z"/>
	<path d="M380.1,219.1v-39.8h8.5v39.8H380.1z"/>
	<path d="M420.1,219.1L408,203.2l-3.1,3.7v12.2h-8.5v-39.8h8.5v17.8l14.1-17.8l10.4-3.9v3.9L413.7,198l16.9,17.3v3.9H420.1z"/>
	<path d="M458.1,219.1L446,203.2l-3.1,3.7v12.2h-8.5v-39.8h8.5v17.8l14.1-17.8l10.4-3.9v3.9L451.6,198l16.9,17.3v3.9H458.1z"/>
</g>
<g>
	<path class="st9" d="M364,215.2l-19-26.8v26.8h-8.5v-39.8h8.7l18.5,25.8v-25.8h8.5v39.8H364z"/>
	<path class="st9" d="M380.1,215.2v-39.8h8.5v39.8H380.1z"/>
	<path class="st9" d="M420.1,215.2L408,199.3l-3.1,3.7v12.2h-8.5v-39.8h8.5v17.8l14.1-17.8h10.4l-15.8,18.7l16.9,21.1H420.1z"/>
	<path class="st9" d="M458.1,215.2L446,199.3l-3.1,3.7v12.2h-8.5v-39.8h8.5v17.8l14.1-17.8h10.4l-15.8,18.7l16.9,21.1H458.1z"/>
</g>
</svg>
